<svg width="86" height="82" viewBox="0 0 86 82" fill="none" xmlns="http://www.w3.org/2000/svg">
<g filter="url(#filter0_d_1141_31)">
<rect width="78" height="78" rx="39" fill="#D0AD2A"/>
<g clip-path="url(#clip0_1141_31)">
<path d="M39.0026 42.6693C41.0276 42.6693 42.6693 41.0276 42.6693 39.0026C42.6693 36.9776 41.0276 35.3359 39.0026 35.3359C36.9776 35.3359 35.3359 36.9776 35.3359 39.0026C35.3359 41.0276 36.9776 42.6693 39.0026 42.6693Z" stroke="#161513" stroke-width="2.75" stroke-linecap="round" stroke-linejoin="round"/>
<path d="M57.3307 38.9974C52.4412 47.5536 46.3307 51.8307 38.9974 51.8307C31.6641 51.8307 25.5536 47.5536 20.6641 38.9974C25.5536 30.4412 31.6641 26.1641 38.9974 26.1641C46.3307 26.1641 52.4412 30.4412 57.3307 38.9974Z" stroke="#161513" stroke-width="2.75" stroke-linecap="round" stroke-linejoin="round"/>
</g>
</g>
<defs>
<filter id="filter0_d_1141_31" x="0" y="0" width="86" height="82" filterUnits="userSpaceOnUse" color-interpolation-filters="sRGB">
<feFlood flood-opacity="0" result="BackgroundImageFix"/>
<feColorMatrix in="SourceAlpha" type="matrix" values="0 0 0 0 0 0 0 0 0 0 0 0 0 0 0 0 0 0 127 0" result="hardAlpha"/>
<feOffset dx="8" dy="4"/>
<feComposite in2="hardAlpha" operator="out"/>
<feColorMatrix type="matrix" values="0 0 0 0 0.305882 0 0 0 0 0.121569 0 0 0 0 0.0588235 0 0 0 1 0"/>
<feBlend mode="normal" in2="BackgroundImageFix" result="effect1_dropShadow_1141_31"/>
<feBlend mode="normal" in="SourceGraphic" in2="effect1_dropShadow_1141_31" result="shape"/>
</filter>
<clipPath id="clip0_1141_31">
<rect width="44" height="44" fill="white" transform="translate(17 17)"/>
</clipPath>
</defs>
</svg>
