<svg width="250" height="129" viewBox="0 0 250 129" fill="none" xmlns="http://www.w3.org/2000/svg">
<path d="M238.83 89.5157C236.706 92.1235 236.439 83.045 236.566 79.6846C237.043 67.0264 239.315 54.5258 240.398 41.9258C240.648 39.0234 241.296 34.979 239.044 39.6399C234.21 49.643 231.008 60.427 226.668 70.6423C225.23 74.0269 222.969 82.9557 220.801 79.9853C216.467 74.0474 223.523 50.8322 224.541 45.9925C227.51 31.889 228.02 31.415 230.943 19.0341C231.264 17.6747 232.893 15.7929 231.794 14.9311C230.778 14.1342 230.726 17.2836 230.232 18.4766C229 21.4492 227.871 24.4642 226.615 27.4266C224.385 32.684 218.996 45.2965 215.753 50.3237C207.801 62.6542 209.156 43.1861 209.292 40.2717C209.734 30.8538 210.659 26.5836 211.808 17.6059C213.248 6.35905 209.756 14.9633 207.282 20.5785C202.61 31.1846 198.889 42.1986 194.087 52.7467C185.794 70.9632 187.048 61.7514 182.846 51.2343C179.523 42.9156 178.908 46.6244 173.993 50.1225C166.11 55.7335 173.148 36.8572 172.651 33.8581C171.693 28.0895 166.9 44.0683 164.603 49.4457C162.812 53.6367 161.303 57.9663 159.159 61.9875C154.872 70.0251 155.765 61.8224 156.115 58.2242C156.928 49.8472 159.047 40.8759 161.07 32.7457C161.765 29.9569 162.587 27.2015 163.368 24.4355C163.555 23.7721 167.019 13.9516 162.117 28.1995C157.427 41.8289 143.691 82.5743 146.092 68.3619C148.178 56.0123 162.455 21.0114 158.289 32.8229C152.922 48.0396 136.822 92.753 137.721 76.6426C138.441 63.7477 151.724 26.937 148.824 39.5222C147.312 46.0831 143.896 57.4281 141.945 63.3597C140.77 66.931 139.546 70.4906 138.142 73.9783C137.672 75.1459 136.394 78.5512 136.335 77.2939C136.223 74.889 137.31 72.5742 137.969 70.2587C140.869 60.0704 145.146 47.5691 148.655 37.779C150.443 32.7914 152.267 27.8146 154.235 22.8954C157.527 14.6695 157.339 16.8559 155.082 23.8383C151.629 34.5238 145.255 51.9443 141.426 61.9504C137.718 71.641 126.966 100.555 128.587 90.3065C129.496 84.5615 136.918 61.841 137.351 60.4809C139.704 53.0956 142.102 45.7244 144.53 38.3636C146.351 32.8459 148.187 27.3329 150.098 21.8459C150.85 19.685 150.842 16.9781 152.52 15.4228C157.176 11.1086 149.101 27.6529 147.121 33.6837C145.284 39.2813 140.817 61.0185 135.114 65.2353C131.681 67.7732 136.97 56.8904 138.262 52.822C140.424 46.0171 148.963 26.6001 144.859 32.4428C142.998 35.0929 128.313 65.4813 126.324 63.7035C121.994 59.8325 135.217 38.3314 129.937 36.0052C126.664 34.5633 124.171 40.472 122.245 43.4856C118.273 49.6996 110.645 70.3325 111.965 63.0768C113.852 52.7081 128.942 24.5195 124.113 33.887C122.331 37.3429 120.782 40.9139 119.139 44.4376C117.729 47.4598 113.928 60.0275 110.388 61.8526C108.122 63.0202 110.885 56.7594 111.521 54.2913C113.094 48.1824 115.803 42.0144 116.951 35.8204C119.039 24.5498 108.075 57.1322 101.603 66.5923C95.3086 75.7919 104.579 44.4389 107.438 33.665C108.441 29.8868 108.01 30.9062 106.582 34.2238C103.628 41.0836 101.33 48.5978 97.393 54.9878C95.158 58.6152 95.9389 54.0468 96.0737 52.9003C96.6421 48.0666 99.6062 41.597 98.9831 36.779C98.6335 34.0758 95.9124 41.293 94.5988 43.6813C89.8877 52.2465 85.7206 63.4347 78.9224 70.6243C73.464 76.3972 86.5857 40.5313 81.9493 46.9829C76.4539 54.6299 67.9906 81.367 68.7971 71.9849C69.0097 69.5112 72.4083 59.3409 72.6122 58.7051C73.5575 55.7584 74.6025 52.8434 75.5018 49.8824C75.7789 48.9701 78.3701 41.7157 75.1254 46.9483C71.5361 52.7367 68.7086 58.973 65.1519 64.7815C56.2323 79.3479 64.4342 56.2764 64.4658 56.1745C65.6538 52.3488 66.9949 48.572 68.1962 44.7504C68.7186 43.0884 70.748 41.0675 69.6361 39.7263C68.636 38.5198 68.1791 42.502 67.505 43.9167C65.0399 49.0907 64.119 55.5002 59.8309 59.3026C57.5855 61.2938 59.5904 53.2049 58.5462 50.3913C55.1532 41.2489 43.8652 63.5707 38.5527 71.7483C33.2702 79.8798 28.422 88.9037 20.2724 94.7148C17.3111 96.8264 9.61746 98.7576 9.98577 92.422C10.1799 89.0829 13.5976 78.4431 14.3391 75.9801C14.7688 74.5529 19.4288 61.8339 14.0853 71.7974C12.5697 74.6234 8.01772 83.63 7.5102 83.7187" stroke="#75321B" stroke-width="3" stroke-linecap="round"/>
</svg>
