<svg width="412" height="113" viewBox="0 0 412 113" fill="none" xmlns="http://www.w3.org/2000/svg">
<path opacity="0.6" d="M92.6844 110.782C95.2248 112.986 93.925 103.997 93.2217 100.708C90.5727 88.3214 86.1823 76.3985 82.9462 64.1732C82.2007 61.357 80.8652 57.4848 83.8864 61.6882C90.3707 70.7098 95.3813 80.7815 101.415 90.0971C103.414 93.1836 107.179 101.59 108.803 98.2906C112.05 91.6952 101.103 70.0413 99.2661 65.4492C93.9134 52.0675 93.3302 51.6883 88.319 39.9955C87.7688 38.7116 85.8399 37.1384 86.7743 36.1002C87.6383 35.1403 88.2309 38.2338 88.9235 39.3239C90.6489 42.0399 92.28 44.8156 94.0276 47.5174C97.1293 52.3125 104.609 63.8089 108.669 68.2028C118.625 78.9801 113.939 60.0359 113.303 57.1885C111.246 47.9874 109.6 43.94 106.922 35.2943C103.568 24.4633 108.489 32.3379 111.892 37.4434C118.321 47.0867 123.882 57.2957 130.429 66.8596C141.734 83.3763 138.913 74.5179 141.241 63.4344C143.083 54.6678 144.327 58.2154 149.771 60.8152C158.502 64.9852 148.319 47.6024 148.293 44.5624C148.243 38.7151 155.716 53.6302 158.904 58.5317C161.39 62.3519 163.621 66.3571 166.426 69.949C172.033 77.1285 169.741 69.2022 168.777 65.7179C166.533 57.606 162.902 49.1333 159.509 41.473C158.345 38.8453 157.06 36.2727 155.815 33.6824C155.516 33.0611 150.413 23.9837 157.696 37.1748C164.662 49.7932 185.208 87.5654 180.396 73.9786C176.214 62.1726 156.125 30.1522 162.262 41.07C170.169 55.1356 193.726 96.4096 190.067 80.6946C187.138 68.1161 167.716 34.1419 172.739 46.0399C175.358 52.2425 180.676 62.8301 183.619 68.3371C185.392 71.6529 187.21 74.9486 189.194 78.1425C189.858 79.2117 191.703 82.3461 191.544 81.0976C191.24 78.7093 189.771 76.6162 188.724 74.4487C184.113 64.9118 177.748 53.3335 172.605 44.2937C169.985 39.6884 167.332 35.0999 164.546 30.5931C159.887 23.0567 160.449 25.178 163.874 31.6676C169.116 41.599 178.394 57.662 183.888 66.8596C189.209 75.7671 204.779 102.398 201.417 92.582C199.532 87.0792 188.31 65.9756 187.649 64.7105C184.06 57.8405 180.429 50.9923 176.769 44.1594C174.026 39.0376 171.268 33.9229 168.441 28.8469C167.328 26.8478 166.87 24.1799 164.949 22.9368C159.62 19.4885 170.423 34.3956 173.411 39.9955C176.185 45.1931 184.327 65.8367 190.671 69.0087C194.489 70.9178 187.406 61.1079 185.433 57.3228C182.132 50.9917 170.377 33.3348 175.426 38.3836C177.716 40.6737 197.413 68.0801 199.066 65.9865C202.665 61.4278 185.938 42.5244 190.738 39.3239C193.714 37.34 197.187 42.7313 199.604 45.3683C204.586 50.8058 215.652 69.8172 213.103 62.8971C209.459 53.0081 189.742 27.8383 196.111 36.2345C198.461 39.3321 200.602 42.5831 202.827 45.7713C204.736 48.5058 210.644 60.2314 214.446 61.4196C216.879 62.1798 213.079 56.4881 212.028 54.1663C209.427 48.4194 205.696 42.81 203.499 36.9061C199.502 26.1633 215.911 56.3716 223.916 64.5761C231.7 72.5548 217.17 43.266 212.498 33.1452C210.86 29.596 211.46 30.526 213.439 33.5481C217.53 39.7969 221.086 46.8034 226.065 52.4201C228.891 55.6086 227.335 51.2429 227.005 50.1367C225.613 45.473 221.579 39.6103 221.364 34.757C221.243 32.034 225.166 38.675 226.871 40.8014C232.986 48.4277 239.017 58.7314 246.952 64.6433C253.322 69.3902 234.222 36.3189 239.9 41.876C246.63 48.4627 259.57 73.3436 257.16 64.2403C256.525 61.8402 251.426 52.4068 251.116 51.8157C249.677 49.0757 248.146 46.3842 246.75 43.6221C246.32 42.7712 242.519 36.0712 246.616 40.6671C251.148 45.7511 255.007 51.4076 259.511 56.5169C270.805 69.3303 258.753 48.0153 258.705 47.9204C256.876 44.3563 254.904 40.8667 253.063 37.3091C252.262 35.7618 249.915 34.1205 250.78 32.6079C251.557 31.2473 252.693 35.0913 253.6 36.3688C256.92 41.0411 258.93 47.1964 263.809 50.2038C266.364 51.7787 262.996 44.1558 263.54 41.2044C265.309 31.6144 280.271 51.6595 286.912 58.8004C293.516 65.901 299.845 73.9555 308.873 78.2768C312.154 79.847 320.065 80.4249 318.612 74.2472C317.846 70.9914 312.647 61.0989 311.493 58.8004C310.824 57.4684 304.044 45.7416 311.023 54.6364C313.002 57.1593 319.037 65.2477 319.552 65.2477" stroke="#75321B" stroke-width="3" stroke-linecap="round"/>
<path opacity="0.6" d="M12.6844 110.782C15.2248 112.986 13.925 103.997 13.2217 100.708C10.5727 88.3214 6.18231 76.3985 2.94619 64.1732C2.20073 61.357 0.865202 57.4848 3.88644 61.6882C10.3707 70.7098 15.3813 80.7815 21.4153 90.0971C23.4145 93.1836 27.1786 101.59 28.8029 98.2906C32.0499 91.6952 21.103 70.0413 19.2661 65.4492C13.9134 52.0675 13.3302 51.6883 8.31901 39.9955C7.76878 38.7116 5.83992 37.1384 6.77432 36.1002C7.63827 35.1403 8.23093 38.2338 8.92345 39.3239C10.6489 42.0399 12.28 44.8156 14.0276 47.5174C17.1293 52.3125 24.6092 63.8089 28.6686 68.2028C38.6253 78.9801 33.9391 60.0359 33.3026 57.1885C31.2459 47.9874 29.6003 43.94 26.9224 35.2943C23.5677 24.4633 28.4886 32.3379 31.8923 37.4434C38.3211 47.0867 43.8821 57.2957 50.4285 66.8596C61.7341 83.3763 58.9128 74.5179 61.2413 63.4344C63.083 54.6678 64.3273 58.2154 69.7707 60.8152C78.5017 64.9852 68.3191 47.6024 68.2931 44.5624C68.2432 38.7151 75.7157 53.6302 78.9045 58.5317C81.3898 62.3519 83.6213 66.3571 86.4264 69.949C92.0333 77.1285 89.7408 69.2022 88.777 65.7179C86.5333 57.606 82.9021 49.1333 79.5089 41.473C78.345 38.8453 77.0601 36.2727 75.8151 33.6824C75.5165 33.0611 70.413 23.9837 77.6956 37.1748C84.662 49.7932 105.208 87.5654 100.396 73.9786C96.2145 62.1726 76.1252 30.1522 82.2625 41.07C90.1691 55.1356 113.726 96.4096 110.067 80.6946C107.138 68.1161 87.7159 34.1419 92.7395 46.0399C95.3584 52.2425 100.676 62.8301 103.619 68.3371C105.392 71.6529 107.21 74.9486 109.194 78.1425C109.858 79.2117 111.703 82.3461 111.544 81.0976C111.24 78.7093 109.771 76.6162 108.724 74.4487C104.113 64.9118 97.7478 53.3335 92.6052 44.2937C89.9852 39.6884 87.332 35.0999 84.5459 30.5931C79.8871 23.0567 80.4492 25.178 83.8743 31.6676C89.1159 41.599 98.3939 57.662 103.888 66.8596C109.209 75.7671 124.779 102.398 121.417 92.582C119.532 87.0792 108.31 65.9756 107.649 64.7105C104.06 57.8405 100.429 50.9923 96.7691 44.1594C94.0259 39.0376 91.2684 33.9229 88.4412 28.8469C87.3278 26.8478 86.8701 24.1799 84.9489 22.9368C79.6198 19.4885 90.4226 34.3956 93.4111 39.9955C96.185 45.1931 104.327 65.8367 110.671 69.0087C114.489 70.9178 107.406 61.1079 105.433 57.3228C102.132 50.9917 90.3771 33.3348 95.4259 38.3836C97.716 40.6737 117.413 68.0801 119.066 65.9865C122.665 61.4278 105.938 42.5244 110.738 39.3239C113.714 37.34 117.187 42.7313 119.604 45.3683C124.586 50.8058 135.652 69.8172 133.103 62.8971C129.459 53.0081 109.742 27.8383 116.111 36.2345C118.461 39.3321 120.602 42.5831 122.827 45.7713C124.736 48.5058 130.644 60.2314 134.446 61.4196C136.879 62.1798 133.079 56.4881 132.028 54.1663C129.427 48.4194 125.696 42.81 123.499 36.9061C119.502 26.1633 135.911 56.3716 143.916 64.5761C151.7 72.5548 137.17 43.266 132.498 33.1452C130.86 29.596 131.46 30.526 133.439 33.5481C137.53 39.7969 141.086 46.8034 146.065 52.4201C148.891 55.6086 147.335 51.2429 147.005 50.1367C145.613 45.473 141.579 39.6103 141.364 34.757C141.243 32.034 145.166 38.675 146.871 40.8014C152.986 48.4277 159.017 58.7314 166.952 64.6433C173.322 69.3902 154.222 36.3189 159.9 41.876C166.63 48.4627 179.57 73.3436 177.16 64.2403C176.525 61.8402 171.426 52.4068 171.116 51.8157C169.677 49.0757 168.146 46.3842 166.75 43.6221C166.32 42.7712 162.519 36.0712 166.616 40.6671C171.148 45.7511 175.007 51.4076 179.511 56.5169C190.805 69.3303 178.753 48.0153 178.705 47.9204C176.876 44.3563 174.904 40.8667 173.063 37.3091C172.262 35.7618 169.915 34.1205 170.78 32.6079C171.557 31.2473 172.693 35.0913 173.6 36.3688C176.92 41.0411 178.93 47.1964 183.809 50.2038C186.364 51.7787 182.996 44.1558 183.54 41.2044C185.309 31.6144 200.271 51.6595 206.912 58.8004C213.516 65.901 219.845 73.9555 228.873 78.2768C232.154 79.847 240.065 80.4249 238.612 74.2472C237.846 70.9914 232.647 61.0989 231.493 58.8004C230.824 57.4684 224.044 45.7416 231.023 54.6364C233.002 57.1593 239.037 65.2477 239.552 65.2477" stroke="#75321B" stroke-width="3" stroke-linecap="round"/>
<path opacity="0.6" d="M398.867 2.76836C396.327 0.564982 397.627 9.55397 398.33 12.8424C400.979 25.2294 405.369 37.1522 408.606 49.3776C409.351 52.1938 410.687 56.066 407.665 51.8625C401.181 42.841 396.17 32.7693 390.136 23.4537C388.137 20.3672 384.373 11.9609 382.749 15.2602C379.502 21.8556 390.449 43.5095 392.286 48.1016C397.638 61.4833 398.222 61.8625 403.233 73.5553C403.783 74.8391 405.712 76.4123 404.777 77.4506C403.913 78.4105 403.321 75.317 402.628 74.2269C400.903 71.5109 399.272 68.7352 397.524 66.0333C394.422 61.2383 386.943 49.7419 382.883 45.348C372.926 34.5707 377.613 53.5149 378.249 56.3623C380.306 65.5634 381.951 69.6107 384.629 78.2565C387.984 89.0875 383.063 81.2129 379.659 76.1074C373.231 66.4641 367.67 56.2551 361.123 46.6912C349.818 30.1745 352.639 39.0328 350.31 50.1164C348.469 58.883 347.224 55.3354 341.781 52.7356C333.05 48.5656 343.233 65.9483 343.259 68.9884C343.309 74.8357 335.836 59.9206 332.647 55.0191C330.162 51.1989 327.93 47.1937 325.125 43.6018C319.518 36.4223 321.811 44.3486 322.775 47.8329C325.018 55.9448 328.65 64.4174 332.043 72.0778C333.207 74.7055 334.492 77.278 335.737 79.8684C336.035 80.4897 341.139 89.5671 333.856 76.376C326.89 63.7575 306.344 25.9854 311.156 39.5722C315.337 51.3782 335.427 83.3986 329.289 72.4807C321.383 58.4152 297.825 17.1412 301.485 32.8562C304.414 45.4346 323.836 79.4089 318.812 67.5109C316.193 61.3083 310.876 50.7207 307.932 45.2136C306.16 41.8979 304.342 38.6021 302.358 35.4083C301.694 34.339 299.848 31.2046 300.007 32.4532C300.311 34.8414 301.78 36.9346 302.828 39.1021C307.439 48.639 313.804 60.2173 318.947 69.257C321.567 73.8624 324.22 78.4509 327.006 82.9577C331.665 90.4941 331.103 88.3728 327.677 81.8832C322.436 71.9518 313.158 55.8888 307.664 46.6912C302.343 37.7837 286.773 11.1528 290.135 20.9688C292.019 26.4716 303.242 47.5752 303.903 48.8403C307.492 55.7102 311.123 62.5585 314.783 69.3913C317.526 74.5132 320.283 79.6279 323.111 84.7039C324.224 86.703 324.682 89.3709 326.603 90.614C331.932 94.0622 321.129 79.1552 318.141 73.5553C315.367 68.3577 307.224 47.714 300.88 44.542C297.062 42.633 304.145 52.4428 306.119 56.228C309.42 62.5591 321.175 80.216 316.126 75.1671C313.836 72.8771 294.138 45.4707 292.485 47.5643C288.886 52.1229 305.614 71.0264 300.813 74.2269C297.837 76.2108 294.364 70.8195 291.948 68.1825C286.966 62.745 275.899 43.7336 278.449 50.6537C282.092 60.5427 301.81 85.7125 295.441 77.3163C293.091 74.2187 290.95 70.9677 288.724 67.7795C286.816 65.045 280.908 53.3193 277.106 52.1312C274.673 51.371 278.473 57.0627 279.524 59.3845C282.125 65.1313 285.856 70.7408 288.053 76.6447C292.05 87.3875 275.641 57.1792 267.636 48.9746C259.852 40.996 274.382 70.2848 279.053 80.4056C280.691 83.9548 280.092 83.0248 278.113 80.0027C274.022 73.7539 270.466 66.7474 265.487 61.1306C262.661 57.9422 264.217 62.3079 264.547 63.4141C265.939 68.0778 269.973 73.9404 270.188 78.7938C270.309 81.5168 266.386 74.8758 264.681 72.7494C258.566 65.1231 252.535 54.8194 244.6 48.9075C238.229 44.1606 257.33 77.2319 251.652 71.6748C244.922 65.0881 231.982 40.2072 234.392 49.3105C235.027 51.7106 240.126 61.1439 240.436 61.7351C241.875 64.4751 243.406 67.1666 244.802 69.9286C245.232 70.7796 249.033 77.4796 244.936 72.8837C240.404 67.7997 236.545 62.1432 232.041 57.0339C220.747 44.2205 232.798 65.5355 232.847 65.6304C234.676 69.1944 236.647 72.684 238.489 76.2417C239.289 77.7889 241.636 79.4303 240.772 80.9429C239.995 82.3035 238.859 78.4595 237.951 77.1819C234.632 72.5097 232.622 66.3544 227.743 63.347C225.188 61.7721 228.556 69.395 228.012 72.3464C226.243 81.9364 211.281 61.8913 204.64 54.7504C198.036 47.6498 191.707 39.5953 182.678 35.274C179.398 33.7038 171.487 33.1259 172.94 39.3036C173.706 42.5593 178.905 52.4518 180.059 54.7504C180.728 56.0824 187.508 67.8092 180.529 58.9144C178.55 56.3915 172.515 48.303 172 48.303" stroke="#75321B" stroke-width="3" stroke-linecap="round"/>
</svg>
