<svg width="710" height="697" viewBox="0 0 710 697" fill="none" xmlns="http://www.w3.org/2000/svg">
<g opacity="0.5">
<path d="M709.665 348.5C709.665 540.829 551.029 696.75 355.333 696.75C159.637 696.75 1.00098 540.829 1.00098 348.5C1.00098 156.171 159.637 0.25 355.333 0.25C551.029 0.25 709.665 156.171 709.665 348.5Z" stroke="#EDB2AF" stroke-width="0.5"/>
<path d="M650.489 348.501C650.489 508.708 518.347 638.589 355.333 638.589C192.319 638.589 60.1777 508.708 60.1777 348.501C60.1777 188.293 192.319 58.4121 355.333 58.4121C518.347 58.4121 650.489 188.293 650.489 348.501Z" stroke="#EDB2AF" stroke-width="0.5"/>
<path d="M591.311 348.5C591.311 476.586 485.664 580.427 355.332 580.427C225.001 580.427 119.354 476.586 119.354 348.5C119.354 220.415 225.001 116.573 355.332 116.573C485.664 116.573 591.311 220.415 591.311 348.5Z" stroke="#EDB2AF" stroke-width="0.5"/>
<path d="M532.208 348.501C532.208 444.509 453.022 522.346 355.332 522.346C257.642 522.346 178.456 444.509 178.456 348.501C178.456 252.493 257.642 174.655 355.332 174.655C453.022 174.655 532.208 252.493 532.208 348.501Z" stroke="#EDB2AF" stroke-width="0.5"/>
<path d="M473.447 349.118C473.447 412.334 420.856 463.592 355.967 463.592C291.079 463.592 238.488 412.334 238.488 349.118C238.488 285.902 291.079 234.645 355.967 234.645C420.856 234.645 473.447 285.902 473.447 349.118Z" stroke="#EDB2AF" stroke-width="0.5"/>
</g>
</svg>
