<svg width="242" height="93" viewBox="0 0 242 93" fill="none" xmlns="http://www.w3.org/2000/svg">
<path d="M12.6844 90.7824C15.2248 92.9858 13.925 83.9968 13.2217 80.7084C10.5727 68.3214 6.18231 56.3985 2.94619 44.1732C2.20073 41.357 0.865202 37.4848 3.88644 41.6882C10.3707 50.7098 15.3813 60.7815 21.4153 70.0971C23.4145 73.1836 27.1786 81.5899 28.8029 78.2906C32.0499 71.6952 21.103 50.0413 19.2661 45.4492C13.9134 32.0675 13.3302 31.6883 8.31901 19.9955C7.76878 18.7116 5.83992 17.1384 6.77432 16.1002C7.63827 15.1403 8.23093 18.2338 8.92345 19.3239C10.6489 22.0399 12.28 24.8156 14.0276 27.5174C17.1293 32.3125 24.6092 43.8089 28.6686 48.2028C38.6253 58.9801 33.9391 40.0359 33.3026 37.1885C31.2459 27.9874 29.6003 23.94 26.9224 15.2943C23.5677 4.46327 28.4886 12.3379 31.8923 17.4434C38.3211 27.0867 43.8821 37.2957 50.4285 46.8596C61.7341 63.3763 58.9128 54.5179 61.2413 43.4344C63.083 34.6678 64.3273 38.2154 69.7707 40.8152C78.5017 44.9852 68.3191 27.6024 68.2931 24.5624C68.2432 18.7151 75.7157 33.6302 78.9045 38.5317C81.3898 42.3519 83.6213 46.3571 86.4264 49.949C92.0333 57.1285 89.7408 49.2022 88.777 45.7179C86.5333 37.606 82.9021 29.1333 79.5089 21.473C78.345 18.8453 77.0601 16.2727 75.8151 13.6824C75.5165 13.0611 70.413 3.98372 77.6956 17.1748C84.662 29.7932 105.208 67.5654 100.396 53.9786C96.2145 42.1726 76.1252 10.1522 82.2625 21.07C90.1691 35.1356 113.726 76.4096 110.067 60.6946C107.138 48.1161 87.7159 14.1419 92.7395 26.0399C95.3584 32.2425 100.676 42.8301 103.619 48.3371C105.392 51.6529 107.21 54.9486 109.194 58.1425C109.858 59.2117 111.703 62.3461 111.544 61.0976C111.24 58.7093 109.771 56.6162 108.724 54.4487C104.113 44.9118 97.7478 33.3335 92.6052 24.2937C89.9852 19.6884 87.332 15.0999 84.5459 10.5931C79.8871 3.05669 80.4492 5.17795 83.8743 11.6676C89.1159 21.599 98.3939 37.662 103.888 46.8596C109.209 55.7671 124.779 82.398 121.417 72.582C119.532 67.0792 108.31 45.9756 107.649 44.7105C104.06 37.8405 100.429 30.9923 96.7691 24.1594C94.0259 19.0376 91.2684 13.9229 88.4412 8.84687C87.3278 6.84776 86.8701 4.17989 84.9489 2.93678C79.6198 -0.511468 90.4226 14.3956 93.4111 19.9955C96.185 25.1931 104.327 45.8367 110.671 49.0087C114.489 50.9178 107.406 41.1079 105.433 37.3228C102.132 30.9917 90.3771 13.3348 95.4259 18.3836C97.716 20.6737 117.413 48.0801 119.066 45.9865C122.665 41.4278 105.938 22.5244 110.738 19.3239C113.714 17.34 117.187 22.7313 119.604 25.3683C124.586 30.8058 135.652 49.8172 133.103 42.8971C129.459 33.0081 109.742 7.83829 116.111 16.2345C118.461 19.3321 120.602 22.5831 122.827 25.7713C124.736 28.5058 130.644 40.2314 134.446 41.4196C136.879 42.1798 133.079 36.4881 132.028 34.1663C129.427 28.4194 125.696 22.81 123.499 16.9061C119.502 6.16332 135.911 36.3716 143.916 44.5761C151.7 52.5548 137.17 23.266 132.498 13.1452C130.86 9.59595 131.46 10.526 133.439 13.5481C137.53 19.7969 141.086 26.8034 146.065 32.4201C148.891 35.6086 147.335 31.2429 147.005 30.1367C145.613 25.473 141.579 19.6103 141.364 14.757C141.243 12.034 145.166 18.675 146.871 20.8014C152.986 28.4277 159.017 38.7314 166.952 44.6433C173.322 49.3902 154.222 16.3189 159.9 21.876C166.63 28.4627 179.57 53.3436 177.16 44.2403C176.525 41.8402 171.426 32.4068 171.116 31.8157C169.677 29.0757 168.146 26.3842 166.75 23.6221C166.32 22.7712 162.519 16.0712 166.616 20.6671C171.148 25.7511 175.007 31.4076 179.511 36.5169C190.805 49.3303 178.753 28.0153 178.705 27.9204C176.876 24.3563 174.904 20.8667 173.063 17.3091C172.262 15.7618 169.915 14.1205 170.78 12.6079C171.557 11.2473 172.693 15.0913 173.6 16.3688C176.92 21.0411 178.93 27.1964 183.809 30.2038C186.364 31.7787 182.996 24.1558 183.54 21.2044C185.309 11.6144 200.271 31.6595 206.912 38.8004C213.516 45.901 219.845 53.9555 228.873 58.2768C232.154 59.847 240.065 60.4249 238.612 54.2472C237.846 50.9914 232.647 41.0989 231.493 38.8004C230.824 37.4684 224.044 25.7416 231.023 34.6364C233.002 37.1593 239.037 45.2477 239.552 45.2477" stroke="#75321B" stroke-width="3" stroke-linecap="round"/>
</svg>
