<svg width="412" height="404" viewBox="0 0 412 404" fill="none" xmlns="http://www.w3.org/2000/svg">
<g opacity="0.5">
<path d="M411.657 202C411.657 313.479 319.707 403.855 206.276 403.855C92.8455 403.855 0.895883 313.479 0.895883 202C0.895883 90.5209 92.8455 0.144907 206.276 0.144907C319.707 0.144907 411.657 90.5209 411.657 202Z" stroke="#EDB2AF" stroke-width="0.289813"/>
<path d="M377.357 202C377.357 294.86 300.764 370.143 206.277 370.143C111.789 370.143 35.1967 294.86 35.1967 202C35.1967 109.139 111.789 33.8568 206.277 33.8568C300.764 33.8568 377.357 109.139 377.357 202Z" stroke="#EDB2AF" stroke-width="0.289813"/>
<path d="M343.056 202C343.056 276.242 281.82 336.431 206.276 336.431C130.732 336.431 69.4965 276.242 69.4965 202C69.4965 127.758 130.732 67.5687 206.276 67.5687C281.82 67.5687 343.056 127.758 343.056 202Z" stroke="#EDB2AF" stroke-width="0.289813"/>
<path d="M308.799 202C308.799 257.649 262.9 302.766 206.276 302.766C149.653 302.766 103.754 257.649 103.754 202C103.754 146.351 149.653 101.235 206.276 101.235C262.9 101.235 308.799 146.351 308.799 202Z" stroke="#EDB2AF" stroke-width="0.289813"/>
<path d="M274.738 202.358C274.738 239 244.255 268.71 206.644 268.71C169.033 268.71 138.55 239 138.55 202.358C138.55 165.717 169.033 136.006 206.644 136.006C244.255 136.006 274.738 165.717 274.738 202.358Z" stroke="#EDB2AF" stroke-width="0.289813"/>
</g>
</svg>
