<svg width="250" height="129" viewBox="0 0 250 129" fill="none" xmlns="http://www.w3.org/2000/svg">
<path d="M239.416 89.0157C237.293 91.6235 237.026 82.545 237.152 79.1846C237.629 66.5264 239.901 54.0258 240.984 41.4258C241.234 38.5234 241.883 34.479 239.63 39.1399C234.796 49.143 231.594 59.927 227.254 70.1423C225.816 73.5269 223.556 82.4557 221.388 79.4853C217.054 73.5474 224.109 50.3322 225.128 45.4925C228.097 31.389 228.606 30.915 231.529 18.5341C231.85 17.1747 233.48 15.2929 232.38 14.4311C231.364 13.6342 231.313 16.7836 230.818 17.9766C229.586 20.9492 228.457 23.9642 227.201 26.9266C224.971 32.184 219.582 44.7965 216.34 49.8237C208.387 62.1542 209.742 42.6861 209.879 39.7717C210.321 30.3538 211.245 26.0836 212.394 17.1059C213.834 5.85905 210.343 14.4633 207.869 20.0785C203.196 30.6846 199.476 41.6986 194.674 52.2467C186.38 70.4632 187.634 61.2514 183.433 50.7343C180.109 42.4156 179.494 46.1244 174.58 49.6225C166.697 55.2335 173.735 36.3572 173.237 33.3581C172.28 27.5895 167.486 43.5683 165.189 48.9457C163.399 53.1367 161.89 57.4663 159.745 61.4875C155.458 69.5251 156.352 61.3224 156.701 57.7242C157.515 49.3472 159.633 40.3759 161.657 32.2457C162.351 29.4569 163.174 26.7015 163.954 23.9355C164.141 23.2721 167.606 13.4516 162.703 27.6995C158.013 41.3289 144.277 82.0743 146.678 67.8619C148.764 55.5123 163.041 20.5114 158.875 32.3229C153.508 47.5396 137.408 92.253 138.308 76.1426C139.028 63.2477 152.31 26.437 149.41 39.0222C147.898 45.5831 144.483 56.9281 142.531 62.8597C141.356 66.431 140.132 69.9906 138.728 73.4783C138.258 74.6459 136.98 78.0512 136.922 76.7939C136.81 74.389 137.896 72.0742 138.555 69.7587C141.455 59.5704 145.732 47.0691 149.242 37.279C151.03 32.2914 152.853 27.3146 154.822 22.3954C158.114 14.1695 157.925 16.3559 155.668 23.3383C152.215 34.0238 145.841 51.4443 142.012 61.4504C138.304 71.141 127.552 100.055 129.174 89.8065C130.083 84.0615 137.504 61.341 137.937 59.9809C140.291 52.5956 142.688 45.2244 145.117 37.8636C146.937 32.3459 148.773 26.8329 150.684 21.3459C151.437 19.185 151.428 16.4781 153.107 14.9228C157.763 10.6086 149.688 27.1529 147.708 33.1837C145.87 38.7813 141.404 60.5185 135.7 64.7353C132.268 67.2732 137.556 56.3904 138.849 52.322C141.011 45.5171 149.55 26.1001 145.446 31.9428C143.584 34.5929 128.899 64.9813 126.91 63.2035C122.58 59.3325 135.804 37.8314 130.524 35.5052C127.251 34.0633 124.758 39.972 122.831 42.9856C118.86 49.1996 111.232 69.8325 112.552 62.5768C114.438 52.2081 129.528 24.0195 124.699 33.387C122.918 36.8429 121.369 40.4139 119.725 43.9376C118.316 46.9598 114.515 59.5275 110.974 61.3526C108.709 62.5202 111.471 56.2594 112.107 53.7913C113.68 47.6824 116.39 41.5144 117.537 35.3204C119.626 24.0498 108.662 56.6322 102.189 66.0923C95.895 75.2919 105.166 43.9389 108.025 33.165C109.027 29.3868 108.597 30.4062 107.168 33.7238C104.214 40.5836 101.917 48.0978 97.9794 54.4878C95.7444 58.1152 96.5253 53.5468 96.6601 52.4003C97.2286 47.5666 100.193 41.097 99.5696 36.279C99.22 33.5758 96.4989 40.793 95.1853 43.1813C90.4741 51.7465 86.307 62.9347 79.5088 70.1243C74.0504 75.8972 87.1721 40.0313 82.5357 46.4829C77.0403 54.1299 68.577 80.867 69.3835 71.4849C69.5961 69.0112 72.9947 58.8409 73.1986 58.2051C74.1439 55.2584 75.1889 52.3434 76.0883 49.3824C76.3653 48.4701 78.9565 41.2157 75.7118 46.4483C72.1225 52.2367 69.2951 58.473 65.7383 64.2815C56.8187 78.8479 65.0206 55.7764 65.0522 55.6745C66.2402 51.8488 67.5813 48.072 68.7826 44.2504C69.305 42.5884 71.3344 40.5675 70.2226 39.2263C69.2225 38.0198 68.7655 42.002 68.0914 43.4167C65.6263 48.5907 64.7055 55.0002 60.4174 58.8026C58.1719 60.7938 60.1769 52.7049 59.1326 49.8913C55.7396 40.7489 44.4516 63.0707 39.1392 71.2483C33.8566 79.3798 29.0085 88.4037 20.8588 94.2148C17.8975 96.3264 10.2039 98.2576 10.5722 91.922C10.7663 88.5829 14.184 77.9431 14.9255 75.4801C15.3552 74.0529 20.0152 61.3339 14.6718 71.2974C13.1562 74.1234 8.60415 83.13 8.09662 83.2187" stroke="#696969" stroke-width="3" stroke-linecap="round"/>
</svg>
