<svg width="108" height="92" viewBox="0 0 108 92" fill="none" xmlns="http://www.w3.org/2000/svg">
<mask id="path-1-outside-1_1148_8" maskUnits="userSpaceOnUse" x="0.746582" y="13.8477" width="102" height="70" fill="black">
<rect fill="white" x="0.746582" y="13.8477" width="102" height="70"/>
<path d="M9.10082 80.8477H2.48627L26.3167 15.9708H34.3811L58.4834 80.8477H51.6876L45.3449 63.6317H15.4435L9.10082 80.8477ZM29.4881 25.1224L17.437 57.9233H43.2609L31.1191 25.1224C30.8473 24.2163 30.3942 23.129 30.3036 22.4947C30.213 23.0384 29.8505 24.2163 29.4881 25.1224ZM78.5606 81.935C69.2277 81.935 63.7005 76.6796 63.7005 68.9777C63.7005 60.9134 69.862 55.8392 80.101 55.0238L94.5986 53.8458V52.3961C94.5986 43.7881 89.4338 41.0698 83.0005 41.0698C75.3892 41.0698 70.8587 44.513 70.8587 50.4026H65.1503C65.1503 41.5228 72.3991 35.8144 83.1817 35.8144C93.33 35.8144 100.76 40.8886 100.76 52.4867V80.8477H95.5047L94.6892 73.1458C91.9709 78.673 85.9906 81.935 78.5606 81.935ZM80.0104 76.8608C89.2526 76.8608 94.5986 70.4275 94.5986 60.9134V58.5576L81.6413 59.5543C73.3958 60.2791 70.0432 63.9036 70.0432 68.7965C70.0432 74.1425 74.0301 76.8608 80.0104 76.8608Z"/>
</mask>
<path d="M9.10082 80.8477V82.5256C9.80382 82.5256 10.4323 82.0874 10.6753 81.4277L9.10082 80.8477ZM2.48627 80.8477L0.911203 80.2691C0.72214 80.7838 0.796496 81.3584 1.11034 81.8081C1.42419 82.2577 1.93794 82.5256 2.48627 82.5256L2.48627 80.8477ZM26.3167 15.9708V14.2928C25.6132 14.2928 24.9843 14.7318 24.7417 15.3922L26.3167 15.9708ZM34.3811 15.9708L35.954 15.3864C35.7097 14.729 35.0824 14.2928 34.3811 14.2928V15.9708ZM58.4834 80.8477V82.5256C59.0328 82.5256 59.5474 82.2566 59.8611 81.8055C60.1747 81.3544 60.2476 80.7783 60.0563 80.2633L58.4834 80.8477ZM51.6876 80.8477L50.1131 81.4277C50.3561 82.0874 50.9846 82.5256 51.6876 82.5256V80.8477ZM45.3449 63.6317L46.9194 63.0516C46.6764 62.392 46.0479 61.9538 45.3449 61.9538V63.6317ZM15.4435 63.6317V61.9538C14.7405 61.9538 14.1121 62.392 13.869 63.0516L15.4435 63.6317ZM29.4881 25.1224L27.9302 24.4992C27.9243 24.514 27.9186 24.5288 27.9131 24.5437L29.4881 25.1224ZM17.437 57.9233L15.8619 57.3446C15.6728 57.8593 15.7471 58.434 16.061 58.8836C16.3748 59.3333 16.8886 59.6012 17.437 59.6012V57.9233ZM43.2609 57.9233V59.6012C43.8099 59.6012 44.3243 59.3326 44.638 58.882C44.9517 58.4313 45.0251 57.8557 44.8345 57.3408L43.2609 57.9233ZM31.1191 25.1224L29.5119 25.6046C29.522 25.6384 29.5332 25.6718 29.5455 25.7049L31.1191 25.1224ZM30.3036 22.4947L31.9647 22.2574C31.8477 21.4381 31.1507 20.8265 30.3231 20.8169C29.4955 20.8072 28.7845 21.4025 28.6485 22.2189L30.3036 22.4947ZM9.10082 79.1697H2.48627V82.5256H9.10082V79.1697ZM4.06134 81.4262L27.8918 16.5493L24.7417 15.3922L0.911203 80.2691L4.06134 81.4262ZM26.3167 17.6487H34.3811V14.2928H26.3167V17.6487ZM32.8081 16.5551L56.9104 81.432L60.0563 80.2633L35.954 15.3864L32.8081 16.5551ZM58.4834 79.1697H51.6876V82.5256H58.4834V79.1697ZM53.2621 80.2676L46.9194 63.0516L43.7704 64.2118L50.1131 81.4277L53.2621 80.2676ZM45.3449 61.9538H15.4435V65.3097H45.3449V61.9538ZM13.869 63.0516L7.52631 80.2676L10.6753 81.4277L17.018 64.2118L13.869 63.0516ZM27.9131 24.5437L15.8619 57.3446L19.012 58.502L31.0631 25.7011L27.9131 24.5437ZM17.437 59.6012H43.2609V56.2453H17.437V59.6012ZM44.8345 57.3408L32.6927 24.5399L29.5455 25.7049L41.6872 58.5058L44.8345 57.3408ZM32.7263 24.6402C32.5783 24.147 32.374 23.5823 32.2313 23.1644C32.0645 22.6759 31.9841 22.3931 31.9647 22.2574L28.6425 22.732C28.7137 23.2306 28.9051 23.8086 29.0554 24.2488C29.2299 24.7597 29.388 25.1917 29.5119 25.6046L32.7263 24.6402ZM28.6485 22.2189C28.5865 22.5906 28.2736 23.6407 27.9302 24.4992L31.0461 25.7456C31.4275 24.7919 31.8395 23.4862 31.9587 22.7706L28.6485 22.2189ZM80.101 55.0238L80.2342 56.6964L80.2369 56.6962L80.101 55.0238ZM94.5986 53.8458L94.7345 55.5183C95.6056 55.4475 96.2766 54.7199 96.2766 53.8458H94.5986ZM70.8587 50.4026V52.0806C71.7854 52.0806 72.5367 51.3294 72.5367 50.4026H70.8587ZM65.1503 50.4026H63.4723C63.4723 51.3294 64.2236 52.0806 65.1503 52.0806V50.4026ZM100.76 80.8477V82.5256C101.687 82.5256 102.438 81.7744 102.438 80.8477H100.76ZM95.5047 80.8477L93.8361 81.0243C93.9264 81.8779 94.6464 82.5256 95.5047 82.5256V80.8477ZM94.6892 73.1458L96.3578 72.9691C96.2792 72.2259 95.7185 71.6244 94.9827 71.4937C94.2468 71.363 93.5133 71.7347 93.1835 72.4053L94.6892 73.1458ZM94.5986 58.5576H96.2766C96.2766 58.0902 96.0816 57.644 95.7387 57.3264C95.3958 57.0088 94.9359 56.8487 94.4699 56.8845L94.5986 58.5576ZM81.6413 59.5543L81.5126 57.8812C81.5066 57.8817 81.5005 57.8822 81.4944 57.8827L81.6413 59.5543ZM78.5606 80.257C74.202 80.257 70.9196 79.0326 68.7486 77.0932C66.5959 75.17 65.3785 72.4061 65.3785 68.9777H62.0226C62.0226 73.2512 63.5688 76.9659 66.5129 79.5959C69.4387 82.2097 73.5863 83.6129 78.5606 83.6129V80.257ZM65.3785 68.9777C65.3785 65.4192 66.7164 62.6116 69.1429 60.5651C71.6144 58.4808 75.3408 57.0862 80.2342 56.6964L79.9677 53.3511C74.6222 53.7768 70.1484 55.3271 66.9793 57.9997C63.7654 60.7103 62.0226 64.4719 62.0226 68.9777H65.3785ZM80.2369 56.6962L94.7345 55.5183L94.4627 52.1734L79.9651 53.3513L80.2369 56.6962ZM96.2766 53.8458V52.3961H92.9206V53.8458H96.2766ZM96.2766 52.3961C96.2766 47.745 94.8668 44.378 92.2897 42.2187C89.7691 40.1069 86.4133 39.3918 83.0005 39.3918V42.7478C86.021 42.7478 88.4643 43.3918 90.1344 44.7911C91.748 46.143 92.9206 48.4392 92.9206 52.3961H96.2766ZM83.0005 39.3918C78.9698 39.3918 75.5284 40.3001 73.0548 42.1957C70.5229 44.1359 69.1808 46.9794 69.1808 50.4026H72.5367C72.5367 47.9362 73.4598 46.1133 75.096 44.8595C76.7904 43.561 79.42 42.7478 83.0005 42.7478V39.3918ZM70.8587 48.7247H65.1503V52.0806H70.8587V48.7247ZM66.8283 50.4026C66.8283 46.463 68.4162 43.3004 71.173 41.087C73.9646 38.8457 78.071 37.4924 83.1817 37.4924V34.1364C77.5099 34.1364 72.6005 35.6373 69.072 38.4702C65.5088 41.331 63.4723 45.4625 63.4723 50.4026H66.8283ZM83.1817 37.4924C88.0001 37.4924 91.951 38.6983 94.6755 41.0675C97.3608 43.4026 99.0821 47.0655 99.0821 52.4867H102.438C102.438 46.3098 100.444 41.6366 96.8776 38.535C93.35 35.4676 88.5117 34.1364 83.1817 34.1364V37.4924ZM99.0821 52.4867V80.8477H102.438V52.4867H99.0821ZM100.76 79.1697H95.5047V82.5256H100.76V79.1697ZM97.1733 80.671L96.3578 72.9691L93.0206 73.3225L93.8361 81.0243L97.1733 80.671ZM93.1835 72.4053C90.8115 77.2283 85.5104 80.257 78.5606 80.257V83.6129C86.4708 83.6129 93.1303 80.1177 96.1949 73.8863L93.1835 72.4053ZM80.0104 78.5388C85.0443 78.5388 89.1718 76.7724 92.0233 73.5709C94.853 70.3939 96.2766 65.974 96.2766 60.9134H92.9206C92.9206 65.3669 91.6712 68.9207 89.5173 71.3389C87.3853 73.7326 84.2187 75.1828 80.0104 75.1828V78.5388ZM96.2766 60.9134V58.5576H92.9206V60.9134H96.2766ZM94.4699 56.8845L81.5126 57.8812L81.77 61.2273L94.7273 60.2306L94.4699 56.8845ZM81.4944 57.8827C77.1782 58.2622 73.8892 59.4184 71.6557 61.3405C69.3675 63.3097 68.3653 65.9298 68.3653 68.7965H71.7212C71.7212 66.7703 72.3952 65.1317 73.8448 63.8842C75.3489 62.5897 77.859 61.5712 81.7883 61.2258L81.4944 57.8827ZM68.3653 68.7965C68.3653 71.9333 69.5605 74.4629 71.7582 76.1612C73.8944 77.8118 76.7956 78.5388 80.0104 78.5388V75.1828C77.2449 75.1828 75.1625 74.5506 73.8102 73.5057C72.5194 72.5082 71.7212 71.0057 71.7212 68.7965H68.3653Z" fill="white" mask="url(#path-1-outside-1_1148_8)"/>
</svg>
