<svg width="101" height="100" viewBox="0 0 101 100" fill="none" xmlns="http://www.w3.org/2000/svg">
<rect x="1" y="0.5" width="99" height="99" rx="49.5" fill="#FA0E0E"/>
<rect x="1" y="0.5" width="99" height="99" rx="49.5" stroke="#FFFBFB"/>
<path fill-rule="evenodd" clip-rule="evenodd" d="M54.2656 30C52.4409 30 50.9307 31.4492 50.9307 33.2031V40.2734L47.9137 43.6765C47.763 43.8475 47.6663 44.0563 47.6348 44.2783C47.6034 44.5004 47.6386 44.7264 47.7363 44.9299C47.834 45.1334 47.9901 45.3058 48.1863 45.4269C48.3824 45.548 48.6105 45.6128 48.8436 45.6135H54.2656H55.5039H67.6651C69.4898 45.6135 71 44.1712 71 42.4173V33.2031C71 31.4492 69.4898 30 67.6651 30H54.2656ZM54.2656 32.3529H67.6651C68.1767 32.3529 68.5496 32.7127 68.5496 33.2031V42.4173C68.5496 42.9077 68.1766 43.2606 67.6651 43.2606H55.5039H54.2656H51.4996L53.0822 41.4706C53.2732 41.2586 53.3792 40.9881 53.3811 40.7077V33.2031C53.3811 32.7127 53.754 32.3529 54.2656 32.3529ZM57.5814 34.4968C57.258 34.498 56.9483 34.6222 56.7198 34.8422C56.4914 35.0622 56.3628 35.3601 56.3622 35.671C56.3615 35.8255 56.3926 35.9786 56.4535 36.1215C56.5144 36.2645 56.6041 36.3945 56.7173 36.5042C56.8305 36.6139 56.9651 36.701 57.1134 36.7607C57.2616 36.8204 57.4207 36.8514 57.5814 36.852H64.5572C64.7188 36.8526 64.8789 36.8225 65.0282 36.7634C65.1776 36.7042 65.3133 36.6172 65.4275 36.5075C65.5418 36.3977 65.6323 36.2672 65.6938 36.1236C65.7553 35.9801 65.7867 35.8262 65.786 35.671C65.7857 35.5163 65.7537 35.3632 65.6917 35.2204C65.6298 35.0776 65.5391 34.948 65.425 34.8389C65.3109 34.7299 65.1755 34.6435 65.0266 34.5848C64.8777 34.5261 64.7182 34.4962 64.5572 34.4968H57.5814ZM39.0206 35.2022C35.7446 35.2836 33.1038 37.9143 33.1038 41.0983C33.1038 42.8952 33.9462 44.5144 35.2673 45.5997C32.7262 46.9361 31 49.5325 31 52.5092V55.9398C31.0013 56.2518 31.1315 56.5505 31.3619 56.7703C31.5923 56.9901 31.9042 57.1129 32.2288 57.1117H46.1255C46.4501 57.1129 46.7619 56.9901 46.9924 56.7703C47.2228 56.5505 47.353 56.2518 47.3543 55.9398V52.5092C47.3543 49.5325 45.6257 46.9361 43.0846 45.5997C44.4062 44.5144 45.2481 42.8955 45.2481 41.0983C45.2481 37.8637 42.524 35.2022 39.176 35.2022C39.1236 35.2022 39.0726 35.2009 39.0206 35.2022ZM39.0827 37.5551C39.1137 37.5544 39.1446 37.5551 39.176 37.5551C41.1843 37.5551 42.8002 39.1194 42.8002 41.0983C42.8002 43.0772 41.1843 44.6415 39.176 44.6415C37.1677 44.6415 35.5542 43.0772 35.5542 41.0983C35.5542 39.1504 37.1182 37.603 39.0827 37.5551ZM57.5814 38.7615C57.4207 38.7621 57.2616 38.7931 57.1134 38.8528C56.9651 38.9125 56.8305 38.9996 56.7173 39.1093C56.6041 39.219 56.5145 39.349 56.4535 39.492C56.3926 39.635 56.3616 39.7881 56.3622 39.9426C56.3635 40.253 56.4923 40.5503 56.7207 40.7699C56.9491 40.9894 57.2584 41.1132 57.5814 41.1144H64.5573C64.718 41.115 64.8773 41.0852 65.026 41.0266C65.1748 40.9681 65.3101 40.8819 65.4242 40.7731C65.5383 40.6643 65.629 40.5349 65.691 40.3924C65.7531 40.2499 65.7854 40.0971 65.786 39.9426C65.7867 39.7873 65.7553 39.6334 65.6938 39.4899C65.6323 39.3463 65.5418 39.2159 65.4275 39.1061C65.3133 38.9963 65.1776 38.9093 65.0282 38.8502C64.8789 38.791 64.7188 38.7609 64.5572 38.7615H57.5814ZM39.176 46.9945C42.3685 46.9945 44.9039 49.4322 44.9039 52.5092V54.7587H33.448V52.5092C33.448 49.4322 35.9835 46.9945 39.176 46.9945ZM57.646 48.0882C54.2979 48.0882 51.5738 50.7521 51.5738 53.9867C51.5738 55.7812 52.4119 57.3981 53.7301 58.4835C51.1916 59.8231 49.4676 62.4227 49.4676 65.3975V68.8189C49.4664 69.1309 49.5941 69.4307 49.8228 69.6521C50.0514 69.8736 50.3622 69.9988 50.6868 70H64.5931C64.9177 69.9988 65.2286 69.8736 65.4572 69.6521C65.6858 69.4307 65.8136 69.1309 65.8123 68.8189V65.3975C65.8123 62.4238 64.0937 59.8259 61.5594 58.4858C62.8783 57.4004 63.7158 55.7817 63.7158 53.9867C63.7158 50.7521 60.994 48.0882 57.646 48.0882ZM57.5503 50.4435C57.5813 50.4427 57.6146 50.4435 57.646 50.4435C59.6542 50.4435 61.2678 52.0078 61.2678 53.9867C61.2678 55.8958 59.7656 57.4179 57.8563 57.523C57.7863 57.5213 57.7164 57.5207 57.646 57.5207C57.5755 57.5207 57.5033 57.5213 57.4332 57.523C55.5237 57.4176 54.0122 55.8956 54.0122 53.9867C54.0122 52.0387 55.5856 50.4913 57.5503 50.4435ZM57.4165 59.8782C57.4922 59.881 57.5695 59.8827 57.646 59.8827C57.7224 59.8827 57.7973 59.8808 57.8731 59.8782C60.9574 59.9915 63.3739 62.3942 63.3739 65.3975V67.6471H51.9156V65.3975C51.9156 62.3942 54.3321 59.9915 57.4165 59.8782Z" fill="#FFFBFB"/>
</svg>
