<svg width="101" height="100" viewBox="0 0 101 100" fill="none" xmlns="http://www.w3.org/2000/svg">
<rect x="1" y="0.5" width="99" height="99" rx="49.5" fill="#FA0E0E"/>
<rect x="1" y="0.5" width="99" height="99" rx="49.5" stroke="#FFFBFB"/>
<path d="M60.0946 45.1515V31.2121C60.0946 30.8906 59.9669 30.5823 59.7396 30.355C59.5122 30.1277 59.2039 30 58.8823 30C58.5608 30 58.2525 30.1277 58.0251 30.355C57.7978 30.5823 57.6701 30.8906 57.6701 31.2121V45.1515C57.6701 45.473 57.7978 45.7813 58.0251 46.0086C58.2525 46.2359 58.5608 46.3636 58.8823 46.3636C59.2039 46.3636 59.5122 46.2359 59.7396 46.0086C59.9669 45.7813 60.0946 45.473 60.0946 45.1515Z" fill="#FFFBFB"/>
<path d="M37.6675 37.8788C37.6675 38.2003 37.7952 38.5086 38.0226 38.7359C38.2499 38.9632 38.5583 39.0909 38.8798 39.0909H51.1056L49.5418 40.6606C49.4149 40.7693 49.3118 40.903 49.239 41.0534C49.1663 41.2038 49.1254 41.3676 49.1189 41.5345C49.1125 41.7014 49.1406 41.8679 49.2015 42.0234C49.2625 42.179 49.3549 42.3203 49.4731 42.4384C49.5912 42.5565 49.7325 42.649 49.8881 42.7099C50.0436 42.7708 50.2101 42.799 50.3771 42.7925C50.544 42.7861 50.7079 42.7452 50.8583 42.6724C51.0087 42.5997 51.1424 42.4966 51.2511 42.3697L54.8879 38.7334C55.1137 38.5063 55.2404 38.199 55.2404 37.8788C55.2404 37.5586 55.1137 37.2514 54.8879 37.0243L51.2511 33.3879C51.0192 33.1893 50.7208 33.0856 50.4157 33.0973C50.1106 33.1091 49.8212 33.2356 49.6053 33.4515C49.3894 33.6673 49.2629 33.9567 49.2512 34.2618C49.2394 34.5668 49.3432 34.8651 49.5418 35.097L51.1056 36.6667H38.8798C38.5583 36.6667 38.2499 36.7944 38.0226 37.0217C37.7952 37.249 37.6675 37.5573 37.6675 37.8788Z" fill="#FFFBFB"/>
<path d="M31 50C31 50.3215 31.1277 50.6298 31.3551 50.8571C31.5824 51.0844 31.8908 51.2121 32.2123 51.2121H66.8652L65.3013 52.7818C65.1744 52.8905 65.0714 53.0242 64.9986 53.1746C64.9258 53.325 64.8849 53.4888 64.8785 53.6557C64.8721 53.8227 64.9002 53.9891 64.9611 54.1447C65.0221 54.3002 65.1145 54.4415 65.2327 54.5596C65.3508 54.6777 65.4921 54.7702 65.6477 54.8311C65.8032 54.892 65.9697 54.9202 66.1367 54.9137C66.3036 54.9073 66.4674 54.8664 66.6178 54.7936C66.7682 54.7209 66.902 54.6178 67.0107 54.4909L70.6475 50.8546C70.8733 50.6275 71 50.3203 71 50C71 49.6798 70.8733 49.3726 70.6475 49.1455L67.0107 45.5091C66.7787 45.3105 66.4804 45.2068 66.1753 45.2186C65.8702 45.2303 65.5808 45.3568 65.3649 45.5727C65.149 45.7886 65.0225 46.0779 65.0107 46.383C64.999 46.6881 65.1027 46.9863 65.3013 47.2182L66.8652 48.7879H32.2123C31.8908 48.7879 31.5824 48.9156 31.3551 49.1429C31.1277 49.3702 31 49.6786 31 50Z" fill="#FFFBFB"/>
<path d="M38.0226 62.9783C37.7952 62.751 37.6675 62.4427 37.6675 62.1212C37.6675 61.7998 37.7952 61.4915 38.0226 61.2641C38.2499 61.0368 38.5583 60.9091 38.8798 60.9091H51.1056L49.5418 59.3394C49.3432 59.1075 49.2394 58.8093 49.2512 58.5042C49.2629 58.1991 49.3894 57.9098 49.6053 57.6939C49.8212 57.478 50.1106 57.3516 50.4157 57.3398C50.7208 57.328 51.0192 57.4318 51.2511 57.6303L54.8879 61.2667C55.1137 61.4938 55.2404 61.801 55.2404 62.1212C55.2404 62.4415 55.1137 62.7487 54.8879 62.9758L51.2511 66.6122C51.1424 66.739 51.0087 66.8421 50.8583 66.9148C50.7079 66.9876 50.544 67.0285 50.3771 67.0349C50.2101 67.0414 50.0436 67.0133 49.8881 66.9523C49.7325 66.8914 49.5912 66.7989 49.4731 66.6808C49.3549 66.5627 49.2625 66.4214 49.2015 66.2659C49.1406 66.1103 49.1125 65.9439 49.1189 65.7769C49.1254 65.61 49.1663 65.4462 49.239 65.2958C49.3118 65.1454 49.4149 65.0117 49.5418 64.9031L51.1056 63.3334H38.8798C38.5583 63.3334 38.2499 63.2057 38.0226 62.9783Z" fill="#FFFBFB"/>
<path d="M60.0946 54.8485V68.7879C60.0946 69.1094 59.9669 69.4177 59.7396 69.645C59.5122 69.8723 59.2039 70 58.8823 70C58.5608 70 58.2525 69.8723 58.0251 69.645C57.7978 69.4177 57.6701 69.1094 57.6701 68.7879V54.8485C57.6701 54.527 57.7978 54.2187 58.0251 53.9914C58.2525 53.7641 58.5608 53.6364 58.8823 53.6364C59.2039 53.6364 59.5122 53.7641 59.7396 53.9914C59.9669 54.2187 60.0946 54.527 60.0946 54.8485Z" fill="#FFFBFB"/>
</svg>
