<svg width="101" height="100" viewBox="0 0 101 100" fill="none" xmlns="http://www.w3.org/2000/svg">
<rect x="1" y="0.5" width="99" height="99" rx="49.5" fill="#FA0E0E"/>
<rect x="1" y="0.5" width="99" height="99" rx="49.5" stroke="#FFFBFB"/>
<path d="M71 43.1348C71 47.5098 67.5491 51.0789 63.2208 51.2687L62.8582 51.2766L39.1418 51.2766C36.0553 51.2766 33.5532 53.7787 33.5532 56.8652C33.5532 59.8453 35.8857 62.2806 38.8247 62.4451L39.1418 62.4539L54.7447 62.4539C55.4497 62.4539 56.0213 63.0255 56.0213 63.7305C56.0213 64.3768 55.541 64.9109 54.9179 64.9954L54.7447 65.0071L39.1418 65.0071C34.6452 65.0071 31 61.3619 31 56.8652C31 52.4902 34.4508 48.9211 38.7792 48.7313L39.1418 48.7234L62.8582 48.7234C65.9447 48.7234 68.4468 46.2213 68.4468 43.1348C68.4468 40.1547 66.1143 37.7194 63.1753 37.5549L62.8582 37.5461L47.2553 37.5461C46.5503 37.5461 45.9787 36.9745 45.9787 36.2695C45.9787 35.6232 46.459 35.0891 47.0821 35.0046L47.2553 34.9929L62.8582 34.9929C67.3548 34.9929 71 38.6381 71 43.1348ZM43.539 36.2695C43.539 39.7321 40.7321 42.539 37.2695 42.539C33.8069 42.539 31 39.7321 31 36.2695C31 32.807 33.807 30 37.2695 30C40.7321 30 43.539 32.807 43.539 36.2695ZM40.9858 36.2695C40.9858 34.217 39.322 32.5532 37.2695 32.5532C35.217 32.5532 33.5532 34.217 33.5532 36.2695C33.5532 38.322 35.217 39.9858 37.2695 39.9858C39.322 39.9858 40.9858 38.322 40.9858 36.2695ZM71 63.7305C71 67.193 68.193 70 64.7305 70C61.2679 70 58.461 67.193 58.461 63.7305C58.461 60.2679 61.2679 57.461 64.7305 57.461C68.193 57.461 71 60.2679 71 63.7305ZM68.4468 63.7305C68.4468 61.678 66.783 60.0142 64.7305 60.0142C62.678 60.0142 61.0142 61.678 61.0142 63.7305C61.0142 65.783 62.678 67.4468 64.7305 67.4468C66.783 67.4468 68.4468 65.783 68.4468 63.7305Z" fill="#FFFBFB"/>
</svg>
