<svg width="101" height="100" viewBox="0 0 101 100" fill="none" xmlns="http://www.w3.org/2000/svg">
<rect x="1" y="0.5" width="99" height="99" rx="49.5" fill="#FA0E0E"/>
<rect x="1" y="0.5" width="99" height="99" rx="49.5" stroke="#FFFBFB"/>
<path d="M73.3074 54.2428L66.1832 50.9724C65.6389 46.2651 63.0168 42.2019 59.2568 39.7243V34.6206C59.2568 34.1746 59.0095 33.7782 58.5642 33.58L50.9947 30.1114C50.6979 29.9628 50.3516 29.9628 50.0547 30.1114L42.4358 33.6296C42.04 33.8278 41.7432 34.2242 41.7432 34.6701V39.7243C37.9832 42.2514 35.3611 46.3146 34.8168 51.0219L27.6926 54.2428C27.2968 54.441 27 54.8374 27 55.2833V65.3422C27 65.7881 27.2474 66.1845 27.6926 66.3827L35.3116 69.9008C35.46 69.9504 35.6084 70 35.8063 70C36.0042 70 36.1526 69.9504 36.3011 69.9008L42.98 66.8287C45.2063 68.0675 47.7789 68.8107 50.5 68.8107C53.2211 68.8107 55.7937 68.0675 58.02 66.8287L64.6989 69.9008C64.8474 69.9504 64.9958 70 65.1937 70C65.3421 70 65.54 69.9504 65.6884 69.9008L73.3074 66.3827C73.7032 66.1845 74 65.7881 74 65.3422V55.2833C74 54.8374 73.7526 54.3914 73.3074 54.2428ZM58.7126 57.0672L64.0558 59.4952V67.0269L58.7126 64.5989V57.0672ZM65.1937 57.5131L60.3453 55.2833L65.1937 53.0535L70.0916 55.2833L65.1937 57.5131ZM44.0189 36.454L49.3621 38.882V46.4137L44.0189 43.9857V36.454ZM51.6379 38.882L56.9811 36.454V43.9857L51.6379 46.4137V38.882ZM50.5 32.3908L55.3484 34.6206L50.5 36.8999L45.6516 34.6206L50.5 32.3908ZM36.9442 59.4952L42.2874 57.0672V64.5989L36.9442 67.0269V59.4952ZM35.8063 57.5131L30.9084 55.2833L35.8063 53.0535L40.6547 55.2833L35.8063 57.5131ZM29.3253 57.0672L34.6684 59.4952V67.0269L29.3253 64.5989V57.0672ZM44.5632 65.0449V55.2833C44.5632 54.8374 44.3158 54.441 43.8705 54.2428L37.0432 51.121C37.4884 47.702 39.1705 44.6794 41.6442 42.5983V44.729C41.6442 45.1749 41.8916 45.5713 42.3368 45.7695L50.0053 49.2381C50.1537 49.2877 50.3021 49.3372 50.5 49.3372C50.6979 49.3372 50.8463 49.2877 50.9947 49.2381L58.6137 45.72C59.0095 45.5218 59.3063 45.1254 59.3063 44.6794V42.5487C61.78 44.6794 63.4621 47.702 63.9074 51.0715L57.08 54.1932C56.6842 54.3914 56.3874 54.7878 56.3874 55.2338V65.0449C54.6063 65.9368 52.5779 66.4323 50.4505 66.4323C48.3726 66.4818 46.3937 65.9368 44.5632 65.0449ZM66.3811 67.0269V59.4952L71.7242 57.0672V64.5989L66.3811 67.0269Z" fill="#FFFBFB"/>
</svg>
