<svg width="101" height="100" viewBox="0 0 101 100" fill="none" xmlns="http://www.w3.org/2000/svg">
<rect x="1" y="0.5" width="99" height="99" rx="49.5" fill="#FA0E0E"/>
<rect x="1" y="0.5" width="99" height="99" rx="49.5" stroke="#FFFBFB"/>
<path fill-rule="evenodd" clip-rule="evenodd" d="M48.2433 42.32L57.1696 47.8779C57.9106 48.3158 58.3485 49.1242 58.3485 50.0337C58.3485 50.9095 57.9106 51.6842 57.1696 52.1558L48.2433 57.7137C47.8054 57.9495 47.3675 58.0842 46.8959 58.0842C46.4917 58.0842 46.0538 57.9832 45.6833 57.7811C44.9085 57.3432 44.4033 56.5011 44.4033 55.5916V44.4421C44.4033 43.5327 44.8749 42.6906 45.6833 42.2527C46.4917 41.8148 47.4685 41.8485 48.2433 42.32ZM55.6875 50L46.997 44.5769V55.4232L55.6875 50Z" fill="#FFFBFB"/>
<path fill-rule="evenodd" clip-rule="evenodd" d="M40.3021 30H60.6979C66.0874 30 70.5 34.4126 70.5 39.8021V60.1979C70.5 65.5874 66.1211 70 60.6979 70H40.3021C34.9126 70 30.5 65.6211 30.5 60.1979V39.8021C30.5 34.4126 34.8789 30 40.3021 30ZM60.6979 67.4063C64.6726 67.4063 67.9063 64.1726 67.9063 60.1979V39.8021C67.9063 35.8274 64.6726 32.5937 60.6979 32.5937H40.3021C36.3274 32.5937 33.0937 35.8274 33.0937 39.8021V60.1979C33.0937 64.1726 36.3274 67.4063 40.3021 67.4063H60.6979Z" fill="#FFFBFB"/>
</svg>
