<svg width="75" height="61" viewBox="0 0 75 61" fill="none" xmlns="http://www.w3.org/2000/svg">
<path d="M71.3597 28.6311C71.3553 28.5872 71.3666 28.5478 71.3601 28.5118C71.3535 28.4758 71.3212 28.441 71.3146 28.4049C71.2583 28.2182 71.1919 28.037 71.0829 27.8863C70.9873 27.748 70.8626 27.6525 70.73 27.5548C70.6743 27.5132 70.641 27.4525 70.583 27.4188L40.0171 8.07505C39.6182 7.8156 39.1415 7.73864 38.6876 7.84739C38.2338 7.95613 37.8408 8.23589 37.5915 8.63364L30.8074 19.4686C30.2897 20.3013 30.534 21.3951 31.3498 21.9106L38.5767 26.4826L21.8186 35.8994C21.2607 35.3981 20.5862 35.0085 19.8208 34.789C17.6415 34.1641 15.3834 35.0523 14.1253 36.8159L5.90024 34.4574L6.96268 30.7522C7.23168 29.8141 6.69328 28.8322 5.76376 28.5656C4.83425 28.2991 3.8573 28.8465 3.5883 29.7846L0.489135 40.5927C0.220134 41.5308 0.758537 42.5128 1.68805 42.7793C2.61757 43.0458 3.59452 42.4984 3.86352 41.5603L4.9237 37.863L13.1488 40.2215C13.2911 42.3782 14.7199 44.3235 16.8991 44.9484C19.6721 45.7435 22.5906 44.1148 23.3931 41.3162C23.6169 40.5357 23.6396 39.7488 23.5092 38.9948L41.9594 28.6299L51.1902 34.4676C51.3329 34.5597 51.4924 34.6225 51.6408 34.6651C51.9142 34.7435 52.2135 34.761 52.5142 34.6852L54.6593 34.1911C55.2219 35.2654 56.0386 36.1906 57.0763 36.8465C57.657 37.2092 58.2704 37.4875 58.9031 37.6689C60.0201 37.9892 61.2028 38.0212 62.3531 37.7538C64.1717 37.3369 65.7258 36.2212 66.7276 34.6145C67.3857 33.5576 67.727 32.3672 67.7791 31.1536L70.0159 30.6347C70.2428 30.5803 70.4554 30.4877 70.648 30.3467C70.8181 30.2248 70.946 30.0738 71.0627 29.9025C71.0773 29.8811 71.1075 29.8642 71.1221 29.8428C71.1244 29.8349 71.1244 29.8349 71.1267 29.827C71.2401 29.6377 71.3268 29.4237 71.3667 29.1962C71.4031 29.0104 71.3903 28.8191 71.3597 28.6311ZM17.8858 41.5372C16.9719 41.2751 16.4446 40.3134 16.709 39.3911C16.9735 38.4687 17.9303 37.9326 18.8442 38.1946C19.2894 38.3223 19.6358 38.6178 19.849 38.9946C19.8546 39.0048 19.8523 39.0126 19.8578 39.0228C19.8634 39.0329 19.8768 39.0452 19.8823 39.0554C20.0854 39.4378 20.1475 39.8993 20.0187 40.3486C19.7565 41.2631 18.7997 41.7992 17.8858 41.5372ZM55.3042 30.4089L55.2964 30.4067C55.2964 30.4067 55.2964 30.4067 55.2864 30.4123L52.4449 31.065L43.1371 25.1711C43.1104 25.1464 43.087 25.1396 43.058 25.1228L34.7088 19.8365L39.6174 12.0044L65.1109 28.1361L55.3042 30.4089ZM63.7572 32.7389C63.2564 33.5423 62.4782 34.1041 61.5828 34.308C60.6875 34.512 59.7598 34.3569 58.9573 33.8538C58.7143 33.6988 58.6011 33.5042 58.4319 33.3277L64.1093 32.0123C64.0259 32.2443 63.9122 32.4933 63.7572 32.7389Z" fill="url(#paint0_linear_1202_7)"/>
<defs>
<linearGradient id="paint0_linear_1202_7" x1="43.3699" y1="8.95821" x2="31.2419" y2="51.2537" gradientUnits="userSpaceOnUse">
<stop stop-color="#CBDAF1"/>
<stop offset="1" stop-color="#E5EFFE"/>
</linearGradient>
</defs>
</svg>
