<svg width="101" height="100" viewBox="0 0 101 100" fill="none" xmlns="http://www.w3.org/2000/svg">
<rect x="0.5" width="100" height="100" rx="50" fill="white"/>
<path d="M46.9016 47.5158H49.667C50.4044 47.5158 51.0003 48.1087 51.0003 48.8392C51.0003 49.5698 50.4044 50.1627 49.667 50.1627H46.9016C46.1643 50.1627 45.5683 49.5698 45.5683 48.8392C45.5683 48.1087 46.1643 47.5158 46.9016 47.5158Z" fill="#DC1933"/>
<path fill-rule="evenodd" clip-rule="evenodd" d="M18.9428 63.8309H14.9174C12.7561 63.8309 11 62.0853 11 59.9401V44.3105C11 44.2643 11.0086 44.2193 11.0172 44.1744C11.0241 44.1383 11.031 44.1023 11.0334 44.0657C11.0305 44.0412 11.0239 44.018 11.0173 43.9948C11.0086 43.9641 11 43.9335 11 43.9003C11 43.7004 11.052 43.5152 11.132 43.3445C11.2266 42.9765 11.364 42.6193 11.564 42.291L18.6094 30.8634C19.3055 29.7173 20.5841 29 21.9455 29H57.3328C58.3354 29 59.2901 29.3771 60.0221 30.0614L73.7811 42.9382C73.9717 43.1142 74.2064 43.2294 74.4557 43.2677L87.6666 45.2647C89.5639 45.5427 91 47.1982 91 49.1145V59.9401C91 62.0853 89.2426 63.8309 87.0812 63.8309H82.8705C82.2292 67.7416 78.8117 70.7391 74.693 70.7391C70.5743 70.7391 67.1582 67.7416 66.5169 63.8309H35.2964C34.6551 67.7416 31.2376 70.7391 27.1189 70.7391C23.0002 70.7391 19.5841 67.7416 18.9428 63.8309ZM21.4908 62.5075C21.4908 65.5871 24.0149 68.0923 27.1176 68.0923C30.2203 68.0923 32.7457 65.595 32.7457 62.5075C32.7457 59.42 30.2203 56.9094 27.1176 56.9094C24.0149 56.9094 21.4908 59.4279 21.4908 62.5075ZM69.0649 62.5075C69.0649 65.5871 71.589 68.0923 74.6917 68.0923C77.7945 68.0923 80.3198 65.595 80.3198 62.5075C80.3198 59.42 77.7945 56.9094 74.6917 56.9094C71.589 56.9094 69.0649 59.4279 69.0649 62.5075ZM88.3333 49.1145C88.3333 48.5005 87.8759 47.9712 87.2719 47.8825V47.8771L74.0517 45.8789C73.4557 45.7862 72.8957 45.5599 72.4024 45.2184H13.664V47.5106H16.4054C17.1428 47.5106 17.7388 48.1035 17.7388 48.834C17.7388 49.5645 17.1428 50.1574 16.4054 50.1574H13.664V59.9348C13.664 60.6203 14.2254 61.1788 14.9161 61.1788H18.9308C18.9337 61.1603 18.9389 61.1429 18.9441 61.1254C18.9485 61.1105 18.953 61.0954 18.9561 61.0795C19.0308 60.6574 19.1375 60.2471 19.2735 59.8488C19.289 59.8042 19.3057 59.7601 19.3224 59.7159C19.3314 59.6919 19.3405 59.6678 19.3495 59.6437C19.4988 59.2453 19.6722 58.8589 19.8788 58.4922C19.8974 58.4583 19.9188 58.4258 19.9395 58.3925C19.947 58.3804 19.9544 58.3683 19.9615 58.356C20.1842 57.9787 20.4308 57.6149 20.7082 57.2787L20.7111 57.2754C20.7137 57.272 20.7159 57.2684 20.7188 57.2654C20.9989 56.928 21.3108 56.6183 21.6415 56.3285C21.6571 56.3145 21.6722 56.3004 21.6873 56.2864C21.7125 56.2629 21.7376 56.2396 21.7642 56.2173C22.0842 55.9473 22.4282 55.7052 22.7869 55.4855C22.8496 55.4471 22.9108 55.41 22.9735 55.373C23.3335 55.1652 23.7109 54.9839 24.1029 54.8304C24.1709 54.8039 24.2389 54.7814 24.3069 54.7562C24.7109 54.6107 25.1256 54.4916 25.5562 54.4096C25.5831 54.4044 25.6095 54.4004 25.6361 54.3967C25.6636 54.3928 25.6911 54.3891 25.7189 54.3843C26.1749 54.3063 26.6416 54.2574 27.1189 54.2574C27.5963 54.2574 28.0629 54.3063 28.5189 54.3843C28.542 54.3884 28.5653 54.3917 28.5887 54.395C28.6193 54.3993 28.65 54.4036 28.6803 54.4096C29.111 54.4916 29.527 54.6107 29.931 54.7562C29.9566 54.7657 29.9822 54.7748 30.0077 54.7839C30.05 54.7989 30.092 54.8138 30.1336 54.8304C30.527 54.9839 30.9043 55.1652 31.2656 55.3743C31.327 55.41 31.387 55.4471 31.4483 55.4842C31.8097 55.7052 32.1537 55.9473 32.475 56.2187C32.4969 56.2368 32.5181 56.2565 32.5393 56.2763C32.5567 56.2927 32.5742 56.309 32.5923 56.3245C32.9243 56.6157 33.2391 56.9267 33.5204 57.2668L33.5244 57.272C33.8057 57.6122 34.0551 57.9787 34.279 58.3612C34.3016 58.4001 34.3263 58.4379 34.3493 58.4766L34.3577 58.4909C34.5657 58.8602 34.7404 59.248 34.8897 59.6489L34.907 59.6946C34.9264 59.746 34.9455 59.7966 34.963 59.8488C35.1004 60.2471 35.2057 60.6587 35.2804 61.0822C35.2831 61.0995 35.2881 61.1157 35.2931 61.132C35.2981 61.1482 35.303 61.1643 35.3057 61.1815H66.5063C66.5091 61.1629 66.5143 61.1454 66.5195 61.1279C66.524 61.113 66.5285 61.098 66.5316 61.0822C66.6062 60.66 66.7129 60.2497 66.8489 59.8514C66.8729 59.7826 66.8996 59.7151 66.9249 59.6463C67.0742 59.248 67.2476 58.8615 67.4543 58.4949C67.4682 58.4694 67.4838 58.4447 67.4995 58.4199C67.5122 58.3997 67.5249 58.3794 67.5369 58.3586C67.7596 57.9814 68.0063 57.6175 68.2836 57.2813C68.2856 57.2793 68.2873 57.277 68.289 57.2746C68.2906 57.2723 68.2923 57.27 68.2942 57.2681C68.5743 56.9306 68.8863 56.6209 69.2169 56.3311C69.2326 56.3171 69.2478 56.303 69.2629 56.2889C69.288 56.2655 69.313 56.2422 69.3397 56.22C69.6596 55.95 70.0036 55.7078 70.3623 55.4881C70.425 55.4498 70.4863 55.4127 70.549 55.3756C70.9089 55.1679 71.2863 54.9865 71.6783 54.8331C71.7464 54.8066 71.8143 54.784 71.8823 54.7589C72.2863 54.6133 72.701 54.4942 73.1317 54.4122C73.164 54.4059 73.1959 54.4016 73.2279 54.397C73.25 54.394 73.272 54.3908 73.2943 54.387C73.7504 54.309 74.217 54.26 74.6944 54.26C75.1717 54.26 75.6384 54.309 76.0944 54.387C76.1477 54.3963 76.2024 54.4016 76.2557 54.4122C76.6864 54.4942 77.1024 54.6133 77.5065 54.7589C77.5316 54.7682 77.5567 54.7772 77.5818 54.786C77.6245 54.8012 77.6671 54.8163 77.7091 54.8331C78.1024 54.9865 78.4798 55.1679 78.8411 55.3769C78.884 55.4019 78.9262 55.4276 78.9686 55.4533L79.0238 55.4868C79.3851 55.7078 79.7291 55.95 80.0504 56.2212C80.0741 56.2409 80.0969 56.2623 80.1198 56.2837C80.1356 56.2984 80.1514 56.3131 80.1678 56.3271C80.4998 56.6183 80.8145 56.9293 81.0958 57.2695L81.0998 57.2747C81.3811 57.6149 81.6305 57.9814 81.8545 58.3639C81.8798 58.4076 81.9078 58.4499 81.9331 58.4936C82.1411 58.8628 82.3159 59.2505 82.4652 59.6516L82.4813 59.6944C82.5012 59.7468 82.5206 59.7983 82.5385 59.8514C82.6758 60.2497 82.7812 60.6614 82.8558 61.0849C82.8585 61.102 82.8635 61.1181 82.8684 61.1343C82.8735 61.1505 82.8785 61.1668 82.8811 61.184H87.0812C87.7706 61.184 88.3333 60.6256 88.3333 59.9401V49.1145ZM32.875 31.6455L31.8017 42.5769H46.1099V31.6455H32.875ZM69.5089 42.5769L58.1914 31.9856C57.9528 31.7633 57.6568 31.6455 57.3328 31.6455H48.7767V42.5769H69.5089ZM21.9442 31.6455C21.5135 31.6455 21.1082 31.8718 20.8868 32.2358L14.5134 42.5769H29.1216L30.195 31.6455H21.9442Z" fill="#DC1933"/>
<path d="M74.8162 73.5C74.4002 73.5 74.0022 73.665 73.7003 73.9512C67.7851 79.5596 59.7939 83 50.9991 83C42.2044 83 34.2132 79.5596 28.2979 73.9512C27.9961 73.665 27.5981 73.5 27.1821 73.5V73.5C25.8275 73.5 25.1264 75.0684 26.1048 76.0053C32.5704 82.1964 41.3406 86 50.9991 86C60.6577 86 69.4279 82.1964 75.8935 76.0053C76.8719 75.0684 76.1708 73.5 74.8162 73.5V73.5Z" fill="black"/>
<path d="M28.2781 25.5C28.6726 25.5 29.0521 25.3524 29.3498 25.0934C35.1445 20.0522 42.7154 17 50.9991 17C65.7016 17 78.1584 26.6148 82.4248 39.8998C82.6326 40.5469 83.2261 41 83.9058 41V41C84.8982 41 85.6243 40.0622 85.3246 39.1161C80.7114 24.5539 67.0878 14 50.9991 14C41.8954 14 33.5809 17.3792 27.2416 22.9517C26.1963 23.8705 26.8863 25.5 28.2781 25.5V25.5Z" fill="black"/>
</svg>
