<svg width="50" height="140" viewBox="0 0 50 140" fill="none" xmlns="http://www.w3.org/2000/svg">
<path d="M8.95993 139.341C9.42464 139.64 10.0433 139.505 10.3417 139.04L15.2051 131.468C15.5036 131.003 15.3688 130.384 14.9041 130.086C14.4394 129.787 13.8207 129.922 13.5223 130.387L9.19927 137.118L2.46789 132.795C2.00319 132.497 1.38454 132.632 1.08609 133.096C0.787651 133.561 0.922432 134.18 1.38714 134.478L8.95993 139.341ZM10.072 136.393C9.95842 135.853 9.42818 135.507 8.88771 135.62C8.34723 135.734 8.00118 136.264 8.11479 136.805L10.072 136.393ZM6.62912 129.155C6.72581 129.699 7.24499 130.061 7.78875 129.965C8.3325 129.868 8.69492 129.349 8.59823 128.805L6.62912 129.155ZM7.95297 124.992C7.86543 124.447 7.35241 124.076 6.80711 124.163C6.26181 124.251 5.89071 124.764 5.97825 125.309L7.95297 124.992ZM4.87893 117.585C4.94669 118.133 5.44596 118.523 5.99407 118.455C6.54218 118.387 6.93158 117.888 6.86382 117.34L4.87893 117.585ZM6.4269 113.503C6.36979 112.953 5.87818 112.554 5.32886 112.611C4.77953 112.668 4.38051 113.16 4.43762 113.709L6.4269 113.503ZM3.7902 105.933C3.82436 106.484 4.29891 106.903 4.85014 106.869C5.40136 106.835 5.82053 106.36 5.78637 105.809L3.7902 105.933ZM5.59026 101.953C5.56842 101.401 5.10336 100.971 4.5515 100.993C3.99965 101.015 3.56999 101.48 3.59182 102.032L5.59026 101.953ZM3.46674 94.2207C3.4622 94.773 3.90622 95.2243 4.45849 95.2289C5.01076 95.2334 5.46214 94.7894 5.46668 94.2371L3.46674 94.2207ZM5.54711 90.3819C5.56571 89.8299 5.13332 89.3674 4.58135 89.3488C4.02938 89.3302 3.56684 89.7626 3.54824 90.3145L5.54711 90.3819ZM4.01986 82.5133C3.97144 83.0634 4.37818 83.5487 4.92834 83.5971C5.4785 83.6455 5.96374 83.2388 6.01216 82.6886L4.01986 82.5133ZM6.40468 78.8545C6.46884 78.3059 6.07617 77.8092 5.52762 77.7451C4.97908 77.6809 4.48238 78.0736 4.41822 78.6221L6.40468 78.8545ZM5.5585 70.8819C5.46139 71.4255 5.82341 71.945 6.36709 72.0421C6.91077 72.1392 7.43023 71.7772 7.52734 71.2335L5.5585 70.8819ZM8.2638 67.4546C8.37803 66.9142 8.0326 66.3836 7.49226 66.2694C6.95192 66.1551 6.42128 66.5006 6.30705 67.0409L8.2638 67.4546ZM8.17486 59.439C8.0254 59.9706 8.33525 60.5228 8.86693 60.6723C9.39861 60.8217 9.95078 60.5119 10.1002 59.9802L8.17486 59.439ZM11.2043 56.2934C11.3717 55.7671 11.0807 55.2047 10.5544 55.0373C10.0281 54.8699 9.46577 55.1608 9.29836 55.6871L11.2043 56.2934ZM11.9287 48.3113C11.7252 48.8247 11.9764 49.4059 12.4898 49.6094C13.0032 49.813 13.5844 49.5618 13.7879 49.0484L11.9287 48.3113ZM15.2678 45.4991C15.4893 44.9932 15.2588 44.4035 14.7529 44.182C14.247 43.9605 13.6573 44.191 13.4357 44.697L15.2678 45.4991ZM16.8298 37.6376C16.573 38.1266 16.7612 38.7311 17.2501 38.9879C17.7391 39.2448 18.3436 39.0566 18.6004 38.5677L16.8298 37.6376ZM20.4501 35.1928C20.7241 34.7132 20.5574 34.1024 20.0779 33.8284C19.5983 33.5545 18.9875 33.7211 18.7135 34.2007L20.4501 35.1928ZM22.8338 27.5418C22.527 28.001 22.6507 28.622 23.1099 28.9288C23.5692 29.2356 24.1901 29.1119 24.4969 28.6527L22.8338 27.5418ZM26.6869 25.4928C27.0092 25.0443 26.9069 24.4195 26.4584 24.0972C26.0099 23.7749 25.3851 23.8772 25.0628 24.3257L26.6869 25.4928ZM29.8439 18.1219C29.4925 18.548 29.5531 19.1782 29.9791 19.5296C30.4052 19.881 31.0355 19.8205 31.3869 19.3944L29.8439 18.1219ZM33.8869 16.4608C34.2518 16.0462 34.2115 15.4143 33.7969 15.0494C33.3824 14.6845 32.7505 14.7248 32.3856 15.1394L33.8869 16.4608ZM37.7269 9.43734C37.3373 9.82875 37.3387 10.4619 37.7301 10.8516C38.1215 11.2412 38.7547 11.2398 39.1443 10.8484L37.7269 9.43734ZM41.9056 8.15527C42.3065 7.77546 42.3237 7.14253 41.9439 6.74157C41.5641 6.34061 40.9312 6.32346 40.5302 6.70326L41.9056 8.15527ZM46.3519 1.49147C45.9305 1.8484 45.8782 2.4794 46.2351 2.90085C46.5921 3.3223 47.2231 3.3746 47.6445 3.01766L46.3519 1.49147ZM10.4774 138.287C10.3398 137.656 10.2047 137.024 10.072 136.393L8.11479 136.805C8.24845 137.441 8.38462 138.077 8.52323 138.713L10.4774 138.287ZM8.59823 128.805C8.37201 127.533 8.15678 126.262 7.95297 124.992L5.97825 125.309C6.18388 126.59 6.40098 127.872 6.62912 129.155L8.59823 128.805ZM6.86382 117.34C6.70545 116.059 6.55967 114.78 6.4269 113.503L4.43762 113.709C4.57176 115 4.71901 116.292 4.87893 117.585L6.86382 117.34ZM5.78637 105.809C5.70654 104.521 5.64103 103.236 5.59026 101.953L3.59182 102.032C3.64319 103.33 3.70947 104.63 3.7902 105.933L5.78637 105.809ZM5.46668 94.2371C5.47727 92.9488 5.50392 91.6637 5.54711 90.3819L3.54824 90.3145C3.50448 91.6136 3.47747 92.9157 3.46674 94.2207L5.46668 94.2371ZM6.01216 82.6886C6.12499 81.4067 6.25567 80.1285 6.40468 78.8545L4.41822 78.6221C4.26695 79.9155 4.13433 81.2126 4.01986 82.5133L6.01216 82.6886ZM7.52734 71.2335C7.75315 69.9693 7.99848 68.7096 8.2638 67.4546L6.30705 67.0409C6.03731 68.3168 5.78796 69.5972 5.5585 70.8819L7.52734 71.2335ZM10.1002 59.9802C10.4471 58.7461 10.815 57.5171 11.2043 56.2934L9.29836 55.6871C8.90216 56.9327 8.52783 58.1833 8.17486 59.439L10.1002 59.9802ZM13.7879 49.0484C14.2591 47.8597 14.7523 46.6766 15.2678 45.4991L13.4357 44.697C12.9107 45.8961 12.4085 47.1009 11.9287 48.3113L13.7879 49.0484ZM18.6004 38.5677C19.1944 37.4368 19.8108 36.3118 20.4501 35.1928L18.7135 34.2007C18.0625 35.3402 17.4348 36.4859 16.8298 37.6376L18.6004 38.5677ZM24.4969 28.6527C25.2045 27.5934 25.9343 26.5401 26.6869 25.4928L25.0628 24.3257C24.2969 25.3914 23.5541 26.4635 22.8338 27.5418L24.4969 28.6527ZM31.3869 19.3944C32.1983 18.4105 33.0315 17.4326 33.8869 16.4608L32.3856 15.1394C31.5161 16.1272 30.669 17.1214 29.8439 18.1219L31.3869 19.3944ZM39.1443 10.8484C40.0438 9.94481 40.9641 9.04707 41.9056 8.15527L40.5302 6.70326C39.5746 7.60841 38.6403 8.51981 37.7269 9.43734L39.1443 10.8484ZM47.6445 3.01766C48.1366 2.6009 48.6337 2.18557 49.1359 1.77168L47.8639 0.22832C47.3548 0.647856 46.8509 1.06891 46.3519 1.49147L47.6445 3.01766Z" fill="black"/>
</svg>
