<svg width="121" height="120" viewBox="0 0 121 120" fill="none" xmlns="http://www.w3.org/2000/svg">
<rect x="0.5" width="120" height="120" rx="24" fill="#F5F9FF"/>
<path d="M50.7143 70.2857H62.7143C63.6571 70.2857 64.4286 69.5143 64.4286 68.5714V61.7143C64.4286 60.7714 63.6571 60 62.7143 60H50.7143C49.7714 60 49 60.7714 49 61.7143V68.5714C49 69.5143 49.7714 70.2857 50.7143 70.2857ZM52.4286 63.4286H61V66.8571H52.4286V63.4286ZM49 41.1429H57.5714V44.5714H49V41.1429ZM83.2857 53.1429H74.7143C73.7714 53.1429 73 53.9143 73 54.8571V61.7143H69.5714V54.8571C69.5714 53.9143 68.8 53.1429 67.8571 53.1429H45.5714H40.4286V44.5714H43.8571V48C43.8571 48.9429 44.6286 49.7143 45.5714 49.7143H61C61.9429 49.7143 62.7143 48.9429 62.7143 48V37.7143C62.7143 36.7714 61.9429 36 61 36H45.5714C44.6286 36 43.8571 36.7714 43.8571 37.7143V41.1429H38.7143C37.7714 41.1429 37 41.9143 37 42.8571V54.8571V63.4286C37 64.3714 37.7714 65.1429 38.7143 65.1429H43.8571V82.2857C43.8571 83.2286 44.6286 84 45.5714 84H67.8571C68.8 84 69.5714 83.2286 69.5714 82.2857V65.1429H73V72C73 72.9429 73.7714 73.7143 74.7143 73.7143H83.2857C84.2286 73.7143 85 72.9429 85 72V54.8571C85 53.9143 84.2286 53.1429 83.2857 53.1429ZM47.2857 39.4286H59.2857V46.2857H47.2857V39.4286ZM40.4286 61.7143V56.5714H43.8571V61.7143H40.4286ZM66.1429 80.5714H47.2857V63.4286V56.5714H66.1429V80.5714ZM76.4286 70.2857V68.5714H78.1429V65.1429H76.4286V61.7143H78.1429V58.2857H76.4286V56.5714H81.5714V61.7143H79.8571V65.1429H81.5714V70.2857H76.4286Z" fill="#96A4BA"/>
</svg>
