<svg width="121" height="120" viewBox="0 0 121 120" fill="none" xmlns="http://www.w3.org/2000/svg">
<rect x="0.5" width="120" height="120" rx="24" fill="#F5F9FF"/>
<path fill-rule="evenodd" clip-rule="evenodd" d="M57.9274 51.5274L60.4726 54.0726L49.6726 64.8726L47.1274 62.3274L57.9274 51.5274ZM51.4726 52.2726L46.0726 57.6726L43.5274 55.1274L48.9274 49.7274L51.4726 52.2726ZM61 74.4C51.0784 74.4 41.5258 72.8556 37.6 71.403C37.6 69.8928 37.708 68.3682 37.9222 66.8742L40.9606 45.6C42.1774 45.6 43.3834 45.6882 44.5462 45.8646C47.6224 46.3254 55.3822 47.4 61 47.4C66.6178 47.4 74.3776 46.3254 77.4538 45.8646C78.6407 45.6868 79.8393 45.5984 81.0394 45.6L84.0778 66.8742C84.292 68.3682 84.4 69.8928 84.427 71.3994C80.4742 72.8556 70.9216 74.4 61 74.4ZM87.6418 66.3648L84.6016 45.0906C84.4762 44.2343 84.0477 43.4514 83.394 42.8843C82.7403 42.3171 81.9048 42.0034 81.0394 42C79.6444 42 78.2566 42.1026 76.9192 42.3024C73.9222 42.7524 66.3748 43.8 61 43.8C55.6252 43.8 48.0778 42.7524 45.0808 42.3024C43.7167 42.1003 42.3396 41.9992 40.9606 42C39.1804 42 37.6486 43.3284 37.3984 45.0906L34.3582 66.3648C34.1201 68.0337 34.0004 69.7173 34 71.403C34 72.906 34.936 74.2614 36.3292 74.778C40.6798 76.38 50.551 78 61 78C71.449 78 81.3202 76.38 85.6744 74.7762C86.359 74.5171 86.9484 74.0554 87.3639 73.4527C87.7794 72.85 88.0013 72.135 88 71.403C88 69.7218 87.8794 68.028 87.6418 66.3648Z" fill="#96A4BA"/>
</svg>
