<svg width="121" height="120" viewBox="0 0 121 120" fill="none" xmlns="http://www.w3.org/2000/svg">
<rect x="0.5" width="120" height="120" rx="24" fill="#F5F9FF"/>
<path d="M73.2581 65.8065C73.2581 66.8754 72.3915 67.7419 71.3226 67.7419C70.2536 67.7419 69.3871 66.8754 69.3871 65.8065C69.3871 64.7375 70.2536 63.871 71.3226 63.871C72.3915 63.871 73.2581 64.7375 73.2581 65.8065Z" fill="#96A4BA"/>
<path fill-rule="evenodd" clip-rule="evenodd" d="M57.6194 40H81V80H51.3226V78.0645C51.3226 75.8401 50.4389 73.7068 48.8661 72.1339C47.2932 70.5611 45.1599 69.6774 42.9355 69.6774H41V56.6194L57.6194 40ZM77.129 43.871H59.2194L47.6065 55.4839H77.129V43.871ZM51.6023 69.3977C53.4282 71.2235 54.6308 73.5793 55.0387 76.129H77.129V59.3548H44.871V65.9613C47.4207 66.3692 49.7765 67.5718 51.6023 69.3977Z" fill="#96A4BA"/>
</svg>
