<svg width="121" height="120" viewBox="0 0 121 120" fill="none" xmlns="http://www.w3.org/2000/svg">
<rect x="0.5" width="120" height="120" rx="24" fill="#F5F9FF"/>
<path d="M62.4865 64.5984C62.8513 64.0464 62.8853 63.3366 62.5752 62.751C62.2638 62.1654 61.6585 61.8 61.0002 61.8H57.1942L58.9138 59.1984C59.4603 58.3716 59.2388 57.2532 58.4186 56.7024C57.5966 56.1498 56.4888 56.3736 55.9424 57.2016L52.371 62.6016C52.0061 63.1536 51.9722 63.8634 52.2823 64.449C52.5936 65.0346 53.199 65.4 53.8573 65.4H57.6632L55.9436 68.0016C55.3972 68.8284 55.6186 69.9468 56.4388 70.4976C57.2567 71.0478 58.3668 70.8264 58.915 69.9984L62.4865 64.5984Z" fill="#96A4BA"/>
<path fill-rule="evenodd" clip-rule="evenodd" d="M77.0714 49.2H80.6429C83.597 49.2 86 51.6222 86 54.6V70.8C86 73.7778 83.597 76.2 80.6429 76.2H77.0714C76.0851 76.2 75.2857 75.3942 75.2857 74.4V69H71.7143V74.4C71.7143 76.3854 70.1125 78 68.1429 78H52.6667C51.8976 78 51.1369 77.7444 50.5226 77.2788L44.5708 72.7794C43.6774 72.1044 43.1429 71.0274 43.1429 69.9V63.6H39.5714V70.8C39.5714 71.7942 38.772 72.6 37.7857 72.6C36.7994 72.6 36 71.7942 36 70.8V52.8C36 51.8058 36.7994 51 37.7857 51C38.772 51 39.5714 51.8058 39.5714 52.8V60H43.1429V52.8C43.1429 50.8146 44.7446 49.2 46.7143 49.2H55.6429V45.6H48.5C47.5137 45.6 46.7143 44.7942 46.7143 43.8C46.7143 42.8058 47.5137 42 48.5 42H66.3571C67.3435 42 68.1429 42.8058 68.1429 43.8C68.1429 44.7942 67.3435 45.6 66.3571 45.6H59.2143V49.2H68.1429C70.1125 49.2 71.7143 50.8146 71.7143 52.8V56.4H75.2857V51C75.2857 50.0058 76.0851 49.2 77.0714 49.2ZM80.6429 72.6C81.6274 72.6 82.4286 71.7924 82.4286 70.8V54.6C82.4286 53.6076 81.6274 52.8 80.6429 52.8H78.8571V58.2C78.8571 59.1942 78.0577 60 77.0714 60H69.9286C68.9423 60 68.1429 59.1942 68.1429 58.2V52.8H46.7143V69.9L52.6667 74.4H68.1429V67.2C68.1429 66.2058 68.9423 65.4 69.9286 65.4H77.0714C78.0577 65.4 78.8571 66.2058 78.8571 67.2V72.6H80.6429Z" fill="#96A4BA"/>
</svg>
