<svg width="121" height="120" viewBox="0 0 121 120" fill="none" xmlns="http://www.w3.org/2000/svg">
<rect x="0.5" width="120" height="120" rx="24" fill="#F5F9FF"/>
<path d="M73.7514 43.8384C74.5033 44.3026 74.7366 45.2884 74.2724 46.0404L73.4677 47.3441C74.8613 47.3632 75.7087 48.8977 74.973 50.0894L73.028 53.2404C72.5638 53.9923 71.578 54.2256 70.8261 53.7614C70.0741 53.2973 69.8408 52.3114 70.305 51.5595L70.932 50.5438C69.5383 50.5246 68.691 48.9902 69.4266 47.7984L71.5494 44.3595C72.0136 43.6076 72.9994 43.3743 73.7514 43.8384Z" fill="#96A4BA"/>
<path fill-rule="evenodd" clip-rule="evenodd" d="M79.8176 53.209C80.5828 55.3292 81 57.6159 81 60C81 71.0457 72.0457 80 61 80C49.9543 80 41 71.0457 41 60C41 48.9543 49.9543 40 61 40C63.3841 40 65.6708 40.4172 67.791 41.1825C69.0874 40.4305 70.5934 40 72.2 40C77.06 40 81 43.9399 81 48.8C81 50.4066 80.5696 51.9126 79.8176 53.209ZM77.8 60C77.8 69.2784 70.2784 76.8 61 76.8C51.7216 76.8 44.2 69.2784 44.2 60C44.2 50.7216 51.7216 43.2 61 43.2C62.3914 43.2 63.7433 43.3692 65.0362 43.688C64.4049 44.5712 63.9328 45.5759 63.6619 46.6604C62.8011 46.4896 61.911 46.4 61 46.4C53.4889 46.4 47.4 52.4889 47.4 60C47.4 67.5111 53.4889 73.6 61 73.6C68.5111 73.6 74.6 67.5111 74.6 60C74.6 59.089 74.5104 58.1989 74.3396 57.3381C75.4241 57.0672 76.4288 56.5951 77.312 55.9638C77.6308 57.2567 77.8 58.6086 77.8 60ZM63.4674 49.8944C63.1827 49.8252 62.8934 49.7676 62.6 49.7223V54.6319C63.4518 54.8854 64.2186 55.3361 64.8476 55.9311L66.1426 55.1834C64.7025 53.8164 63.7245 51.9672 63.4674 49.8944ZM69.2404 57.0899L66.4487 58.7017C66.5476 59.1184 66.6 59.5531 66.6 60C66.6 60.4469 66.5476 60.8816 66.4487 61.2983L70.7019 63.7539C71.1527 62.5894 71.4 61.3236 71.4 60C71.4 59.1498 71.298 58.3235 71.1056 57.5326C70.4595 57.4525 69.8352 57.3023 69.2404 57.0899ZM64.8476 64.0689C64.2186 64.6639 63.4518 65.1146 62.6 65.3681V70.2777C65.216 69.8737 67.5102 68.4949 69.0998 66.5239L64.8476 64.0689ZM59.4 65.3681C58.5482 65.1146 57.7814 64.6639 57.1524 64.0689L52.9002 66.5239C54.4898 68.4949 56.784 69.8737 59.4 70.2777V65.3681ZM55.4 60C55.4 59.5531 55.4524 59.1184 55.5513 58.7017L51.2981 56.2461C50.8472 57.4106 50.6 58.6764 50.6 60C50.6 61.3236 50.8473 62.5894 51.2981 63.7539L55.5513 61.2983C55.4524 60.8816 55.4 60.4469 55.4 60ZM57.1524 55.9311C57.7814 55.3361 58.5482 54.8854 59.4 54.6319V49.7223C56.784 50.1263 54.4898 51.5051 52.9002 53.4761L57.1524 55.9311ZM61 62.4C62.3255 62.4 63.4 61.3255 63.4 60C63.4 58.6745 62.3255 57.6 61 57.6C59.6745 57.6 58.6 58.6745 58.6 60C58.6 61.3255 59.6745 62.4 61 62.4ZM77.8 48.8C77.8 51.8928 75.2928 54.4 72.2 54.4C69.1072 54.4 66.6 51.8928 66.6 48.8C66.6 45.7072 69.1072 43.2 72.2 43.2C75.2928 43.2 77.8 45.7072 77.8 48.8Z" fill="#96A4BA"/>
</svg>
