<svg width="100" height="100" viewBox="0 0 100 100" fill="none" xmlns="http://www.w3.org/2000/svg">
<path fill-rule="evenodd" clip-rule="evenodd" d="M50 97.7778C76.3869 97.7778 97.7778 76.3869 97.7778 50C97.7778 23.6131 76.3869 2.22222 50 2.22222C23.6131 2.22222 2.22222 23.6131 2.22222 50C2.22222 76.3869 23.6131 97.7778 50 97.7778ZM50 100C77.6142 100 100 77.6142 100 50C100 22.3858 77.6142 0 50 0C22.3858 0 0 22.3858 0 50C0 77.6142 22.3858 100 50 100Z" fill="url(#paint0_linear_1183_5)"/>
<path d="M57.4133 35.0755C57.4141 36.0046 57.6013 36.9242 57.9638 37.7797C58.3264 38.6353 58.8569 39.4096 59.524 40.0568C60.1911 40.7041 60.9814 41.211 61.8479 41.5479C62.7145 41.8848 63.6399 42.0445 64.5693 42.0178C64.8632 42.0095 65.1417 41.8846 65.3436 41.6711C65.5454 41.4574 65.654 41.1725 65.6456 40.8787C65.6371 40.5851 65.5122 40.3067 65.2984 40.1051C65.0846 39.9034 64.7994 39.7949 64.5055 39.8032C63.6578 39.8283 62.8188 39.6253 62.0765 39.2154C61.3341 38.8057 60.7155 38.2041 60.2854 37.4737C59.8553 36.7434 59.6295 35.9108 59.6316 35.0633C59.6336 34.2159 59.8635 33.3845 60.2972 32.6561C60.4472 32.4037 60.4906 32.1018 60.418 31.8173C60.3453 31.5327 60.1625 31.2886 59.9098 31.1388C59.657 30.9887 59.355 30.9453 59.0702 31.018C58.7854 31.0907 58.5411 31.2732 58.3911 31.5258C57.7518 32.5997 57.414 33.8259 57.4133 35.0755Z" fill="url(#paint1_linear_1183_5)"/>
<path d="M47.3255 42.7407C47.3257 42.9141 47.3666 43.0848 47.4449 43.2395C47.5232 43.3942 47.6367 43.5283 47.7763 43.6312C47.9159 43.734 48.0777 43.8027 48.2486 43.8318C48.4196 43.8608 48.595 43.8494 48.7608 43.7985C50.3367 43.3117 51.6881 42.281 52.5738 40.8904C53.4595 39.5001 53.8217 37.8403 53.5959 36.2075C53.5782 36.0617 53.5316 35.9206 53.4588 35.793C53.386 35.6653 53.2885 35.5533 53.1719 35.4637C53.0554 35.3739 52.9221 35.3083 52.7799 35.2706C52.6377 35.2331 52.4895 35.2241 52.3438 35.2441C52.1981 35.2644 52.0578 35.3134 51.9313 35.3881C51.8047 35.463 51.6943 35.5623 51.6065 35.6803C51.5188 35.7983 51.4554 35.9326 51.4201 36.0752C51.3848 36.2179 51.3782 36.3662 51.4009 36.5113C51.5538 37.6235 51.3067 38.7538 50.7035 39.7009C50.1004 40.648 49.1804 41.3505 48.1074 41.683C47.8811 41.7528 47.683 41.8931 47.5423 42.0834C47.4016 42.2737 47.3256 42.5042 47.3255 42.7407Z" fill="url(#paint2_linear_1183_5)"/>
<path d="M34.0707 40.3565C33.6921 39.4845 33.4964 38.5443 33.4957 37.5939C33.4959 36.4286 33.7895 35.2824 34.3494 34.2604C34.4905 34.0026 34.7282 33.8114 35.0104 33.7288C35.2925 33.6463 35.5959 33.6792 35.8539 33.82C36.1118 33.961 36.3031 34.1986 36.3857 34.4806C36.4684 34.7625 36.4355 35.0656 36.2945 35.3234C35.8879 36.0668 35.6887 36.9058 35.7175 37.7526C35.7464 38.5993 36.0023 39.4227 36.4585 40.1369C36.9147 40.851 37.5545 41.4297 38.311 41.8123C39.0675 42.1948 39.913 42.3675 40.759 42.312C40.9045 42.3024 41.0505 42.3216 41.1886 42.3685C41.3267 42.4154 41.4541 42.4891 41.5638 42.5852C41.6734 42.6814 41.763 42.7981 41.8274 42.9288C41.8919 43.0596 41.9299 43.2016 41.9394 43.347C41.9489 43.4925 41.9296 43.6383 41.8827 43.7762C41.8358 43.9143 41.7621 44.0416 41.6659 44.1511C41.5697 44.2607 41.4529 44.3503 41.3221 44.4147C41.1913 44.479 41.049 44.5171 40.9035 44.5266C39.9543 44.588 39.0026 44.4545 38.1071 44.134C37.2116 43.8134 36.3914 43.3129 35.6972 42.6632C35.0029 42.0135 34.4494 41.2283 34.0707 40.3565Z" fill="url(#paint3_linear_1183_5)"/>
<path fill-rule="evenodd" clip-rule="evenodd" d="M50.2112 23.0003C51.1264 22.9989 52.0329 23.1787 52.8782 23.5296C53.7235 23.8803 54.4908 24.395 55.1358 25.0438C55.1908 24.9943 55.2448 24.9438 55.3016 24.895C56.2618 24.0723 57.4063 23.4927 58.6381 23.2057C59.8699 22.9185 61.1529 22.9323 62.3783 23.2456C63.6037 23.559 64.7355 24.1628 65.6779 25.0061C66.6202 25.8492 67.3453 26.9069 67.7919 28.0895C68.8197 27.8099 69.8982 27.7703 70.9438 27.9734C71.9895 28.1765 72.9745 28.617 73.8227 29.261C74.6709 29.905 75.3596 30.7351 75.8357 31.6874C76.3118 32.6395 76.5625 33.6884 76.5685 34.7529C78.498 35.1118 80.2238 36.1781 81.4074 37.7425C82.591 39.307 83.1471 41.2567 82.9666 43.2096C82.7862 45.1626 81.8822 46.9776 80.4319 48.2991C78.9816 49.6204 77.0897 50.353 75.127 50.3528L24.9434 50.3767C23.1407 50.3757 21.4091 49.6744 20.1142 48.4213C18.8193 47.1681 18.0625 45.4611 18.0037 43.6606C17.9449 41.8604 18.5887 40.1077 19.799 38.7729C21.0094 37.438 22.6916 36.6254 24.4904 36.5068C24.48 36.4274 24.4704 36.3464 24.462 36.2648C24.4566 36.2118 24.4516 36.1587 24.4473 36.1056C24.4434 36.0573 24.44 36.0091 24.4372 35.9611C24.4283 35.8052 24.4239 35.6511 24.4239 35.4969C24.4244 34.2764 24.7093 33.0728 25.2559 31.9812C25.8026 30.8896 26.5959 29.9403 27.5733 29.208C28.5506 28.476 29.685 27.9812 30.8868 27.7628C32.0886 27.5445 33.3248 27.6087 34.4975 27.9504C34.951 27.038 35.5998 26.2364 36.3979 25.6025C37.196 24.9686 38.1238 24.5177 39.1157 24.282C40.1075 24.0464 41.1391 24.0317 42.1374 24.2388C43.1356 24.4459 44.076 24.8698 44.892 25.4807C45.5446 24.7054 46.3587 24.0818 47.2774 23.6533C48.1961 23.2249 49.1973 23.002 50.2112 23.0003ZM46.6408 27.4036C46.6927 27.4874 46.7433 27.5723 46.7927 27.659C47.2411 28.4644 47.5245 29.3511 47.6264 30.2673C47.7283 31.1834 47.6466 32.1106 47.3862 32.9947C47.1258 33.879 46.6918 34.7026 46.1095 35.4175C45.5273 36.1324 44.8084 36.7245 43.9948 37.1588C43.8665 37.2275 43.7259 37.27 43.581 37.2844C43.4362 37.2986 43.2899 37.2842 43.1506 37.242C43.0114 37.1998 42.8817 37.1307 42.7692 37.0383C42.6567 36.9461 42.5635 36.8326 42.4948 36.7044C42.4262 36.5762 42.3835 36.4357 42.3692 36.2909C42.3669 36.2677 42.3654 36.2444 42.3646 36.2212C42.3627 36.1682 42.3646 36.1153 42.3704 36.0627C42.3778 35.9944 42.3915 35.9269 42.4116 35.8608C42.4538 35.7217 42.523 35.5921 42.6154 35.4798C42.7077 35.3673 42.8213 35.2741 42.9496 35.2056C43.6391 34.8374 44.2265 34.3043 44.6594 33.6539C45.0924 33.0036 45.3574 32.2561 45.4307 31.4786C45.504 30.7008 45.3834 29.9171 45.0796 29.1973C44.7758 28.4777 44.2984 27.8443 43.6899 27.354C43.0813 26.8636 42.3608 26.5316 41.5925 26.3875C40.8242 26.2434 40.0321 26.2916 39.2871 26.528C38.542 26.7645 37.8672 27.1816 37.3229 27.7422C36.7785 28.3028 36.3816 28.9893 36.1677 29.7408C36.1155 29.9247 36.0165 30.092 35.8803 30.2263C35.7442 30.3605 35.5755 30.4574 35.3907 30.5071C35.206 30.5569 35.0115 30.5581 34.8262 30.5104C34.6409 30.4626 34.4711 30.3678 34.3335 30.2351C33.4504 29.8935 32.4957 29.779 31.5569 29.9018C30.618 30.0249 29.7251 30.3815 28.96 30.9387C28.1949 31.496 27.582 32.2366 27.1776 33.092C26.7732 33.9475 26.5903 34.8908 26.6455 35.8353C26.6553 36.0046 26.673 36.1746 26.6978 36.3413C26.716 36.466 26.7127 36.593 26.6881 36.7169C27.45 36.9141 28.1726 37.2401 28.8246 37.6806C28.9471 37.7612 29.0524 37.8652 29.1344 37.9868C29.2163 38.1083 29.2734 38.245 29.3021 38.3888C29.3308 38.5324 29.3307 38.6805 29.3018 38.8241C29.2728 38.9679 29.2156 39.1044 29.1335 39.2258C29.0513 39.3471 28.9459 39.4511 28.8232 39.5315C28.7006 39.6118 28.5632 39.6672 28.419 39.694C28.2748 39.721 28.1267 39.7191 27.9833 39.6883C27.8398 39.6577 27.7039 39.5989 27.5835 39.5153C26.97 39.1023 26.2683 38.8388 25.5345 38.7457C24.8007 38.6528 24.0553 38.7331 23.3581 38.98C22.661 39.2269 22.0315 39.6338 21.5201 40.1677C21.0087 40.7018 20.6298 41.3481 20.4136 42.055C20.1974 42.7618 20.1501 43.5094 20.2754 44.2378C20.4007 44.9662 20.6951 45.6552 21.135 46.2493C21.575 46.8437 22.1482 47.3264 22.8086 47.6593C23.4691 47.992 24.1984 48.1654 24.9381 48.1655L75.1225 48.1417C76.5267 48.1413 77.8806 47.619 78.9207 46.6764C79.9609 45.7338 80.6129 44.4382 80.75 43.0418C80.8872 41.6453 80.4995 40.2478 79.6626 39.1213C78.8256 37.9946 77.5992 37.2193 76.2218 36.9463C75.7657 38.3379 74.8816 39.5502 73.6955 40.4105C72.5094 41.2707 71.0819 41.7349 69.6163 41.737C69.3224 41.737 69.0406 41.6202 68.8327 41.4126C68.6249 41.205 68.5082 40.9233 68.5082 40.6297C68.5082 40.3359 68.6249 40.0542 68.8327 39.8466C69.0406 39.639 69.3224 39.5224 69.6163 39.5224C70.8714 39.5224 72.0751 39.0241 72.9626 38.1374C73.85 37.2505 74.3486 36.0478 74.3486 34.7936C74.3486 33.5396 73.85 32.3367 72.9626 31.4498C72.0751 30.5631 70.8714 30.065 69.6163 30.065C68.8987 30.0629 68.1901 30.2257 67.5454 30.5406L67.5286 30.5486L67.4967 30.5628L67.4585 30.5778C67.4356 30.5863 67.4322 30.5875 67.4203 30.5915L67.4186 30.592C67.4053 30.5965 67.3787 30.6053 67.3575 30.6116C67.3362 30.6176 67.3229 30.6204 67.3052 30.6247L67.2907 30.6285L67.2846 30.6301L67.2759 30.6318L67.2683 30.6322L67.2644 30.6322L67.256 30.6318L67.252 30.6318C67.2325 30.6318 67.2138 30.638 67.1943 30.6408C67.1748 30.6434 67.1589 30.6451 67.1403 30.646L66.9842 30.646C66.97 30.6455 66.9557 30.6444 66.9415 30.6429L66.9186 30.6398L66.9045 30.6394L66.895 30.6384C66.8904 30.6377 66.8859 30.6365 66.8814 30.6346C66.869 30.6292 66.8353 30.6266 66.8122 30.6213C66.7892 30.6159 66.7892 30.615 66.7777 30.6124C66.7661 30.6097 66.7325 30.6 66.7103 30.5929L66.674 30.5796L66.644 30.5676L66.6128 30.5548L66.5912 30.5451L66.572 30.5353L66.5529 30.5257C66.542 30.5206 66.5299 30.5147 66.5197 30.5088L66.4951 30.4941L66.4575 30.4707C66.4485 30.4652 66.4398 30.4598 66.431 30.4538L66.3841 30.4193L66.3468 30.3891C66.3317 30.3768 66.3176 30.3635 66.3034 30.3501C66.2892 30.3368 66.2786 30.328 66.267 30.3155L66.2307 30.2757L66.1943 30.2332L66.1651 30.1942L66.1287 30.142L66.1066 30.1048L66.0964 30.0882L66.0909 30.0783L66.0729 30.0446L66.064 30.0276L66.0552 30.0074L66.0241 29.9347L66.0082 29.8887C66.0011 29.8691 65.9958 29.8487 65.9904 29.8283L65.9754 29.769L65.9754 29.7584C65.7153 28.4609 65.0079 27.2958 63.9765 26.4659C62.945 25.6361 61.6549 25.194 60.3309 25.2168C59.0068 25.2397 57.7328 25.726 56.7306 26.591C55.7285 27.4561 55.0619 28.645 54.8468 29.9506C54.7998 30.2406 54.6394 30.5 54.401 30.6718C54.1626 30.8436 53.8657 30.9137 53.5755 30.8666C53.2854 30.8197 53.0258 30.6593 52.8539 30.4212C52.682 30.183 52.6118 29.8863 52.6589 29.5963C52.8228 28.5919 53.1808 27.6292 53.7129 26.7616C53.2456 26.248 52.6708 25.8435 52.0293 25.5771C51.3879 25.3106 50.6956 25.1886 50.0016 25.2198C49.3076 25.2509 48.629 25.4343 48.0141 25.7572C47.3991 26.08 46.8628 26.5342 46.4434 27.0875L46.4381 27.0929C46.5078 27.1946 46.5753 27.2981 46.6408 27.4036Z" fill="url(#paint4_linear_1183_5)"/>
<path fill-rule="evenodd" clip-rule="evenodd" d="M68.6412 58.8564L68.6412 54.4581L68.6376 54.4581C68.6376 54.1643 68.5209 53.8828 68.313 53.675C68.1052 53.4673 67.8234 53.3507 67.5295 53.3507C67.2355 53.3507 66.9537 53.4673 66.7459 53.675C66.538 53.8828 66.4213 54.1643 66.4213 54.4581L66.4213 58.8564C66.4213 61.1233 67.0951 63.0154 68.4798 64.6426C69.236 65.5304 69.908 66.2976 70.3513 66.8033C69.9302 67.6338 69.8222 68.5878 70.0469 69.4911C70.2717 70.3946 70.8142 71.1871 71.5754 71.7238C72.3366 72.2605 73.2656 72.5056 74.1927 72.4145C75.1199 72.3233 75.9832 71.9018 76.6251 71.2272C77.2669 70.5524 77.6444 69.6695 77.6886 68.7397C77.7328 67.8097 77.4407 66.895 76.8657 66.1626C76.2907 65.4302 75.4712 64.9288 74.5569 64.7504C73.6426 64.5719 72.6945 64.7279 71.8858 65.1902C71.4523 64.6959 70.8477 64.0049 70.1713 63.2076C69.142 61.9984 68.6412 60.5748 68.6412 58.8564ZM74.7373 69.9292C74.4639 70.1116 74.1427 70.2086 73.814 70.2085C73.3738 70.2076 72.9519 70.0323 72.6406 69.7212C72.3294 69.41 72.1543 68.9883 72.1536 68.5485C72.1536 68.2201 72.251 67.899 72.4336 67.626C72.6162 67.353 72.8757 67.1403 73.1794 67.0145C73.483 66.8889 73.8171 66.8562 74.1394 66.9202C74.4617 66.9844 74.7577 67.1426 74.99 67.3749C75.2223 67.6071 75.3805 67.903 75.4445 68.2252C75.5085 68.5471 75.4754 68.8811 75.3496 69.1844C75.2237 69.4877 75.0106 69.7469 74.7373 69.9292Z" fill="url(#paint5_linear_1183_5)"/>
<path fill-rule="evenodd" clip-rule="evenodd" d="M24.7838 63.3068C24.7838 65.0253 25.2847 66.4481 26.3139 67.6582C26.9904 68.4554 27.595 69.1463 28.0285 69.6406C28.8365 69.1771 29.7845 69.0197 30.6992 69.197C31.6139 69.3742 32.4342 69.8744 33.0102 70.6062C33.5862 71.3379 33.8795 72.2525 33.8365 73.1825C33.7935 74.1125 33.417 74.9961 32.7758 75.6715C32.1347 76.347 31.2717 76.7695 30.3445 76.8617C29.4174 76.954 28.488 76.7096 27.7262 76.1736C26.9644 75.6376 26.421 74.8455 26.1954 73.9422C25.9698 73.0389 26.077 72.0847 26.4975 71.2538C26.0542 70.7479 25.3822 69.9808 24.626 69.0923C23.2386 67.4703 22.5675 65.5754 22.5675 63.3068L22.5675 54.4553C22.5675 54.1617 22.6842 53.88 22.8921 53.6724C23.0999 53.4646 23.3817 53.348 23.6756 53.348C23.9695 53.348 24.2514 53.4646 24.4592 53.6724C24.6671 53.88 24.7838 54.1617 24.7838 54.4553L24.7838 63.3068ZM29.954 74.6616C30.2826 74.6618 30.6039 74.5646 30.8773 74.3824C31.1506 74.2 31.3637 73.9408 31.4895 73.6375C31.6154 73.3342 31.6485 73.0003 31.5844 72.6783C31.5204 72.3562 31.3623 72.0603 31.13 71.8281C30.8977 71.5957 30.6016 71.4376 30.2794 71.3734C29.9571 71.3094 29.623 71.3421 29.3193 71.4677C29.0157 71.5933 28.7562 71.8061 28.5736 72.0791C28.391 72.3522 28.2936 72.6731 28.2936 73.0015C28.2943 73.4415 28.4694 73.8631 28.7806 74.1744C29.0918 74.4855 29.5138 74.6608 29.954 74.6616Z" fill="url(#paint6_linear_1183_5)"/>
<path fill-rule="evenodd" clip-rule="evenodd" d="M51.0968 68.4279L51.0968 54.4581C51.0968 54.1643 50.98 53.8826 50.7722 53.675C50.5644 53.4673 50.2825 53.3507 49.9886 53.3507C49.6947 53.3507 49.4129 53.4673 49.2051 53.675C48.9972 53.8826 48.8805 54.1643 48.8805 54.4581L48.8805 68.4279C48.8805 70.1465 48.3796 71.5701 47.3503 72.7792C46.6739 73.573 46.0693 74.2684 45.6358 74.7618C44.828 74.2983 43.8803 74.1407 42.9659 74.3178C42.0515 74.495 41.2313 74.9949 40.6553 75.7264C40.0793 76.4577 39.7859 77.372 39.8287 78.3016C39.8715 79.2314 40.2476 80.1148 40.8884 80.7903C41.5292 81.4658 42.3918 81.8884 43.3187 81.9808C44.2455 82.0732 45.1747 81.8294 45.9365 81.2938C46.6983 80.7583 47.2418 79.9666 47.4677 79.0636C47.6935 78.1606 47.5868 77.2066 47.1668 76.3759C47.6127 75.87 48.2812 75.1002 49.0383 74.2144C50.423 72.5915 51.0968 70.6948 51.0968 68.4279ZM42.3258 79.0435C42.1434 78.7705 42.0461 78.4494 42.0462 78.121C42.0469 77.681 42.2222 77.2592 42.5337 76.9482C42.8451 76.6372 43.2673 76.4622 43.7076 76.4617C44.0362 76.4617 44.3575 76.5591 44.6307 76.7417C44.9039 76.924 45.1169 77.1834 45.2426 77.4868C45.3683 77.7902 45.4011 78.1241 45.337 78.4461C45.2728 78.7681 45.1145 79.0639 44.882 79.2961C44.6496 79.5281 44.3535 79.6863 44.0312 79.7501C43.7088 79.8141 43.3748 79.7811 43.0712 79.6553C42.7676 79.5295 42.5082 79.3167 42.3258 79.0435Z" fill="url(#paint7_linear_1183_5)"/>
<path d="M75.197 54.4579L75.197 60.2222C75.197 60.5158 75.3138 60.7975 75.5216 61.0051C75.7294 61.2129 76.0113 61.3295 76.3052 61.3295C76.5991 61.3295 76.8809 61.2129 77.0888 61.0051C77.2966 60.7975 77.4133 60.5158 77.4133 60.2222L77.4133 54.4579C77.4133 54.1643 77.2966 53.8826 77.0888 53.675C76.8809 53.4672 76.5991 53.3506 76.3052 53.3506C76.0113 53.3506 75.7294 53.4672 75.5216 53.675C75.3138 53.8826 75.197 54.1643 75.197 54.4579Z" fill="url(#paint8_linear_1183_5)"/>
<path fill-rule="evenodd" clip-rule="evenodd" d="M59.8699 71.6435L59.8699 54.4579C59.8699 54.1643 59.7531 53.8826 59.5453 53.675C59.3375 53.4673 59.0556 53.3506 58.7617 53.3506C58.4678 53.3506 58.1859 53.4673 57.9781 53.675C57.7703 53.8826 57.6535 54.1643 57.6535 54.4579L57.6535 71.6435C56.761 71.9094 55.9941 72.4876 55.493 73.2721C54.9919 74.0568 54.7902 74.9952 54.9247 75.9162C55.0592 76.8372 55.5209 77.6789 56.2255 78.2878C56.93 78.8964 57.8303 79.2314 58.7617 79.2314C59.6931 79.2314 60.5934 78.8964 61.2979 78.2878C62.0025 77.6789 62.4642 76.8372 62.5987 75.9162C62.7332 74.9952 62.5315 74.0568 62.0304 73.2721C61.5294 72.4876 60.7624 71.9094 59.8699 71.6435ZM57.3704 76.2634C57.1938 75.9932 57.1 75.6772 57.1004 75.3544C57.101 74.9372 57.2588 74.5355 57.5423 74.2293C57.8258 73.923 58.2143 73.7346 58.6305 73.7014C58.674 73.7067 58.7178 73.7093 58.7617 73.7093C58.8056 73.7093 58.8494 73.7067 58.8929 73.7014C59.215 73.7268 59.5226 73.8457 59.7782 74.0431C60.0337 74.2407 60.2261 74.5083 60.3317 74.8134C60.4374 75.1186 60.4517 75.4478 60.373 75.7608C60.2942 76.074 60.1258 76.3574 59.8884 76.5763C59.651 76.7951 59.3548 76.9403 59.0362 76.9936C58.7176 77.0469 58.3903 77.0062 58.0944 76.8766C57.7985 76.7468 57.5469 76.5339 57.3704 76.2634Z" fill="url(#paint9_linear_1183_5)"/>
<path fill-rule="evenodd" clip-rule="evenodd" d="M42.3255 54.4579L42.3255 61.3738C43.2178 61.6397 43.9845 62.2178 44.4854 63.0021C44.9863 63.7865 45.188 64.7248 45.0535 65.6454C44.919 66.5663 44.4573 67.4078 43.753 68.0163C43.0486 68.6248 42.1485 68.9598 41.2173 68.9598C40.2862 68.9598 39.3861 68.6248 38.6817 68.0163C37.9774 67.4078 37.5157 66.5663 37.3812 65.6454C37.2467 64.7248 37.4484 63.7865 37.9493 63.0021C38.4502 62.2178 39.2169 61.6397 40.1092 61.3738L40.1092 54.4579C40.1092 54.1641 40.2259 53.8826 40.4338 53.6748C40.6416 53.4672 40.9234 53.3506 41.2173 53.3506C41.5112 53.3506 41.7931 53.4672 42.0009 53.6748C42.2088 53.8826 42.3255 54.1641 42.3255 54.4579ZM39.5569 65.0882C39.5567 65.4107 39.6506 65.7264 39.8272 65.9965C40.0037 66.2666 40.2553 66.4794 40.551 66.6088C40.8467 66.7384 41.1738 66.7789 41.4922 66.7254C41.8106 66.672 42.1065 66.527 42.3438 66.3081C42.581 66.0894 42.7492 65.8062 42.8278 65.4932C42.9064 65.1804 42.8921 64.8513 42.7865 64.5464C42.6809 64.2416 42.4886 63.9741 42.2332 63.7767C41.9778 63.5793 41.6704 63.4606 41.3485 63.4351C41.2603 63.4472 41.1708 63.4472 41.0826 63.4351C40.6676 63.469 40.2805 63.6576 39.9979 63.9632C39.7153 64.2689 39.5579 64.6694 39.5569 65.0854L39.5569 65.0882Z" fill="url(#paint10_linear_1183_5)"/>
<path d="M31.337 64.0455L31.337 54.4579C31.337 54.1643 31.4538 53.8826 31.6616 53.675C31.8694 53.4673 32.1513 53.3506 32.4452 53.3506C32.7391 53.3506 33.0209 53.4673 33.2288 53.675C33.4366 53.8826 33.5533 54.1643 33.5533 54.4579L33.5533 64.0455C33.5533 64.3392 33.4366 64.6208 33.2288 64.8285C33.0209 65.0362 32.7391 65.1529 32.4452 65.1529C32.1513 65.1529 31.8694 65.0362 31.6616 64.8285C31.4538 64.6208 31.337 64.3392 31.337 64.0455Z" fill="url(#paint11_linear_1183_5)"/>
<defs>
<linearGradient id="paint0_linear_1183_5" x1="-6.48342e-07" y1="49.5575" x2="100" y2="49.5575" gradientUnits="userSpaceOnUse">
<stop stop-color="#FFDD64"/>
<stop offset="1" stop-color="#FFEDAF" stop-opacity="0.54"/>
</linearGradient>
<linearGradient id="paint1_linear_1183_5" x1="50.7876" y1="82" x2="50.7876" y2="23" gradientUnits="userSpaceOnUse">
<stop stop-color="#FFDD64"/>
<stop offset="1" stop-color="#FFEDAF" stop-opacity="0.54"/>
</linearGradient>
<linearGradient id="paint2_linear_1183_5" x1="50.7876" y1="82" x2="50.7876" y2="23" gradientUnits="userSpaceOnUse">
<stop stop-color="#FFDD64"/>
<stop offset="1" stop-color="#FFEDAF" stop-opacity="0.54"/>
</linearGradient>
<linearGradient id="paint3_linear_1183_5" x1="50.7876" y1="82" x2="50.7876" y2="23" gradientUnits="userSpaceOnUse">
<stop stop-color="#FFDD64"/>
<stop offset="1" stop-color="#FFEDAF" stop-opacity="0.54"/>
</linearGradient>
<linearGradient id="paint4_linear_1183_5" x1="50.7876" y1="82" x2="50.7876" y2="23" gradientUnits="userSpaceOnUse">
<stop stop-color="#FFDD64"/>
<stop offset="1" stop-color="#FFEDAF" stop-opacity="0.54"/>
</linearGradient>
<linearGradient id="paint5_linear_1183_5" x1="50.7876" y1="82" x2="50.7876" y2="23" gradientUnits="userSpaceOnUse">
<stop stop-color="#FFDD64"/>
<stop offset="1" stop-color="#FFEDAF" stop-opacity="0.54"/>
</linearGradient>
<linearGradient id="paint6_linear_1183_5" x1="50.7876" y1="82" x2="50.7876" y2="23" gradientUnits="userSpaceOnUse">
<stop stop-color="#FFDD64"/>
<stop offset="1" stop-color="#FFEDAF" stop-opacity="0.54"/>
</linearGradient>
<linearGradient id="paint7_linear_1183_5" x1="50.7876" y1="82" x2="50.7876" y2="23" gradientUnits="userSpaceOnUse">
<stop stop-color="#FFDD64"/>
<stop offset="1" stop-color="#FFEDAF" stop-opacity="0.54"/>
</linearGradient>
<linearGradient id="paint8_linear_1183_5" x1="50.7876" y1="82" x2="50.7876" y2="23" gradientUnits="userSpaceOnUse">
<stop stop-color="#FFDD64"/>
<stop offset="1" stop-color="#FFEDAF" stop-opacity="0.54"/>
</linearGradient>
<linearGradient id="paint9_linear_1183_5" x1="50.7876" y1="82" x2="50.7876" y2="23" gradientUnits="userSpaceOnUse">
<stop stop-color="#FFDD64"/>
<stop offset="1" stop-color="#FFEDAF" stop-opacity="0.54"/>
</linearGradient>
<linearGradient id="paint10_linear_1183_5" x1="50.7876" y1="82" x2="50.7876" y2="23" gradientUnits="userSpaceOnUse">
<stop stop-color="#FFDD64"/>
<stop offset="1" stop-color="#FFEDAF" stop-opacity="0.54"/>
</linearGradient>
<linearGradient id="paint11_linear_1183_5" x1="50.7876" y1="82" x2="50.7876" y2="23" gradientUnits="userSpaceOnUse">
<stop stop-color="#FFDD64"/>
<stop offset="1" stop-color="#FFEDAF" stop-opacity="0.54"/>
</linearGradient>
</defs>
</svg>
