<svg width="74" height="19" viewBox="0 0 74 19" fill="none" xmlns="http://www.w3.org/2000/svg">
<path d="M73.2367 2.67618C73.6102 2.26929 73.5831 1.63671 73.1762 1.26326C72.7693 0.88982 72.1367 0.916931 71.7633 1.32382L73.2367 2.67618ZM1.48649 1.00009C0.934253 1.00755 0.492629 1.46128 0.500091 2.01351L0.621702 11.0127C0.629164 11.5649 1.08289 12.0065 1.63512 11.9991C2.18736 11.9916 2.62898 11.5379 2.62152 10.9857L2.51342 2.9864L10.5127 2.8783C11.0649 2.87084 11.5065 2.41711 11.4991 1.86488C11.4916 1.31264 11.0379 0.871018 10.4857 0.878481L1.48649 1.00009ZM2.2194 4.06213C2.6246 4.4374 3.2573 4.41314 3.63257 4.00793C4.00785 3.60273 3.98358 2.97003 3.57838 2.59476L2.2194 4.06213ZM9.35124 7.39377C8.90711 7.0655 8.28095 7.15943 7.95268 7.60357C7.62441 8.04771 7.71834 8.67386 8.16248 9.00213L9.35124 7.39377ZM11.3461 11.2049C11.8101 11.5043 12.4291 11.3709 12.7286 10.9069C13.028 10.4429 12.8946 9.82391 12.4306 9.52444L11.3461 11.2049ZM18.9716 13.1242C18.4695 12.8944 17.876 13.1152 17.6462 13.6173C17.4163 14.1195 17.6371 14.7129 18.1393 14.9428L18.9716 13.1242ZM21.7453 16.423C22.2643 16.6118 22.8381 16.3441 23.0269 15.8251C23.2157 15.3061 22.9481 14.7323 22.4291 14.5435L21.7453 16.423ZM29.6089 16.4824C29.0651 16.3855 28.5459 16.7478 28.449 17.2915C28.3522 17.8352 28.7144 18.3545 29.2582 18.4514L29.6089 16.4824ZM33.1284 18.9625C33.6786 19.0101 34.1632 18.6026 34.2108 18.0523C34.2583 17.5021 33.8508 17.0175 33.3006 16.97L33.1284 18.9625ZM40.7348 16.9411C40.1849 16.9924 39.7808 17.4798 39.8321 18.0297C39.8835 18.5796 40.3709 18.9838 40.9208 18.9324L40.7348 16.9411ZM44.7811 18.4018C45.3245 18.3031 45.6851 17.7826 45.5864 17.2392C45.4878 16.6958 44.9673 16.3353 44.4239 16.434L44.7811 18.4018ZM51.625 14.5018C51.1047 14.6871 50.8332 15.259 51.0185 15.7793C51.2038 16.2996 51.7757 16.5712 52.296 16.3859L51.625 14.5018ZM55.9045 14.9435C56.4092 14.7194 56.6368 14.1286 56.4127 13.6238C56.1886 13.119 55.5977 12.8915 55.0929 13.1156L55.9045 14.9435ZM61.6904 9.59578C61.2228 9.88959 61.0818 10.5069 61.3756 10.9745C61.6694 11.4422 62.2867 11.5831 62.7544 11.2893L61.6904 9.59578ZM65.9689 9.10939C66.4148 8.78358 66.5122 8.15794 66.1864 7.712C65.8606 7.26606 65.235 7.16868 64.789 7.49449L65.9689 9.10939ZM70.4781 2.66033C70.0866 3.04981 70.0849 3.68297 70.4743 4.07454C70.8638 4.46611 71.497 4.46781 71.8885 4.07833L70.4781 2.66033ZM0.802512 2.7166C1.27473 3.17622 1.74705 3.62467 2.2194 4.06213L3.57838 2.59476C3.11831 2.16868 2.65799 1.73163 2.19749 1.2834L0.802512 2.7166ZM8.16248 9.00213C9.22525 9.78764 10.2867 10.5212 11.3461 11.2049L12.4306 9.52444C11.4074 8.86413 10.3807 8.15467 9.35124 7.39377L8.16248 9.00213ZM18.1393 14.9428C19.3471 15.4956 20.5495 15.9879 21.7453 16.423L22.4291 14.5435C21.2841 14.1269 20.1312 13.655 18.9716 13.1242L18.1393 14.9428ZM29.2582 18.4514C30.5614 18.6835 31.8521 18.8523 33.1284 18.9625L33.3006 16.97C32.0835 16.8648 30.8524 16.7038 29.6089 16.4824L29.2582 18.4514ZM40.9208 18.9324C42.2303 18.8101 43.5178 18.6311 44.7811 18.4018L44.4239 16.434C43.2156 16.6533 41.9852 16.8243 40.7348 16.9411L40.9208 18.9324ZM52.296 16.3859C53.5329 15.9454 54.7366 15.462 55.9045 14.9435L55.0929 13.1156C53.9695 13.6143 52.8127 14.0788 51.625 14.5018L52.296 16.3859ZM62.7544 11.2893C63.8785 10.5831 64.9513 9.85288 65.9689 9.10939L64.789 7.49449C63.8083 8.21103 62.7741 8.91493 61.6904 9.59578L62.7544 11.2893ZM71.8885 4.07833C72.3629 3.60655 72.8126 3.13831 73.2367 2.67618L71.7633 1.32382C71.3602 1.76296 70.9315 2.20934 70.4781 2.66033L71.8885 4.07833Z" fill="black"/>
</svg>
