<svg width="40" height="40" viewBox="0 0 40 40" fill="none" xmlns="http://www.w3.org/2000/svg">
<rect width="40" height="40" rx="20" fill="white"/>
<path d="M15.3461 26.1972C15.2899 26.4307 15.052 26.5734 14.8229 26.5172C14.118 26.3399 13.4824 26.595 12.9764 26.8026L12.948 26.8139C12.6653 26.9262 12.4106 27.0274 12.1721 27.0274C12.0337 27.0274 11.904 26.9971 11.7829 26.9107C11.45 26.6858 11.45 26.2362 11.45 26.0891C11.45 24.2104 13.5796 21.5811 13.7201 21.4076L13.7245 21.4022C13.8802 21.2163 14.1526 21.1903 14.3342 21.346C14.5202 21.5016 14.5418 21.7784 14.3904 21.9643C13.811 22.6691 12.3148 24.7747 12.3148 26.0891V26.1194C12.4143 26.0848 12.544 26.0329 12.6478 25.9897C13.2099 25.7605 14.0575 25.419 15.0304 25.6654C15.2639 25.7259 15.4023 25.9638 15.3461 26.1972Z" fill="#DC1933"/>
<path d="M15.6007 29.0768C14.9304 29.2325 14.3683 29.6951 13.9186 30.4604C13.7975 30.668 13.8624 30.936 14.0699 31.0614C14.1391 31.1047 14.2169 31.1219 14.2904 31.1219C14.4375 31.1219 14.5802 31.0441 14.6623 30.9058C14.9823 30.361 15.3585 30.0324 15.7866 29.9329C16.3747 29.7946 16.898 30.1232 16.9109 30.1361C17.1098 30.2658 17.3779 30.214 17.5077 30.0107C17.6417 29.8075 17.5855 29.5351 17.3866 29.4011C17.3563 29.3795 16.5607 28.8563 15.6007 29.0768Z" fill="#DC1933"/>
<path d="M9.14514 21.3935C9.38297 21.3935 9.57756 21.199 9.57756 20.9568V19.0501C9.57756 18.8079 9.38297 18.6134 9.14514 18.6134C8.9073 18.6134 8.71272 18.8079 8.71272 19.0501V20.9568C8.71272 21.199 8.90298 21.3935 9.14514 21.3935Z" fill="#DC1933"/>
<path d="M19.1466 21.3935C19.3844 21.3935 19.579 21.199 19.579 20.9568V19.0501C19.579 18.8079 19.3844 18.6134 19.1466 18.6134C18.9087 18.6134 18.7141 18.8079 18.7141 19.0501V20.9568C18.7141 21.199 18.9087 21.3935 19.1466 21.3935Z" fill="#DC1933"/>
<path fill-rule="evenodd" clip-rule="evenodd" d="M23.6271 4.06389C27.6486 4.44006 34.6106 9.13999 35.8084 15.9586C36.8678 21.9859 33.2917 26.9236 31.0215 29.172C29.3783 30.802 26.4292 32.2159 24.3276 33.0893C22.3341 35.0825 18.944 35.9992 16.4489 35.9992C12.1506 35.9992 9.15395 34.6372 7.39399 31.8743C6.81455 31.9089 5.72485 31.6797 5.04162 31.1825C4.70433 30.936 4.65677 30.4345 4.93784 30.1232C5.36162 29.6562 5.74215 28.9212 5.97998 28.4153C5.79404 27.637 5.65999 26.8069 5.57783 25.9075C5.5562 25.6567 5.53891 25.4103 5.52594 25.1595C4.33678 21.8432 2.47737 16.4428 6.22646 10.2296C10.4123 3.30291 17.5386 4.94594 17.5386 4.94594C17.5386 4.94594 19.8348 3.70935 23.6271 4.06389ZM24.2022 31.3555C24.773 30.0064 24.8768 26.876 24.933 24.7704C24.9892 22.6647 24.7687 17.3508 22.3298 12.4433C20.0247 7.82143 16.3666 7.96522 14.7763 8.02773C14.6751 8.03171 14.5823 8.03536 14.4987 8.03743C14.0922 8.04608 13.4436 8.24064 12.6912 8.60816C11.1258 9.5983 8.32802 11.8553 7.30319 15.8548C7.30004 15.8579 7.29461 15.8817 7.28523 15.9226C7.28171 15.938 7.27763 15.9558 7.27292 15.9758C7.83939 15.4181 8.53126 15.0852 9.27503 15.0852C11.035 15.0852 12.4922 16.9184 12.7171 19.2878C13.4695 19.0068 14.7884 18.6652 15.8522 19.1452C16.1246 16.8449 17.5559 15.0852 19.2813 15.0852C21.1969 15.0852 22.7579 17.2557 22.7579 19.9278C22.7579 22.5998 21.1969 24.7704 19.2813 24.7704C17.4175 24.7704 15.8954 22.7123 15.8132 20.1396C14.9138 19.4132 13.3311 19.971 12.743 20.2175C12.6349 22.7512 11.1215 24.7704 9.27503 24.7704C8.06857 24.7704 7.00482 23.9143 6.38213 22.6128C6.33889 23.6678 6.34754 24.766 6.44267 25.834C7.00482 32.0862 10.2782 35.1258 16.4532 35.1258C18.3905 35.1258 20.8985 34.5377 22.732 33.2882C23.2595 32.7823 23.8952 32.0732 24.2022 31.3555ZM9.2707 15.9586C7.83074 15.9586 6.65888 17.7356 6.65888 19.9234C6.65888 22.1113 7.83074 23.8883 9.2707 23.8883C10.7107 23.8883 11.8825 22.1113 11.8825 19.9234C11.8825 17.7399 10.7107 15.9586 9.2707 15.9586ZM21.8888 19.9234C21.8888 17.7399 20.7169 15.9586 19.2769 15.9586C17.837 15.9586 16.6651 17.7356 16.6651 19.9234C16.6651 22.1069 17.837 23.8883 19.2769 23.8883C20.7169 23.8883 21.8888 22.1113 21.8888 19.9234Z" fill="#DC1933"/>
</svg>
