<svg width="40" height="40" viewBox="0 0 40 40" fill="none" xmlns="http://www.w3.org/2000/svg">
<rect width="40" height="40" rx="20" fill="white"/>
<path d="M18.2203 19.3952C18.2203 20.5195 17.3335 21.431 16.2395 21.431C15.1455 21.431 14.2586 20.5195 14.2586 19.3952C14.2586 18.2708 15.1455 17.3593 16.2395 17.3593C17.3335 17.3593 18.2203 18.2708 18.2203 19.3952Z" fill="black"/>
<path d="M21.8088 25.0306H18.1916C17.5313 25.0306 16.9859 25.5911 16.9859 26.2698C16.9859 26.9484 17.5313 27.509 18.1916 27.509H21.8088C22.4691 27.509 23.0146 26.9484 23.0146 26.2698C23.0146 25.5911 22.4691 25.0306 21.8088 25.0306Z" fill="black"/>
<path d="M23.7608 21.431C24.8548 21.431 25.7416 20.5195 25.7416 19.3952C25.7416 18.2708 24.8548 17.3593 23.7608 17.3593C22.6668 17.3593 21.7799 18.2708 21.7799 19.3952C21.7799 20.5195 22.6668 21.431 23.7608 21.431Z" fill="black"/>
<path fill-rule="evenodd" clip-rule="evenodd" d="M31.9409 17.0293C31.9312 17.363 31.9215 17.6995 31.9139 18.0379C32 19.3066 32 20.5458 32 21.667C32 27.7155 32 34 20 34C8 34 8 27.745 8 21.667C8 20.5163 8 19.2771 8.08612 18.0379C8.0785 17.6995 8.06877 17.363 8.05912 17.0293C7.88708 11.0792 7.74023 6 20 6C32.2598 6 32.1129 11.0792 31.9409 17.0293ZM10.4115 21.6965C10.4115 27.8335 10.4115 31.5511 20 31.5511C29.5712 31.5511 29.5885 27.8469 29.6171 21.7298L29.6172 21.6965V21.1654C28.6986 21.2835 27.866 20.5458 27.8947 19.5722C27.9171 19.1131 27.9568 18.6421 27.9968 18.1669C28.1113 16.8098 28.2286 15.4185 27.9522 14.1728C25.9713 14.9399 23.1579 15.412 20.0287 15.412C16.8995 15.412 14.0861 14.9399 12.1053 14.1728C11.8371 15.3601 11.9395 16.715 12.0397 18.0404C12.0789 18.5594 12.1178 19.074 12.134 19.5722C12.1627 20.5458 11.3301 21.2835 10.4115 21.1654V21.6965Z" fill="black"/>
</svg>
