<svg width="40" height="50" viewBox="0 0 40 50" fill="none" xmlns="http://www.w3.org/2000/svg">
<rect width="40" height="40" rx="20" fill="white"/>
<path d="M12.3309 21.7532C12.4787 21.7532 12.6255 21.6899 12.7285 21.5681C13.2193 20.9846 14.0489 20.6364 14.9477 20.6364C15.8054 20.6364 16.6137 20.9606 17.1097 21.5028C17.3038 21.7155 17.6333 21.7302 17.8451 21.5346C18.0569 21.3391 18.0709 21.0087 17.8763 20.7959C17.1763 20.0299 16.1089 19.5907 14.9477 19.5907C13.7465 19.5907 12.6198 20.0775 11.9338 20.8931C11.7485 21.1138 11.7756 21.4437 11.9952 21.6298C12.0931 21.7124 12.2123 21.7532 12.3309 21.7532Z" fill="black"/>
<path d="M16.379 23.316C16.379 24.11 15.7382 24.7538 14.9478 24.7538C14.1573 24.7538 13.5166 24.11 13.5166 23.316C13.5166 22.5219 14.1573 21.8781 14.9478 21.8781C15.7382 21.8781 16.379 22.5219 16.379 23.316Z" fill="black"/>
<path d="M22.5056 21.7532C22.6539 21.7532 22.8007 21.6899 22.9037 21.5681C23.394 20.9846 24.2236 20.6364 25.1229 20.6364C25.9801 20.6364 26.7884 20.9606 27.2849 21.5033C27.4795 21.7161 27.809 21.7291 28.0203 21.5346C28.2316 21.3391 28.2461 21.0087 28.0515 20.7959C27.351 20.0304 26.284 19.5912 25.1229 19.5912C23.9212 19.5912 22.7944 20.078 22.109 20.8936C21.9237 21.1143 21.9508 21.4442 22.1704 21.6308C22.2677 21.7124 22.3869 21.7532 22.5056 21.7532Z" fill="black"/>
<path d="M26.5542 23.316C26.5542 24.11 25.9134 24.7538 25.123 24.7538C24.3325 24.7538 23.6918 24.11 23.6918 23.316C23.6918 22.5219 24.3325 21.8781 25.123 21.8781C25.9134 21.8781 26.5542 22.5219 26.5542 23.316Z" fill="black"/>
<path fill-rule="evenodd" clip-rule="evenodd" d="M32 18.9796C32 12.9251 27.0968 8 21.0706 8H18.9294C12.9026 8 8 12.9251 8 18.9796V28.0006C8 28.1431 8.00942 28.2834 8.01885 28.4238C8.02308 28.4869 8.02732 28.55 8.03071 28.6134C8.02891 28.6205 8.02702 28.6276 8.02513 28.6348C8.01665 28.6668 8.00814 28.6989 8.00729 28.7331C7.9974 29.2528 7.82513 41.5248 13.3674 47.2018C15.1801 49.0584 17.4113 50 19.9995 50C22.5877 50 24.8194 49.0584 26.6316 47.2013C32.1738 41.5243 32.0016 29.2528 31.9917 28.7331C31.9909 28.7007 31.983 28.6705 31.9751 28.6403C31.973 28.6321 31.9708 28.6238 31.9688 28.6155C31.9722 28.5549 31.9763 28.4946 31.9804 28.4342C31.9902 28.2906 32 28.1469 32 28.0011V18.9796ZM16.5021 32.2277C17.2661 31.3619 18.4345 30.9217 19.974 30.917C21.5135 30.9217 22.6824 31.3619 23.4464 32.2277C24.4936 33.4146 24.5435 35.1143 24.5185 35.7736C23.69 36.1286 22.7875 36.344 21.8091 36.344C21.6399 36.344 21.2251 36.3111 21.0336 36.0047C20.8983 35.7888 20.7593 35.245 21.3422 34.0289C21.4224 33.8611 21.412 33.6629 21.3126 33.5045C21.2142 33.3461 21.0409 33.2504 20.8551 33.2504H19.1449C18.9591 33.2504 18.7863 33.3466 18.6874 33.504C18.5885 33.6624 18.5776 33.8606 18.6578 34.0284C19.2407 35.2445 19.1012 35.7883 18.9659 36.0042C18.7743 36.3106 18.3595 36.3435 18.1904 36.3435C17.1917 36.3435 16.2715 36.1176 15.4289 35.7485C15.4065 35.0735 15.4669 33.4005 16.5021 32.2277ZM9.0409 18.9796C9.0409 13.5018 13.4767 9.04567 18.9294 9.04567H21.0706C26.5233 9.04567 30.9591 13.5018 30.9591 18.9796V28.0006C30.9591 28.1456 30.9495 28.2878 30.9398 28.4302C30.9362 28.4835 30.9326 28.5369 30.9294 28.5904C30.7192 29.0803 28.8825 33.1777 25.5985 35.2105C25.5579 34.2318 25.3081 32.7056 24.2609 31.5146C23.2903 30.4104 21.8596 29.8462 20.012 29.8331C20.0099 29.8331 20.0079 29.8325 20.006 29.8318C20.004 29.8312 20.0021 29.8305 20 29.8305C19.9956 29.8305 19.9914 29.8308 19.9872 29.831C19.9831 29.8313 19.9789 29.8316 19.9745 29.8316C19.9701 29.8316 19.9659 29.8313 19.9617 29.831C19.9576 29.8308 19.9534 29.8305 19.949 29.8305C19.9466 29.8305 19.9445 29.8312 19.9422 29.8319C19.9405 29.8324 19.9388 29.8329 19.937 29.8331C18.0894 29.8462 16.6587 30.4104 15.6876 31.5146C14.6529 32.692 14.3968 34.1978 14.3516 35.1776C11.105 33.1349 9.28239 29.0829 9.07056 28.5909C9.06746 28.5375 9.06385 28.4843 9.06024 28.4311C9.05057 28.2883 9.0409 28.1457 9.0409 28.0006V18.9796Z" fill="black"/>
</svg>
