<svg width="15" height="16" viewBox="0 0 15 16" fill="none" xmlns="http://www.w3.org/2000/svg">
<g clip-path="url(#clip0_251_2445)">
<mask id="mask0_251_2445" style="mask-type:luminance" maskUnits="userSpaceOnUse" x="0" y="0" width="15" height="16">
<path d="M15 0.5H0V15.5H15V0.5Z" fill="white"/>
</mask>
<g mask="url(#mask0_251_2445)">
<g clip-path="url(#clip1_251_2445)">
<path d="M3.05018 3.05041C3.57344 3.57367 4.87502 3.83814 6.05678 3.97157C7.57853 4.14314 9.12377 4.07715 10.6129 3.71743C11.7282 3.44781 12.9751 3.01273 13.6507 2.33719M12.9497 12.9499C12.4264 12.4266 12.1619 11.1251 12.0285 9.9433C11.857 8.4216 11.9229 6.87631 12.2827 5.38719C12.5523 4.27186 12.9874 3.02495 13.6629 2.34942M13.6568 2.3433L2.34307 13.657" stroke="white"/>
</g>
</g>
</g>
<defs>
<clipPath id="clip0_251_2445">
<rect width="15" height="15" fill="white" transform="translate(0 0.5)"/>
</clipPath>
<clipPath id="clip1_251_2445">
<rect width="18" height="18" fill="white" transform="translate(-1.5 -1.75)"/>
</clipPath>
</defs>
</svg>
