<svg width="86" height="86" viewBox="0 0 86 86" fill="none" xmlns="http://www.w3.org/2000/svg">
<path d="M51.2543 36.9456C53.1308 44.6899 46.8635 53.0325 36.9757 55.4285C27.088 57.8244 17.6969 53.276 15.8204 45.5317C13.9438 37.7873 20.2112 29.4447 30.099 27.0488C39.9867 24.6528 49.3777 29.2012 51.2543 36.9456Z" fill="#F8CEEE" stroke="black"/>
<path fill-rule="evenodd" clip-rule="evenodd" d="M71.1902 43.5782C71.1545 43.3781 71.1126 43.1782 71.0642 42.9786C69.4966 36.5093 61.7791 32.827 53.8265 34.754C45.874 36.681 40.698 43.4876 42.2656 49.9569C43.8332 56.4262 51.5508 60.1084 59.5033 58.1814C60.1123 58.0339 60.705 57.8577 61.2796 57.6552C73.0412 55.4787 75.7949 62.5013 75.7949 62.5013C75.7949 62.5013 74.816 58.462 71.3578 44.1902C71.306 43.976 71.25 43.7721 71.1902 43.5782Z" fill="#EDB72B"/>
<path d="M71.1902 43.5782L70.6979 43.6659L70.7033 43.6962L70.7124 43.7256L71.1902 43.5782ZM61.2796 57.6552L61.1886 57.1636L61.1503 57.1707L61.1135 57.1837L61.2796 57.6552ZM75.7949 62.5013L75.3294 62.6838L76.2808 62.3835L75.7949 62.5013ZM71.3578 44.1902L71.8438 44.0724L71.8438 44.0724L71.3578 44.1902ZM70.5783 43.0963C70.6242 43.286 70.6641 43.4759 70.6979 43.6659L71.6824 43.4905C71.645 43.2803 71.6009 43.0704 71.5502 42.8608L70.5783 43.0963ZM53.9443 35.24C61.727 33.3541 69.0973 36.9843 70.5783 43.0963L71.5502 42.8608C69.896 36.0342 61.8311 32.2999 53.7088 34.2681L53.9443 35.24ZM42.7516 49.8391C41.2706 43.7271 46.1616 37.1258 53.9443 35.24L53.7088 34.2681C45.5865 36.2362 40.1255 43.248 41.7797 50.0746L42.7516 49.8391ZM59.3856 57.6955C51.6029 59.5813 44.2326 55.9511 42.7516 49.8391L41.7797 50.0746C43.4339 56.9012 51.4987 60.6355 59.6211 58.6674L59.3856 57.6955ZM61.1135 57.1837C60.5547 57.3805 59.9782 57.5519 59.3856 57.6955L59.6211 58.6674C60.2464 58.5158 60.8553 58.3349 61.4458 58.1268L61.1135 57.1837ZM61.3706 58.1469C67.1411 57.079 70.631 58.2764 72.6646 59.6741C73.688 60.3774 74.3592 61.1427 74.7727 61.7269C74.9795 62.019 75.1216 62.2655 75.2106 62.4356C75.2551 62.5206 75.2862 62.5864 75.3056 62.6291C75.3152 62.6504 75.3219 62.666 75.3258 62.6753C75.3278 62.6799 75.329 62.683 75.3296 62.6844C75.3299 62.6851 75.33 62.6855 75.33 62.6853C75.33 62.6853 75.3299 62.6851 75.3298 62.6849C75.3298 62.6848 75.3296 62.6845 75.3296 62.6844C75.3295 62.6841 75.3294 62.6838 75.7949 62.5013C76.2604 62.3187 76.2602 62.3183 76.26 62.3179C76.26 62.3178 76.2598 62.3173 76.2597 62.317C76.2594 62.3163 76.2591 62.3155 76.2587 62.3146C76.258 62.3128 76.2571 62.3106 76.256 62.3079C76.2539 62.3026 76.251 62.2957 76.2474 62.2871C76.2402 62.2699 76.23 62.2463 76.2166 62.2167C76.1898 62.1576 76.1504 62.0747 76.0966 61.9719C75.9891 61.7665 75.8241 61.4813 75.5889 61.1491C75.1186 60.4846 74.3663 59.6302 73.231 58.85C70.9474 57.2805 67.1797 56.0549 61.1886 57.1636L61.3706 58.1469ZM75.7949 62.5013C76.2808 62.3835 76.2808 62.3835 76.2808 62.3834C76.2808 62.3834 76.2808 62.3834 76.2808 62.3833C76.2807 62.3832 76.2807 62.383 76.2806 62.3828C76.2805 62.3823 76.2803 62.3815 76.2801 62.3805C76.2796 62.3785 76.2789 62.3755 76.2779 62.3715C76.2759 62.3634 76.273 62.3512 76.269 62.3346C76.2609 62.3016 76.2487 62.2512 76.232 62.1821C76.1985 62.0437 76.1467 61.8302 76.0738 61.5294C75.928 60.9277 75.6976 59.9768 75.3591 58.5799C74.6821 55.7861 73.5729 51.2084 71.8438 44.0724L70.8719 44.3079C72.601 51.4438 73.7102 56.0216 74.3872 58.8154C74.7257 60.2123 74.9561 61.1632 75.1019 61.7649C75.1748 62.0657 75.2266 62.2793 75.2601 62.4176C75.2769 62.4867 75.2891 62.5371 75.2971 62.5702C75.3011 62.5867 75.3041 62.5989 75.306 62.607C75.307 62.611 75.3077 62.614 75.3082 62.616C75.3084 62.617 75.3086 62.6178 75.3087 62.6183C75.3088 62.6185 75.3089 62.6187 75.3089 62.6188C75.3089 62.6189 75.3089 62.6189 75.3089 62.619C75.3089 62.619 75.3089 62.619 75.7949 62.5013ZM71.8438 44.0724C71.7896 43.8489 71.731 43.6351 71.668 43.4308L70.7124 43.7256C70.769 43.9091 70.8223 44.1031 70.8719 44.3079L71.8438 44.0724Z" fill="black"/>
<path d="M52.9187 47.3752C53.2311 48.6643 52.4306 49.9725 51.1194 50.2902C49.8082 50.6079 48.4976 49.8113 48.1852 48.5222C47.8729 47.2331 48.6734 45.9249 49.9846 45.6072C51.2958 45.2895 52.6064 46.0861 52.9187 47.3752Z" fill="#51DA7F" stroke="black"/>
<path d="M59.1673 45.8615C59.4796 47.1507 58.6791 48.4588 57.3679 48.7765C56.0567 49.0943 54.7461 48.2976 54.4338 47.0085C54.1214 45.7194 54.9219 44.4112 56.2331 44.0935C57.5443 43.7758 58.8549 44.5724 59.1673 45.8615Z" fill="white" stroke="black"/>
<path d="M65.4163 44.3469C65.7287 45.636 64.9281 46.9442 63.6169 47.2619C62.3057 47.5796 60.9952 46.783 60.6828 45.4939C60.3704 44.2048 61.171 42.8966 62.4822 42.5789C63.7934 42.2612 65.1039 43.0578 65.4163 44.3469Z" fill="white" stroke="black"/>
<path d="M28.9759 42.344C29.2882 43.6331 28.4877 44.9412 27.1765 45.259C25.8653 45.5767 24.5547 44.7801 24.2424 43.4909C23.93 42.2018 24.7305 40.8937 26.0417 40.5759C27.3529 40.2582 28.6635 41.0548 28.9759 42.344Z" fill="black" stroke="black"/>
<path d="M35.2249 40.8293C35.5373 42.1184 34.7367 43.4266 33.4255 43.7443C32.1143 44.062 30.8037 43.2654 30.4914 41.9763C30.179 40.6872 30.9795 39.379 32.2908 39.0613C33.602 38.7436 34.9125 39.5402 35.2249 40.8293Z" fill="black" stroke="black"/>
<path d="M41.4734 39.3156C41.7858 40.6048 40.9852 41.9129 39.674 42.2306C38.3628 42.5484 37.0523 41.7517 36.7399 40.4626C36.4275 39.1735 37.2281 37.8653 38.5393 37.5476C39.8505 37.2299 41.1611 38.0265 41.4734 39.3156Z" fill="#2BEDE1" stroke="black"/>
<path d="M42.4634 25.1819L42.298 25.539L42.6085 25.7807L48.6261 30.4649L41.665 27.3123L41.3058 27.1497L41.0609 27.4587L36.315 33.4481L39.5209 26.5289L39.6864 26.1718L39.3759 25.9301L33.3583 21.2459L40.3193 24.3985L40.6786 24.5612L40.9235 24.2521L45.6693 18.2628L42.4634 25.1819Z" fill="white" stroke="black"/>
</svg>
