<svg width="184" height="43" viewBox="0 0 184 43" fill="none" xmlns="http://www.w3.org/2000/svg">
<path d="M92.2876 1.88564L92 1.16224L91.7124 1.88564L88.9442 8.84784L82.7184 1.90026L82.0939 1.20333L82.1797 2.1352L82.8042 8.91854L73.2587 2.17334L72.8127 2.58217L76.5998 9.06956L64.0196 2.67844L63.6701 3.18234L70.3613 9.32918L55.0991 3.39736L54.8243 3.94919L64.1694 9.72231L46.591 4.31665L46.3714 4.89404L58.1203 10.2612L38.5859 5.42372L38.408 6.01588L52.3129 10.9494L31.17 6.70521L31.0248 7.3065L46.8457 11.7842L24.4234 8.14642L24.3048 8.75368L41.8147 12.7591L18.4192 9.73122L18.323 10.3425L37.3107 13.8633L13.2226 11.442L13.146 12.0561L33.4173 15.083L8.89031 13.26L8.83105 13.876L30.2079 16.4016L5.46931 15.165L5.42599 15.7824L27.7443 17.7997L2.99687 17.1363L2.9685 17.7546L26.0745 19.2561L1.49981 19.1522L1.48578 19.771L25.2312 20.748L0.99435 21.1905V21.8095L25.2312 22.252L1.48578 23.229L1.49981 23.8478L26.0745 23.7439L2.9685 25.2454L2.99687 25.8637L27.7443 25.2003L5.42599 27.2176L5.46931 27.835L30.2079 26.5984L8.83105 29.124L8.89031 29.74L33.4173 27.917L13.146 30.9439L13.2226 31.558L37.3107 29.1367L18.323 32.6575L18.4192 33.2688L41.8147 30.2409L24.3048 34.2463L24.4234 34.8536L46.8457 31.2158L31.0248 35.6935L31.17 36.2948L52.3129 32.0506L38.408 36.9841L38.5859 37.5763L58.1203 32.7388L46.3714 38.106L46.591 38.6833L64.1694 33.2777L54.8243 39.0508L55.0991 39.6026L70.3613 33.6708L63.6701 39.8177L64.0196 40.3216L76.5998 33.9304L72.8127 40.4178L73.2587 40.8267L82.8042 34.0815L82.1797 40.8648L82.0939 41.7967L82.7184 41.0997L88.9442 34.1522L91.7124 41.1144L92 41.8378L92.2876 41.1144L95.0558 34.1522L101.282 41.0997L101.906 41.7967L101.82 40.8648L101.196 34.0815L110.741 40.8267L111.187 40.4178L107.4 33.9304L119.98 40.3216L120.33 39.8177L113.639 33.6708L128.901 39.6026L129.176 39.0508L119.831 33.2777L137.409 38.6833L137.629 38.106L125.88 32.7388L145.414 37.5763L145.592 36.9841L131.687 32.0506L152.83 36.2948L152.975 35.6935L137.154 31.2158L159.577 34.8536L159.695 34.2463L142.185 30.2409L165.581 33.2688L165.677 32.6575L146.689 29.1367L170.777 31.558L170.854 30.9439L150.583 27.917L175.11 29.74L175.169 29.124L153.792 26.5984L178.531 27.835L178.574 27.2176L156.256 25.2003L180.991 25.8631L181.003 25.8637L181.031 25.2454L181.02 25.2449L157.926 23.7439L182.489 23.8476L182.5 23.8478L182.514 23.229L182.503 23.2288L158.769 22.252L182.994 21.8095H183.006V21.1905H182.994L158.769 20.748L182.503 19.7712L182.514 19.771L182.5 19.1522L182.489 19.1524L157.926 19.2561L181.02 17.7551L181.031 17.7546L181.003 17.1363L180.991 17.1369L156.256 17.7997L178.574 15.7824L178.531 15.165L153.792 16.4016L175.169 13.876L175.11 13.26L150.583 15.083L170.854 12.0561L170.777 11.442L146.689 13.8633L165.677 10.3425L165.581 9.73122L142.185 12.7591L159.695 8.75368L159.577 8.14642L137.154 11.7842L152.975 7.3065L152.83 6.70521L131.687 10.9494L145.592 6.01588L145.414 5.42372L125.88 10.2612L137.629 4.89404L137.409 4.31665L119.831 9.72231L129.176 3.94919L128.901 3.39736L113.639 9.32918L120.33 3.18234L119.98 2.67844L107.4 9.06956L111.187 2.58217L110.741 2.17334L101.196 8.91854L101.82 2.1352L101.906 1.20333L101.282 1.90026L95.0558 8.84784L92.2876 1.88564Z" fill="#FBD445" stroke="#4B0096" stroke-width="0.619048"/>
<path d="M42.1843 27.9351C38.579 27.9351 36.187 25.5777 36.187 21.9551C36.187 18.3324 38.579 15.9751 42.1843 15.9751C45.4603 15.9751 47.7483 17.7084 47.7483 20.4817V20.7244H45.6857V20.4817C45.6857 18.7137 44.559 17.7604 42.2017 17.7604C39.4803 17.7604 38.163 19.0604 38.163 21.9551C38.163 24.8497 39.4803 26.1324 42.2017 26.1324C44.559 26.1324 45.6857 25.1964 45.6857 23.4111V23.1857H47.7483V23.4111C47.7483 26.2017 45.4777 27.9351 42.1843 27.9351ZM53.5301 27.9351C50.6701 27.9351 48.7461 26.1151 48.7461 23.4631C48.7461 20.7764 50.6701 18.9737 53.5301 18.9737C56.4074 18.9737 58.3314 20.7764 58.3314 23.4631C58.3314 26.1151 56.4074 27.9351 53.5301 27.9351ZM53.5301 26.2711C55.6274 26.2711 56.4941 25.2831 56.4941 23.4631C56.4941 21.6257 55.6274 20.6204 53.5301 20.6204C51.4501 20.6204 50.5834 21.6257 50.5834 23.4631C50.5834 25.2831 51.4501 26.2711 53.5301 26.2711ZM61.5619 27.7617H59.6899V19.1471H61.4059V21.7471H61.5099C61.7352 20.3084 62.6712 18.9737 64.8206 18.9737C66.7792 18.9737 67.8366 20.1697 68.0792 21.8164H68.1832C68.4086 20.3431 69.3792 18.9737 71.5632 18.9737C73.7992 18.9737 74.9259 20.4991 74.9259 22.5791V27.7617H73.0712V23.0817C73.0712 21.3831 72.3952 20.6551 70.7312 20.6551C68.8939 20.6551 68.2352 21.5911 68.2352 23.4977V27.7617H66.3806V23.0817C66.3806 21.3831 65.7219 20.6551 64.0579 20.6551C62.2032 20.6551 61.5619 21.5911 61.5619 23.4977V27.7617ZM78.4721 18.1417H76.6001V16.1484H78.4721V18.1417ZM78.4721 27.7617H76.6001V19.1471H78.4721V27.7617ZM82.0775 27.7617H80.2055V19.1471H81.9215V21.8164H82.0429C82.3029 20.3604 83.4469 18.9737 85.6309 18.9737C88.0229 18.9737 89.2015 20.5857 89.2015 22.5791V27.7617H87.3295V23.0817C87.3295 21.4697 86.6015 20.6551 84.8162 20.6551C82.9269 20.6551 82.0775 21.6257 82.0775 23.4977V27.7617ZM94.6136 26.9817C92.0483 26.9817 90.5229 25.3697 90.5229 22.9777C90.5229 20.5857 92.1176 18.9737 94.7349 18.9737C96.5376 18.9737 97.8896 19.7884 98.2016 21.2964H98.3056V19.1471H100.022V26.7564C100.022 29.6511 98.2189 30.8817 95.3936 30.8817C92.8456 30.8817 91.0776 29.6857 91.0776 27.6057H92.9323C92.9323 28.8537 93.6603 29.3217 95.4976 29.3217C97.4563 29.3217 98.1669 28.7844 98.1669 26.8604V24.7457H98.0456C97.7336 26.0457 96.5723 26.9817 94.6136 26.9817ZM92.4123 22.9777C92.4123 24.7457 93.4523 25.3697 95.2203 25.3697C97.1269 25.3697 98.1669 24.5724 98.1669 23.0471V22.8044C98.1669 21.3484 97.0923 20.6031 95.2723 20.6031C93.4696 20.6031 92.4123 21.2097 92.4123 22.9777ZM109.587 27.9351C106.12 27.9351 104.352 26.4097 104.352 23.9657V23.8617H106.224V24.1391C106.224 25.5257 107.039 26.2191 109.587 26.2191C111.805 26.2191 112.585 25.7337 112.585 24.6417C112.585 23.6364 111.996 23.2551 110.523 22.9777L107.68 22.5097C105.721 22.1631 104.335 21.2617 104.335 19.3551C104.335 17.6737 105.721 15.9751 109.327 15.9751C112.724 15.9751 114.267 17.6737 114.267 19.9444V20.0484H112.412V19.8231C112.412 18.4017 111.563 17.6911 109.153 17.6911C107.039 17.6911 106.207 18.2111 106.207 19.2511C106.207 20.2564 106.796 20.5857 108.165 20.8804L110.991 21.3657C113.313 21.7817 114.457 22.8391 114.457 24.5377C114.457 26.3057 113.019 27.9351 109.587 27.9351ZM120.189 27.9351C117.329 27.9351 115.405 26.1151 115.405 23.4631C115.405 20.7764 117.329 18.9737 120.189 18.9737C123.066 18.9737 124.99 20.7764 124.99 23.4631C124.99 26.1151 123.066 27.9351 120.189 27.9351ZM120.189 26.2711C122.286 26.2711 123.153 25.2831 123.153 23.4631C123.153 21.6257 122.286 20.6204 120.189 20.6204C118.109 20.6204 117.242 21.6257 117.242 23.4631C117.242 25.2831 118.109 26.2711 120.189 26.2711ZM130.751 27.9351C127.891 27.9351 125.967 26.1151 125.967 23.4631C125.967 20.7764 127.891 18.9737 130.751 18.9737C133.629 18.9737 135.553 20.7764 135.553 23.4631C135.553 26.1151 133.629 27.9351 130.751 27.9351ZM130.751 26.2711C132.849 26.2711 133.715 25.2831 133.715 23.4631C133.715 21.6257 132.849 20.6204 130.751 20.6204C128.671 20.6204 127.805 21.6257 127.805 23.4631C127.805 25.2831 128.671 26.2711 130.751 26.2711ZM138.783 27.7617H136.911V16.1484H138.922L144.122 22.9431L145.63 25.1097H145.769L145.682 23.0124V16.1484H147.554V27.7617H145.543L140.309 20.9844L138.853 18.9391H138.714L138.783 20.9497V27.7617Z" fill="#4B0096"/>
</svg>
