<svg width="385" height="125" viewBox="0 0 385 125" fill="none" xmlns="http://www.w3.org/2000/svg">
<g filter="url(#filter0_d_314_166)">
<rect width="369" height="91.205" rx="12" transform="matrix(0.998098 0.0616416 -0.0618015 0.998088 5.66895 0)" fill="#FD243E" shape-rendering="crispEdges"/>
<path d="M23.9153 72.8657L18.2461 72.5156L21.5587 19.0181L27.2279 19.3682L23.9153 72.8657ZM39.1207 73.8048L33.4515 73.4547L35.8939 34.0102L41.0042 34.3258L40.2675 46.223L40.5869 46.2428C42.1151 39.6845 47.0422 33.8972 56.8635 34.5037C65.6468 35.0462 70.2612 40.7815 71.0641 48.5258L71.4633 48.5504C73.0014 41.8324 78.103 35.8155 88.0042 36.427C98.3046 37.0631 103.204 44.6596 102.586 54.6405L101.163 77.6364L95.4933 77.2863L96.8678 55.0888C97.4117 46.3056 93.911 42.0017 85.6068 41.4888C76.1049 40.902 71.931 46.1747 71.2834 56.6347L70.1017 75.7181L64.4325 75.368L65.807 53.1705C66.3508 44.3874 62.93 40.0883 54.6258 39.5755C45.0441 38.9837 40.9501 44.2614 40.3024 54.7213L39.1207 73.8048ZM121.304 79.6819C113.559 79.2035 108.516 75.2051 108.912 68.8173C109.312 62.3497 114.835 59.8855 122.231 59.5407L141.123 58.6235L141.311 55.5893C141.786 47.924 138.62 44.6827 129.997 44.1501C121.533 43.6274 116.873 46.3854 116.443 53.3321L116.423 53.6515L110.754 53.3014L110.774 52.982C111.288 44.6779 118.575 38.315 130.712 39.0646C142.689 39.8043 147.374 46.9867 146.836 55.6901L145.308 80.3628L140.198 80.0472L140.855 69.4275L140.456 69.4029C137.69 76.526 130.487 80.249 121.304 79.6819ZM114.606 68.7682C114.358 72.7606 116.865 74.9993 122.853 75.3692C132.435 75.9609 140.283 72.1975 140.871 62.6957L140.891 62.3763L123.765 63.2423C117.821 63.4363 114.858 64.696 114.606 68.7682ZM171.752 78.7899C160.015 78.065 153.308 69.876 153.976 59.0967C154.643 48.3173 162.548 41.0307 174.685 41.7803C182.989 42.2932 189.295 46.61 190.457 53.7352L190.856 53.7599L191.484 43.6193L196.594 43.9349L194.384 79.6265C193.578 92.6416 185.037 97.2439 173.14 96.5091C162.44 95.8483 154.627 89.9956 155.196 80.8132L160.865 81.1633C160.435 88.11 164.898 91.1108 173.681 91.6532C183.902 92.2845 188.087 89.417 188.695 79.5958L189.333 69.2955L188.934 69.2709C186.961 75.2406 180.855 79.3521 171.752 78.7899ZM159.645 59.4468C159.022 69.5075 165.037 73.3256 173.581 73.8532C183.322 74.4548 189.293 69.9343 189.812 61.5504L189.896 60.193C190.376 52.4478 184.754 47.4517 175.651 46.8896C166.788 46.3422 160.268 49.386 159.645 59.4468ZM212.175 39.8476L206.506 39.4974L207.065 30.4747L212.734 30.8248L212.175 39.8476ZM209.421 84.3224L203.752 83.9723L206.194 44.5278L211.864 44.8779L209.421 84.3224ZM224.627 85.2615L218.957 84.9113L221.4 45.4669L226.51 45.7825L225.744 58.1588L226.143 58.1834C227.916 51.5601 233.906 45.4377 243.727 46.0442C254.826 46.7297 259.846 54.9748 259.267 64.3169L257.843 87.3129L252.174 86.9628L253.549 64.7653C254.053 56.6209 250.432 51.6683 241.409 51.111C231.828 50.5193 226.436 56.0374 225.808 66.178L224.627 85.2615ZM285.784 89.84C273.088 89.0559 265.518 80.5731 266.294 68.0371C267.036 56.0601 275.549 48.0096 288.245 48.7937C299.823 49.5087 307.632 56.7238 306.905 68.4613C306.816 69.8985 306.583 71.0864 306.279 72.1096L271.545 69.9645C271.315 78.8472 275.536 84.4781 285.996 85.1241C295.258 85.6961 299.782 82.529 300.138 76.78L300.173 76.2211L305.842 76.5712L305.808 77.1301C305.298 85.3544 296.803 90.5205 285.784 89.84ZM287.874 53.4997C277.653 52.8685 272.696 57.8524 271.762 66.4512L301.546 68.2906C301.57 67.8914 301.595 67.4921 301.62 67.0929C302.134 58.7888 297.136 54.0717 287.874 53.4997ZM330.033 92.5728C317.417 91.7936 310.92 82.816 311.661 70.839C312.403 58.8619 319.959 50.7522 332.095 51.5018C341.438 52.0788 346.955 57.4691 348.291 64.3646L348.691 64.3893L350.243 39.3173L355.912 39.6674L352.6 93.1649L347.41 92.8444L348.131 81.1867L347.812 81.167C345.406 88.9535 338.737 93.1103 330.033 92.5728ZM317.41 71.194C316.703 82.6122 322.529 86.8995 331.792 87.4715C341.054 88.0435 347.534 83.0735 348.112 73.7314L348.157 73.0127C348.76 63.2714 343.267 57.4818 333.526 56.8802C324.503 56.323 318.117 59.7759 317.41 71.194Z" fill="white"/>
<ellipse cx="2.99995" cy="2.99995" rx="2.99995" ry="2.99995" transform="matrix(0.998987 -0.0453778 0.0452198 0.99896 12.0322 9)" fill="#16161A"/>
<path d="M15.3118 15.1073C17.1048 15.0258 18.4926 13.5063 18.4114 11.7132C18.3303 9.92019 16.8109 8.53268 15.0178 8.61413C13.2248 8.69558 11.837 10.2151 11.9181 12.0082C11.9993 13.8012 13.5187 15.1887 15.3118 15.1073Z" stroke="#949ABB" stroke-opacity="0.93" stroke-width="0.5"/>
</g>
<defs>
<filter id="filter0_d_314_166" x="0.0322266" y="0" width="384.935" height="124.776" filterUnits="userSpaceOnUse" color-interpolation-filters="sRGB">
<feFlood flood-opacity="0" result="BackgroundImageFix"/>
<feColorMatrix in="SourceAlpha" type="matrix" values="0 0 0 0 0 0 0 0 0 0 0 0 0 0 0 0 0 0 127 0" result="hardAlpha"/>
<feOffset dx="11" dy="11"/>
<feComposite in2="hardAlpha" operator="out"/>
<feColorMatrix type="matrix" values="0 0 0 0 0.247269 0 0 0 0 0.271754 0 0 0 0 0.300497 0 0 0 0.56 0"/>
<feBlend mode="normal" in2="BackgroundImageFix" result="effect1_dropShadow_314_166"/>
<feBlend mode="normal" in="SourceGraphic" in2="effect1_dropShadow_314_166" result="shape"/>
</filter>
</defs>
</svg>
