<svg width="774" height="332" viewBox="0 0 774 332" fill="none" xmlns="http://www.w3.org/2000/svg">
<path opacity="0.5" d="M437.751 17.7764H436.599V6.32037H437.751V11.4244H443.943V6.32037H445.079V17.7764H443.943V12.4964H437.751V17.7764ZM447.096 13.9044C447.096 11.5364 448.76 9.82437 451.032 9.82437C453.304 9.82437 454.968 11.5364 454.968 13.9044C454.968 16.2564 453.304 17.9684 451.032 17.9684C448.76 17.9684 447.096 16.2564 447.096 13.9044ZM448.216 13.8884C448.216 15.7124 449.368 16.9764 451.032 16.9764C452.68 16.9764 453.848 15.7124 453.848 13.8884C453.848 12.0964 452.68 10.8164 451.032 10.8164C449.368 10.8164 448.216 12.0964 448.216 13.8884ZM461.986 10.0324H463.09V17.7764H462.13L461.986 16.4644C461.554 17.3604 460.482 17.9684 459.266 17.9684C457.442 17.9684 456.45 16.7204 456.45 14.8324V10.0164H457.57V14.4804C457.57 16.3204 458.386 16.9764 459.618 16.9764C461.106 16.9764 461.986 15.9844 461.986 14.1444V10.0324ZM469.438 9.93637V10.9284H468.83C467.406 10.9284 466.494 11.8884 466.494 13.3604V17.7764H465.39V10.0324H466.43L466.51 11.2324C466.814 10.4004 467.63 9.85637 468.718 9.85637C468.958 9.85637 469.166 9.87237 469.438 9.93637ZM470.25 15.6004H471.306C471.306 16.4964 471.978 17.0564 473.066 17.0564C474.266 17.0564 474.97 16.5444 474.97 15.7124C474.97 15.0724 474.65 14.7044 473.738 14.4804L472.41 14.1444C471.066 13.8084 470.41 13.1044 470.41 12.0484C470.41 10.6884 471.546 9.82437 473.21 9.82437C474.842 9.82437 475.898 10.7204 475.946 12.1604H474.874C474.842 11.2644 474.218 10.7364 473.178 10.7364C472.09 10.7364 471.482 11.2004 471.482 12.0324C471.482 12.6244 471.898 13.0404 472.746 13.2484L474.074 13.5844C475.418 13.9204 476.026 14.5444 476.026 15.6644C476.026 17.0564 474.842 17.9684 473.082 17.9684C471.338 17.9684 470.25 17.0404 470.25 15.6004ZM481.625 15.6004H482.681C482.681 16.4964 483.353 17.0564 484.441 17.0564C485.641 17.0564 486.345 16.5444 486.345 15.7124C486.345 15.0724 486.025 14.7044 485.113 14.4804L483.785 14.1444C482.441 13.8084 481.785 13.1044 481.785 12.0484C481.785 10.6884 482.921 9.82437 484.585 9.82437C486.217 9.82437 487.273 10.7204 487.321 12.1604H486.249C486.217 11.2644 485.593 10.7364 484.553 10.7364C483.465 10.7364 482.857 11.2004 482.857 12.0324C482.857 12.6244 483.273 13.0404 484.121 13.2484L485.449 13.5844C486.793 13.9204 487.401 14.5444 487.401 15.6644C487.401 17.0564 486.217 17.9684 484.457 17.9684C482.713 17.9684 481.625 17.0404 481.625 15.6004ZM489.218 21.1524V10.0324H490.178L490.29 11.6004C490.834 10.4004 491.922 9.82437 493.218 9.82437C495.458 9.82437 496.802 11.5364 496.802 13.8724C496.802 16.2084 495.506 17.9684 493.218 17.9684C491.906 17.9684 490.866 17.4084 490.322 16.2884V21.1524H489.218ZM490.338 13.9044C490.338 15.6804 491.33 16.9764 493.026 16.9764C494.706 16.9764 495.682 15.6804 495.682 13.9044C495.682 12.1124 494.706 10.8324 493.026 10.8324C491.33 10.8324 490.338 12.1124 490.338 13.9044ZM501.81 17.9684C499.538 17.9684 498.018 16.3364 498.018 13.9044C498.018 11.4884 499.522 9.82437 501.73 9.82437C503.826 9.82437 505.25 11.3124 505.25 13.5044V14.0484H499.09C499.17 15.9364 500.162 17.0244 501.826 17.0244C503.09 17.0244 503.906 16.4804 504.194 15.4564H505.25C504.834 17.0884 503.634 17.9684 501.81 17.9684ZM501.73 10.7684C500.274 10.7684 499.314 11.7284 499.122 13.2484H504.146C504.146 11.7604 503.186 10.7684 501.73 10.7684ZM508.119 17.7764H507.015V10.0324H507.975L508.135 11.3764C508.647 10.3844 509.671 9.82437 510.791 9.82437C512.919 9.82437 513.799 11.0884 513.799 13.0404V17.7764H512.695V13.2804C512.695 11.4724 511.879 10.8324 510.599 10.8324C509.015 10.8324 508.119 11.9844 508.119 13.7284V17.7764ZM517.775 17.7764H516.687V10.9604H515.135V10.0324H516.687V7.58437H517.775V10.0324H519.327V10.9604H517.775V17.7764ZM528.45 17.9684C526.178 17.9684 524.658 16.3364 524.658 13.9044C524.658 11.4884 526.162 9.82437 528.37 9.82437C530.466 9.82437 531.89 11.3124 531.89 13.5044V14.0484H525.73C525.81 15.9364 526.802 17.0244 528.466 17.0244C529.73 17.0244 530.546 16.4804 530.834 15.4564H531.89C531.474 17.0884 530.274 17.9684 528.45 17.9684ZM528.37 10.7684C526.914 10.7684 525.954 11.7284 525.762 13.2484H530.786C530.786 11.7604 529.826 10.7684 528.37 10.7684ZM535.801 17.9684C534.153 17.9684 533.177 17.0404 533.177 15.6804C533.177 14.2564 534.265 13.3604 536.073 13.2164L538.633 13.0084V12.7524C538.633 11.2324 537.721 10.7524 536.585 10.7524C535.241 10.7524 534.441 11.3604 534.441 12.4004H533.433C533.433 10.8324 534.713 9.82437 536.617 9.82437C538.409 9.82437 539.721 10.7204 539.721 12.7684V17.7764H538.793L538.649 16.4164C538.169 17.3924 537.113 17.9684 535.801 17.9684ZM536.057 17.0724C537.689 17.0724 538.633 15.9364 538.633 14.2564V13.8404L536.345 14.0164C534.889 14.1444 534.297 14.7844 534.297 15.6484C534.297 16.5924 535.001 17.0724 536.057 17.0724ZM541.393 13.9204C541.393 11.4884 542.881 9.82437 545.137 9.82437C546.929 9.82437 548.241 10.8644 548.545 12.4644H547.441C547.153 11.3924 546.225 10.8004 545.153 10.8004C543.585 10.8004 542.481 12.0004 542.481 13.9044C542.481 15.7444 543.505 16.9764 545.073 16.9764C546.225 16.9764 547.153 16.3364 547.457 15.3444H548.577C548.209 16.9284 546.833 17.9684 545.073 17.9684C542.881 17.9684 541.393 16.3524 541.393 13.9204ZM551.353 17.7604H550.249V6.11237H551.353V11.3764C551.849 10.4484 552.793 9.82437 554.089 9.82437C556.121 9.82437 557.033 11.0884 557.033 13.0404V17.7764H555.929V13.2804C555.929 11.4724 555.081 10.8324 553.881 10.8324C552.217 10.8324 551.353 12.0644 551.353 13.5524V17.7604ZM565.303 17.7764L562.743 10.0324H563.879L565.399 14.7044C565.575 15.2164 565.719 15.7444 565.879 16.3684C566.007 15.7444 566.263 14.9604 566.343 14.7044L567.879 10.0324H569.015L570.535 14.7044C570.679 15.1204 570.871 15.7924 571.015 16.3684C571.175 15.7284 571.207 15.5364 571.479 14.7044L573.015 10.0324H574.167L571.543 17.7764H570.471L568.871 12.9124C568.679 12.3364 568.551 11.8564 568.455 11.3924C568.343 11.8084 568.215 12.2724 568.007 12.9124L566.407 17.7764H565.303ZM578.45 17.9684C576.178 17.9684 574.658 16.3364 574.658 13.9044C574.658 11.4884 576.162 9.82437 578.37 9.82437C580.466 9.82437 581.89 11.3124 581.89 13.5044V14.0484H575.73C575.81 15.9364 576.802 17.0244 578.466 17.0244C579.73 17.0244 580.546 16.4804 580.834 15.4564H581.89C581.474 17.0884 580.274 17.9684 578.45 17.9684ZM578.37 10.7684C576.914 10.7684 575.954 11.7284 575.762 13.2484H580.786C580.786 11.7604 579.826 10.7684 578.37 10.7684ZM586.904 17.9684C584.632 17.9684 583.112 16.3364 583.112 13.9044C583.112 11.4884 584.616 9.82437 586.824 9.82437C588.92 9.82437 590.344 11.3124 590.344 13.5044V14.0484H584.184C584.264 15.9364 585.256 17.0244 586.92 17.0244C588.184 17.0244 589 16.4804 589.288 15.4564H590.344C589.928 17.0884 588.728 17.9684 586.904 17.9684ZM586.824 10.7684C585.368 10.7684 584.408 11.7284 584.216 13.2484H589.24C589.24 11.7604 588.28 10.7684 586.824 10.7684ZM593.261 17.7764H592.157V6.11237H593.261V14.0324L597.101 10.0324H598.493L595.517 13.1204L598.509 17.7764H597.229L594.765 13.9044L593.261 15.4564V17.7764Z" fill="white"/>
<path opacity="0.5" d="M268.745 326.776H261.193V325.864L264.857 322.664C266.969 320.824 267.513 320.024 267.513 318.664C267.513 317.112 266.585 316.168 265.065 316.168C263.481 316.168 262.441 317.32 262.393 319.096H261.241C261.305 316.696 262.825 315.112 265.081 315.112C267.241 315.112 268.681 316.504 268.681 318.6C268.681 320.264 267.929 321.368 265.641 323.368L262.969 325.704H268.745V326.776ZM271.616 326.952C271.072 326.952 270.608 326.504 270.608 325.976C270.608 325.432 271.072 324.968 271.616 324.968C272.16 324.968 272.624 325.432 272.624 325.976C272.624 326.504 272.16 326.952 271.616 326.952ZM282.436 324.344H281.092V326.776H279.972V324.344H273.956V323.32L279.556 315.32H281.092V323.32H282.436V324.344ZM275.204 323.32H279.972V316.504L275.204 323.32Z" fill="white"/>
<path opacity="0.5" d="M755.402 320.632H754.49V319.832L758.026 316.344H752.538V315.32H759.482V316.248L756.058 319.656C758.202 319.768 759.738 321.128 759.738 323.208C759.738 325.48 758.074 326.968 755.754 326.968C753.498 326.968 751.978 325.576 751.978 323.288H753.114C753.114 324.936 754.138 325.928 755.754 325.928C757.466 325.928 758.57 324.84 758.57 323.176C758.57 321.608 757.45 320.632 755.402 320.632ZM762.153 326.952C761.609 326.952 761.145 326.504 761.145 325.976C761.145 325.432 761.609 324.968 762.153 324.968C762.697 324.968 763.161 325.432 763.161 325.976C763.161 326.504 762.697 326.952 762.153 326.952ZM765.936 319.176L768.8 315.32H770.144L767.136 319.304C767.68 319.032 768.176 318.92 768.704 318.92C771.088 318.92 772.672 320.664 772.672 322.904C772.672 325.256 770.896 326.968 768.608 326.968C766.304 326.968 764.496 325.192 764.496 322.904C764.496 321.576 764.864 320.648 765.936 319.176ZM765.664 322.92C765.664 324.664 766.864 325.928 768.608 325.928C770.304 325.928 771.52 324.664 771.52 322.92C771.52 321.176 770.304 319.928 768.608 319.928C766.864 319.928 765.664 321.176 765.664 322.92Z" fill="white"/>
<path opacity="0.5" d="M632.443 320.632H631.531V319.832L635.067 316.344H629.579V315.32H636.523V316.248L633.099 319.656C635.243 319.768 636.779 321.128 636.779 323.208C636.779 325.48 635.115 326.968 632.795 326.968C630.539 326.968 629.019 325.576 629.019 323.288H630.155C630.155 324.936 631.179 325.928 632.795 325.928C634.507 325.928 635.611 324.84 635.611 323.176C635.611 321.608 634.491 320.632 632.443 320.632ZM639.194 326.952C638.65 326.952 638.186 326.504 638.186 325.976C638.186 325.432 638.65 324.968 639.194 324.968C639.738 324.968 640.202 325.432 640.202 325.976C640.202 326.504 639.738 326.952 639.194 326.952ZM644.943 320.632H644.031V319.832L647.567 316.344H642.079V315.32H649.023V316.248L645.599 319.656C647.743 319.768 649.279 321.128 649.279 323.208C649.279 325.48 647.615 326.968 645.295 326.968C643.039 326.968 641.519 325.576 641.519 323.288H642.655C642.655 324.936 643.679 325.928 645.295 325.928C647.007 325.928 648.111 324.84 648.111 323.176C648.111 321.608 646.991 320.632 644.943 320.632Z" fill="white"/>
<path opacity="0.5" d="M509.079 320.632H508.167V319.832L511.703 316.344H506.215V315.32H513.159V316.248L509.735 319.656C511.879 319.768 513.415 321.128 513.415 323.208C513.415 325.48 511.751 326.968 509.431 326.968C507.175 326.968 505.655 325.576 505.655 323.288H506.791C506.791 324.936 507.815 325.928 509.431 325.928C511.143 325.928 512.247 324.84 512.247 323.176C512.247 321.608 511.127 320.632 509.079 320.632ZM515.83 326.952C515.286 326.952 514.822 326.504 514.822 325.976C514.822 325.432 515.286 324.968 515.83 324.968C516.374 324.968 516.838 325.432 516.838 325.976C516.838 326.504 516.374 326.952 515.83 326.952ZM518.068 321.048C518.068 317.496 519.812 315.096 522.66 315.096C525.492 315.096 527.236 317.496 527.236 321.048C527.236 324.616 525.524 326.984 522.66 326.984C519.78 326.984 518.068 324.616 518.068 321.048ZM519.204 321.048C519.204 324.024 520.468 325.944 522.66 325.944C524.852 325.944 526.116 324.024 526.116 321.048C526.116 318.056 524.852 316.152 522.66 316.152C520.468 316.152 519.204 318.056 519.204 321.048Z" fill="white"/>
<path opacity="0.5" d="M392.104 326.776H384.552V325.864L388.216 322.664C390.328 320.824 390.872 320.024 390.872 318.664C390.872 317.112 389.944 316.168 388.424 316.168C386.84 316.168 385.8 317.32 385.752 319.096H384.6C384.664 316.696 386.184 315.112 388.44 315.112C390.6 315.112 392.04 316.504 392.04 318.6C392.04 320.264 391.288 321.368 389 323.368L386.328 325.704H392.104V326.776ZM394.975 326.952C394.431 326.952 393.967 326.504 393.967 325.976C393.967 325.432 394.431 324.968 394.975 324.968C395.519 324.968 395.983 325.432 395.983 325.976C395.983 326.504 395.519 326.952 394.975 326.952ZM396.726 315.32H404.518V316.376L400.006 326.776H398.822L403.35 316.376H396.726V315.32Z" fill="white"/>
<path d="M6.90963 52.9524C3.61363 52.9524 1.42163 50.5844 1.42163 47.0004C1.42163 43.4324 3.67763 41.0164 6.98963 41.0164C9.59763 41.0164 11.5976 42.5684 12.0296 44.9364H10.3496C9.91763 43.4324 8.62163 42.5204 6.94163 42.5204C4.60563 42.5204 3.06963 44.2804 3.06963 46.9844C3.06963 49.6884 4.60563 51.4484 6.94163 51.4484C8.63763 51.4484 9.98163 50.5364 10.4136 49.1124H12.0776C11.5816 51.4164 9.51763 52.9524 6.90963 52.9524ZM13.2323 48.8564C13.2323 46.4404 14.9603 44.7444 17.3123 44.7444C19.6483 44.7444 21.3763 46.4404 21.3763 48.8564C21.3763 51.2724 19.6483 52.9684 17.3123 52.9684C14.9603 52.9684 13.2323 51.2724 13.2323 48.8564ZM14.7523 48.8564C14.7523 50.4884 15.7923 51.6244 17.3123 51.6244C18.8163 51.6244 19.8723 50.4884 19.8723 48.8564C19.8723 47.2244 18.8163 46.0884 17.3123 46.0884C15.7923 46.0884 14.7523 47.2244 14.7523 48.8564ZM24.5771 52.7764H23.0731V41.0004H24.5771V52.7764ZM28.3271 52.7764H26.8231V41.0004H28.3271V52.7764ZM33.9171 52.9684C31.6131 52.9684 30.0291 51.3044 30.0291 48.8724C30.0291 46.4244 31.5811 44.7284 33.8531 44.7284C36.0771 44.7284 37.5331 46.2644 37.5331 48.5844V49.1444L31.4851 49.1604C31.5971 50.8084 32.4611 51.7204 33.9491 51.7204C35.1171 51.7204 35.8851 51.2404 36.1411 50.3444H37.5491C37.1651 52.0244 35.8531 52.9684 33.9171 52.9684ZM33.8531 45.9924C32.5411 45.9924 31.7091 46.7764 31.5171 48.1524H36.0291C36.0291 46.8564 35.1811 45.9924 33.8531 45.9924ZM38.701 48.8724C38.701 46.4244 40.253 44.7284 42.541 44.7284C44.509 44.7284 45.885 45.8484 46.157 47.5924H44.653C44.397 46.6004 43.597 46.0724 42.589 46.0724C41.165 46.0724 40.189 47.1604 40.189 48.8564C40.189 50.5364 41.101 51.6244 42.525 51.6244C43.597 51.6244 44.397 51.0644 44.669 50.1364H46.173C45.869 51.8324 44.413 52.9684 42.525 52.9684C40.221 52.9684 38.701 51.3364 38.701 48.8724ZM49.9679 52.7764H48.4639V46.2164H46.9279V44.9524H48.4639V42.5044H49.9679V44.9524H51.5039V46.2164H49.9679V52.7764ZM53.5896 43.0964C53.0456 43.0964 52.5976 42.6484 52.5976 42.1044C52.5976 41.5444 53.0456 41.1124 53.5896 41.1124C54.1336 41.1124 54.5816 41.5444 54.5816 42.1044C54.5816 42.6484 54.1336 43.0964 53.5896 43.0964ZM52.8536 52.7764V44.9524H54.3576V52.7764H52.8536ZM58.0451 52.7764H56.5411V44.9524H57.9011L58.0611 46.1524C58.5571 45.2564 59.5491 44.7284 60.6531 44.7284C62.7171 44.7284 63.6611 45.9924 63.6611 47.9924V52.7764H62.1571V48.3284C62.1571 46.7444 61.4211 46.1044 60.2691 46.1044C58.8611 46.1044 58.0451 47.1124 58.0451 48.6324V52.7764ZM65.2483 48.6644C65.2483 46.4564 66.6723 44.7284 68.9443 44.7284C70.2083 44.7284 71.1843 45.3044 71.6803 46.2804L71.7923 44.9524H73.1363V52.4564C73.1363 54.9204 71.6163 56.4884 69.2163 56.4884C67.0883 56.4884 65.6323 55.2884 65.3443 53.3044H66.8483C67.0403 54.4564 67.9043 55.1284 69.2163 55.1284C70.6883 55.1284 71.6483 54.1684 71.6483 52.6804V51.1124C71.1363 52.0244 70.1123 52.5684 68.8802 52.5684C66.6562 52.5684 65.2483 50.8564 65.2483 48.6644ZM66.7523 48.6324C66.7523 50.1044 67.6643 51.2564 69.1363 51.2564C70.6563 51.2564 71.5843 50.1684 71.5843 48.6324C71.5843 47.1284 70.6883 46.0404 69.1523 46.0404C67.6483 46.0404 66.7523 47.1924 66.7523 48.6324ZM77.5628 52.1524C77.5628 53.3044 76.6988 54.2644 75.5628 54.4084V53.7364C76.2188 53.6244 76.6828 53.1924 76.6828 52.6964C76.5707 52.7604 76.4428 52.7924 76.2508 52.7924C75.7228 52.7924 75.2747 52.4084 75.2747 51.8164C75.2747 51.1764 75.7068 50.7124 76.3468 50.7124C77.0188 50.7124 77.5628 51.2724 77.5628 52.1524ZM94.7916 46.9844C94.7916 50.5044 92.4876 52.9684 89.2076 52.9684C85.9436 52.9684 83.6716 50.5044 83.6716 46.9844C83.6716 43.4804 85.9596 41.0004 89.2236 41.0004C92.5036 41.0004 94.7916 43.4644 94.7916 46.9844ZM93.1436 46.9844C93.1436 44.2964 91.5756 42.5204 89.2236 42.5204C86.8716 42.5204 85.3196 44.2964 85.3196 46.9844C85.3196 49.6724 86.8716 51.4644 89.2236 51.4644C91.5756 51.4644 93.1436 49.6564 93.1436 46.9844ZM101.021 44.8884V46.2644H100.349C98.9251 46.2644 98.0451 47.1284 98.0451 48.6324V52.7764H96.5411V44.9684H97.9491L98.0451 46.1524C98.3651 45.3364 99.1491 44.7924 100.221 44.7924C100.493 44.7924 100.717 44.8244 101.021 44.8884ZM101.764 48.6644C101.764 46.4564 103.188 44.7284 105.46 44.7284C106.724 44.7284 107.7 45.3044 108.196 46.2804L108.308 44.9524H109.652V52.4564C109.652 54.9204 108.132 56.4884 105.732 56.4884C103.604 56.4884 102.148 55.2884 101.86 53.3044H103.364C103.556 54.4564 104.42 55.1284 105.732 55.1284C107.204 55.1284 108.164 54.1684 108.164 52.6804V51.1124C107.652 52.0244 106.628 52.5684 105.396 52.5684C103.172 52.5684 101.764 50.8564 101.764 48.6644ZM103.268 48.6324C103.268 50.1044 104.18 51.2564 105.652 51.2564C107.172 51.2564 108.1 50.1684 108.1 48.6324C108.1 47.1284 107.204 46.0404 105.668 46.0404C104.164 46.0404 103.268 47.1924 103.268 48.6324ZM114.11 52.9684C112.43 52.9684 111.438 52.0244 111.438 50.6004C111.438 49.1604 112.51 48.2644 114.35 48.1204L116.814 47.9284V47.7044C116.814 46.3924 116.03 45.9284 114.974 45.9284C113.71 45.9284 112.99 46.4884 112.99 47.4324H111.678C111.678 45.8004 113.022 44.7284 115.038 44.7284C116.974 44.7284 118.286 45.7524 118.286 47.8644V52.7764H117.006L116.846 51.5124C116.446 52.4084 115.374 52.9684 114.11 52.9684ZM114.542 51.8004C115.966 51.8004 116.83 50.8724 116.83 49.4004V48.9844L114.83 49.1444C113.502 49.2724 112.958 49.7844 112.958 50.5524C112.958 51.3844 113.566 51.8004 114.542 51.8004ZM121.873 52.7764H120.369V44.9524H121.729L121.889 46.1524C122.385 45.2564 123.377 44.7284 124.481 44.7284C126.545 44.7284 127.489 45.9924 127.489 47.9924V52.7764H125.985V48.3284C125.985 46.7444 125.249 46.1044 124.097 46.1044C122.689 46.1044 121.873 47.1124 121.873 48.6324V52.7764ZM130.308 43.0964C129.764 43.0964 129.316 42.6484 129.316 42.1044C129.316 41.5444 129.764 41.1124 130.308 41.1124C130.852 41.1124 131.3 41.5444 131.3 42.1044C131.3 42.6484 130.852 43.0964 130.308 43.0964ZM129.572 52.7764V44.9524H131.076V52.7764H129.572ZM138.876 52.7764H132.78V51.5604L137.004 46.2164H132.78V44.9524H138.876V46.1844L134.62 51.5124H138.876V52.7764ZM141.308 43.0964C140.764 43.0964 140.316 42.6484 140.316 42.1044C140.316 41.5444 140.764 41.1124 141.308 41.1124C141.852 41.1124 142.3 41.5444 142.3 42.1044C142.3 42.6484 141.852 43.0964 141.308 43.0964ZM140.572 52.7764V44.9524H142.076V52.7764H140.572ZM145.764 52.7764H144.26V44.9524H145.62L145.78 46.1524C146.276 45.2564 147.268 44.7284 148.372 44.7284C150.436 44.7284 151.38 45.9924 151.38 47.9924V52.7764H149.876V48.3284C149.876 46.7444 149.14 46.1044 147.988 46.1044C146.58 46.1044 145.764 47.1124 145.764 48.6324V52.7764ZM152.967 48.6644C152.967 46.4564 154.391 44.7284 156.663 44.7284C157.927 44.7284 158.903 45.3044 159.399 46.2804L159.511 44.9524H160.855V52.4564C160.855 54.9204 159.335 56.4884 156.935 56.4884C154.807 56.4884 153.351 55.2884 153.063 53.3044H154.567C154.759 54.4564 155.623 55.1284 156.935 55.1284C158.407 55.1284 159.367 54.1684 159.367 52.6804V51.1124C158.855 52.0244 157.831 52.5684 156.599 52.5684C154.375 52.5684 152.967 50.8564 152.967 48.6644ZM154.471 48.6324C154.471 50.1044 155.383 51.2564 156.855 51.2564C158.375 51.2564 159.303 50.1684 159.303 48.6324C159.303 47.1284 158.407 46.0404 156.871 46.0404C155.367 46.0404 154.471 47.1924 154.471 48.6324ZM175.172 52.7764L174.26 51.7364C173.364 52.5364 172.132 52.9844 170.676 52.9844C168.196 52.9844 166.564 51.7044 166.564 49.7684C166.564 48.3444 167.476 47.2084 169.396 46.2164C168.404 45.0804 168.036 44.3764 168.036 43.5124C168.036 42.0564 169.172 41.0164 170.804 41.0164C172.388 41.0164 173.476 41.9924 173.476 43.4164C173.476 44.5684 172.884 45.4644 171.396 46.4724L174.164 49.6244C174.42 49.0004 174.564 48.2324 174.564 47.3684H176.02C176.02 48.6804 175.7 49.8324 175.14 50.7284L176.932 52.7764H175.172ZM169.46 43.4964C169.46 44.1044 169.732 44.5844 170.628 45.6084C171.604 45.0164 172.068 44.3124 172.068 43.4484C172.068 42.6964 171.588 42.2324 170.788 42.2324C169.972 42.2324 169.46 42.7284 169.46 43.4964ZM168.132 49.6564C168.132 50.9204 169.14 51.6884 170.82 51.6884C171.892 51.6884 172.756 51.3684 173.396 50.7444L170.148 47.0644C168.708 47.8644 168.132 48.6164 168.132 49.6564ZM4.14163 74.9684C2.46163 74.9684 1.46963 74.0244 1.46963 72.6004C1.46963 71.1604 2.54163 70.2644 4.38163 70.1204L6.84563 69.9284V69.7044C6.84563 68.3924 6.06163 67.9284 5.00563 67.9284C3.74163 67.9284 3.02163 68.4884 3.02163 69.4324H1.70963C1.70963 67.8004 3.05363 66.7284 5.06963 66.7284C7.00563 66.7284 8.31763 67.7524 8.31763 69.8644V74.7764H7.03763L6.87763 73.5124C6.47763 74.4084 5.40563 74.9684 4.14163 74.9684ZM4.57363 73.8004C5.99763 73.8004 6.86163 72.8724 6.86163 71.4004V70.9844L4.86163 71.1444C3.53363 71.2724 2.98963 71.7844 2.98963 72.5524C2.98963 73.3844 3.59763 73.8004 4.57363 73.8004ZM11.9045 74.7764H10.4005V66.9524H11.7605L11.9205 68.1524C12.4165 67.2564 13.4085 66.7284 14.5125 66.7284C16.5765 66.7284 17.5205 67.9924 17.5205 69.9924V74.7764H16.0165V70.3284C16.0165 68.7444 15.2805 68.1044 14.1285 68.1044C12.7205 68.1044 11.9045 69.1124 11.9045 70.6324V74.7764ZM21.8916 74.9684C20.2116 74.9684 19.2196 74.0244 19.2196 72.6004C19.2196 71.1604 20.2916 70.2644 22.1316 70.1204L24.5956 69.9284V69.7044C24.5956 68.3924 23.8116 67.9284 22.7556 67.9284C21.4916 67.9284 20.7716 68.4884 20.7716 69.4324H19.4596C19.4596 67.8004 20.8036 66.7284 22.8196 66.7284C24.7556 66.7284 26.0676 67.7524 26.0676 69.8644V74.7764H24.7876L24.6276 73.5124C24.2276 74.4084 23.1556 74.9684 21.8916 74.9684ZM22.3236 73.8004C23.7476 73.8004 24.6116 72.8724 24.6116 71.4004V70.9844L22.6116 71.1444C21.2836 71.2724 20.7396 71.7844 20.7396 72.5524C20.7396 73.3844 21.3476 73.8004 22.3236 73.8004ZM29.6865 74.7764H28.1825V63.0004H29.6865V74.7764ZM31.1485 78.2804V77.0484H32.1565C32.8765 77.0484 33.4525 76.9364 33.8205 75.9444L34.0925 75.1924L30.9405 66.9524H32.5245L34.7965 73.2564L37.1165 66.9524H38.6685L34.9725 76.5364C34.4445 77.8804 33.6605 78.4404 32.4605 78.4404C31.9645 78.4404 31.5485 78.3764 31.1485 78.2804ZM45.4853 74.7764H39.3893V73.5604L43.6133 68.2164H39.3893V66.9524H45.4853V68.1844L41.2293 73.5124H45.4853V74.7764ZM47.9178 65.0964C47.3738 65.0964 46.9258 64.6484 46.9258 64.1044C46.9258 63.5444 47.3738 63.1124 47.9178 63.1124C48.4618 63.1124 48.9098 63.5444 48.9098 64.1044C48.9098 64.6484 48.4618 65.0964 47.9178 65.0964ZM47.1818 74.7764V66.9524H48.6858V74.7764H47.1818ZM52.3733 74.7764H50.8693V66.9524H52.2293L52.3893 68.1524C52.8853 67.2564 53.8773 66.7284 54.9813 66.7284C57.0453 66.7284 57.9893 67.9924 57.9893 69.9924V74.7764H56.4853V70.3284C56.4853 68.7444 55.7493 68.1044 54.5973 68.1044C53.1893 68.1044 52.3733 69.1124 52.3733 70.6324V74.7764ZM59.5764 70.6644C59.5764 68.4564 61.0004 66.7284 63.2724 66.7284C64.5364 66.7284 65.5124 67.3044 66.0084 68.2804L66.1204 66.9524H67.4644V74.4564C67.4644 76.9204 65.9444 78.4884 63.5444 78.4884C61.4164 78.4884 59.9604 77.2884 59.6724 75.3044H61.1764C61.3684 76.4564 62.2324 77.1284 63.5444 77.1284C65.0164 77.1284 65.9764 76.1684 65.9764 74.6804V73.1124C65.4644 74.0244 64.4404 74.5684 63.2084 74.5684C60.9844 74.5684 59.5764 72.8564 59.5764 70.6644ZM61.0804 70.6324C61.0804 72.1044 61.9924 73.2564 63.4644 73.2564C64.9844 73.2564 65.9124 72.1684 65.9124 70.6324C65.9124 69.1284 65.0164 68.0404 63.4804 68.0404C61.9764 68.0404 61.0804 69.1924 61.0804 70.6324ZM77.1459 74.9684C74.8739 74.9684 73.4979 73.2724 73.4979 70.8884C73.4979 68.4884 74.8899 66.7284 77.2099 66.7284C78.4099 66.7284 79.4179 67.2564 79.9459 68.2164V63.0004H81.4339V74.7764H80.0899L79.9619 73.3524C79.4499 74.4244 78.3939 74.9684 77.1459 74.9684ZM77.4499 73.6084C78.9859 73.6084 79.9299 72.4724 79.9299 70.8404C79.9299 69.2404 78.9859 68.0884 77.4499 68.0884C75.9139 68.0884 75.0179 69.2404 75.0179 70.8404C75.0179 72.4564 75.9139 73.6084 77.4499 73.6084ZM85.8916 74.9684C84.2116 74.9684 83.2196 74.0244 83.2196 72.6004C83.2196 71.1604 84.2916 70.2644 86.1316 70.1204L88.5956 69.9284V69.7044C88.5956 68.3924 87.8116 67.9284 86.7556 67.9284C85.4916 67.9284 84.7716 68.4884 84.7716 69.4324H83.4596C83.4596 67.8004 84.8036 66.7284 86.8196 66.7284C88.7556 66.7284 90.0676 67.7524 90.0676 69.8644V74.7764H88.7876L88.6276 73.5124C88.2276 74.4084 87.1556 74.9684 85.8916 74.9684ZM86.3236 73.8004C87.7476 73.8004 88.6116 72.8724 88.6116 71.4004V70.9844L86.6116 71.1444C85.2836 71.2724 84.7396 71.7844 84.7396 72.5524C84.7396 73.3844 85.3476 73.8004 86.3236 73.8004ZM94.2335 74.7764H92.7295V68.2164H91.1935V66.9524H92.7295V64.5044H94.2335V66.9524H95.7695V68.2164H94.2335V74.7764ZM99.3135 74.9684C97.6335 74.9684 96.6415 74.0244 96.6415 72.6004C96.6415 71.1604 97.7135 70.2644 99.5535 70.1204L102.018 69.9284V69.7044C102.018 68.3924 101.234 67.9284 100.178 67.9284C98.9135 67.9284 98.1935 68.4884 98.1935 69.4324H96.8815C96.8815 67.8004 98.2255 66.7284 100.242 66.7284C102.178 66.7284 103.49 67.7524 103.49 69.8644V74.7764H102.21L102.05 73.5124C101.65 74.4084 100.578 74.9684 99.3135 74.9684ZM99.7455 73.8004C101.17 73.8004 102.034 72.8724 102.034 71.4004V70.9844L100.034 71.1444C98.7055 71.2724 98.1615 71.7844 98.1615 72.5524C98.1615 73.3844 98.7695 73.8004 99.7455 73.8004Z" fill="white"/>
<g clip-path="url(#clip0_328_33)">
<rect width="472" height="6" transform="translate(240.766 51.7764)" fill="#26242B"/>
<rect x="240.766" y="51.7764" width="425" height="6" fill="#FD243E"/>
</g>
<path d="M9.16563 128.776H2.10963V117.208H9.16563V118.648H3.67763V122.264H8.62163V123.656H3.67763V127.32H9.16563V128.776ZM12.6858 128.776H11.1818V120.952H12.5258L12.6698 121.976C13.0698 121.24 13.9018 120.728 15.0058 120.728C16.2218 120.728 17.0858 121.336 17.4858 122.312C17.8538 121.336 18.7978 120.728 20.0138 120.728C21.8058 120.728 22.8938 121.848 22.8938 123.656V128.776H21.4218V124.024C21.4218 122.792 20.7338 122.088 19.6778 122.088C18.5417 122.088 17.7898 122.888 17.7898 124.136V128.776H16.3018V124.008C16.3018 122.776 15.6298 122.104 14.5738 122.104C13.4378 122.104 12.6858 122.888 12.6858 124.136V128.776ZM27.2666 128.968C25.5866 128.968 24.5946 128.024 24.5946 126.6C24.5946 125.16 25.6666 124.264 27.5066 124.12L29.9706 123.928V123.704C29.9706 122.392 29.1866 121.928 28.1306 121.928C26.8666 121.928 26.1466 122.488 26.1466 123.432H24.8346C24.8346 121.8 26.1786 120.728 28.1946 120.728C30.1306 120.728 31.4426 121.752 31.4426 123.864V128.776H30.1626L30.0026 127.512C29.6026 128.408 28.5306 128.968 27.2666 128.968ZM27.6986 127.8C29.1226 127.8 29.9866 126.872 29.9866 125.4V124.984L27.9866 125.144C26.6586 125.272 26.1146 125.784 26.1146 126.552C26.1146 127.384 26.7226 127.8 27.6986 127.8ZM34.2615 119.096C33.7175 119.096 33.2695 118.648 33.2695 118.104C33.2695 117.544 33.7175 117.112 34.2615 117.112C34.8055 117.112 35.2535 117.544 35.2535 118.104C35.2535 118.648 34.8055 119.096 34.2615 119.096ZM33.5255 128.776V120.952H35.0295V128.776H33.5255ZM38.749 128.776H37.245V117H38.749V128.776Z" fill="white"/>
<g clip-path="url(#clip1_328_33)">
<rect width="472" height="6" transform="translate(240.766 113.776)" fill="#26242B"/>
<rect x="240.766" y="113.776" width="360" height="6" fill="#FD243E"/>
</g>
<path d="M3.67763 171.208V181.32H8.76562V182.776H2.10963V171.208H3.67763ZM12.501 182.968C10.821 182.968 9.829 182.024 9.829 180.6C9.829 179.16 10.901 178.264 12.741 178.12L15.205 177.928V177.704C15.205 176.392 14.421 175.928 13.365 175.928C12.101 175.928 11.381 176.488 11.381 177.432H10.069C10.069 175.8 11.413 174.728 13.429 174.728C15.365 174.728 16.677 175.752 16.677 177.864V182.776H15.397L15.237 181.512C14.837 182.408 13.765 182.968 12.501 182.968ZM12.933 181.8C14.357 181.8 15.221 180.872 15.221 179.4V178.984L13.221 179.144C11.893 179.272 11.349 179.784 11.349 180.552C11.349 181.384 11.957 181.8 12.933 181.8ZM20.2639 182.776H18.7599V174.952H20.1199L20.2799 176.152C20.7759 175.256 21.7679 174.728 22.8719 174.728C24.9359 174.728 25.8799 175.992 25.8799 177.992V182.776H24.3759V178.328C24.3759 176.744 23.6399 176.104 22.4879 176.104C21.0799 176.104 20.2639 177.112 20.2639 178.632V182.776ZM31.099 182.968C28.827 182.968 27.451 181.272 27.451 178.888C27.451 176.488 28.843 174.728 31.163 174.728C32.363 174.728 33.371 175.256 33.899 176.216V171H35.387V182.776H34.043L33.915 181.352C33.403 182.424 32.347 182.968 31.099 182.968ZM31.403 181.608C32.939 181.608 33.883 180.472 33.883 178.84C33.883 177.24 32.939 176.088 31.403 176.088C29.867 176.088 28.971 177.24 28.971 178.84C28.971 180.456 29.867 181.608 31.403 181.608ZM38.2928 173.096C37.7488 173.096 37.3008 172.648 37.3008 172.104C37.3008 171.544 37.7488 171.112 38.2928 171.112C38.8368 171.112 39.2848 171.544 39.2848 172.104C39.2848 172.648 38.8368 173.096 38.2928 173.096ZM37.5568 182.776V174.952H39.0608V182.776H37.5568ZM42.7483 182.776H41.2443V174.952H42.6043L42.7643 176.152C43.2603 175.256 44.2523 174.728 45.3563 174.728C47.4203 174.728 48.3643 175.992 48.3643 177.992V182.776H46.8603V178.328C46.8603 176.744 46.1243 176.104 44.9723 176.104C43.5643 176.104 42.7483 177.112 42.7483 178.632V182.776ZM49.9514 178.664C49.9514 176.456 51.3754 174.728 53.6474 174.728C54.9114 174.728 55.8874 175.304 56.3834 176.28L56.4954 174.952H57.8394V182.456C57.8394 184.92 56.3194 186.488 53.9194 186.488C51.7914 186.488 50.3354 185.288 50.0474 183.304H51.5514C51.7434 184.456 52.6074 185.128 53.9194 185.128C55.3914 185.128 56.3514 184.168 56.3514 182.68V181.112C55.8394 182.024 54.8154 182.568 53.5834 182.568C51.3594 182.568 49.9514 180.856 49.9514 178.664ZM51.4554 178.632C51.4554 180.104 52.3674 181.256 53.8394 181.256C55.3594 181.256 56.2874 180.168 56.2874 178.632C56.2874 177.128 55.3914 176.04 53.8554 176.04C52.3514 176.04 51.4554 177.192 51.4554 178.632ZM69.1369 178.648H66.2089V182.776H64.6409V171.208H69.1369C71.4089 171.208 72.8649 172.696 72.8649 174.92C72.8649 177.08 71.3929 178.648 69.1369 178.648ZM68.8649 172.616H66.2089V177.24H68.8009C70.3529 177.24 71.2169 176.328 71.2169 174.904C71.2169 173.448 70.3369 172.616 68.8649 172.616ZM76.3604 182.968C74.6804 182.968 73.6884 182.024 73.6884 180.6C73.6884 179.16 74.7604 178.264 76.6004 178.12L79.0644 177.928V177.704C79.0644 176.392 78.2804 175.928 77.2244 175.928C75.9604 175.928 75.2404 176.488 75.2404 177.432H73.9284C73.9284 175.8 75.2724 174.728 77.2884 174.728C79.2244 174.728 80.5364 175.752 80.5364 177.864V182.776H79.2564L79.0964 181.512C78.6964 182.408 77.6244 182.968 76.3604 182.968ZM76.7924 181.8C78.2164 181.8 79.0804 180.872 79.0804 179.4V178.984L77.0804 179.144C75.7524 179.272 75.2084 179.784 75.2084 180.552C75.2084 181.384 75.8164 181.8 76.7924 181.8ZM82.1233 178.664C82.1233 176.456 83.5473 174.728 85.8193 174.728C87.0833 174.728 88.0593 175.304 88.5553 176.28L88.6673 174.952H90.0113V182.456C90.0113 184.92 88.4913 186.488 86.0913 186.488C83.9633 186.488 82.5073 185.288 82.2193 183.304H83.7233C83.9153 184.456 84.7793 185.128 86.0913 185.128C87.5633 185.128 88.5233 184.168 88.5233 182.68V181.112C88.0113 182.024 86.9873 182.568 85.7552 182.568C83.5312 182.568 82.1233 180.856 82.1233 178.664ZM83.6273 178.632C83.6273 180.104 84.5393 181.256 86.0113 181.256C87.5313 181.256 88.4593 180.168 88.4593 178.632C88.4593 177.128 87.5633 176.04 86.0273 176.04C84.5233 176.04 83.6273 177.192 83.6273 178.632ZM95.5578 182.968C93.2538 182.968 91.6698 181.304 91.6698 178.872C91.6698 176.424 93.2218 174.728 95.4938 174.728C97.7178 174.728 99.1737 176.264 99.1737 178.584V179.144L93.1258 179.16C93.2378 180.808 94.1018 181.72 95.5898 181.72C96.7578 181.72 97.5258 181.24 97.7818 180.344H99.1898C98.8058 182.024 97.4938 182.968 95.5578 182.968ZM95.4938 175.992C94.1818 175.992 93.3498 176.776 93.1578 178.152H97.6698C97.6698 176.856 96.8218 175.992 95.4938 175.992ZM100.214 180.504H101.654C101.654 181.304 102.262 181.784 103.254 181.784C104.31 181.784 104.918 181.352 104.918 180.632C104.918 180.104 104.662 179.784 103.846 179.576L102.47 179.256C101.078 178.92 100.422 178.232 100.422 177.08C100.422 175.64 101.638 174.728 103.366 174.728C105.078 174.728 106.198 175.688 106.23 177.176H104.79C104.758 176.392 104.23 175.896 103.318 175.896C102.374 175.896 101.846 176.312 101.846 177.032C101.846 177.56 102.23 177.912 102.998 178.104L104.374 178.44C105.702 178.76 106.358 179.368 106.358 180.536C106.358 182.024 105.078 182.968 103.222 182.968C101.382 182.968 100.214 181.992 100.214 180.504Z" fill="white"/>
<g clip-path="url(#clip2_328_33)">
<rect width="472" height="6" transform="translate(240.766 171.776)" fill="#26242B"/>
<rect x="240.766" y="171.776" width="300" height="6" fill="#FD243E"/>
</g>
<path d="M1.43763 228.328C1.43763 226.344 3.03763 225 5.42163 225C7.62963 225 9.05363 226.232 9.18163 228.232H7.59763C7.51763 227.08 6.70163 226.408 5.40563 226.408C3.94963 226.408 3.00563 227.144 3.00563 228.28C3.00563 229.208 3.53363 229.768 4.62163 230.024L6.52563 230.472C8.41363 230.904 9.37363 231.928 9.37363 233.56C9.37363 235.64 7.75763 236.968 5.29363 236.968C2.94163 236.968 1.37363 235.736 1.27763 233.752H2.87762C2.90963 234.856 3.83763 235.56 5.29363 235.56C6.82963 235.56 7.80563 234.84 7.80563 233.688C7.80563 232.776 7.30963 232.2 6.20563 231.944L4.30163 231.512C2.41363 231.08 1.43763 229.992 1.43763 228.328ZM10.576 232.856C10.576 230.44 12.304 228.744 14.656 228.744C16.992 228.744 18.72 230.44 18.72 232.856C18.72 235.272 16.992 236.968 14.656 236.968C12.304 236.968 10.576 235.272 10.576 232.856ZM12.096 232.856C12.096 234.488 13.136 235.624 14.656 235.624C16.16 235.624 17.216 234.488 17.216 232.856C17.216 231.224 16.16 230.088 14.656 230.088C13.136 230.088 12.096 231.224 12.096 232.856ZM19.8729 232.872C19.8729 230.424 21.4249 228.728 23.7129 228.728C25.6809 228.728 27.0569 229.848 27.3289 231.592H25.8249C25.5689 230.6 24.7689 230.072 23.7609 230.072C22.3369 230.072 21.3609 231.16 21.3609 232.856C21.3609 234.536 22.2729 235.624 23.6969 235.624C24.7689 235.624 25.5689 235.064 25.8409 234.136H27.3449C27.0409 235.832 25.5849 236.968 23.6969 236.968C21.3929 236.968 19.8729 235.336 19.8729 232.872ZM29.6678 227.096C29.1238 227.096 28.6758 226.648 28.6758 226.104C28.6758 225.544 29.1238 225.112 29.6678 225.112C30.2118 225.112 30.6598 225.544 30.6598 226.104C30.6598 226.648 30.2118 227.096 29.6678 227.096ZM28.9318 236.776V228.952H30.4358V236.776H28.9318ZM34.9073 236.968C33.2273 236.968 32.2353 236.024 32.2353 234.6C32.2353 233.16 33.3073 232.264 35.1473 232.12L37.6113 231.928V231.704C37.6113 230.392 36.8273 229.928 35.7713 229.928C34.5073 229.928 33.7873 230.488 33.7873 231.432H32.4753C32.4753 229.8 33.8193 228.728 35.8353 228.728C37.7713 228.728 39.0833 229.752 39.0833 231.864V236.776H37.8033L37.6433 235.512C37.2433 236.408 36.1713 236.968 34.9073 236.968ZM35.3393 235.8C36.7633 235.8 37.6273 234.872 37.6273 233.4V232.984L35.6273 233.144C34.2993 233.272 33.7553 233.784 33.7553 234.552C33.7553 235.384 34.3633 235.8 35.3393 235.8ZM42.7021 236.776H41.1981V225H42.7021V236.776ZM50.7951 236.776H49.2911V228.952H50.6351L50.7791 229.976C51.1791 229.24 52.0111 228.728 53.1151 228.728C54.3311 228.728 55.1951 229.336 55.5951 230.312C55.9631 229.336 56.9071 228.728 58.1231 228.728C59.9151 228.728 61.0031 229.848 61.0031 231.656V236.776H59.5311V232.024C59.5311 230.792 58.8431 230.088 57.7871 230.088C56.6511 230.088 55.8991 230.888 55.8991 232.136V236.776H54.4111V232.008C54.4111 230.776 53.7391 230.104 52.6831 230.104C51.5471 230.104 50.7951 230.888 50.7951 232.136V236.776ZM66.464 236.968C64.16 236.968 62.576 235.304 62.576 232.872C62.576 230.424 64.128 228.728 66.4 228.728C68.624 228.728 70.08 230.264 70.08 232.584V233.144L64.032 233.16C64.144 234.808 65.008 235.72 66.496 235.72C67.664 235.72 68.432 235.24 68.688 234.344H70.096C69.712 236.024 68.4 236.968 66.464 236.968ZM66.4 229.992C65.088 229.992 64.256 230.776 64.064 232.152H68.576C68.576 230.856 67.728 229.992 66.4 229.992ZM74.8959 236.968C72.6239 236.968 71.2479 235.272 71.2479 232.888C71.2479 230.488 72.6399 228.728 74.9599 228.728C76.1599 228.728 77.1679 229.256 77.6959 230.216V225H79.1839V236.776H77.8399L77.7119 235.352C77.1999 236.424 76.1439 236.968 74.8959 236.968ZM75.1999 235.608C76.7359 235.608 77.6799 234.472 77.6799 232.84C77.6799 231.24 76.7359 230.088 75.1999 230.088C73.6639 230.088 72.7679 231.24 72.7679 232.84C72.7679 234.456 73.6639 235.608 75.1999 235.608ZM82.0896 227.096C81.5456 227.096 81.0976 226.648 81.0976 226.104C81.0976 225.544 81.5456 225.112 82.0896 225.112C82.6336 225.112 83.0816 225.544 83.0816 226.104C83.0816 226.648 82.6336 227.096 82.0896 227.096ZM81.3536 236.776V228.952H82.8576V236.776H81.3536ZM87.3291 236.968C85.6491 236.968 84.6571 236.024 84.6571 234.6C84.6571 233.16 85.7291 232.264 87.5691 232.12L90.0331 231.928V231.704C90.0331 230.392 89.2491 229.928 88.1931 229.928C86.9291 229.928 86.2091 230.488 86.2091 231.432H84.8971C84.8971 229.8 86.2411 228.728 88.2571 228.728C90.1931 228.728 91.5051 229.752 91.5051 231.864V236.776H90.2251L90.0651 235.512C89.6651 236.408 88.5931 236.968 87.3291 236.968ZM87.7611 235.8C89.1851 235.8 90.0491 234.872 90.0491 233.4V232.984L88.0491 233.144C86.7211 233.272 86.1771 233.784 86.1771 234.552C86.1771 235.384 86.7851 235.8 87.7611 235.8ZM97.963 240.28V228.952H99.323L99.435 230.36C99.963 229.288 101.019 228.728 102.267 228.728C104.507 228.728 105.899 230.408 105.899 232.808C105.899 235.192 104.587 236.984 102.267 236.984C101.019 236.984 99.979 236.456 99.467 235.496V240.28H97.963ZM99.483 232.872C99.483 234.472 100.411 235.624 101.947 235.624C103.483 235.624 104.395 234.472 104.395 232.872C104.395 231.256 103.483 230.104 101.947 230.104C100.411 230.104 99.483 231.24 99.483 232.872ZM107.045 232.856C107.045 230.44 108.773 228.744 111.125 228.744C113.461 228.744 115.189 230.44 115.189 232.856C115.189 235.272 113.461 236.968 111.125 236.968C108.773 236.968 107.045 235.272 107.045 232.856ZM108.565 232.856C108.565 234.488 109.605 235.624 111.125 235.624C112.629 235.624 113.685 234.488 113.685 232.856C113.685 231.224 112.629 230.088 111.125 230.088C109.605 230.088 108.565 231.224 108.565 232.856ZM116.214 234.504H117.654C117.654 235.304 118.262 235.784 119.254 235.784C120.31 235.784 120.918 235.352 120.918 234.632C120.918 234.104 120.662 233.784 119.846 233.576L118.47 233.256C117.078 232.92 116.422 232.232 116.422 231.08C116.422 229.64 117.638 228.728 119.366 228.728C121.078 228.728 122.198 229.688 122.23 231.176H120.79C120.758 230.392 120.23 229.896 119.318 229.896C118.374 229.896 117.846 230.312 117.846 231.032C117.846 231.56 118.23 231.912 118.998 232.104L120.374 232.44C121.702 232.76 122.358 233.368 122.358 234.536C122.358 236.024 121.078 236.968 119.222 236.968C117.382 236.968 116.214 235.992 116.214 234.504ZM126.234 236.776H124.73V230.216H123.194V228.952H124.73V226.504H126.234V228.952H127.77V230.216H126.234V236.776ZM128.479 234.504H129.919C129.919 235.304 130.527 235.784 131.519 235.784C132.575 235.784 133.183 235.352 133.183 234.632C133.183 234.104 132.927 233.784 132.111 233.576L130.735 233.256C129.343 232.92 128.687 232.232 128.687 231.08C128.687 229.64 129.903 228.728 131.631 228.728C133.343 228.728 134.463 229.688 134.495 231.176H133.055C133.023 230.392 132.495 229.896 131.583 229.896C130.639 229.896 130.111 230.312 130.111 231.032C130.111 231.56 130.495 231.912 131.263 232.104L132.639 232.44C133.967 232.76 134.623 233.368 134.623 234.536C134.623 236.024 133.343 236.968 131.487 236.968C129.647 236.968 128.479 235.992 128.479 234.504Z" fill="white"/>
<g clip-path="url(#clip3_328_33)">
<rect width="472" height="6" transform="translate(240.766 225.776)" fill="#26242B"/>
<rect x="240.766" y="225.776" width="280" height="6" fill="#FD243E"/>
</g>
<path d="M3.67763 279.208V289.32H8.76562V290.776H2.10963V279.208H3.67763ZM10.949 281.096C10.405 281.096 9.957 280.648 9.957 280.104C9.957 279.544 10.405 279.112 10.949 279.112C11.493 279.112 11.941 279.544 11.941 280.104C11.941 280.648 11.493 281.096 10.949 281.096ZM10.213 290.776V282.952H11.717V290.776H10.213ZM13.2605 288.504H14.7005C14.7005 289.304 15.3085 289.784 16.3005 289.784C17.3565 289.784 17.9645 289.352 17.9645 288.632C17.9645 288.104 17.7085 287.784 16.8925 287.576L15.5165 287.256C14.1245 286.92 13.4685 286.232 13.4685 285.08C13.4685 283.64 14.6845 282.728 16.4125 282.728C18.1245 282.728 19.2445 283.688 19.2765 285.176H17.8365C17.8045 284.392 17.2765 283.896 16.3645 283.896C15.4205 283.896 14.8925 284.312 14.8925 285.032C14.8925 285.56 15.2765 285.912 16.0445 286.104L17.4205 286.44C18.7485 286.76 19.4045 287.368 19.4045 288.536C19.4045 290.024 18.1245 290.968 16.2685 290.968C14.4285 290.968 13.2605 289.992 13.2605 288.504ZM23.2804 290.776H21.7764V284.216H20.2404V282.952H21.7764V280.504H23.2804V282.952H24.8164V284.216H23.2804V290.776ZM32.3331 290.776H30.7971V279.208H32.3331L36.3171 288.936L40.3011 279.208H41.8691V290.776H40.3331V286.2C40.3331 284.04 40.3491 283.256 40.4291 282.44L37.0531 290.776H35.5811L32.2211 282.472C32.3011 283.032 32.3331 284.216 32.3331 285.832V290.776ZM46.5948 290.968C44.9148 290.968 43.9228 290.024 43.9228 288.6C43.9228 287.16 44.9948 286.264 46.8348 286.12L49.2988 285.928V285.704C49.2988 284.392 48.5148 283.928 47.4588 283.928C46.1948 283.928 45.4748 284.488 45.4748 285.432H44.1628C44.1628 283.8 45.5068 282.728 47.5228 282.728C49.4588 282.728 50.7708 283.752 50.7708 285.864V290.776H49.4908L49.3308 289.512C48.9308 290.408 47.8588 290.968 46.5948 290.968ZM47.0268 289.8C48.4508 289.8 49.3148 288.872 49.3148 287.4V286.984L47.3148 287.144C45.9868 287.272 45.4428 287.784 45.4428 288.552C45.4428 289.384 46.0508 289.8 47.0268 289.8ZM54.3576 290.776H52.8536V282.952H54.2136L54.3736 284.152C54.8696 283.256 55.8616 282.728 56.9656 282.728C59.0296 282.728 59.9736 283.992 59.9736 285.992V290.776H58.4696V286.328C58.4696 284.744 57.7336 284.104 56.5816 284.104C55.1736 284.104 54.3576 285.112 54.3576 286.632V290.776ZM64.3448 290.968C62.6648 290.968 61.6728 290.024 61.6728 288.6C61.6728 287.16 62.7448 286.264 64.5848 286.12L67.0488 285.928V285.704C67.0488 284.392 66.2648 283.928 65.2088 283.928C63.9448 283.928 63.2248 284.488 63.2248 285.432H61.9128C61.9128 283.8 63.2568 282.728 65.2728 282.728C67.2088 282.728 68.5208 283.752 68.5208 285.864V290.776H67.2408L67.0808 289.512C66.6808 290.408 65.6088 290.968 64.3448 290.968ZM64.7768 289.8C66.2008 289.8 67.0648 288.872 67.0648 287.4V286.984L65.0648 287.144C63.7368 287.272 63.1928 287.784 63.1928 288.552C63.1928 289.384 63.8008 289.8 64.7768 289.8ZM70.1076 286.664C70.1076 284.456 71.5316 282.728 73.8036 282.728C75.0676 282.728 76.0436 283.304 76.5396 284.28L76.6516 282.952H77.9956V290.456C77.9956 292.92 76.4756 294.488 74.0756 294.488C71.9476 294.488 70.4916 293.288 70.2036 291.304H71.7076C71.8996 292.456 72.7636 293.128 74.0756 293.128C75.5476 293.128 76.5076 292.168 76.5076 290.68V289.112C75.9956 290.024 74.9716 290.568 73.7396 290.568C71.5156 290.568 70.1076 288.856 70.1076 286.664ZM71.6116 286.632C71.6116 288.104 72.5236 289.256 73.9956 289.256C75.5156 289.256 76.4436 288.168 76.4436 286.632C76.4436 285.128 75.5476 284.04 74.0116 284.04C72.5076 284.04 71.6116 285.192 71.6116 286.632ZM83.5421 290.968C81.2381 290.968 79.6541 289.304 79.6541 286.872C79.6541 284.424 81.2061 282.728 83.4781 282.728C85.7021 282.728 87.1581 284.264 87.1581 286.584V287.144L81.1101 287.16C81.2221 288.808 82.0861 289.72 83.5741 289.72C84.7421 289.72 85.5101 289.24 85.7661 288.344H87.1741C86.7901 290.024 85.4781 290.968 83.5421 290.968ZM83.4781 283.992C82.1661 283.992 81.3341 284.776 81.1421 286.152H85.6541C85.6541 284.856 84.8061 283.992 83.4781 283.992ZM90.342 290.776H88.838V282.952H90.182L90.326 283.976C90.726 283.24 91.558 282.728 92.662 282.728C93.878 282.728 94.742 283.336 95.142 284.312C95.51 283.336 96.454 282.728 97.67 282.728C99.462 282.728 100.55 283.848 100.55 285.656V290.776H99.078V286.024C99.078 284.792 98.39 284.088 97.334 284.088C96.198 284.088 95.446 284.888 95.446 286.136V290.776H93.958V286.008C93.958 284.776 93.286 284.104 92.23 284.104C91.094 284.104 90.342 284.888 90.342 286.136V290.776ZM106.011 290.968C103.707 290.968 102.123 289.304 102.123 286.872C102.123 284.424 103.675 282.728 105.947 282.728C108.171 282.728 109.627 284.264 109.627 286.584V287.144L103.579 287.16C103.691 288.808 104.555 289.72 106.043 289.72C107.211 289.72 107.979 289.24 108.235 288.344H109.643C109.259 290.024 107.947 290.968 106.011 290.968ZM105.947 283.992C104.635 283.992 103.803 284.776 103.611 286.152H108.123C108.123 284.856 107.275 283.992 105.947 283.992ZM112.811 290.776H111.307V282.952H112.667L112.827 284.152C113.323 283.256 114.315 282.728 115.419 282.728C117.483 282.728 118.427 283.992 118.427 285.992V290.776H116.923V286.328C116.923 284.744 116.187 284.104 115.035 284.104C113.627 284.104 112.811 285.112 112.811 286.632V290.776ZM122.718 290.776H121.214V284.216H119.678V282.952H121.214V280.504H122.718V282.952H124.254V284.216H122.718V290.776Z" fill="white"/>
<g clip-path="url(#clip4_328_33)">
<rect width="472" height="6" transform="translate(240.766 279.776)" fill="#26242B"/>
<rect x="240.766" y="279.776" width="100" height="6" fill="#FD243E"/>
</g>
<defs>
<clipPath id="clip0_328_33">
<rect width="472" height="6" fill="white" transform="translate(240.766 51.7764)"/>
</clipPath>
<clipPath id="clip1_328_33">
<rect width="472" height="6" fill="white" transform="translate(240.766 113.776)"/>
</clipPath>
<clipPath id="clip2_328_33">
<rect width="472" height="6" fill="white" transform="translate(240.766 171.776)"/>
</clipPath>
<clipPath id="clip3_328_33">
<rect width="472" height="6" fill="white" transform="translate(240.766 225.776)"/>
</clipPath>
<clipPath id="clip4_328_33">
<rect width="472" height="6" fill="white" transform="translate(240.766 279.776)"/>
</clipPath>
</defs>
</svg>
