<svg width="42" height="42" viewBox="0 0 42 42" fill="none" xmlns="http://www.w3.org/2000/svg">
<g clip-path="url(#clip0_687_6041)">
<path d="M35.8797 6.10346C31.9315 2.16988 26.6815 0.00239997 21.088 0C9.5617 0 0.181638 9.33581 0.177024 20.8108C0.175681 24.4789 1.13833 28.0594 2.96806 31.2156L0.00146484 42L11.0866 39.1061C14.1408 40.7644 17.5796 41.6383 21.079 41.6397H21.0879H21.088C32.6124 41.6397 41.9939 32.3022 41.9987 20.8277C42.0007 15.2664 39.8274 10.0373 35.8797 6.10346ZM21.088 38.1246H21.0812C17.962 38.123 14.9032 37.2892 12.2351 35.713L11.6002 35.3383L5.02204 37.0554L6.77832 30.6723L6.36463 30.0179C4.62471 27.2636 3.70617 24.0806 3.70748 20.8122C3.71131 11.2745 11.5077 3.51517 21.0945 3.51517C25.737 3.51709 30.1004 5.31871 33.3821 8.58819C36.6635 11.8576 38.4694 16.2039 38.468 20.8262C38.4639 30.3642 30.6673 38.1246 21.088 38.1246Z" fill="#E0E0E0"/>
<path d="M0.961426 40.8032L3.79251 30.5115C2.04591 27.4994 1.12741 24.0822 1.12851 20.5824C1.13309 9.63175 10.0848 0.722656 21.0836 0.722656C26.4218 0.725056 31.4321 2.79342 35.1991 6.54741C38.967 10.3014 41.0407 15.2912 41.0386 20.5979C41.034 31.5488 32.0818 40.4587 21.0844 40.4587C21.0836 40.4587 21.0849 40.4587 21.0844 40.4587H21.0755C17.7359 40.4577 14.4544 39.623 11.54 38.0416L0.961426 40.8032Z" fill="url(#paint0_linear_687_6041)"/>
<path fill-rule="evenodd" clip-rule="evenodd" d="M15.9206 11.9757C15.5338 11.1194 15.1265 11.1023 14.7584 11.0873C14.4574 11.0744 14.1127 11.0752 13.7686 11.0752C13.4243 11.0752 12.8647 11.204 12.3914 11.7186C11.9179 12.2332 10.5835 13.4771 10.5835 16.0069C10.5835 18.5371 12.4345 20.9818 12.6925 21.3252C12.9507 21.668 16.2656 27.0256 21.5153 29.0868C25.8783 30.7997 26.7661 30.459 27.7131 30.3733C28.6601 30.2875 30.7688 29.1296 31.1993 27.9288C31.6297 26.7283 31.6297 25.6992 31.5006 25.4841C31.3715 25.2698 31.0271 25.1412 30.5106 24.8841C29.994 24.627 27.4548 23.3828 26.9813 23.2114C26.5078 23.0399 26.1635 22.9542 25.8191 23.4691C25.4747 23.9833 24.4855 25.1412 24.1841 25.4841C23.8828 25.8277 23.5815 25.8706 23.0649 25.6135C22.5484 25.3555 20.8849 24.8131 18.9116 23.0613C17.3762 21.6985 16.3395 20.0153 16.0382 19.5005C15.7369 18.9862 16.0059 18.7077 16.265 18.4513C16.4969 18.2209 16.7816 17.851 17.0398 17.5508C17.2976 17.2505 17.3837 17.0362 17.5558 16.6934C17.728 16.35 17.6419 16.0497 17.5128 15.7926C17.3837 15.5354 16.3799 12.9925 15.9206 11.9757Z" fill="white"/>
<path d="M35.7086 6.03733C31.8056 2.1489 26.6159 0.0063405 21.0867 0.00390625C9.69268 0.00390625 0.420295 9.23254 0.415714 20.5759C0.414371 24.2018 1.36596 27.7412 3.17469 30.8612L0.242188 41.5218L11.2001 38.6611C14.2192 40.3003 17.6185 41.1642 21.0778 41.1655H21.0866H21.0867C32.4788 41.1655 41.7525 31.9353 41.7574 20.5924C41.7593 15.095 39.611 9.92603 35.7086 6.03733ZM21.0867 37.6909H21.08C17.9965 37.6893 14.9728 36.8651 12.3354 35.307L11.7077 34.9366L5.20511 36.634L6.94121 30.3242L6.53227 29.6773C4.81233 26.9546 3.90433 23.8081 3.90568 20.5772C3.90943 11.1491 11.6163 3.47879 21.0931 3.47879C25.6824 3.48067 29.9956 5.26162 33.2397 8.49356C36.4834 11.7255 38.2685 16.0218 38.2672 20.5912C38.2631 30.0196 30.556 37.6909 21.0867 37.6909Z" fill="white"/>
</g>
<defs>
<linearGradient id="paint0_linear_687_6041" x1="21" y1="40.8032" x2="21" y2="0.722723" gradientUnits="userSpaceOnUse">
<stop stop-color="#20B038"/>
<stop offset="1" stop-color="#60D66A"/>
</linearGradient>
<clipPath id="clip0_687_6041">
<rect width="42" height="42" fill="white"/>
</clipPath>
</defs>
</svg>
