<svg width="747" height="372" viewBox="0 0 747 372" fill="none" xmlns="http://www.w3.org/2000/svg">
<g filter="url(#filter0_d_139_170)">
<g filter="url(#filter1_d_139_170)">
<mask id="path-1-outside-1_139_170" maskUnits="userSpaceOnUse" x="85.1045" y="118.708" width="479" height="70" fill="black">
<rect fill="white" x="85.1045" y="118.708" width="479" height="70"/>
<path d="M110.576 177.708H95.3845L116.192 129.468H135.56L156.44 177.708H140.888L137.216 168.78H114.32L110.576 177.708ZM122.24 149.844L119.432 156.612H132.248L129.44 149.844L126.272 141.708H125.336L122.24 149.844ZM198.569 177.708H155.729V129.468H198.569V141.636H169.265V147.396H197.489V159.492H169.265V165.54H198.569V177.708ZM223.657 178.428C208.897 178.428 199.897 173.172 199.897 160.932V160.5H213.433V162.012C213.433 165.252 214.585 166.116 223.657 166.116C231.865 166.116 232.729 165.468 232.729 163.308C232.729 161.58 231.793 160.86 227.833 160.356L212.713 158.34C203.713 157.116 199.177 152.292 199.177 144.516C199.177 136.812 205.153 128.748 222.577 128.748C237.913 128.748 245.257 135.444 245.257 146.244V146.676H231.721V145.596C231.721 142.14 230.209 140.988 221.137 140.988C214.225 140.988 212.713 141.924 212.713 144.012C212.713 145.524 213.577 146.244 216.169 146.604L231.289 148.836C243.097 150.564 246.265 156.612 246.265 162.804C246.265 171.084 239.929 178.428 223.657 178.428ZM276.836 177.708H263.3V141.636H246.236V129.468H293.828V141.636H276.836V177.708ZM308.473 177.708H294.937V129.468H308.473V147.396H330.937V129.468H344.473V177.708H330.937V159.564H308.473V177.708ZM389.476 177.708H346.636V129.468H389.476V141.636H360.172V147.396H388.396V159.492H360.172V165.54H389.476V177.708ZM420.684 177.708H407.148V141.636H390.084V129.468H437.676V141.636H420.684V177.708ZM452.321 177.708H438.785V129.468H452.321V177.708ZM480.404 178.428C463.628 178.428 453.764 168.636 453.764 153.588C453.764 138.54 463.628 128.748 480.404 128.748C496.604 128.748 506.324 136.452 506.324 149.34V150.564H491.204V149.34C491.204 143.868 488.612 141.708 480.62 141.708C470.828 141.708 468.164 144.012 468.164 153.588C468.164 163.164 470.828 165.468 480.62 165.468C488.612 165.468 491.204 163.308 491.204 157.836V156.612H506.324V157.836C506.324 170.724 496.604 178.428 480.404 178.428ZM531.131 178.428C516.371 178.428 507.371 173.172 507.371 160.932V160.5H520.907V162.012C520.907 165.252 522.059 166.116 531.131 166.116C539.339 166.116 540.203 165.468 540.203 163.308C540.203 161.58 539.267 160.86 535.307 160.356L520.187 158.34C511.187 157.116 506.651 152.292 506.651 144.516C506.651 136.812 512.627 128.748 530.051 128.748C545.387 128.748 552.731 135.444 552.731 146.244V146.676H539.195V145.596C539.195 142.14 537.683 140.988 528.611 140.988C521.699 140.988 520.187 141.924 520.187 144.012C520.187 145.524 521.051 146.244 523.643 146.604L538.763 148.836C550.571 150.564 553.739 156.612 553.739 162.804C553.739 171.084 547.403 178.428 531.131 178.428Z"/>
</mask>
<path d="M110.576 177.708H95.3845L116.192 129.468H135.56L156.44 177.708H140.888L137.216 168.78H114.32L110.576 177.708ZM122.24 149.844L119.432 156.612H132.248L129.44 149.844L126.272 141.708H125.336L122.24 149.844ZM198.569 177.708H155.729V129.468H198.569V141.636H169.265V147.396H197.489V159.492H169.265V165.54H198.569V177.708ZM223.657 178.428C208.897 178.428 199.897 173.172 199.897 160.932V160.5H213.433V162.012C213.433 165.252 214.585 166.116 223.657 166.116C231.865 166.116 232.729 165.468 232.729 163.308C232.729 161.58 231.793 160.86 227.833 160.356L212.713 158.34C203.713 157.116 199.177 152.292 199.177 144.516C199.177 136.812 205.153 128.748 222.577 128.748C237.913 128.748 245.257 135.444 245.257 146.244V146.676H231.721V145.596C231.721 142.14 230.209 140.988 221.137 140.988C214.225 140.988 212.713 141.924 212.713 144.012C212.713 145.524 213.577 146.244 216.169 146.604L231.289 148.836C243.097 150.564 246.265 156.612 246.265 162.804C246.265 171.084 239.929 178.428 223.657 178.428ZM276.836 177.708H263.3V141.636H246.236V129.468H293.828V141.636H276.836V177.708ZM308.473 177.708H294.937V129.468H308.473V147.396H330.937V129.468H344.473V177.708H330.937V159.564H308.473V177.708ZM389.476 177.708H346.636V129.468H389.476V141.636H360.172V147.396H388.396V159.492H360.172V165.54H389.476V177.708ZM420.684 177.708H407.148V141.636H390.084V129.468H437.676V141.636H420.684V177.708ZM452.321 177.708H438.785V129.468H452.321V177.708ZM480.404 178.428C463.628 178.428 453.764 168.636 453.764 153.588C453.764 138.54 463.628 128.748 480.404 128.748C496.604 128.748 506.324 136.452 506.324 149.34V150.564H491.204V149.34C491.204 143.868 488.612 141.708 480.62 141.708C470.828 141.708 468.164 144.012 468.164 153.588C468.164 163.164 470.828 165.468 480.62 165.468C488.612 165.468 491.204 163.308 491.204 157.836V156.612H506.324V157.836C506.324 170.724 496.604 178.428 480.404 178.428ZM531.131 178.428C516.371 178.428 507.371 173.172 507.371 160.932V160.5H520.907V162.012C520.907 165.252 522.059 166.116 531.131 166.116C539.339 166.116 540.203 165.468 540.203 163.308C540.203 161.58 539.267 160.86 535.307 160.356L520.187 158.34C511.187 157.116 506.651 152.292 506.651 144.516C506.651 136.812 512.627 128.748 530.051 128.748C545.387 128.748 552.731 135.444 552.731 146.244V146.676H539.195V145.596C539.195 142.14 537.683 140.988 528.611 140.988C521.699 140.988 520.187 141.924 520.187 144.012C520.187 145.524 521.051 146.244 523.643 146.604L538.763 148.836C550.571 150.564 553.739 156.612 553.739 162.804C553.739 171.084 547.403 178.428 531.131 178.428Z" fill="#FFC73B"/>
<path d="M110.576 177.708V187.708C114.605 187.708 118.24 185.291 119.798 181.575L110.576 177.708ZM95.3845 177.708L86.2023 173.747C84.8693 176.838 85.1802 180.391 87.0296 183.203C88.8791 186.015 92.0189 187.708 95.3845 187.708V177.708ZM116.192 129.468V119.468C112.201 119.468 108.591 121.842 107.01 125.507L116.192 129.468ZM135.56 129.468L144.738 125.496C143.154 121.837 139.548 119.468 135.56 119.468V129.468ZM156.44 177.708V187.708C159.808 187.708 162.95 186.013 164.799 183.198C166.648 180.383 166.955 176.827 165.618 173.736L156.44 177.708ZM140.888 177.708L131.64 181.512C133.182 185.261 136.835 187.708 140.888 187.708V177.708ZM137.216 168.78L146.465 164.976C144.923 161.227 141.27 158.78 137.216 158.78V168.78ZM114.32 168.78V158.78C110.292 158.78 106.657 161.198 105.099 164.913L114.32 168.78ZM122.24 149.844L131.477 153.676C131.515 153.585 131.552 153.493 131.587 153.401L122.24 149.844ZM119.432 156.612L110.196 152.78C108.916 155.866 109.261 159.387 111.116 162.165C112.971 164.944 116.092 166.612 119.432 166.612V156.612ZM132.248 156.612V166.612C135.589 166.612 138.71 164.944 140.565 162.165C142.42 159.387 142.765 155.866 141.485 152.78L132.248 156.612ZM129.44 149.844L120.122 153.472C120.149 153.541 120.176 153.609 120.204 153.676L129.44 149.844ZM126.272 141.708L135.591 138.08C134.095 134.238 130.395 131.708 126.272 131.708V141.708ZM125.336 141.708V131.708C121.186 131.708 117.467 134.272 115.99 138.152L125.336 141.708ZM110.576 167.708H95.3845V187.708H110.576V167.708ZM104.567 181.669L125.375 133.429L107.01 125.507L86.2023 173.747L104.567 181.669ZM116.192 139.468H135.56V119.468H116.192V139.468ZM126.383 133.44L147.263 181.68L165.618 173.736L144.738 125.496L126.383 133.44ZM156.44 167.708H140.888V187.708H156.44V167.708ZM150.137 173.904L146.465 164.976L127.968 172.584L131.64 181.512L150.137 173.904ZM137.216 158.78H114.32V178.78H137.216V158.78ZM105.099 164.913L101.355 173.841L119.798 181.575L123.542 172.647L105.099 164.913ZM113.004 146.012L110.196 152.78L128.669 160.444L131.477 153.676L113.004 146.012ZM119.432 166.612H132.248V146.612H119.432V166.612ZM141.485 152.78L138.677 146.012L120.204 153.676L123.012 160.444L141.485 152.78ZM138.759 146.216L135.591 138.08L116.954 145.336L120.122 153.472L138.759 146.216ZM126.272 131.708H125.336V151.708H126.272V131.708ZM115.99 138.152L112.894 146.288L131.587 153.401L134.683 145.265L115.99 138.152ZM198.569 177.708V187.708C204.092 187.708 208.569 183.231 208.569 177.708H198.569ZM155.729 177.708H145.729C145.729 183.231 150.207 187.708 155.729 187.708V177.708ZM155.729 129.468V119.468C150.207 119.468 145.729 123.945 145.729 129.468H155.729ZM198.569 129.468H208.569C208.569 123.945 204.092 119.468 198.569 119.468V129.468ZM198.569 141.636V151.636C204.092 151.636 208.569 147.159 208.569 141.636H198.569ZM169.265 141.636V131.636C163.743 131.636 159.265 136.113 159.265 141.636H169.265ZM169.265 147.396H159.265C159.265 152.919 163.743 157.396 169.265 157.396V147.396ZM197.489 147.396H207.489C207.489 141.873 203.012 137.396 197.489 137.396V147.396ZM197.489 159.492V169.492C203.012 169.492 207.489 165.015 207.489 159.492H197.489ZM169.265 159.492V149.492C163.743 149.492 159.265 153.969 159.265 159.492H169.265ZM169.265 165.54H159.265C159.265 171.063 163.743 175.54 169.265 175.54V165.54ZM198.569 165.54H208.569C208.569 160.017 204.092 155.54 198.569 155.54V165.54ZM198.569 167.708H155.729V187.708H198.569V167.708ZM165.729 177.708V129.468H145.729V177.708H165.729ZM155.729 139.468H198.569V119.468H155.729V139.468ZM188.569 129.468V141.636H208.569V129.468H188.569ZM198.569 131.636H169.265V151.636H198.569V131.636ZM159.265 141.636V147.396H179.265V141.636H159.265ZM169.265 157.396H197.489V137.396H169.265V157.396ZM187.489 147.396V159.492H207.489V147.396H187.489ZM197.489 149.492H169.265V169.492H197.489V149.492ZM159.265 159.492V165.54H179.265V159.492H159.265ZM169.265 175.54H198.569V155.54H169.265V175.54ZM188.569 165.54V177.708H208.569V165.54H188.569ZM199.897 160.5V150.5C194.374 150.5 189.897 154.977 189.897 160.5H199.897ZM213.433 160.5H223.433C223.433 154.977 218.956 150.5 213.433 150.5V160.5ZM227.833 160.356L226.511 170.268C226.531 170.271 226.551 170.274 226.57 170.276L227.833 160.356ZM212.713 158.34L211.365 168.249C211.374 168.25 211.383 168.251 211.391 168.252L212.713 158.34ZM245.257 146.676V156.676C250.78 156.676 255.257 152.199 255.257 146.676H245.257ZM231.721 146.676H221.721C221.721 152.199 226.198 156.676 231.721 156.676V146.676ZM216.169 146.604L217.629 136.711C217.601 136.707 217.573 136.703 217.545 136.699L216.169 146.604ZM231.289 148.836L229.829 158.729L229.841 158.731L231.289 148.836ZM223.657 168.428C217.172 168.428 213.624 167.222 211.946 166.057C210.903 165.332 209.897 164.242 209.897 160.932H189.897C189.897 169.862 193.391 177.52 200.538 182.484C207.05 187.006 215.382 188.428 223.657 188.428V168.428ZM209.897 160.932V160.5H189.897V160.932H209.897ZM199.897 170.5H213.433V150.5H199.897V170.5ZM203.433 160.5V162.012H223.433V160.5H203.433ZM203.433 162.012C203.433 163.149 203.479 165.641 204.689 168.24C206.139 171.355 208.598 173.333 211.141 174.443C213.305 175.389 215.548 175.72 217.285 175.885C219.144 176.062 221.29 176.116 223.657 176.116V156.116C221.488 156.116 220.088 156.062 219.179 155.975C218.149 155.877 218.403 155.791 219.145 156.115C219.601 156.314 220.307 156.695 221.047 157.375C221.817 158.084 222.414 158.925 222.821 159.801C223.531 161.326 223.433 162.495 223.433 162.012H203.433ZM223.657 176.116C225.794 176.116 227.685 176.075 229.3 175.952C230.796 175.837 232.701 175.612 234.556 174.967C236.616 174.25 239.352 172.748 241.138 169.637C242.711 166.898 242.729 164.224 242.729 163.308H222.729C222.729 163.293 222.725 162.893 222.828 162.309C222.939 161.681 223.193 160.726 223.793 159.679C225.161 157.297 227.168 156.362 227.986 156.077C228.599 155.864 228.749 155.936 227.774 156.01C226.919 156.076 225.624 156.116 223.657 156.116V176.116ZM242.729 163.308C242.729 162.04 242.569 160.059 241.571 157.935C240.499 155.655 238.844 154.013 237.094 152.911C234.284 151.141 230.996 150.678 229.096 150.436L226.57 170.276C227.362 170.377 227.706 170.453 227.784 170.473C227.905 170.504 227.292 170.373 226.438 169.835C225.417 169.193 224.243 168.086 223.471 166.442C222.772 164.955 222.729 163.712 222.729 163.308H242.729ZM229.155 150.444L214.035 148.428L211.391 168.252L226.511 170.268L229.155 150.444ZM214.061 148.431C210.988 148.013 209.973 147.155 209.751 146.926C209.661 146.833 209.177 146.376 209.177 144.516H189.177C189.177 150.432 190.961 156.275 195.389 160.844C199.685 165.277 205.438 167.443 211.365 168.249L214.061 148.431ZM209.177 144.516C209.177 143.383 209.532 142.41 210.643 141.509C211.953 140.446 215.28 138.748 222.577 138.748V118.748C212.45 118.748 204.077 121.082 198.043 125.977C191.81 131.034 189.177 137.946 189.177 144.516H209.177ZM222.577 138.748C228.985 138.748 232.078 140.172 233.394 141.233C234.369 142.019 235.257 143.283 235.257 146.244H255.257C255.257 138.405 252.473 130.921 245.942 125.659C239.752 120.672 231.505 118.748 222.577 118.748V138.748ZM235.257 146.244V146.676H255.257V146.244H235.257ZM245.257 136.676H231.721V156.676H245.257V136.676ZM241.721 146.676V145.596H221.721V146.676H241.721ZM241.721 145.596C241.721 144.188 241.604 141.701 240.368 139.111C238.956 136.153 236.64 134.163 234.13 132.967C231.926 131.918 229.627 131.501 227.753 131.287C225.787 131.062 223.56 130.988 221.137 130.988V150.988C223.25 150.988 224.614 151.058 225.483 151.157C226.444 151.267 226.224 151.354 225.532 151.025C225.118 150.827 224.506 150.468 223.868 149.861C223.209 149.233 222.686 148.496 222.318 147.725C221.649 146.323 221.721 145.276 221.721 145.596H241.721ZM221.137 130.988C217.762 130.988 213.863 131.14 210.631 132.428C208.712 133.193 206.381 134.601 204.691 137.18C203.019 139.735 202.713 142.318 202.713 144.012H222.713C222.713 144.663 222.596 146.345 221.423 148.137C220.233 149.954 218.712 150.737 218.035 151.006C217.463 151.235 217.292 151.183 217.979 151.109C218.598 151.042 219.596 150.988 221.137 150.988V130.988ZM202.713 144.012C202.713 146.994 203.75 150.89 207.385 153.676C210.099 155.757 213.184 156.286 214.793 156.509L217.545 136.699C217.228 136.655 217.289 136.642 217.568 136.731C217.839 136.817 218.632 137.098 219.553 137.804C220.576 138.588 221.501 139.703 222.091 141.091C222.639 142.38 222.713 143.468 222.713 144.012H202.713ZM214.709 156.497L229.829 158.729L232.749 138.943L217.629 136.711L214.709 156.497ZM229.841 158.731C234.296 159.383 235.578 160.621 235.796 160.862C235.943 161.024 236.265 161.421 236.265 162.804H256.265C256.265 157.995 255.003 152.272 250.614 147.43C246.296 142.667 240.09 140.017 232.737 138.941L229.841 158.731ZM236.265 162.804C236.265 164.205 235.84 165.1 234.847 165.888C233.593 166.883 230.437 168.428 223.657 168.428V188.428C233.149 188.428 241.297 186.301 247.279 181.554C253.522 176.6 256.265 169.683 256.265 162.804H236.265ZM276.836 177.708V187.708C282.359 187.708 286.836 183.231 286.836 177.708H276.836ZM263.3 177.708H253.3C253.3 183.231 257.777 187.708 263.3 187.708V177.708ZM263.3 141.636H273.3C273.3 136.113 268.823 131.636 263.3 131.636V141.636ZM246.236 141.636H236.236C236.236 147.159 240.713 151.636 246.236 151.636V141.636ZM246.236 129.468V119.468C240.713 119.468 236.236 123.945 236.236 129.468H246.236ZM293.828 129.468H303.828C303.828 123.945 299.351 119.468 293.828 119.468V129.468ZM293.828 141.636V151.636C299.351 151.636 303.828 147.159 303.828 141.636H293.828ZM276.836 141.636V131.636C271.313 131.636 266.836 136.113 266.836 141.636H276.836ZM276.836 167.708H263.3V187.708H276.836V167.708ZM273.3 177.708V141.636H253.3V177.708H273.3ZM263.3 131.636H246.236V151.636H263.3V131.636ZM256.236 141.636V129.468H236.236V141.636H256.236ZM246.236 139.468H293.828V119.468H246.236V139.468ZM283.828 129.468V141.636H303.828V129.468H283.828ZM293.828 131.636H276.836V151.636H293.828V131.636ZM266.836 141.636V177.708H286.836V141.636H266.836ZM308.473 177.708V187.708C313.996 187.708 318.473 183.231 318.473 177.708H308.473ZM294.937 177.708H284.937C284.937 183.231 289.414 187.708 294.937 187.708V177.708ZM294.937 129.468V119.468C289.414 119.468 284.937 123.945 284.937 129.468H294.937ZM308.473 129.468H318.473C318.473 123.945 313.996 119.468 308.473 119.468V129.468ZM308.473 147.396H298.473C298.473 152.919 302.95 157.396 308.473 157.396V147.396ZM330.937 147.396V157.396C336.46 157.396 340.937 152.919 340.937 147.396H330.937ZM330.937 129.468V119.468C325.414 119.468 320.937 123.945 320.937 129.468H330.937ZM344.473 129.468H354.473C354.473 123.945 349.996 119.468 344.473 119.468V129.468ZM344.473 177.708V187.708C349.996 187.708 354.473 183.231 354.473 177.708H344.473ZM330.937 177.708H320.937C320.937 183.231 325.414 187.708 330.937 187.708V177.708ZM330.937 159.564H340.937C340.937 154.041 336.46 149.564 330.937 149.564V159.564ZM308.473 159.564V149.564C302.95 149.564 298.473 154.041 298.473 159.564H308.473ZM308.473 167.708H294.937V187.708H308.473V167.708ZM304.937 177.708V129.468H284.937V177.708H304.937ZM294.937 139.468H308.473V119.468H294.937V139.468ZM298.473 129.468V147.396H318.473V129.468H298.473ZM308.473 157.396H330.937V137.396H308.473V157.396ZM340.937 147.396V129.468H320.937V147.396H340.937ZM330.937 139.468H344.473V119.468H330.937V139.468ZM334.473 129.468V177.708H354.473V129.468H334.473ZM344.473 167.708H330.937V187.708H344.473V167.708ZM340.937 177.708V159.564H320.937V177.708H340.937ZM330.937 149.564H308.473V169.564H330.937V149.564ZM298.473 159.564V177.708H318.473V159.564H298.473ZM389.476 177.708V187.708C394.999 187.708 399.476 183.231 399.476 177.708H389.476ZM346.636 177.708H336.636C336.636 183.231 341.114 187.708 346.636 187.708V177.708ZM346.636 129.468V119.468C341.114 119.468 336.636 123.945 336.636 129.468H346.636ZM389.476 129.468H399.476C399.476 123.945 394.999 119.468 389.476 119.468V129.468ZM389.476 141.636V151.636C394.999 151.636 399.476 147.159 399.476 141.636H389.476ZM360.172 141.636V131.636C354.65 131.636 350.172 136.113 350.172 141.636H360.172ZM360.172 147.396H350.172C350.172 152.919 354.65 157.396 360.172 157.396V147.396ZM388.396 147.396H398.396C398.396 141.873 393.919 137.396 388.396 137.396V147.396ZM388.396 159.492V169.492C393.919 169.492 398.396 165.015 398.396 159.492H388.396ZM360.172 159.492V149.492C354.65 149.492 350.172 153.969 350.172 159.492H360.172ZM360.172 165.54H350.172C350.172 171.063 354.65 175.54 360.172 175.54V165.54ZM389.476 165.54H399.476C399.476 160.017 394.999 155.54 389.476 155.54V165.54ZM389.476 167.708H346.636V187.708H389.476V167.708ZM356.636 177.708V129.468H336.636V177.708H356.636ZM346.636 139.468H389.476V119.468H346.636V139.468ZM379.476 129.468V141.636H399.476V129.468H379.476ZM389.476 131.636H360.172V151.636H389.476V131.636ZM350.172 141.636V147.396H370.172V141.636H350.172ZM360.172 157.396H388.396V137.396H360.172V157.396ZM378.396 147.396V159.492H398.396V147.396H378.396ZM388.396 149.492H360.172V169.492H388.396V149.492ZM350.172 159.492V165.54H370.172V159.492H350.172ZM360.172 175.54H389.476V155.54H360.172V175.54ZM379.476 165.54V177.708H399.476V165.54H379.476ZM420.684 177.708V187.708C426.207 187.708 430.684 183.231 430.684 177.708H420.684ZM407.148 177.708H397.148C397.148 183.231 401.625 187.708 407.148 187.708V177.708ZM407.148 141.636H417.148C417.148 136.113 412.671 131.636 407.148 131.636V141.636ZM390.084 141.636H380.084C380.084 147.159 384.561 151.636 390.084 151.636V141.636ZM390.084 129.468V119.468C384.561 119.468 380.084 123.945 380.084 129.468H390.084ZM437.676 129.468H447.676C447.676 123.945 443.199 119.468 437.676 119.468V129.468ZM437.676 141.636V151.636C443.199 151.636 447.676 147.159 447.676 141.636H437.676ZM420.684 141.636V131.636C415.161 131.636 410.684 136.113 410.684 141.636H420.684ZM420.684 167.708H407.148V187.708H420.684V167.708ZM417.148 177.708V141.636H397.148V177.708H417.148ZM407.148 131.636H390.084V151.636H407.148V131.636ZM400.084 141.636V129.468H380.084V141.636H400.084ZM390.084 139.468H437.676V119.468H390.084V139.468ZM427.676 129.468V141.636H447.676V129.468H427.676ZM437.676 131.636H420.684V151.636H437.676V131.636ZM410.684 141.636V177.708H430.684V141.636H410.684ZM452.321 177.708V187.708C457.844 187.708 462.321 183.231 462.321 177.708H452.321ZM438.785 177.708H428.785C428.785 183.231 433.262 187.708 438.785 187.708V177.708ZM438.785 129.468V119.468C433.262 119.468 428.785 123.945 428.785 129.468H438.785ZM452.321 129.468H462.321C462.321 123.945 457.844 119.468 452.321 119.468V129.468ZM452.321 167.708H438.785V187.708H452.321V167.708ZM448.785 177.708V129.468H428.785V177.708H448.785ZM438.785 139.468H452.321V119.468H438.785V139.468ZM442.321 129.468V177.708H462.321V129.468H442.321ZM506.324 150.564V160.564C511.847 160.564 516.324 156.087 516.324 150.564H506.324ZM491.204 150.564H481.204C481.204 156.087 485.682 160.564 491.204 160.564V150.564ZM491.204 156.612V146.612C485.682 146.612 481.204 151.089 481.204 156.612H491.204ZM506.324 156.612H516.324C516.324 151.089 511.847 146.612 506.324 146.612V156.612ZM480.404 168.428C473.946 168.428 469.968 166.571 467.676 164.396C465.437 162.272 463.764 158.865 463.764 153.588H443.764C443.764 163.359 447.024 172.372 453.911 178.906C460.745 185.389 470.087 188.428 480.404 188.428V168.428ZM463.764 153.588C463.764 148.311 465.437 144.904 467.676 142.78C469.968 140.605 473.946 138.748 480.404 138.748V118.748C470.087 118.748 460.745 121.787 453.911 128.27C447.024 134.804 443.764 143.817 443.764 153.588H463.764ZM480.404 138.748C487.062 138.748 491.082 140.344 493.222 142.043C495.068 143.509 496.324 145.656 496.324 149.34H516.324C516.324 140.136 512.721 131.987 505.657 126.379C498.887 121.004 489.947 118.748 480.404 118.748V138.748ZM496.324 149.34V150.564H516.324V149.34H496.324ZM506.324 140.564H491.204V160.564H506.324V140.564ZM501.204 150.564V149.34H481.204V150.564H501.204ZM501.204 149.34C501.204 145.151 500.175 139.385 494.874 135.446C490.457 132.163 484.932 131.708 480.62 131.708V151.708C482.229 151.708 483.138 151.822 483.584 151.916C484.02 152.008 483.619 152 482.945 151.498C482.595 151.238 482.242 150.897 481.934 150.482C481.629 150.071 481.437 149.681 481.322 149.379C481.116 148.833 481.204 148.685 481.204 149.34H501.204ZM480.62 131.708C475.844 131.708 468.924 132.031 463.879 136.764C458.622 141.696 458.164 148.71 458.164 153.588H478.164C478.164 151.543 478.32 150.566 478.417 150.188C478.479 149.947 478.342 150.618 477.562 151.35C476.822 152.045 476.254 152.083 476.736 151.974C477.305 151.846 478.456 151.708 480.62 151.708V131.708ZM458.164 153.588C458.164 158.466 458.622 165.481 463.879 170.412C468.924 175.145 475.844 175.468 480.62 175.468V155.468C478.456 155.468 477.305 155.33 476.736 155.202C476.254 155.094 476.822 155.131 477.562 155.826C478.342 156.558 478.479 157.229 478.417 156.988C478.32 156.61 478.164 155.633 478.164 153.588H458.164ZM480.62 175.468C484.932 175.468 490.457 175.013 494.874 171.73C500.175 167.791 501.204 162.025 501.204 157.836H481.204C481.204 158.491 481.116 158.343 481.322 157.797C481.437 157.495 481.629 157.105 481.934 156.694C482.242 156.279 482.595 155.938 482.945 155.678C483.619 155.177 484.02 155.168 483.584 155.26C483.138 155.354 482.229 155.468 480.62 155.468V175.468ZM501.204 157.836V156.612H481.204V157.836H501.204ZM491.204 166.612H506.324V146.612H491.204V166.612ZM496.324 156.612V157.836H516.324V156.612H496.324ZM496.324 157.836C496.324 161.52 495.068 163.667 493.222 165.133C491.082 166.832 487.062 168.428 480.404 168.428V188.428C489.947 188.428 498.887 186.172 505.657 180.797C512.721 175.189 516.324 167.04 516.324 157.836H496.324ZM507.371 160.5V150.5C501.848 150.5 497.371 154.977 497.371 160.5H507.371ZM520.907 160.5H530.907C530.907 154.977 526.43 150.5 520.907 150.5V160.5ZM535.307 160.356L533.985 170.268C534.005 170.271 534.024 170.274 534.044 170.276L535.307 160.356ZM520.187 158.34L518.839 168.249C518.848 168.25 518.856 168.251 518.865 168.252L520.187 158.34ZM552.731 146.676V156.676C558.254 156.676 562.731 152.199 562.731 146.676H552.731ZM539.195 146.676H529.195C529.195 152.199 533.672 156.676 539.195 156.676V146.676ZM523.643 146.604L525.103 136.711C525.075 136.707 525.047 136.703 525.018 136.699L523.643 146.604ZM538.763 148.836L537.302 158.729L537.315 158.731L538.763 148.836ZM531.131 168.428C524.646 168.428 521.098 167.222 519.42 166.057C518.377 165.332 517.371 164.242 517.371 160.932H497.371C497.371 169.862 500.864 177.52 508.011 182.484C514.524 187.006 522.856 188.428 531.131 188.428V168.428ZM517.371 160.932V160.5H497.371V160.932H517.371ZM507.371 170.5H520.907V150.5H507.371V170.5ZM510.907 160.5V162.012H530.907V160.5H510.907ZM510.907 162.012C510.907 163.149 510.953 165.641 512.162 168.24C513.612 171.355 516.072 173.333 518.615 174.443C520.779 175.389 523.021 175.72 524.759 175.885C526.617 176.062 528.763 176.116 531.131 176.116V156.116C528.962 156.116 527.562 156.062 526.653 155.975C525.623 155.877 525.876 155.791 526.619 156.115C527.075 156.314 527.781 156.695 528.521 157.375C529.291 158.084 529.887 158.925 530.295 159.801C531.005 161.326 530.907 162.495 530.907 162.012H510.907ZM531.131 176.116C533.268 176.116 535.159 176.075 536.774 175.952C538.27 175.837 540.175 175.612 542.03 174.967C544.09 174.25 546.826 172.748 548.612 169.637C550.184 166.898 550.203 164.224 550.203 163.308H530.203C530.203 163.293 530.199 162.893 530.302 162.309C530.413 161.681 530.666 160.726 531.267 159.679C532.634 157.297 534.642 156.362 535.46 156.077C536.073 155.864 536.223 155.936 535.248 156.01C534.393 156.076 533.097 156.116 531.131 156.116V176.116ZM550.203 163.308C550.203 162.04 550.043 160.059 549.045 157.935C547.973 155.655 546.318 154.013 544.568 152.911C541.758 151.141 538.469 150.678 536.569 150.436L534.044 170.276C534.836 170.377 535.18 170.453 535.257 170.473C535.379 170.504 534.766 170.373 533.912 169.835C532.891 169.193 531.717 168.086 530.944 166.442C530.246 164.955 530.203 163.712 530.203 163.308H550.203ZM536.628 150.444L521.508 148.428L518.865 168.252L533.985 170.268L536.628 150.444ZM521.534 148.431C518.462 148.013 517.447 147.155 517.225 146.926C517.135 146.833 516.651 146.376 516.651 144.516H496.651C496.651 150.432 498.434 156.275 502.863 160.844C507.158 165.277 512.911 167.443 518.839 168.249L521.534 148.431ZM516.651 144.516C516.651 143.383 517.006 142.41 518.117 141.509C519.427 140.446 522.754 138.748 530.051 138.748V118.748C519.924 118.748 511.55 121.082 505.517 125.977C499.284 131.034 496.651 137.946 496.651 144.516H516.651ZM530.051 138.748C536.458 138.748 539.552 140.172 540.868 141.233C541.843 142.019 542.731 143.283 542.731 146.244H562.731C562.731 138.405 559.947 130.921 553.416 125.659C547.226 120.672 538.979 118.748 530.051 118.748V138.748ZM542.731 146.244V146.676H562.731V146.244H542.731ZM552.731 136.676H539.195V156.676H552.731V136.676ZM549.195 146.676V145.596H529.195V146.676H549.195ZM549.195 145.596C549.195 144.188 549.078 141.701 547.842 139.111C546.43 136.153 544.114 134.163 541.604 132.967C539.4 131.918 537.101 131.501 535.227 131.287C533.261 131.062 531.034 130.988 528.611 130.988V150.988C530.724 150.988 532.087 151.058 532.956 151.157C533.917 151.267 533.698 151.354 533.005 151.025C532.591 150.827 531.98 150.468 531.341 149.861C530.682 149.233 530.16 148.496 529.792 147.725C529.123 146.323 529.195 145.276 529.195 145.596H549.195ZM528.611 130.988C525.236 130.988 521.336 131.14 518.104 132.428C516.185 133.193 513.854 134.601 512.165 137.18C510.492 139.735 510.187 142.318 510.187 144.012H530.187C530.187 144.663 530.07 146.345 528.897 148.137C527.707 149.954 526.186 150.737 525.509 151.006C524.936 151.235 524.765 151.183 525.453 151.109C526.072 151.042 527.07 150.988 528.611 150.988V130.988ZM510.187 144.012C510.187 146.994 511.224 150.89 514.858 153.676C517.573 155.757 520.658 156.286 522.267 156.509L525.018 136.699C524.702 136.655 524.762 136.642 525.041 136.731C525.313 136.817 526.106 137.098 527.027 137.804C528.05 138.588 528.975 139.703 529.565 141.091C530.113 142.38 530.187 143.468 530.187 144.012H510.187ZM522.182 156.497L537.302 158.729L540.223 138.943L525.103 136.711L522.182 156.497ZM537.315 158.731C541.77 159.383 543.051 160.621 543.27 160.862C543.417 161.024 543.739 161.421 543.739 162.804H563.739C563.739 157.995 562.477 152.272 558.088 147.43C553.77 142.667 547.563 140.017 540.211 138.941L537.315 158.731ZM543.739 162.804C543.739 164.205 543.313 165.1 542.321 165.888C541.067 166.883 537.911 168.428 531.131 168.428V188.428C540.622 188.428 548.771 186.301 554.753 181.554C560.996 176.6 563.739 169.683 563.739 162.804H543.739Z" fill="#4B0096" mask="url(#path-1-outside-1_139_170)"/>
</g>
<g filter="url(#filter2_d_139_170)">
<path d="M522.396 204.114C522.842 204.046 523.245 204.138 523.606 204.391C523.967 204.644 524.155 204.991 524.169 205.432C524.237 205.877 524.145 206.28 523.892 206.641C522.147 208.895 520.065 211.227 517.646 213.638C515.287 216 512.651 218.089 509.738 219.905C506.88 221.726 504.525 222.551 502.675 222.38C502.021 222.319 501.46 222.157 500.99 221.894C497.489 219.977 497.699 213.546 501.62 202.6C501.769 202.174 502.044 201.87 502.445 201.688C502.846 201.506 503.232 201.487 503.603 201.631C504.029 201.78 504.333 202.055 504.515 202.456C504.698 202.858 504.717 203.244 504.573 203.615C503.678 206.167 502.975 208.435 502.462 210.419C502.009 212.353 501.734 213.838 501.639 214.872C501.598 215.911 501.626 216.792 501.724 217.515C501.881 218.189 502.007 218.612 502.101 218.785C502.254 218.909 502.383 219.004 502.486 219.068C503.846 219.798 506.535 218.62 510.554 215.534C514.626 212.453 518.227 208.834 521.356 204.677C521.659 204.375 522.005 204.188 522.396 204.114ZM504.94 196.072C503.372 195.817 502.942 195.119 503.651 193.977C504.286 193.047 505.054 192.46 505.955 192.214C507.356 191.904 508.14 192.334 508.307 193.502C508.478 194.616 507.995 195.395 506.856 195.838C506.286 196.06 505.648 196.138 504.94 196.072ZM556.287 207.256C556.712 207.406 557.016 207.681 557.199 208.082C557.441 208.434 557.487 208.823 557.338 209.248C557.243 209.678 556.995 209.985 556.594 210.167C546.208 215.628 537.99 220.493 531.941 224.764C526.601 245.131 521.147 260.492 515.579 270.846C510.011 281.2 504.994 286.774 500.529 287.568C499.915 287.676 499.336 287.704 498.792 287.654C497.05 287.492 495.623 286.592 494.512 284.951C492.443 281.795 492.034 277.008 493.286 270.591C494.691 263.694 497.718 256.782 502.366 249.856C509.16 239.89 518.089 230.891 529.153 222.858C530.342 218.302 531.497 213.523 532.618 208.521C530.635 210.972 528.818 213.11 527.167 214.933C524.604 217.715 522.529 218.785 520.941 218.144C519.67 217.642 519.019 216.373 518.987 214.339C519 212.419 519.498 209.995 520.482 207.066C521.526 204.089 523.027 201.208 524.986 198.425C526.945 195.642 528.977 193.854 531.082 193.061C533.989 191.903 536.64 192.615 539.037 195.198C539.333 195.555 539.461 195.951 539.421 196.387C539.44 196.773 539.272 197.114 538.915 197.411C538.612 197.712 538.241 197.87 537.801 197.884C537.365 197.843 536.997 197.672 536.695 197.369C534.902 195.391 532.915 195.207 530.735 196.817C528.257 198.673 526.13 201.798 524.352 206.19C522.578 210.527 521.866 213.481 522.215 215.05C522.849 214.725 523.714 213.981 524.81 212.82C528.716 208.571 531.904 204.666 534.374 201.107C534.874 200.44 535.52 200.28 536.312 200.628C537.108 200.921 537.412 201.499 537.222 202.359C535.882 208.549 534.512 214.461 533.113 220.096C538.558 216.428 545.894 212.195 555.121 207.395C555.527 207.158 555.916 207.112 556.287 207.256ZM499.91 284.464C501.415 284.219 503.141 283.061 505.089 280.991C506.983 278.915 509.135 275.821 511.546 271.707C513.958 267.594 516.584 261.743 519.426 254.156C522.323 246.573 525.137 237.803 527.868 227.845C518.534 234.995 510.91 242.935 504.998 251.665C503.094 254.453 501.489 257.269 500.183 260.113C498.823 262.951 497.814 265.548 497.157 267.903C496.501 270.257 496.079 272.442 495.893 274.456C495.702 276.525 495.732 278.284 495.982 279.735C496.232 281.185 496.619 282.347 497.143 283.219C497.868 284.274 498.791 284.689 499.91 284.464ZM585.162 210.345C585.608 210.277 586.011 210.369 586.372 210.622C586.733 210.875 586.947 211.224 587.016 211.67C587.09 212.061 587 212.437 586.747 212.798C584.595 215.893 582.75 218.329 581.213 220.108C579.676 221.887 578.15 223.256 576.634 224.213C575.118 225.171 573.688 225.505 572.342 225.215C569.65 224.636 567.772 221.497 566.706 215.799C565.91 211.937 565.104 209.968 564.287 209.892C564.129 209.823 563.876 209.882 563.53 210.069C563.242 210.207 562.735 210.654 562.006 211.41C561.282 212.112 560.449 213.105 559.507 214.39C558.619 215.68 557.399 217.599 555.846 220.145C554.348 222.696 552.695 225.727 550.889 229.238C550.556 229.866 550.036 230.147 549.329 230.081C549.22 230.071 549.113 230.034 549.01 229.97C548.104 229.666 547.749 229.057 547.943 228.141C548.9 223.728 551.708 215.616 556.368 203.805C556.864 202.588 557.224 201.661 557.448 201.023C557.652 200.603 557.951 200.328 558.348 200.2C558.749 200.018 559.135 199.999 559.506 200.143C559.931 200.292 560.235 200.568 560.418 200.969C560.6 201.37 560.59 201.781 560.386 202.201C560.242 202.572 559.882 203.5 559.306 204.983C557.721 209.064 556.494 212.244 555.624 214.524C557.668 211.42 559.401 209.302 560.823 208.171C562.245 207.04 563.552 206.557 564.745 206.723C566.155 206.909 567.203 207.747 567.889 209.238C568.629 210.734 569.267 212.742 569.803 215.262C570.613 219.565 571.691 221.861 573.037 222.15C573.68 222.32 574.502 222.039 575.503 221.308C576.563 220.528 577.71 219.399 578.945 217.922C580.184 216.389 581.119 215.186 581.749 214.311C582.433 213.441 583.222 212.334 584.114 210.989C584.367 210.628 584.717 210.414 585.162 210.345ZM605.402 211.81C605.847 211.741 606.25 211.834 606.611 212.087C606.972 212.34 607.16 212.687 607.174 213.127C607.243 213.573 607.151 213.976 606.898 214.337C605.152 216.591 603.07 218.923 600.651 221.334C598.292 223.696 595.656 225.785 592.744 227.601C589.885 229.422 587.531 230.247 585.68 230.075C585.027 230.015 584.465 229.853 583.995 229.59C580.494 227.673 580.704 221.242 584.625 210.295C584.774 209.87 585.049 209.566 585.45 209.384C585.851 209.201 586.238 209.182 586.608 209.326C587.034 209.476 587.338 209.751 587.52 210.152C587.703 210.553 587.722 210.939 587.578 211.31C586.684 213.863 585.98 216.131 585.467 218.115C585.014 220.049 584.74 221.533 584.644 222.568C584.603 223.607 584.631 224.488 584.729 225.211C584.887 225.884 585.012 226.308 585.106 226.481C585.259 226.605 585.388 226.699 585.492 226.764C586.852 227.494 589.541 226.316 593.559 223.229C597.632 220.148 601.233 216.529 604.362 212.372C604.664 212.071 605.011 211.883 605.402 211.81ZM587.945 203.768C586.377 203.513 585.947 202.814 586.657 201.672C587.292 200.743 588.06 200.155 588.961 199.909C590.362 199.6 591.146 200.03 591.312 201.198C591.484 202.312 591 203.09 589.861 203.534C589.292 203.756 588.653 203.834 587.945 203.768ZM674.026 188.526C674.268 188.877 674.341 189.269 674.247 189.699C674.152 190.129 673.902 190.463 673.496 190.7C672.802 191.075 672.179 190.99 671.625 190.444C669.098 189.277 650.761 187.494 616.616 185.097C611.705 199.63 606.624 215.409 601.373 232.436C595.082 252.99 591.112 267.143 589.462 274.896C589.571 274.906 589.678 274.943 589.781 275.008C590.207 275.157 590.484 275.43 590.612 275.826C590.735 276.277 590.697 276.685 590.499 277.051C590.146 277.896 589.87 278.502 589.672 278.868C589.414 279.283 589.077 279.664 588.661 280.01C588.239 280.41 587.811 280.59 587.375 280.549C587.212 280.534 587.024 280.489 586.811 280.415C586.124 280.131 585.769 279.522 585.745 278.586C585.667 277.646 585.837 276.399 586.255 274.846C586.684 272.579 587.478 269.332 588.638 265.102C590.753 257.063 593.775 246.637 597.703 233.825C602.98 216.526 608.193 200.21 613.342 184.876C609.636 184.587 605.026 184.27 599.513 183.923C590.784 183.333 585.657 182.968 584.133 182.827C583.697 182.786 583.356 182.617 583.109 182.32C582.813 181.963 582.685 181.567 582.725 181.131C582.75 180.859 582.854 180.622 583.038 180.419C583.172 180.157 583.38 179.984 583.662 179.901C583.895 179.758 584.147 179.699 584.42 179.724C585.944 179.865 591.046 180.201 599.726 180.731C605.125 181.122 610.034 181.467 614.453 181.767C616.859 174.743 618.973 168.79 620.797 163.909C620.946 163.483 621.221 163.179 621.622 162.997C622.023 162.814 622.409 162.795 622.78 162.94C623.206 163.089 623.51 163.364 623.692 163.765C623.875 164.166 623.891 164.58 623.742 165.005C621.988 169.729 619.956 175.387 617.645 181.981C634.015 183.059 646.359 184.039 654.677 184.92C662.996 185.801 668.204 186.476 670.301 186.945C672.459 187.365 673.7 187.891 674.026 188.526ZM639.666 215.316C640.112 215.248 640.485 215.365 640.787 215.667C641.148 215.92 641.335 216.267 641.35 216.707C641.364 217.148 641.247 217.521 640.999 217.828C634.054 225.858 627.884 231.435 622.49 234.559C620.345 235.787 618.293 236.311 616.333 236.129C614.809 235.988 613.513 235.456 612.445 234.533C611.837 233.983 611.326 233.276 610.912 232.415C610.443 231.548 610.086 230.362 609.84 228.856C609.595 227.351 609.719 225.414 610.213 223.044C610.652 220.669 611.502 218.003 612.763 215.045L612.771 214.964C614.753 210.151 616.965 206.404 619.409 203.72C621.853 201.037 623.948 199.749 625.695 199.856C626.952 199.918 627.718 200.538 627.994 201.716C628.447 203.351 627.533 205.517 625.252 208.215C622.972 210.913 619.719 213.741 615.493 216.698C614.643 218.761 614 220.677 613.562 222.449C613.124 224.22 612.881 225.652 612.835 226.746C612.849 227.79 612.954 228.733 613.15 229.575C613.407 230.367 613.628 230.937 613.816 231.284C614.058 231.636 614.305 231.933 614.557 232.176C616.079 233.525 618.205 233.393 620.935 231.779C626.036 228.848 631.909 223.518 638.552 215.789C638.854 215.488 639.226 215.33 639.666 215.316ZM624.807 203.233C622.791 204.254 620.674 206.665 618.456 210.467C621.905 207.603 624.022 205.191 624.807 203.233Z" fill="white"/>
</g>
<g filter="url(#filter3_d_139_170)">
<path d="M77.1436 99.927C77.566 99.8137 77.9516 99.8802 78.3005 100.126C78.688 100.305 78.9383 100.606 79.0515 101.029C79.2174 101.437 79.1844 101.842 78.9524 102.244C77.1496 105.444 75.0888 107.892 72.7702 109.589C70.5044 111.272 68.2042 112.086 65.8696 112.033C63.1899 111.959 60.8101 110.786 58.7301 108.514C58.7301 111.683 58.589 114.749 58.307 117.711C57.8223 122.029 57.2023 124.997 56.447 126.614C55.6917 128.232 54.8195 129.201 53.8304 129.523C51.9437 130.086 50.1428 128.644 48.4277 125.199C48.0289 124.343 47.6141 123.323 47.1832 122.136C45.2775 127.911 43.7306 131.75 42.5425 133.653C41.6392 135.14 40.6331 136.032 39.5242 136.33C38.8906 136.5 38.2603 136.47 37.6333 136.242C35.2874 135.513 33.5973 132.372 32.5631 126.82C31.4619 121.229 31.224 114.529 31.8493 106.721C31.9087 106.309 32.102 105.974 32.4292 105.717C32.7423 105.407 33.1048 105.281 33.5169 105.34C33.9676 105.333 34.3287 105.519 34.6002 105.899C34.9104 106.212 35.0358 106.574 34.9764 106.987C34.535 112.312 34.5085 117.073 34.8969 121.27C35.3381 125.453 35.8853 128.448 36.5387 130.254C37.2449 132.045 37.9379 133.048 38.6177 133.262C38.8714 133.364 39.2952 132.939 39.8892 131.987C41.116 130.017 43.0453 124.859 45.6771 116.513C45.877 115.78 46.3748 115.42 47.1706 115.433C47.9664 115.446 48.4704 115.849 48.6825 116.641C49.4179 119.387 50.2867 121.785 51.289 123.837C51.9207 125.139 52.492 126.005 53.0031 126.434C53.8753 125.464 54.599 122.356 55.1743 117.108C55.7354 111.807 55.7568 107.132 55.2383 103.083C55.1921 102.699 55.2727 102.366 55.4801 102.084C55.7262 101.735 56.0341 101.511 56.4037 101.412C57.2344 101.133 57.8421 101.394 58.2268 102.197C60.3548 106.55 62.9312 108.774 65.956 108.869C67.6673 108.919 69.4324 108.22 71.2513 106.77C73.0701 105.32 74.7335 103.29 76.2412 100.678C76.4204 100.291 76.7211 100.04 77.1436 99.927ZM110.22 91.0597C110.614 90.8408 110.998 90.7945 111.371 90.9208C111.798 91.033 112.12 91.2861 112.339 91.6802C112.558 92.0744 112.611 92.4846 112.499 92.9108C111.506 96.1767 110.514 99.1308 109.524 101.773C108.52 104.363 107.621 106.5 106.827 108.184C106.072 109.802 105.286 111.201 104.47 112.382C103.669 113.615 103.001 114.502 102.466 115.041C101.946 115.634 101.383 116.068 100.778 116.343C100.186 116.671 99.7516 116.845 99.4735 116.862C99.2623 116.919 98.9912 116.963 98.6602 116.996C96.0088 117.027 93.853 114.577 92.1927 109.646C91.8429 108.551 91.4634 107.662 91.0542 106.98C90.6308 106.244 90.3117 105.792 90.0967 105.623C89.8676 105.402 89.7002 105.305 89.5946 105.333C89.5418 105.347 89.5154 105.355 89.5154 105.355C89.093 105.468 88.6041 105.967 88.0487 106.851C87.4792 107.683 86.8644 108.98 86.2043 110.742C85.5443 112.503 84.9163 114.596 84.3203 117.02C83.7243 119.443 83.1449 122.457 82.5819 126.06C82.0717 129.649 81.6586 133.495 81.3426 137.599C81.3153 138.342 80.932 138.812 80.1928 139.01C80.0872 139.039 79.9816 139.067 79.8759 139.095C79.5978 139.113 79.3583 139.064 79.1575 138.948C78.9038 138.847 78.6889 138.678 78.5125 138.442C78.3504 138.259 78.2674 138.055 78.2636 137.83C77.7894 135.636 77.329 128.317 76.8823 115.872C76.3687 103.389 76.0022 93.3564 75.7827 85.7747C75.6018 78.126 75.4775 72.2732 75.4097 68.2164C75.2533 60.4479 75.6509 53.6912 76.6024 47.9462C77.5926 42.1343 78.8901 38.8434 80.4949 38.0736C81.3501 37.6745 82.1073 37.7545 82.7663 38.3136C84.3522 39.5863 84.7618 43.8628 83.9951 51.143C83.2812 58.409 81.5639 67.5287 78.8435 78.5021C79.2607 96.3315 79.7182 110.613 80.2158 121.346C81.2239 115.812 82.4813 111.315 83.9881 107.855C85.4808 104.342 87.2129 102.463 89.1845 102.217C91.6455 101.897 93.6302 104.025 95.1387 108.601C96.3503 112.068 97.493 113.8 98.567 113.795C98.7395 113.805 98.9507 113.748 99.2006 113.625C99.5033 113.487 100.026 113.007 100.768 112.186C101.51 111.364 102.26 110.258 103.019 108.866C103.764 107.421 104.709 105.243 105.854 102.333C107.051 99.4083 108.247 95.9467 109.439 91.9481C109.566 91.5747 109.826 91.2785 110.22 91.0597ZM81.1284 42.6579C79.3415 47.6081 78.4678 55.2282 78.5071 65.5183C80.6506 54.926 81.5243 47.3059 81.1284 42.6579ZM133.744 85.1778C134.138 84.959 134.529 84.9391 134.916 85.1182C135.342 85.2303 135.639 85.4906 135.804 85.8988C135.97 86.3071 135.99 86.698 135.864 87.0715C132.132 97.0143 128.277 104.387 124.3 109.188C122.714 111.085 120.97 112.288 119.069 112.798C117.591 113.194 116.191 113.145 114.87 112.65C114.109 112.345 113.385 111.86 112.698 111.195C111.958 110.544 111.212 109.556 110.46 108.229C109.709 106.902 109.154 105.042 108.796 102.648C108.385 100.268 108.259 97.4716 108.417 94.2597L108.396 94.1805C108.587 88.9788 109.364 84.6955 110.727 81.3306C112.09 77.9657 113.609 76.0303 115.284 75.5246C116.484 75.1462 117.418 75.4619 118.084 76.4717C119.075 77.8474 118.969 80.1965 117.765 83.5189C116.561 86.8414 114.489 90.6228 111.55 94.8631C111.468 97.0924 111.528 99.1137 111.731 100.927C111.933 102.74 112.203 104.168 112.538 105.21C112.913 106.185 113.338 107.033 113.814 107.755C114.329 108.409 114.734 108.866 115.03 109.126C115.379 109.372 115.714 109.566 116.034 109.706C117.93 110.443 119.878 109.581 121.878 107.121C125.648 102.601 129.31 95.5636 132.863 86.0083C133.042 85.6207 133.336 85.3439 133.744 85.1778ZM115.621 79C114.084 80.6571 112.934 83.6538 112.171 87.9899C114.413 84.1061 115.563 81.1095 115.621 79ZM164.692 76.7962C165.072 76.5245 165.475 76.4447 165.902 76.5569C166.314 76.6162 166.655 76.8359 166.927 77.2158C167.184 77.543 167.257 77.9197 167.145 78.346C166.539 81.7909 165.77 85.3646 164.838 89.067C163.905 92.7695 162.795 96.5478 161.507 100.402C160.286 104.295 158.895 107.554 157.334 110.18C155.788 112.859 154.275 114.396 152.797 114.792C152.427 114.891 152.063 114.904 151.704 114.831C149.312 114.566 147.749 111.476 147.014 105.561C146.325 100.029 146.256 91.9544 146.808 81.336C146.755 81.3501 146.709 81.3907 146.671 81.4577C146.671 81.4577 146.644 81.4647 146.592 81.4789C145.642 82.5824 144.828 83.4515 144.149 84.0863C143.523 84.7069 142.62 85.4582 141.442 86.3402C140.316 87.2079 139.165 87.7711 137.989 88.0298C136.814 88.2884 135.632 88.2089 134.445 87.7914C132.057 86.9035 130.497 85.1994 129.765 82.6788C129.034 80.1583 129.242 77.1312 130.389 73.5976C131.094 71.371 132.101 69.3183 133.409 67.4396C134.769 65.5467 136.163 64.8335 137.59 65.3C138.442 65.5243 139.048 66.0975 139.408 67.0197C139.821 67.9278 139.868 69.8963 139.547 72.9253C139.212 75.9015 138.391 79.9137 137.083 84.9619C138.776 84.7343 141.165 82.877 144.249 79.3901C144.809 78.7308 145.225 78.2795 145.5 78.0362C145.813 77.7259 146.152 77.4085 146.518 77.084C146.937 76.7454 147.312 76.56 147.643 76.5279C147.973 76.4958 148.326 76.5428 148.699 76.6691C149.661 77.0905 150.09 78.164 149.986 79.8897C149.09 97.675 149.663 108.162 151.705 111.35C151.867 111.532 151.989 111.67 152.07 111.761C152.507 111.701 153.048 111.188 153.695 110.222C154.395 109.242 155.166 107.79 156.009 105.866C156.905 103.928 157.795 101.652 158.679 99.0377C159.617 96.4094 160.552 93.244 161.484 89.5415C162.47 85.825 163.319 81.9184 164.033 77.8218C164.131 77.3427 164.351 77.0009 164.692 76.7962ZM132.519 79.6484C132.539 81.624 133.04 83.0743 134.024 83.9992C136.082 76.2595 136.925 71.1661 136.553 68.7191C136.018 69.2586 135.442 70.0641 134.823 71.1354C134.257 72.1927 133.709 73.5281 133.18 75.1417C132.688 76.6883 132.468 78.1905 132.519 79.6484ZM188.428 70.5179C188.822 70.299 189.213 70.2791 189.601 70.4582C190.027 70.5704 190.323 70.8306 190.489 71.2389C190.655 71.6472 190.674 72.038 190.548 72.4115C186.816 82.3544 182.961 89.7266 178.984 94.5282C177.398 96.4249 175.655 97.6281 173.754 98.1377C172.275 98.534 170.876 98.4848 169.555 97.99C168.794 97.6846 168.07 97.1995 167.382 96.5349C166.642 95.8843 165.896 94.8957 165.145 93.5691C164.393 92.2424 163.838 90.3819 163.48 87.9877C163.069 85.6076 162.943 82.8116 163.101 79.5997L163.08 79.5205C163.272 74.3189 164.049 70.0356 165.411 66.6706C166.774 63.3057 168.293 61.3704 169.968 60.8646C171.169 60.4862 172.102 60.8019 172.769 61.8118C173.76 63.1874 173.653 65.5365 172.449 68.8589C171.245 72.1814 169.173 75.9628 166.234 80.2031C166.152 82.4324 166.212 84.4537 166.415 86.2671C166.618 88.0805 166.887 89.5081 167.222 90.5501C167.597 91.5251 168.022 92.3732 168.498 93.0945C169.013 93.7489 169.418 94.2062 169.714 94.4664C170.063 94.7124 170.398 94.9057 170.719 95.0461C172.614 95.7832 174.562 94.9214 176.563 92.4607C180.332 87.9411 183.994 80.9036 187.547 71.3484C187.726 70.9607 188.02 70.6839 188.428 70.5179ZM170.305 64.34C168.768 65.9971 167.618 68.9938 166.855 73.3299C169.097 69.4461 170.247 66.4495 170.305 64.34Z" fill="white"/>
</g>
<g filter="url(#filter4_d_139_170)">
<rect width="249.34" height="60.1115" rx="12" transform="matrix(0.998092 0.0617524 -0.0616906 0.998095 211.817 209.605)" fill="#94DE1B" shape-rendering="crispEdges"/>
<path d="M242.162 254.621L219.693 253.231L221.429 225.144L243.898 226.535L243.647 230.601L225.705 229.491L225.218 237.372L242.531 238.443L242.282 242.467L224.969 241.396L224.472 249.445L242.414 250.555L242.162 254.621ZM249.126 255.052L243.718 254.717L253.326 244.96L253.342 244.708L245.006 233.883L250.497 234.223L256.927 242.532L257.179 242.547L264.499 235.089L269.948 235.426L260.348 245.058L260.332 245.309L268.66 256.26L263.169 255.921L256.744 247.528L256.451 247.51L249.126 255.052ZM274.952 263.803L270.424 263.523L272.153 235.563L276.303 235.819L275.945 241.604L276.322 241.628C277.399 237.823 280.479 235.657 285.383 235.96C291.839 236.36 295.214 240.987 294.815 247.443C294.416 253.898 290.583 258.038 284.086 257.636C279.391 257.345 276.525 254.685 275.923 250.819L275.755 250.808L274.952 263.803ZM276.014 246.616C275.75 250.892 278.345 253.157 282.789 253.431C287.274 253.709 289.979 252.151 290.288 247.163C290.598 242.132 288.061 240.292 283.701 240.022C279.048 239.734 276.315 241.753 276.037 246.239L276.014 246.616ZM307.764 259.101C300.932 258.678 296.684 254.544 297.115 247.585C297.516 241.087 302.229 237.003 309.02 237.423C315.476 237.822 319.657 241.658 319.266 247.988C319.219 248.742 319.141 249.327 318.976 249.948L301.286 248.853C301.205 252.888 303.043 255.148 307.864 255.446C312.224 255.716 314.114 254.402 314.267 251.929L314.288 251.593L318.815 251.873L318.792 252.251C318.517 256.694 313.969 259.484 307.764 259.101ZM308.716 240.981C304.105 240.696 301.966 242.625 301.484 246.34L315.024 247.178L315.029 247.094C315.267 243.238 313.16 241.256 308.716 240.981ZM326.482 259.838L321.955 259.558L323.242 238.724L327.392 238.98L327.045 244.598L327.339 244.616C328.175 241.301 330.604 238.758 334.88 239.023C339.617 239.316 341.461 242.838 341.218 246.779L341.049 249.504L336.564 249.226L336.678 247.382C336.862 244.405 335.69 242.944 332.588 242.752C329.024 242.532 327.436 244.411 327.205 248.142L326.482 259.838ZM349.167 237.887L344.639 237.607L344.937 232.786L349.464 233.066L349.167 237.887ZM347.729 261.152L343.201 260.872L344.489 240.038L349.016 240.318L347.729 261.152ZM362.375 262.479C355.542 262.057 351.295 257.923 351.725 250.964C352.127 244.466 356.84 240.381 363.631 240.802C370.086 241.201 374.268 245.037 373.876 251.366C373.83 252.121 373.752 252.705 373.587 253.326L355.897 252.232C355.816 256.267 357.654 258.526 362.475 258.825C366.834 259.094 368.725 257.781 368.878 255.307L368.898 254.972L373.426 255.252L373.402 255.629C373.128 260.073 368.579 262.863 362.375 262.479ZM363.327 244.36C358.715 244.074 356.576 246.004 356.094 249.719L369.634 250.557L369.639 250.473C369.878 246.616 367.77 244.635 363.327 244.36ZM381.092 263.217L376.565 262.937L377.853 242.102L382.003 242.359L381.604 248.815L381.897 248.833C382.744 245.351 385.718 242.168 391 242.495C396.785 242.853 399.394 246.928 399.096 251.749L398.321 264.283L393.794 264.003L394.494 252.684C394.735 248.786 393.096 246.706 388.778 246.439C384.209 246.157 382.01 248.377 381.73 252.904L381.092 263.217ZM412.852 265.602C405.977 265.177 401.763 260.498 402.16 254.084C402.561 247.587 407.316 243.504 414.191 243.93C420.437 244.316 424.789 248.12 424.468 253.318L424.442 253.738L419.956 253.46L419.972 253.208C420.171 249.981 417.922 248.242 413.856 247.991C409.161 247.7 406.928 249.792 406.645 254.362C406.368 258.847 408.324 261.241 413.019 261.531C417.085 261.783 419.531 260.335 419.731 257.107L419.749 256.814L424.234 257.091L424.206 257.552C423.885 262.75 419.098 265.989 412.852 265.602ZM437.495 267.127C430.662 266.704 426.415 262.57 426.845 255.611C427.247 249.114 431.96 245.029 438.751 245.449C445.206 245.849 449.388 249.684 448.996 256.014C448.95 256.769 448.872 257.353 448.707 257.974L431.017 256.88C430.936 260.914 432.774 263.174 437.595 263.472C441.954 263.742 443.845 262.428 443.998 259.955L444.018 259.62L448.546 259.9L448.522 260.277C448.248 264.721 443.699 267.511 437.495 267.127ZM438.447 249.007C433.835 248.722 431.696 250.652 431.214 254.367L444.754 255.205L444.759 255.121C444.998 251.264 442.89 249.282 438.447 249.007Z" fill="black"/>
<circle cx="2" cy="2" r="2" transform="matrix(0.998968 -0.0452683 0.0453294 0.998979 219.78 216.708)" fill="#424666"/>
<circle cx="2" cy="2" r="2.25" transform="matrix(0.998968 -0.0452683 0.0453294 0.998979 219.78 216.708)" stroke="#949ABB" stroke-opacity="0.93" stroke-width="0.5"/>
</g>
<path d="M495.719 102.154C507.485 83.5895 542.033 78.5212 558.45 87.066C562.914 89.3896 584.698 100.612 579.06 108.083C576.361 111.661 572.835 107.992 571.567 105.273C569.072 99.9187 567.571 95.453 567.593 89.3754C567.625 79.9942 569.985 66.601 581.263 65.3615C586.13 64.8266 590.412 70.47 591.573 74.4419C592.711 78.3361 592.569 82.1198 592.609 86.1252C592.642 89.3807 592.374 88.85 595.329 87.4692C602.747 84.0034 615.537 87.3084 610.401 97.6098C607.52 103.39 602.535 106.527 597.469 110.011C595.566 111.32 592.368 113.677 590.078 114.119C587.586 114.601 588.666 111.641 590.103 110.717C593.676 108.421 596.294 108.246 599.709 110.832C608.896 117.789 605.758 131.466 603.298 135.132C601.934 137.166 602.651 137.015 604.426 136.043C605.804 135.288 609.337 131.106 608.391 132.36C608.057 132.802 604.903 137.719 604.281 137.646C602.067 137.388 599.561 134.207 597.503 133.511" stroke="white" stroke-width="0.5" stroke-linecap="round"/>
<path d="M485.59 210.174C484.239 208.232 479.287 202.218 476.335 205.372C475.499 206.265 475.31 208.727 476.938 209.228C479.11 209.895 479.071 206.651 478.191 205.506C475.874 202.49 470.984 202.981 468.319 204.628C466.08 206.012 464.755 208.51 463.921 210.941C463.53 212.081 463.713 213.251 463.4 214.374C462.917 216.112 462.655 213.523 462.193 212.605C461.25 210.729 462.874 213.734 463.196 214.382C463.727 215.452 465.912 213.654 466.854 213.122" stroke="white" stroke-width="0.5" stroke-linecap="round"/>
<path d="M64.6961 142.978C64.3229 145.315 63.7216 153.089 68.0317 152.871C69.2525 152.809 71.0946 151.167 70.269 149.675C69.168 147.684 66.9483 150.047 66.7883 151.483C66.367 155.265 70.228 158.312 73.2879 158.979C75.8576 159.54 78.5427 158.663 80.827 157.493C81.8985 156.944 82.5773 155.974 83.5807 155.383C85.1328 154.468 83.5268 156.514 83.2234 157.496C82.6035 159.502 83.5153 156.21 83.7328 155.519C84.0917 154.38 81.2735 154.155 80.2268 153.883" stroke="white" stroke-width="0.5" stroke-linecap="round"/>
</g>
<defs>
<filter id="filter0_d_139_170" x="12.9012" y="12.5241" width="733.456" height="359.434" filterUnits="userSpaceOnUse" color-interpolation-filters="sRGB">
<feFlood flood-opacity="0" result="BackgroundImageFix"/>
<feColorMatrix in="SourceAlpha" type="matrix" values="0 0 0 0 0 0 0 0 0 0 0 0 0 0 0 0 0 0 127 0" result="hardAlpha"/>
<feOffset dx="54" dy="53"/>
<feGaussianBlur stdDeviation="8"/>
<feColorMatrix type="matrix" values="0 0 0 0 0 0 0 0 0 0 0 0 0 0 0 0 0 0 0.7 0"/>
<feBlend mode="normal" in2="BackgroundImageFix" result="effect1_dropShadow_139_170"/>
<feBlend mode="normal" in="SourceGraphic" in2="effect1_dropShadow_139_170" result="shape"/>
</filter>
<filter id="filter1_d_139_170" x="87.3845" y="120.748" width="474.354" height="65.68" filterUnits="userSpaceOnUse" color-interpolation-filters="sRGB">
<feFlood flood-opacity="0" result="BackgroundImageFix"/>
<feColorMatrix in="SourceAlpha" type="matrix" values="0 0 0 0 0 0 0 0 0 0 0 0 0 0 0 0 0 0 127 0" result="hardAlpha"/>
<feOffset/>
<feGaussianBlur stdDeviation="4"/>
<feComposite in2="hardAlpha" operator="out"/>
<feColorMatrix type="matrix" values="0 0 0 0 0 0 0 0 0 0 0 0 0 0 0 0 0 0 0.16 0"/>
<feBlend mode="normal" in2="BackgroundImageFix" result="effect1_dropShadow_139_170"/>
<feBlend mode="normal" in="SourceGraphic" in2="effect1_dropShadow_139_170" result="shape"/>
</filter>
<filter id="filter2_d_139_170" x="477.478" y="139.574" width="210.88" height="175.384" filterUnits="userSpaceOnUse" color-interpolation-filters="sRGB">
<feFlood flood-opacity="0" result="BackgroundImageFix"/>
<feColorMatrix in="SourceAlpha" type="matrix" values="0 0 0 0 0 0 0 0 0 0 0 0 0 0 0 0 0 0 127 0" result="hardAlpha"/>
<feOffset/>
<feGaussianBlur stdDeviation="6"/>
<feComposite in2="hardAlpha" operator="out"/>
<feColorMatrix type="matrix" values="0 0 0 0 1 0 0 0 0 1 0 0 0 0 1 0 0 0 0.6 0"/>
<feBlend mode="normal" in2="BackgroundImageFix" result="effect1_dropShadow_139_170"/>
<feBlend mode="normal" in="SourceGraphic" in2="effect1_dropShadow_139_170" result="shape"/>
</filter>
<filter id="filter3_d_139_170" x="0.901245" y="0.524086" width="211.213" height="161.753" filterUnits="userSpaceOnUse" color-interpolation-filters="sRGB">
<feFlood flood-opacity="0" result="BackgroundImageFix"/>
<feColorMatrix in="SourceAlpha" type="matrix" values="0 0 0 0 0 0 0 0 0 0 0 0 0 0 0 0 0 0 127 0" result="hardAlpha"/>
<feOffset/>
<feGaussianBlur stdDeviation="6"/>
<feComposite in2="hardAlpha" operator="out"/>
<feColorMatrix type="matrix" values="0 0 0 0 1 0 0 0 0 1 0 0 0 0 1 0 0 0 0.6 0"/>
<feBlend mode="normal" in2="BackgroundImageFix" result="effect1_dropShadow_139_170"/>
<feBlend mode="normal" in="SourceGraphic" in2="effect1_dropShadow_139_170" result="shape"/>
</filter>
<filter id="filter4_d_139_170" x="208.109" y="209.605" width="263.572" height="86.3944" filterUnits="userSpaceOnUse" color-interpolation-filters="sRGB">
<feFlood flood-opacity="0" result="BackgroundImageFix"/>
<feColorMatrix in="SourceAlpha" type="matrix" values="0 0 0 0 0 0 0 0 0 0 0 0 0 0 0 0 0 0 127 0" result="hardAlpha"/>
<feOffset dx="11" dy="11"/>
<feComposite in2="hardAlpha" operator="out"/>
<feColorMatrix type="matrix" values="0 0 0 0 0.247269 0 0 0 0 0.271754 0 0 0 0 0.300497 0 0 0 0.56 0"/>
<feBlend mode="normal" in2="BackgroundImageFix" result="effect1_dropShadow_139_170"/>
<feBlend mode="normal" in="SourceGraphic" in2="effect1_dropShadow_139_170" result="shape"/>
</filter>
</defs>
</svg>
