<svg width="108" height="108" viewBox="0 0 108 108" fill="none" xmlns="http://www.w3.org/2000/svg">
<path d="M78.9962 64.1239C74.565 80.6614 57.5666 90.4754 41.0291 86.0443C24.4917 81.6131 17.7615 70.4922 19.1088 48.0772C20.1804 30.247 33.1646 20.2675 49.7021 24.6987C59.0475 27.2028 64.0834 37.9267 67.7772 46.1063C70.6199 52.4011 80.9233 56.9319 78.9962 64.1239Z" fill="#FD243E"/>
<path d="M13.5 53.999H18M54 13.499V17.999M90 53.999H94.5M25.2 25.199L28.35 28.349M82.8 25.199L79.65 28.349" stroke="#161513" stroke-width="4" stroke-linecap="round" stroke-linejoin="round"/>
<path d="M40.5 71.999C36.7221 69.1656 33.9315 65.2154 32.5234 60.7078C31.1154 56.2002 31.1613 51.3639 32.6546 46.8839C34.148 42.4039 37.013 38.5073 40.844 35.7461C44.675 32.9849 49.2776 31.499 54 31.499C58.7224 31.499 63.325 32.9849 67.156 35.7461C70.987 38.5073 73.852 42.4039 75.3454 46.8839C76.8387 51.3639 76.8846 56.2002 75.4766 60.7078C74.0685 65.2154 71.2779 69.1656 67.5 71.999C65.7431 73.7382 64.4202 75.8665 63.6384 78.2118C62.8567 80.5571 62.6379 83.0535 63 85.499C63 87.886 62.0518 90.1752 60.364 91.863C58.6761 93.5508 56.3869 94.499 54 94.499C51.6131 94.499 49.3239 93.5508 47.636 91.863C45.9482 90.1752 45 87.886 45 85.499C45.3621 83.0535 45.1433 80.5571 44.3616 78.2118C43.5798 75.8665 42.2569 73.7382 40.5 71.999" stroke="#161513" stroke-width="4" stroke-linecap="round" stroke-linejoin="round"/>
<path d="M43.6484 76.499H64.3484" stroke="#161513" stroke-width="4" stroke-linecap="round" stroke-linejoin="round"/>
</svg>
