<svg width="170" height="36" viewBox="0 0 170 36" fill="none" xmlns="http://www.w3.org/2000/svg">
<circle cx="19" cy="18" r="18" fill="white"/>
<g filter="url(#filter0_dii_1115_28)">
<path fill-rule="evenodd" clip-rule="evenodd" d="M13.5837 9C9.39535 9 6 12.6008 6 17.0426V19.3404C6 20.6095 6.9701 21.6383 8.16678 21.6383C9.36345 21.6383 10.3336 20.6095 10.3336 19.3404V17.0426C10.3336 15.1389 11.7887 13.5957 13.5837 13.5957C15.3526 13.5957 16.7914 15.0943 16.833 16.9596C16.8327 16.9872 16.8326 17.0149 16.8326 17.0426V19.7234C16.8326 19.7505 16.833 19.7774 16.8339 19.8043V22.4043C16.8339 23.6733 17.804 24.7021 19.0007 24.7021C20.1973 24.7021 21.1674 23.6733 21.1674 22.4043V17.0426C21.1674 17.0149 21.1673 16.9872 21.167 16.9596C21.2086 15.0943 22.6474 13.5957 24.4163 13.5957C26.2113 13.5957 27.6664 15.1389 27.6664 17.0426V24.7021C27.6664 25.9712 28.6365 27 29.8332 27C31.0299 27 32 25.9712 32 24.7021V17.0426C32 12.6008 28.6047 9 24.4163 9C22.2946 9 20.3764 9.92399 19 11.4132C17.6236 9.92399 15.7054 9 13.5837 9Z" fill="black"/>
</g>
<path d="M47.92 27H44.944V9.456H47.92L53.584 23.424L59.248 9.456H62.272V27H59.296V21.6C59.296 18.072 59.296 17.04 59.464 15.792L55 27H52.168L47.728 15.816C47.896 16.872 47.92 18.528 47.92 20.712V27ZM66.2269 12.768C65.2189 12.768 64.4269 11.976 64.4269 10.992C64.4269 10.008 65.2189 9.24 66.2269 9.24C67.1869 9.24 67.9789 10.008 67.9789 10.992C67.9789 11.976 67.1869 12.768 66.2269 12.768ZM64.7629 27V15.144H67.6909V27H64.7629ZM72.6841 27H69.7561V9.144H72.7081V16.68C73.4521 15.528 74.8441 14.784 76.5481 14.784C79.4761 14.784 81.0121 16.632 81.0121 19.704V27H78.0841V20.4C78.0841 18.408 77.1001 17.448 75.6121 17.448C73.7641 17.448 72.6841 18.744 72.6841 20.52V27ZM84.3929 12.768C83.3849 12.768 82.5929 11.976 82.5929 10.992C82.5929 10.008 83.3849 9.24 84.3929 9.24C85.3529 9.24 86.1449 10.008 86.1449 10.992C86.1449 11.976 85.3529 12.768 84.3929 12.768ZM82.9289 27V15.144H85.8569V27H82.9289ZM95.362 15.096V17.808H94.282C92.17 17.808 90.85 18.936 90.85 21.24V27H87.922V15.168H90.682L90.85 16.896C91.354 15.72 92.482 14.928 94.066 14.928C94.474 14.928 94.882 14.976 95.362 15.096ZM107.245 27L100.621 9.456H103.885L107.725 19.56C108.109 20.616 108.445 21.648 108.829 23.064C109.261 21.528 109.621 20.448 109.957 19.56L113.749 9.456H116.941L110.413 27H107.245ZM119.25 27.312C116.73 27.312 115.194 25.848 115.194 23.616C115.194 21.432 116.778 20.064 119.586 19.848L123.138 19.584V19.32C123.138 17.712 122.178 17.064 120.69 17.064C118.962 17.064 118.002 17.784 118.002 19.032H115.506C115.506 16.464 117.618 14.784 120.834 14.784C124.026 14.784 125.994 16.512 125.994 19.8V27H123.426L123.21 25.248C122.706 26.472 121.098 27.312 119.25 27.312ZM120.21 25.104C122.01 25.104 123.162 24.024 123.162 22.2V21.576L120.69 21.768C118.866 21.936 118.17 22.536 118.17 23.496C118.17 24.576 118.89 25.104 120.21 25.104ZM129.374 12.768C128.366 12.768 127.574 11.976 127.574 10.992C127.574 10.008 128.366 9.24 129.374 9.24C130.334 9.24 131.126 10.008 131.126 10.992C131.126 11.976 130.334 12.768 129.374 12.768ZM127.91 27V15.144H130.838V27H127.91ZM137.775 27.312C134.343 27.312 132.207 24.792 132.207 21.12C132.207 17.424 134.367 14.784 137.943 14.784C139.599 14.784 141.063 15.48 141.807 16.656V9.144H144.711V27H142.023L141.831 25.152C141.111 26.52 139.575 27.312 137.775 27.312ZM138.423 24.624C140.463 24.624 141.783 23.16 141.783 21.024C141.783 18.888 140.463 17.4 138.423 17.4C136.383 17.4 135.135 18.912 135.135 21.024C135.135 23.136 136.383 24.624 138.423 24.624ZM145.771 32.496V30.048H147.523C148.675 30.048 149.395 29.784 149.899 28.392L150.235 27.504L145.459 15.144H148.555L151.603 23.784L154.819 15.144H157.843L152.035 29.64C151.147 31.848 149.899 32.76 147.955 32.76C147.139 32.76 146.419 32.664 145.771 32.496ZM161.488 27.312C158.968 27.312 157.432 25.848 157.432 23.616C157.432 21.432 159.016 20.064 161.824 19.848L165.376 19.584V19.32C165.376 17.712 164.416 17.064 162.928 17.064C161.2 17.064 160.24 17.784 160.24 19.032H157.744C157.744 16.464 159.856 14.784 163.072 14.784C166.264 14.784 168.232 16.512 168.232 19.8V27H165.664L165.448 25.248C164.944 26.472 163.336 27.312 161.488 27.312ZM162.448 25.104C164.248 25.104 165.4 24.024 165.4 22.2V21.576L162.928 21.768C161.104 21.936 160.408 22.536 160.408 23.496C160.408 24.576 161.128 25.104 162.448 25.104Z" fill="white"/>
<defs>
<filter id="filter0_dii_1115_28" x="0" y="7" width="34" height="26" filterUnits="userSpaceOnUse" color-interpolation-filters="sRGB">
<feFlood flood-opacity="0" result="BackgroundImageFix"/>
<feColorMatrix in="SourceAlpha" type="matrix" values="0 0 0 0 0 0 0 0 0 0 0 0 0 0 0 0 0 0 127 0" result="hardAlpha"/>
<feOffset dx="-2" dy="2"/>
<feGaussianBlur stdDeviation="2"/>
<feComposite in2="hardAlpha" operator="out"/>
<feColorMatrix type="matrix" values="0 0 0 0 0.165912 0 0 0 0 0.194975 0 0 0 0 0.29801 0 0 0 0.78 0"/>
<feBlend mode="normal" in2="BackgroundImageFix" result="effect1_dropShadow_1115_28"/>
<feBlend mode="normal" in="SourceGraphic" in2="effect1_dropShadow_1115_28" result="shape"/>
<feColorMatrix in="SourceAlpha" type="matrix" values="0 0 0 0 0 0 0 0 0 0 0 0 0 0 0 0 0 0 127 0" result="hardAlpha"/>
<feOffset dx="1" dy="1"/>
<feGaussianBlur stdDeviation="1"/>
<feComposite in2="hardAlpha" operator="arithmetic" k2="-1" k3="1"/>
<feColorMatrix type="matrix" values="0 0 0 0 0.120252 0 0 0 0 0.120252 0 0 0 0 0.120252 0 0 0 0.7 0"/>
<feBlend mode="normal" in2="shape" result="effect2_innerShadow_1115_28"/>
<feColorMatrix in="SourceAlpha" type="matrix" values="0 0 0 0 0 0 0 0 0 0 0 0 0 0 0 0 0 0 127 0" result="hardAlpha"/>
<feOffset dx="2" dy="4"/>
<feGaussianBlur stdDeviation="2"/>
<feComposite in2="hardAlpha" operator="arithmetic" k2="-1" k3="1"/>
<feColorMatrix type="matrix" values="0 0 0 0 0.862647 0 0 0 0 0.862647 0 0 0 0 0.862647 0 0 0 0.25 0"/>
<feBlend mode="normal" in2="effect2_innerShadow_1115_28" result="effect3_innerShadow_1115_28"/>
</filter>
</defs>
</svg>
