<svg width="163" height="23" viewBox="0 0 163 23" fill="none" xmlns="http://www.w3.org/2000/svg">
<path d="M135.625 0.636963H141.428V21.9843H136.634V8.34223L131.21 18.4475H128.434L123.01 8.34223V22.1106H118.216V0.636963H124.145L129.822 11.2475L135.625 0.636963Z" fill="white"/>
<path d="M109.511 21.9843V0.636963H114.305V21.9843H109.511Z" fill="white"/>
<path d="M101.941 21.9843L100.554 18.1949H91.8491L90.4614 21.9843H85.2891L93.4891 0.636963H99.166L107.24 21.9843H101.941ZM93.4891 13.9001H99.0398L96.2644 5.94223L93.4891 13.9001Z" fill="white"/>
<path d="M75.1972 17.5633H84.1541V22.1106H70.4033V0.636963H75.1972V17.5633Z" fill="white"/>
<path d="M58.2923 22.3632C56.6523 22.3632 55.2646 22.1105 53.8769 21.479C52.4892 20.8474 51.2277 20.0895 50.2185 19.2053C49.2092 18.1947 48.4523 17.0579 47.8216 15.6684C47.1908 14.279 46.9385 12.8895 46.9385 11.2474C46.9385 9.73159 47.1908 8.2158 47.8216 6.82633C48.4523 5.43685 49.2092 4.30001 50.2185 3.28949C51.2277 2.27896 52.3631 1.52107 53.8769 1.0158C55.2646 0.51054 56.7785 0.131592 58.2923 0.131592C60.3108 0.131592 62.0769 0.510539 63.7169 1.39475C65.3569 2.27896 66.7446 3.4158 67.7539 4.93159L63.5908 7.45791C62.96 6.5737 62.2031 5.94212 61.32 5.43686C60.4369 4.93159 59.4277 4.67896 58.2923 4.67896C56.5262 4.67896 55.0123 5.31054 53.7508 6.5737C52.4892 7.83686 51.8585 9.35265 51.8585 11.1211C51.8585 13.0158 52.4892 14.5316 53.7508 15.7947C55.0123 17.0579 56.5262 17.6895 58.2923 17.6895C59.4277 17.6895 60.4369 17.4369 61.32 16.9316C62.2031 16.4263 62.96 15.7948 63.5908 14.9105L67.7539 17.4369C66.7446 18.9526 65.3569 20.0895 63.7169 20.9737C62.0769 21.9842 60.3108 22.3632 58.2923 22.3632Z" fill="white"/>
<path d="M35.08 17.5633H44.92V22.1106H30.2861V0.636963H44.7938V5.18433H35.08V8.97381H43.7846V13.5212H35.08V17.5633Z" fill="white"/>
<path fill-rule="evenodd" clip-rule="evenodd" d="M20.5721 19.458L22.0859 22.1106H27.889L22.8428 14.2791C24.2305 13.7738 25.2398 12.8896 25.9967 11.7528C26.7536 10.6159 27.1321 9.35275 27.1321 7.83696C27.1321 5.81591 26.3751 4.04749 24.9874 2.65802C23.5998 1.26854 21.8336 0.636963 19.689 0.636963H10.8582H10.6059H9.59668L20.5721 19.458ZM15.3998 5.18433V10.4896H19.8151C20.5721 10.4896 21.2028 10.237 21.7074 9.7317C22.2121 9.22644 22.4644 8.59486 22.4644 7.83696C22.4644 7.07907 22.2121 6.44749 21.7074 5.94223C21.2028 5.43696 20.5721 5.18433 19.8151 5.18433H15.3998Z" fill="white"/>
<path d="M0.135742 0.636963H5.1819L17.4188 22.1106H12.3727L0.135742 0.636963Z" fill="#0072DC"/>
<path d="M162.874 0.636963L152.656 18.1949L162.748 18.0685V22.1106H146.726H144.834L154.926 4.55275H144.834V0.636963H160.603H162.874Z" fill="white"/>
</svg>
