<svg width="205" height="203" viewBox="0 0 205 203" fill="none" xmlns="http://www.w3.org/2000/svg">
<path d="M1.34409 0.776367C0.601768 0.776367 0 1.37814 0 2.12045V4.9554C0 5.69772 0.601768 6.29948 1.34409 6.29948H4.17903C4.92135 6.29948 5.52312 5.69772 5.52312 4.9554V2.12045C5.52312 1.37814 4.92135 0.776367 4.17903 0.776367H1.34409Z" fill="url(#paint0_linear_1123_161)"/>
<path d="M23.4378 0.776367C22.6955 0.776367 22.0938 1.37814 22.0938 2.12045V4.9554C22.0938 5.69772 22.6955 6.29948 23.4378 6.29948H26.2728C27.0151 6.29948 27.6169 5.69772 27.6169 4.9554V2.12045C27.6169 1.37814 27.0151 0.776367 26.2728 0.776367H23.4378Z" fill="url(#paint1_linear_1123_161)"/>
<path d="M44.1875 2.12045C44.1875 1.37814 44.7893 0.776367 45.5316 0.776367H48.3665C49.1088 0.776367 49.7106 1.37814 49.7106 2.12045V4.9554C49.7106 5.69772 49.1088 6.29948 48.3665 6.29948H45.5316C44.7893 6.29948 44.1875 5.69772 44.1875 4.9554V2.12045Z" fill="url(#paint2_linear_1123_161)"/>
<path d="M67.6253 0.776367C66.883 0.776367 66.2812 1.37814 66.2812 2.12045V4.9554C66.2812 5.69772 66.883 6.29948 67.6253 6.29948H70.4603C71.2026 6.29948 71.8044 5.69772 71.8044 4.9554V2.12045C71.8044 1.37814 71.2026 0.776367 70.4603 0.776367H67.6253Z" fill="url(#paint3_linear_1123_161)"/>
<path d="M88.375 2.12045C88.375 1.37814 88.9768 0.776367 89.7191 0.776367H92.554C93.2963 0.776367 93.8981 1.37814 93.8981 2.12045V4.9554C93.8981 5.69772 93.2963 6.29948 92.554 6.29948H89.7191C88.9768 6.29948 88.375 5.69772 88.375 4.9554V2.12045Z" fill="url(#paint4_linear_1123_161)"/>
<path d="M111.805 0.776367C111.063 0.776367 110.461 1.37814 110.461 2.12045V4.9554C110.461 5.69772 111.063 6.29948 111.805 6.29948H114.64C115.382 6.29948 115.984 5.69772 115.984 4.9554V2.12045C115.984 1.37814 115.382 0.776367 114.64 0.776367H111.805Z" fill="url(#paint5_linear_1123_161)"/>
<path d="M132.555 2.12045C132.555 1.37814 133.156 0.776367 133.899 0.776367H136.734C137.476 0.776367 138.078 1.37814 138.078 2.12045V4.9554C138.078 5.69772 137.476 6.29948 136.734 6.29948H133.899C133.156 6.29948 132.555 5.69772 132.555 4.9554V2.12045Z" fill="url(#paint6_linear_1123_161)"/>
<path d="M155.993 0.776367C155.25 0.776367 154.648 1.37814 154.648 2.12045V4.9554C154.648 5.69772 155.25 6.29948 155.993 6.29948H158.827C159.57 6.29948 160.172 5.69772 160.172 4.9554V2.12045C160.172 1.37814 159.57 0.776367 158.827 0.776367H155.993Z" fill="url(#paint7_linear_1123_161)"/>
<path d="M176.742 2.12045C176.742 1.37814 177.344 0.776367 178.086 0.776367H180.921C181.664 0.776367 182.265 1.37814 182.265 2.12045V4.9554C182.265 5.69772 181.664 6.29948 180.921 6.29948H178.086C177.344 6.29948 176.742 5.69772 176.742 4.9554V2.12045Z" fill="url(#paint8_linear_1123_161)"/>
<path d="M200.18 0.776367C199.438 0.776367 198.836 1.37814 198.836 2.12045V4.9554C198.836 5.69772 199.438 6.29948 200.18 6.29948H203.015C203.757 6.29948 204.359 5.69772 204.359 4.9554V2.12045C204.359 1.37814 203.757 0.776367 203.015 0.776367H200.18Z" fill="url(#paint9_linear_1123_161)"/>
<path d="M0 24.2132C0 23.4709 0.601768 22.8691 1.34409 22.8691H4.17903C4.92135 22.8691 5.52312 23.4709 5.52312 24.2132V27.0482C5.52312 27.7905 4.92135 28.3923 4.17903 28.3923H1.34409C0.601768 28.3923 0 27.7905 0 27.0482V24.2132Z" fill="url(#paint10_linear_1123_161)"/>
<path d="M23.4378 22.8691C22.6955 22.8691 22.0938 23.4709 22.0938 24.2132V27.0482C22.0938 27.7905 22.6955 28.3923 23.4378 28.3923H26.2728C27.0151 28.3923 27.6169 27.7905 27.6169 27.0482V24.2132C27.6169 23.4709 27.0151 22.8691 26.2728 22.8691H23.4378Z" fill="url(#paint11_linear_1123_161)"/>
<path d="M44.1875 24.2132C44.1875 23.4709 44.7893 22.8691 45.5316 22.8691H48.3665C49.1088 22.8691 49.7106 23.4709 49.7106 24.2132V27.0482C49.7106 27.7905 49.1088 28.3923 48.3665 28.3923H45.5316C44.7893 28.3923 44.1875 27.7905 44.1875 27.0482V24.2132Z" fill="url(#paint12_linear_1123_161)"/>
<path d="M67.6253 22.8691C66.883 22.8691 66.2812 23.4709 66.2812 24.2132V27.0482C66.2812 27.7905 66.883 28.3923 67.6253 28.3923H70.4603C71.2026 28.3923 71.8044 27.7905 71.8044 27.0482V24.2132C71.8044 23.4709 71.2026 22.8691 70.4603 22.8691H67.6253Z" fill="url(#paint13_linear_1123_161)"/>
<path d="M88.375 24.2132C88.375 23.4709 88.9768 22.8691 89.7191 22.8691H92.554C93.2963 22.8691 93.8981 23.4709 93.8981 24.2132V27.0482C93.8981 27.7905 93.2963 28.3923 92.554 28.3923H89.7191C88.9768 28.3923 88.375 27.7905 88.375 27.0482V24.2132Z" fill="url(#paint14_linear_1123_161)"/>
<path d="M111.805 22.8691C111.063 22.8691 110.461 23.4709 110.461 24.2132V27.0482C110.461 27.7905 111.063 28.3923 111.805 28.3923H114.64C115.382 28.3923 115.984 27.7905 115.984 27.0482V24.2132C115.984 23.4709 115.382 22.8691 114.64 22.8691H111.805Z" fill="url(#paint15_linear_1123_161)"/>
<path d="M132.555 24.2132C132.555 23.4709 133.156 22.8691 133.899 22.8691H136.734C137.476 22.8691 138.078 23.4709 138.078 24.2132V27.0482C138.078 27.7905 137.476 28.3923 136.734 28.3923H133.899C133.156 28.3923 132.555 27.7905 132.555 27.0482V24.2132Z" fill="url(#paint16_linear_1123_161)"/>
<path d="M155.993 22.8691C155.25 22.8691 154.648 23.4709 154.648 24.2132V27.0482C154.648 27.7905 155.25 28.3923 155.993 28.3923H158.827C159.57 28.3923 160.172 27.7905 160.172 27.0482V24.2132C160.172 23.4709 159.57 22.8691 158.827 22.8691H155.993Z" fill="url(#paint17_linear_1123_161)"/>
<path d="M176.742 24.2132C176.742 23.4709 177.344 22.8691 178.086 22.8691H180.921C181.664 22.8691 182.265 23.4709 182.265 24.2132V27.0482C182.265 27.7905 181.664 28.3923 180.921 28.3923H178.086C177.344 28.3923 176.742 27.7905 176.742 27.0482V24.2132Z" fill="url(#paint18_linear_1123_161)"/>
<path d="M200.18 22.8691C199.438 22.8691 198.836 23.4709 198.836 24.2132V27.0482C198.836 27.7905 199.438 28.3923 200.18 28.3923H203.015C203.757 28.3923 204.359 27.7905 204.359 27.0482V24.2132C204.359 23.4709 203.757 22.8691 203.015 22.8691H200.18Z" fill="url(#paint19_linear_1123_161)"/>
<path d="M0 46.305C0 45.5627 0.601768 44.9609 1.34409 44.9609H4.17903C4.92135 44.9609 5.52312 45.5627 5.52312 46.305V49.14C5.52312 49.8823 4.92135 50.4841 4.17903 50.4841H1.34409C0.601768 50.4841 0 49.8823 0 49.14V46.305Z" fill="url(#paint20_linear_1123_161)"/>
<path d="M23.4378 44.9609C22.6955 44.9609 22.0938 45.5627 22.0938 46.305V49.14C22.0938 49.8823 22.6955 50.4841 23.4378 50.4841H26.2728C27.0151 50.4841 27.6169 49.8823 27.6169 49.14V46.305C27.6169 45.5627 27.0151 44.9609 26.2728 44.9609H23.4378Z" fill="url(#paint21_linear_1123_161)"/>
<path d="M44.1875 46.305C44.1875 45.5627 44.7893 44.9609 45.5316 44.9609H48.3665C49.1088 44.9609 49.7106 45.5627 49.7106 46.305V49.14C49.7106 49.8823 49.1088 50.4841 48.3665 50.4841H45.5316C44.7893 50.4841 44.1875 49.8823 44.1875 49.14V46.305Z" fill="url(#paint22_linear_1123_161)"/>
<path d="M67.6253 44.9609C66.883 44.9609 66.2812 45.5627 66.2812 46.305V49.14C66.2812 49.8823 66.883 50.4841 67.6253 50.4841H70.4603C71.2026 50.4841 71.8044 49.8823 71.8044 49.14V46.305C71.8044 45.5627 71.2026 44.9609 70.4603 44.9609H67.6253Z" fill="url(#paint23_linear_1123_161)"/>
<path d="M88.375 46.305C88.375 45.5627 88.9768 44.9609 89.7191 44.9609H92.554C93.2963 44.9609 93.8981 45.5627 93.8981 46.305V49.14C93.8981 49.8823 93.2963 50.4841 92.554 50.4841H89.7191C88.9768 50.4841 88.375 49.8823 88.375 49.14V46.305Z" fill="url(#paint24_linear_1123_161)"/>
<path d="M111.805 44.9609C111.063 44.9609 110.461 45.5627 110.461 46.305V49.14C110.461 49.8823 111.063 50.4841 111.805 50.4841H114.64C115.382 50.4841 115.984 49.8823 115.984 49.14V46.305C115.984 45.5627 115.382 44.9609 114.64 44.9609H111.805Z" fill="url(#paint25_linear_1123_161)"/>
<path d="M132.555 46.305C132.555 45.5627 133.156 44.9609 133.899 44.9609H136.734C137.476 44.9609 138.078 45.5627 138.078 46.305V49.14C138.078 49.8823 137.476 50.4841 136.734 50.4841H133.899C133.156 50.4841 132.555 49.8823 132.555 49.14V46.305Z" fill="url(#paint26_linear_1123_161)"/>
<path d="M155.993 44.9609C155.25 44.9609 154.648 45.5627 154.648 46.305V49.14C154.648 49.8823 155.25 50.4841 155.993 50.4841H158.827C159.57 50.4841 160.172 49.8823 160.172 49.14V46.305C160.172 45.5627 159.57 44.9609 158.827 44.9609H155.993Z" fill="url(#paint27_linear_1123_161)"/>
<path d="M176.742 46.305C176.742 45.5627 177.344 44.9609 178.086 44.9609H180.921C181.664 44.9609 182.265 45.5627 182.265 46.305V49.14C182.265 49.8823 181.664 50.4841 180.921 50.4841H178.086C177.344 50.4841 176.742 49.8823 176.742 49.14V46.305Z" fill="url(#paint28_linear_1123_161)"/>
<path d="M200.18 44.9609C199.438 44.9609 198.836 45.5627 198.836 46.305V49.14C198.836 49.8823 199.438 50.4841 200.18 50.4841H203.015C203.757 50.4841 204.359 49.8823 204.359 49.14V46.305C204.359 45.5627 203.757 44.9609 203.015 44.9609H200.18Z" fill="url(#paint29_linear_1123_161)"/>
<path d="M0 68.3978C0 67.6555 0.601768 67.0537 1.34409 67.0537H4.17903C4.92135 67.0537 5.52312 67.6555 5.52312 68.3978V71.2327C5.52312 71.9751 4.92135 72.5768 4.17903 72.5768H1.34409C0.601768 72.5768 0 71.9751 0 71.2327V68.3978Z" fill="url(#paint30_linear_1123_161)"/>
<path d="M23.4378 67.0537C22.6955 67.0537 22.0938 67.6555 22.0938 68.3978V71.2327C22.0938 71.9751 22.6955 72.5768 23.4378 72.5768H26.2728C27.0151 72.5768 27.6169 71.9751 27.6169 71.2327V68.3978C27.6169 67.6555 27.0151 67.0537 26.2728 67.0537H23.4378Z" fill="url(#paint31_linear_1123_161)"/>
<path d="M44.1875 68.3978C44.1875 67.6555 44.7893 67.0537 45.5316 67.0537H48.3665C49.1088 67.0537 49.7106 67.6555 49.7106 68.3978V71.2327C49.7106 71.9751 49.1088 72.5768 48.3665 72.5768H45.5316C44.7893 72.5768 44.1875 71.9751 44.1875 71.2327V68.3978Z" fill="url(#paint32_linear_1123_161)"/>
<path d="M67.6253 67.0537C66.883 67.0537 66.2812 67.6555 66.2812 68.3978V71.2327C66.2812 71.9751 66.883 72.5768 67.6253 72.5768H70.4603C71.2026 72.5768 71.8044 71.9751 71.8044 71.2327V68.3978C71.8044 67.6555 71.2026 67.0537 70.4603 67.0537H67.6253Z" fill="url(#paint33_linear_1123_161)"/>
<path d="M88.375 68.3978C88.375 67.6555 88.9768 67.0537 89.7191 67.0537H92.554C93.2963 67.0537 93.8981 67.6555 93.8981 68.3978V71.2327C93.8981 71.9751 93.2963 72.5768 92.554 72.5768H89.7191C88.9768 72.5768 88.375 71.9751 88.375 71.2327V68.3978Z" fill="url(#paint34_linear_1123_161)"/>
<path d="M111.805 67.0537C111.063 67.0537 110.461 67.6555 110.461 68.3978V71.2327C110.461 71.9751 111.063 72.5768 111.805 72.5768H114.64C115.382 72.5768 115.984 71.9751 115.984 71.2327V68.3978C115.984 67.6555 115.382 67.0537 114.64 67.0537H111.805Z" fill="url(#paint35_linear_1123_161)"/>
<path d="M132.555 68.3978C132.555 67.6555 133.156 67.0537 133.899 67.0537H136.734C137.476 67.0537 138.078 67.6555 138.078 68.3978V71.2327C138.078 71.9751 137.476 72.5768 136.734 72.5768H133.899C133.156 72.5768 132.555 71.9751 132.555 71.2327V68.3978Z" fill="url(#paint36_linear_1123_161)"/>
<path d="M155.993 67.0537C155.25 67.0537 154.648 67.6555 154.648 68.3978V71.2327C154.648 71.9751 155.25 72.5768 155.993 72.5768H158.827C159.57 72.5768 160.172 71.9751 160.172 71.2327V68.3978C160.172 67.6555 159.57 67.0537 158.827 67.0537H155.993Z" fill="url(#paint37_linear_1123_161)"/>
<path d="M176.742 68.3978C176.742 67.6555 177.344 67.0537 178.086 67.0537H180.921C181.664 67.0537 182.265 67.6555 182.265 68.3978V71.2327C182.265 71.9751 181.664 72.5768 180.921 72.5768H178.086C177.344 72.5768 176.742 71.9751 176.742 71.2327V68.3978Z" fill="url(#paint38_linear_1123_161)"/>
<path d="M200.18 67.0537C199.438 67.0537 198.836 67.6555 198.836 68.3978V71.2327C198.836 71.9751 199.438 72.5768 200.18 72.5768H203.015C203.757 72.5768 204.359 71.9751 204.359 71.2327V68.3978C204.359 67.6555 203.757 67.0537 203.015 67.0537H200.18Z" fill="url(#paint39_linear_1123_161)"/>
<path d="M0 90.4896C0 89.7473 0.601768 89.1455 1.34409 89.1455H4.17903C4.92135 89.1455 5.52312 89.7473 5.52312 90.4896V93.3245C5.52312 94.0669 4.92135 94.6686 4.17903 94.6686H1.34409C0.601768 94.6686 0 94.0669 0 93.3245V90.4896Z" fill="url(#paint40_linear_1123_161)"/>
<path d="M23.4378 89.1455C22.6955 89.1455 22.0938 89.7473 22.0938 90.4896V93.3245C22.0938 94.0669 22.6955 94.6686 23.4378 94.6686H26.2728C27.0151 94.6686 27.6169 94.0669 27.6169 93.3245V90.4896C27.6169 89.7473 27.0151 89.1455 26.2728 89.1455H23.4378Z" fill="url(#paint41_linear_1123_161)"/>
<path d="M44.1875 90.4896C44.1875 89.7473 44.7893 89.1455 45.5316 89.1455H48.3665C49.1088 89.1455 49.7106 89.7473 49.7106 90.4896V93.3245C49.7106 94.0669 49.1088 94.6686 48.3665 94.6686H45.5316C44.7893 94.6686 44.1875 94.0669 44.1875 93.3245V90.4896Z" fill="url(#paint42_linear_1123_161)"/>
<path d="M67.6253 89.1455C66.883 89.1455 66.2812 89.7473 66.2812 90.4896V93.3245C66.2812 94.0669 66.883 94.6686 67.6253 94.6686H70.4603C71.2026 94.6686 71.8044 94.0669 71.8044 93.3245V90.4896C71.8044 89.7473 71.2026 89.1455 70.4603 89.1455H67.6253Z" fill="url(#paint43_linear_1123_161)"/>
<path d="M88.375 90.4896C88.375 89.7473 88.9768 89.1455 89.7191 89.1455H92.554C93.2963 89.1455 93.8981 89.7473 93.8981 90.4896V93.3245C93.8981 94.0669 93.2963 94.6686 92.554 94.6686H89.7191C88.9768 94.6686 88.375 94.0669 88.375 93.3245V90.4896Z" fill="url(#paint44_linear_1123_161)"/>
<path d="M111.805 89.1455C111.063 89.1455 110.461 89.7473 110.461 90.4896V93.3245C110.461 94.0669 111.063 94.6686 111.805 94.6686H114.64C115.382 94.6686 115.984 94.0669 115.984 93.3245V90.4896C115.984 89.7473 115.382 89.1455 114.64 89.1455H111.805Z" fill="url(#paint45_linear_1123_161)"/>
<path d="M132.555 90.4896C132.555 89.7473 133.156 89.1455 133.899 89.1455H136.734C137.476 89.1455 138.078 89.7473 138.078 90.4896V93.3245C138.078 94.0669 137.476 94.6686 136.734 94.6686H133.899C133.156 94.6686 132.555 94.0669 132.555 93.3245V90.4896Z" fill="url(#paint46_linear_1123_161)"/>
<path d="M155.993 89.1455C155.25 89.1455 154.648 89.7473 154.648 90.4896V93.3245C154.648 94.0669 155.25 94.6686 155.993 94.6686H158.827C159.57 94.6686 160.172 94.0669 160.172 93.3245V90.4896C160.172 89.7473 159.57 89.1455 158.827 89.1455H155.993Z" fill="url(#paint47_linear_1123_161)"/>
<path d="M176.742 90.4896C176.742 89.7473 177.344 89.1455 178.086 89.1455H180.921C181.664 89.1455 182.265 89.7473 182.265 90.4896V93.3245C182.265 94.0669 181.664 94.6686 180.921 94.6686H178.086C177.344 94.6686 176.742 94.0669 176.742 93.3245V90.4896Z" fill="url(#paint48_linear_1123_161)"/>
<path d="M200.18 89.1455C199.438 89.1455 198.836 89.7473 198.836 90.4896V93.3245C198.836 94.0669 199.438 94.6686 200.18 94.6686H203.015C203.757 94.6686 204.359 94.0669 204.359 93.3245V90.4896C204.359 89.7473 203.757 89.1455 203.015 89.1455H200.18Z" fill="url(#paint49_linear_1123_161)"/>
<path d="M0 112.583C0 111.841 0.601768 111.239 1.34409 111.239H4.17903C4.92135 111.239 5.52312 111.841 5.52312 112.583V115.418C5.52312 116.161 4.92135 116.762 4.17903 116.762H1.34409C0.601768 116.762 0 116.161 0 115.418V112.583Z" fill="url(#paint50_linear_1123_161)"/>
<path d="M23.4378 111.239C22.6955 111.239 22.0938 111.841 22.0938 112.583V115.418C22.0938 116.161 22.6955 116.762 23.4378 116.762H26.2728C27.0151 116.762 27.6169 116.161 27.6169 115.418V112.583C27.6169 111.841 27.0151 111.239 26.2728 111.239H23.4378Z" fill="url(#paint51_linear_1123_161)"/>
<path d="M44.1875 112.583C44.1875 111.841 44.7893 111.239 45.5316 111.239H48.3665C49.1088 111.239 49.7106 111.841 49.7106 112.583V115.418C49.7106 116.161 49.1088 116.762 48.3665 116.762H45.5316C44.7893 116.762 44.1875 116.161 44.1875 115.418V112.583Z" fill="url(#paint52_linear_1123_161)"/>
<path d="M67.6253 111.239C66.883 111.239 66.2812 111.841 66.2812 112.583V115.418C66.2812 116.161 66.883 116.762 67.6253 116.762H70.4603C71.2026 116.762 71.8044 116.161 71.8044 115.418V112.583C71.8044 111.841 71.2026 111.239 70.4603 111.239H67.6253Z" fill="url(#paint53_linear_1123_161)"/>
<path d="M88.375 112.583C88.375 111.841 88.9768 111.239 89.7191 111.239H92.554C93.2963 111.239 93.8981 111.841 93.8981 112.583V115.418C93.8981 116.161 93.2963 116.762 92.554 116.762H89.7191C88.9768 116.762 88.375 116.161 88.375 115.418V112.583Z" fill="url(#paint54_linear_1123_161)"/>
<path d="M111.805 111.239C111.063 111.239 110.461 111.841 110.461 112.583V115.418C110.461 116.161 111.063 116.762 111.805 116.762H114.64C115.382 116.762 115.984 116.161 115.984 115.418V112.583C115.984 111.841 115.382 111.239 114.64 111.239H111.805Z" fill="url(#paint55_linear_1123_161)"/>
<path d="M132.555 112.583C132.555 111.841 133.156 111.239 133.899 111.239H136.734C137.476 111.239 138.078 111.841 138.078 112.583V115.418C138.078 116.161 137.476 116.762 136.734 116.762H133.899C133.156 116.762 132.555 116.161 132.555 115.418V112.583Z" fill="url(#paint56_linear_1123_161)"/>
<path d="M155.993 111.239C155.25 111.239 154.648 111.841 154.648 112.583V115.418C154.648 116.161 155.25 116.762 155.993 116.762H158.827C159.57 116.762 160.172 116.161 160.172 115.418V112.583C160.172 111.841 159.57 111.239 158.827 111.239H155.993Z" fill="url(#paint57_linear_1123_161)"/>
<path d="M176.742 112.583C176.742 111.841 177.344 111.239 178.086 111.239H180.921C181.664 111.239 182.265 111.841 182.265 112.583V115.418C182.265 116.161 181.664 116.762 180.921 116.762H178.086C177.344 116.762 176.742 116.161 176.742 115.418V112.583Z" fill="url(#paint58_linear_1123_161)"/>
<path d="M200.18 111.239C199.438 111.239 198.836 111.841 198.836 112.583V115.418C198.836 116.161 199.438 116.762 200.18 116.762H203.015C203.757 116.762 204.359 116.161 204.359 115.418V112.583C204.359 111.841 203.757 111.239 203.015 111.239H200.18Z" fill="url(#paint59_linear_1123_161)"/>
<path d="M0 134.675C0 133.933 0.601768 133.331 1.34409 133.331H4.17903C4.92135 133.331 5.52312 133.933 5.52312 134.675V137.51C5.52312 138.252 4.92135 138.854 4.17903 138.854H1.34409C0.601768 138.854 0 138.252 0 137.51V134.675Z" fill="url(#paint60_linear_1123_161)"/>
<path d="M1.34409 154.639C0.601768 154.639 0 155.24 0 155.983V158.818C0 159.56 0.601768 160.162 1.34409 160.162H4.17903C4.92135 160.162 5.52312 159.56 5.52312 158.818V155.983C5.52312 155.24 4.92135 154.639 4.17903 154.639H1.34409Z" fill="url(#paint61_linear_1123_161)"/>
<path d="M0 177.289C0 176.547 0.601768 175.945 1.34409 175.945H4.17903C4.92135 175.945 5.52312 176.547 5.52312 177.289V180.124C5.52312 180.867 4.92135 181.468 4.17903 181.468H1.34409C0.601768 181.468 0 180.867 0 180.124V177.289Z" fill="url(#paint62_linear_1123_161)"/>
<path d="M1.34409 197.254C0.601768 197.254 0 197.856 0 198.598V201.433C0 202.175 0.601768 202.777 1.34409 202.777H4.17903C4.92135 202.777 5.52312 202.175 5.52312 201.433V198.598C5.52312 197.856 4.92135 197.254 4.17903 197.254H1.34409Z" fill="url(#paint63_linear_1123_161)"/>
<path d="M22.0938 134.675C22.0938 133.933 22.6955 133.331 23.4378 133.331H26.2728C27.0151 133.331 27.6169 133.933 27.6169 134.675V137.51C27.6169 138.252 27.0151 138.854 26.2728 138.854H23.4378C22.6955 138.854 22.0938 138.252 22.0938 137.51V134.675Z" fill="url(#paint64_linear_1123_161)"/>
<path d="M23.4378 154.639C22.6955 154.639 22.0938 155.24 22.0938 155.983V158.818C22.0938 159.56 22.6955 160.162 23.4378 160.162H26.2728C27.0151 160.162 27.6169 159.56 27.6169 158.818V155.983C27.6169 155.24 27.0151 154.639 26.2728 154.639H23.4378Z" fill="url(#paint65_linear_1123_161)"/>
<path d="M22.0938 177.289C22.0938 176.547 22.6955 175.945 23.4378 175.945H26.2728C27.0151 175.945 27.6169 176.547 27.6169 177.289V180.124C27.6169 180.867 27.0151 181.468 26.2728 181.468H23.4378C22.6955 181.468 22.0938 180.867 22.0938 180.124V177.289Z" fill="url(#paint66_linear_1123_161)"/>
<path d="M23.4378 197.254C22.6955 197.254 22.0938 197.856 22.0938 198.598V201.433C22.0938 202.175 22.6955 202.777 23.4378 202.777H26.2728C27.0151 202.777 27.6169 202.175 27.6169 201.433V198.598C27.6169 197.856 27.0151 197.254 26.2728 197.254H23.4378Z" fill="url(#paint67_linear_1123_161)"/>
<path d="M44.1875 134.675C44.1875 133.933 44.7893 133.331 45.5316 133.331H48.3665C49.1088 133.331 49.7106 133.933 49.7106 134.675V137.51C49.7106 138.252 49.1088 138.854 48.3665 138.854H45.5316C44.7893 138.854 44.1875 138.252 44.1875 137.51V134.675Z" fill="url(#paint68_linear_1123_161)"/>
<path d="M45.5316 154.639C44.7893 154.639 44.1875 155.24 44.1875 155.983V158.818C44.1875 159.56 44.7893 160.162 45.5316 160.162H48.3665C49.1088 160.162 49.7106 159.56 49.7106 158.818V155.983C49.7106 155.24 49.1088 154.639 48.3665 154.639H45.5316Z" fill="url(#paint69_linear_1123_161)"/>
<path d="M44.1875 177.289C44.1875 176.547 44.7893 175.945 45.5316 175.945H48.3665C49.1088 175.945 49.7106 176.547 49.7106 177.289V180.124C49.7106 180.867 49.1088 181.468 48.3665 181.468H45.5316C44.7893 181.468 44.1875 180.867 44.1875 180.124V177.289Z" fill="url(#paint70_linear_1123_161)"/>
<path d="M45.5316 197.254C44.7893 197.254 44.1875 197.856 44.1875 198.598V201.433C44.1875 202.175 44.7893 202.777 45.5316 202.777H48.3665C49.1088 202.777 49.7106 202.175 49.7106 201.433V198.598C49.7106 197.856 49.1088 197.254 48.3665 197.254H45.5316Z" fill="url(#paint71_linear_1123_161)"/>
<path d="M66.2812 134.675C66.2812 133.933 66.883 133.331 67.6253 133.331H70.4603C71.2026 133.331 71.8044 133.933 71.8044 134.675V137.51C71.8044 138.252 71.2026 138.854 70.4603 138.854H67.6253C66.883 138.854 66.2812 138.252 66.2812 137.51V134.675Z" fill="url(#paint72_linear_1123_161)"/>
<path d="M67.6253 154.639C66.883 154.639 66.2812 155.24 66.2812 155.983V158.818C66.2812 159.56 66.883 160.162 67.6253 160.162H70.4603C71.2026 160.162 71.8044 159.56 71.8044 158.818V155.983C71.8044 155.24 71.2026 154.639 70.4603 154.639H67.6253Z" fill="url(#paint73_linear_1123_161)"/>
<path d="M66.2812 177.289C66.2812 176.547 66.883 175.945 67.6253 175.945H70.4603C71.2026 175.945 71.8044 176.547 71.8044 177.289V180.124C71.8044 180.867 71.2026 181.468 70.4603 181.468H67.6253C66.883 181.468 66.2812 180.867 66.2812 180.124V177.289Z" fill="url(#paint74_linear_1123_161)"/>
<path d="M67.6253 197.254C66.883 197.254 66.2812 197.856 66.2812 198.598V201.433C66.2812 202.175 66.883 202.777 67.6253 202.777H70.4603C71.2026 202.777 71.8044 202.175 71.8044 201.433V198.598C71.8044 197.856 71.2026 197.254 70.4603 197.254H67.6253Z" fill="url(#paint75_linear_1123_161)"/>
<path d="M88.375 134.675C88.375 133.933 88.9768 133.331 89.7191 133.331H92.554C93.2963 133.331 93.8981 133.933 93.8981 134.675V137.51C93.8981 138.252 93.2963 138.854 92.554 138.854H89.7191C88.9768 138.854 88.375 138.252 88.375 137.51V134.675Z" fill="url(#paint76_linear_1123_161)"/>
<path d="M89.7191 154.639C88.9768 154.639 88.375 155.24 88.375 155.983V158.818C88.375 159.56 88.9768 160.162 89.7191 160.162H92.554C93.2963 160.162 93.8981 159.56 93.8981 158.818V155.983C93.8981 155.24 93.2963 154.639 92.554 154.639H89.7191Z" fill="url(#paint77_linear_1123_161)"/>
<path d="M88.375 177.289C88.375 176.547 88.9768 175.945 89.7191 175.945H92.554C93.2963 175.945 93.8981 176.547 93.8981 177.289V180.124C93.8981 180.867 93.2963 181.468 92.554 181.468H89.7191C88.9768 181.468 88.375 180.867 88.375 180.124V177.289Z" fill="url(#paint78_linear_1123_161)"/>
<path d="M89.7191 197.254C88.9768 197.254 88.375 197.856 88.375 198.598V201.433C88.375 202.175 88.9768 202.777 89.7191 202.777H92.554C93.2963 202.777 93.8981 202.175 93.8981 201.433V198.598C93.8981 197.856 93.2963 197.254 92.554 197.254H89.7191Z" fill="url(#paint79_linear_1123_161)"/>
<path d="M110.461 134.675C110.461 133.933 111.063 133.331 111.805 133.331H114.64C115.382 133.331 115.984 133.933 115.984 134.675V137.51C115.984 138.252 115.382 138.854 114.64 138.854H111.805C111.063 138.854 110.461 138.252 110.461 137.51V134.675Z" fill="url(#paint80_linear_1123_161)"/>
<path d="M111.805 154.639C111.063 154.639 110.461 155.24 110.461 155.983V158.818C110.461 159.56 111.063 160.162 111.805 160.162H114.64C115.382 160.162 115.984 159.56 115.984 158.818V155.983C115.984 155.24 115.382 154.639 114.64 154.639H111.805Z" fill="url(#paint81_linear_1123_161)"/>
<path d="M110.461 177.289C110.461 176.547 111.063 175.945 111.805 175.945H114.64C115.382 175.945 115.984 176.547 115.984 177.289V180.124C115.984 180.867 115.382 181.468 114.64 181.468H111.805C111.063 181.468 110.461 180.867 110.461 180.124V177.289Z" fill="url(#paint82_linear_1123_161)"/>
<path d="M111.805 197.254C111.063 197.254 110.461 197.856 110.461 198.598V201.433C110.461 202.175 111.063 202.777 111.805 202.777H114.64C115.382 202.777 115.984 202.175 115.984 201.433V198.598C115.984 197.856 115.382 197.254 114.64 197.254H111.805Z" fill="url(#paint83_linear_1123_161)"/>
<path d="M132.555 134.675C132.555 133.933 133.156 133.331 133.899 133.331H136.734C137.476 133.331 138.078 133.933 138.078 134.675V137.51C138.078 138.252 137.476 138.854 136.734 138.854H133.899C133.156 138.854 132.555 138.252 132.555 137.51V134.675Z" fill="url(#paint84_linear_1123_161)"/>
<path d="M133.899 154.639C133.156 154.639 132.555 155.24 132.555 155.983V158.818C132.555 159.56 133.156 160.162 133.899 160.162H136.734C137.476 160.162 138.078 159.56 138.078 158.818V155.983C138.078 155.24 137.476 154.639 136.734 154.639H133.899Z" fill="url(#paint85_linear_1123_161)"/>
<path d="M132.555 177.289C132.555 176.547 133.156 175.945 133.899 175.945H136.734C137.476 175.945 138.078 176.547 138.078 177.289V180.124C138.078 180.867 137.476 181.468 136.734 181.468H133.899C133.156 181.468 132.555 180.867 132.555 180.124V177.289Z" fill="url(#paint86_linear_1123_161)"/>
<path d="M133.899 197.254C133.156 197.254 132.555 197.856 132.555 198.598V201.433C132.555 202.175 133.156 202.777 133.899 202.777H136.734C137.476 202.777 138.078 202.175 138.078 201.433V198.598C138.078 197.856 137.476 197.254 136.734 197.254H133.899Z" fill="url(#paint87_linear_1123_161)"/>
<path d="M154.648 134.675C154.648 133.933 155.25 133.331 155.993 133.331H158.827C159.57 133.331 160.172 133.933 160.172 134.675V137.51C160.172 138.252 159.57 138.854 158.827 138.854H155.993C155.25 138.854 154.648 138.252 154.648 137.51V134.675Z" fill="url(#paint88_linear_1123_161)"/>
<path d="M155.993 154.639C155.25 154.639 154.648 155.24 154.648 155.983V158.818C154.648 159.56 155.25 160.162 155.993 160.162H158.827C159.57 160.162 160.172 159.56 160.172 158.818V155.983C160.172 155.24 159.57 154.639 158.827 154.639H155.993Z" fill="url(#paint89_linear_1123_161)"/>
<path d="M154.648 177.289C154.648 176.547 155.25 175.945 155.993 175.945H158.827C159.57 175.945 160.172 176.547 160.172 177.289V180.124C160.172 180.867 159.57 181.468 158.827 181.468H155.993C155.25 181.468 154.648 180.867 154.648 180.124V177.289Z" fill="url(#paint90_linear_1123_161)"/>
<path d="M155.993 197.254C155.25 197.254 154.648 197.856 154.648 198.598V201.433C154.648 202.175 155.25 202.777 155.993 202.777H158.827C159.57 202.777 160.172 202.175 160.172 201.433V198.598C160.172 197.856 159.57 197.254 158.827 197.254H155.993Z" fill="url(#paint91_linear_1123_161)"/>
<path d="M176.742 134.675C176.742 133.933 177.344 133.331 178.086 133.331H180.921C181.664 133.331 182.265 133.933 182.265 134.675V137.51C182.265 138.252 181.664 138.854 180.921 138.854H178.086C177.344 138.854 176.742 138.252 176.742 137.51V134.675Z" fill="url(#paint92_linear_1123_161)"/>
<path d="M178.086 154.639C177.344 154.639 176.742 155.24 176.742 155.983V158.818C176.742 159.56 177.344 160.162 178.086 160.162H180.921C181.664 160.162 182.265 159.56 182.265 158.818V155.983C182.265 155.24 181.664 154.639 180.921 154.639H178.086Z" fill="url(#paint93_linear_1123_161)"/>
<path d="M176.742 177.289C176.742 176.547 177.344 175.945 178.086 175.945H180.921C181.664 175.945 182.265 176.547 182.265 177.289V180.124C182.265 180.867 181.664 181.468 180.921 181.468H178.086C177.344 181.468 176.742 180.867 176.742 180.124V177.289Z" fill="url(#paint94_linear_1123_161)"/>
<path d="M178.086 197.254C177.344 197.254 176.742 197.856 176.742 198.598V201.433C176.742 202.175 177.344 202.777 178.086 202.777H180.921C181.664 202.777 182.265 202.175 182.265 201.433V198.598C182.265 197.856 181.664 197.254 180.921 197.254H178.086Z" fill="url(#paint95_linear_1123_161)"/>
<path d="M198.836 134.675C198.836 133.933 199.438 133.331 200.18 133.331H203.015C203.757 133.331 204.359 133.933 204.359 134.675V137.51C204.359 138.252 203.757 138.854 203.015 138.854H200.18C199.438 138.854 198.836 138.252 198.836 137.51V134.675Z" fill="url(#paint96_linear_1123_161)"/>
<path d="M200.18 154.639C199.438 154.639 198.836 155.24 198.836 155.983V158.818C198.836 159.56 199.438 160.162 200.18 160.162H203.015C203.757 160.162 204.359 159.56 204.359 158.818V155.983C204.359 155.24 203.757 154.639 203.015 154.639H200.18Z" fill="url(#paint97_linear_1123_161)"/>
<path d="M198.836 177.289C198.836 176.547 199.438 175.945 200.18 175.945H203.015C203.757 175.945 204.359 176.547 204.359 177.289V180.124C204.359 180.867 203.757 181.468 203.015 181.468H200.18C199.438 181.468 198.836 180.867 198.836 180.124V177.289Z" fill="url(#paint98_linear_1123_161)"/>
<path d="M200.18 197.254C199.438 197.254 198.836 197.856 198.836 198.598V201.433C198.836 202.175 199.438 202.777 200.18 202.777H203.015C203.757 202.777 204.359 202.175 204.359 201.433V198.598C204.359 197.856 203.757 197.254 203.015 197.254H200.18Z" fill="url(#paint99_linear_1123_161)"/>
<defs>
<linearGradient id="paint0_linear_1123_161" x1="28.5" y1="178.276" x2="206.031" y2="2.83199" gradientUnits="userSpaceOnUse">
<stop stop-color="white" stop-opacity="0.35"/>
<stop offset="1" stop-color="white" stop-opacity="0"/>
</linearGradient>
<linearGradient id="paint1_linear_1123_161" x1="28.5" y1="178.276" x2="206.031" y2="2.83199" gradientUnits="userSpaceOnUse">
<stop stop-color="white" stop-opacity="0.35"/>
<stop offset="1" stop-color="white" stop-opacity="0"/>
</linearGradient>
<linearGradient id="paint2_linear_1123_161" x1="28.5" y1="178.276" x2="206.031" y2="2.83199" gradientUnits="userSpaceOnUse">
<stop stop-color="white" stop-opacity="0.35"/>
<stop offset="1" stop-color="white" stop-opacity="0"/>
</linearGradient>
<linearGradient id="paint3_linear_1123_161" x1="28.5" y1="178.276" x2="206.031" y2="2.83199" gradientUnits="userSpaceOnUse">
<stop stop-color="white" stop-opacity="0.35"/>
<stop offset="1" stop-color="white" stop-opacity="0"/>
</linearGradient>
<linearGradient id="paint4_linear_1123_161" x1="28.5" y1="178.276" x2="206.031" y2="2.83199" gradientUnits="userSpaceOnUse">
<stop stop-color="white" stop-opacity="0.35"/>
<stop offset="1" stop-color="white" stop-opacity="0"/>
</linearGradient>
<linearGradient id="paint5_linear_1123_161" x1="28.5" y1="178.276" x2="206.031" y2="2.83199" gradientUnits="userSpaceOnUse">
<stop stop-color="white" stop-opacity="0.35"/>
<stop offset="1" stop-color="white" stop-opacity="0"/>
</linearGradient>
<linearGradient id="paint6_linear_1123_161" x1="28.5" y1="178.276" x2="206.031" y2="2.83199" gradientUnits="userSpaceOnUse">
<stop stop-color="white" stop-opacity="0.35"/>
<stop offset="1" stop-color="white" stop-opacity="0"/>
</linearGradient>
<linearGradient id="paint7_linear_1123_161" x1="28.5" y1="178.276" x2="206.031" y2="2.83199" gradientUnits="userSpaceOnUse">
<stop stop-color="white" stop-opacity="0.35"/>
<stop offset="1" stop-color="white" stop-opacity="0"/>
</linearGradient>
<linearGradient id="paint8_linear_1123_161" x1="28.5" y1="178.276" x2="206.031" y2="2.83199" gradientUnits="userSpaceOnUse">
<stop stop-color="white" stop-opacity="0.35"/>
<stop offset="1" stop-color="white" stop-opacity="0"/>
</linearGradient>
<linearGradient id="paint9_linear_1123_161" x1="28.5" y1="178.276" x2="206.031" y2="2.83199" gradientUnits="userSpaceOnUse">
<stop stop-color="white" stop-opacity="0.35"/>
<stop offset="1" stop-color="white" stop-opacity="0"/>
</linearGradient>
<linearGradient id="paint10_linear_1123_161" x1="28.5" y1="178.276" x2="206.031" y2="2.83199" gradientUnits="userSpaceOnUse">
<stop stop-color="white" stop-opacity="0.35"/>
<stop offset="1" stop-color="white" stop-opacity="0"/>
</linearGradient>
<linearGradient id="paint11_linear_1123_161" x1="28.5" y1="178.276" x2="206.031" y2="2.83199" gradientUnits="userSpaceOnUse">
<stop stop-color="white" stop-opacity="0.35"/>
<stop offset="1" stop-color="white" stop-opacity="0"/>
</linearGradient>
<linearGradient id="paint12_linear_1123_161" x1="28.5" y1="178.276" x2="206.031" y2="2.83199" gradientUnits="userSpaceOnUse">
<stop stop-color="white" stop-opacity="0.35"/>
<stop offset="1" stop-color="white" stop-opacity="0"/>
</linearGradient>
<linearGradient id="paint13_linear_1123_161" x1="28.5" y1="178.276" x2="206.031" y2="2.83199" gradientUnits="userSpaceOnUse">
<stop stop-color="white" stop-opacity="0.35"/>
<stop offset="1" stop-color="white" stop-opacity="0"/>
</linearGradient>
<linearGradient id="paint14_linear_1123_161" x1="28.5" y1="178.276" x2="206.031" y2="2.83199" gradientUnits="userSpaceOnUse">
<stop stop-color="white" stop-opacity="0.35"/>
<stop offset="1" stop-color="white" stop-opacity="0"/>
</linearGradient>
<linearGradient id="paint15_linear_1123_161" x1="28.5" y1="178.276" x2="206.031" y2="2.83199" gradientUnits="userSpaceOnUse">
<stop stop-color="white" stop-opacity="0.35"/>
<stop offset="1" stop-color="white" stop-opacity="0"/>
</linearGradient>
<linearGradient id="paint16_linear_1123_161" x1="28.5" y1="178.276" x2="206.031" y2="2.83199" gradientUnits="userSpaceOnUse">
<stop stop-color="white" stop-opacity="0.35"/>
<stop offset="1" stop-color="white" stop-opacity="0"/>
</linearGradient>
<linearGradient id="paint17_linear_1123_161" x1="28.5" y1="178.276" x2="206.031" y2="2.83199" gradientUnits="userSpaceOnUse">
<stop stop-color="white" stop-opacity="0.35"/>
<stop offset="1" stop-color="white" stop-opacity="0"/>
</linearGradient>
<linearGradient id="paint18_linear_1123_161" x1="28.5" y1="178.276" x2="206.031" y2="2.83199" gradientUnits="userSpaceOnUse">
<stop stop-color="white" stop-opacity="0.35"/>
<stop offset="1" stop-color="white" stop-opacity="0"/>
</linearGradient>
<linearGradient id="paint19_linear_1123_161" x1="28.5" y1="178.276" x2="206.031" y2="2.83199" gradientUnits="userSpaceOnUse">
<stop stop-color="white" stop-opacity="0.35"/>
<stop offset="1" stop-color="white" stop-opacity="0"/>
</linearGradient>
<linearGradient id="paint20_linear_1123_161" x1="28.5" y1="178.276" x2="206.031" y2="2.83199" gradientUnits="userSpaceOnUse">
<stop stop-color="white" stop-opacity="0.35"/>
<stop offset="1" stop-color="white" stop-opacity="0"/>
</linearGradient>
<linearGradient id="paint21_linear_1123_161" x1="28.5" y1="178.276" x2="206.031" y2="2.83199" gradientUnits="userSpaceOnUse">
<stop stop-color="white" stop-opacity="0.35"/>
<stop offset="1" stop-color="white" stop-opacity="0"/>
</linearGradient>
<linearGradient id="paint22_linear_1123_161" x1="28.5" y1="178.276" x2="206.031" y2="2.83199" gradientUnits="userSpaceOnUse">
<stop stop-color="white" stop-opacity="0.35"/>
<stop offset="1" stop-color="white" stop-opacity="0"/>
</linearGradient>
<linearGradient id="paint23_linear_1123_161" x1="28.5" y1="178.276" x2="206.031" y2="2.83199" gradientUnits="userSpaceOnUse">
<stop stop-color="white" stop-opacity="0.35"/>
<stop offset="1" stop-color="white" stop-opacity="0"/>
</linearGradient>
<linearGradient id="paint24_linear_1123_161" x1="28.5" y1="178.276" x2="206.031" y2="2.83199" gradientUnits="userSpaceOnUse">
<stop stop-color="white" stop-opacity="0.35"/>
<stop offset="1" stop-color="white" stop-opacity="0"/>
</linearGradient>
<linearGradient id="paint25_linear_1123_161" x1="28.5" y1="178.276" x2="206.031" y2="2.83199" gradientUnits="userSpaceOnUse">
<stop stop-color="white" stop-opacity="0.35"/>
<stop offset="1" stop-color="white" stop-opacity="0"/>
</linearGradient>
<linearGradient id="paint26_linear_1123_161" x1="28.5" y1="178.276" x2="206.031" y2="2.83199" gradientUnits="userSpaceOnUse">
<stop stop-color="white" stop-opacity="0.35"/>
<stop offset="1" stop-color="white" stop-opacity="0"/>
</linearGradient>
<linearGradient id="paint27_linear_1123_161" x1="28.5" y1="178.276" x2="206.031" y2="2.83199" gradientUnits="userSpaceOnUse">
<stop stop-color="white" stop-opacity="0.35"/>
<stop offset="1" stop-color="white" stop-opacity="0"/>
</linearGradient>
<linearGradient id="paint28_linear_1123_161" x1="28.5" y1="178.276" x2="206.031" y2="2.83199" gradientUnits="userSpaceOnUse">
<stop stop-color="white" stop-opacity="0.35"/>
<stop offset="1" stop-color="white" stop-opacity="0"/>
</linearGradient>
<linearGradient id="paint29_linear_1123_161" x1="28.5" y1="178.276" x2="206.031" y2="2.83199" gradientUnits="userSpaceOnUse">
<stop stop-color="white" stop-opacity="0.35"/>
<stop offset="1" stop-color="white" stop-opacity="0"/>
</linearGradient>
<linearGradient id="paint30_linear_1123_161" x1="28.5" y1="178.276" x2="206.031" y2="2.83199" gradientUnits="userSpaceOnUse">
<stop stop-color="white" stop-opacity="0.35"/>
<stop offset="1" stop-color="white" stop-opacity="0"/>
</linearGradient>
<linearGradient id="paint31_linear_1123_161" x1="28.5" y1="178.276" x2="206.031" y2="2.83199" gradientUnits="userSpaceOnUse">
<stop stop-color="white" stop-opacity="0.35"/>
<stop offset="1" stop-color="white" stop-opacity="0"/>
</linearGradient>
<linearGradient id="paint32_linear_1123_161" x1="28.5" y1="178.276" x2="206.031" y2="2.83199" gradientUnits="userSpaceOnUse">
<stop stop-color="white" stop-opacity="0.35"/>
<stop offset="1" stop-color="white" stop-opacity="0"/>
</linearGradient>
<linearGradient id="paint33_linear_1123_161" x1="28.5" y1="178.276" x2="206.031" y2="2.83199" gradientUnits="userSpaceOnUse">
<stop stop-color="white" stop-opacity="0.35"/>
<stop offset="1" stop-color="white" stop-opacity="0"/>
</linearGradient>
<linearGradient id="paint34_linear_1123_161" x1="28.5" y1="178.276" x2="206.031" y2="2.83199" gradientUnits="userSpaceOnUse">
<stop stop-color="white" stop-opacity="0.35"/>
<stop offset="1" stop-color="white" stop-opacity="0"/>
</linearGradient>
<linearGradient id="paint35_linear_1123_161" x1="28.5" y1="178.276" x2="206.031" y2="2.83199" gradientUnits="userSpaceOnUse">
<stop stop-color="white" stop-opacity="0.35"/>
<stop offset="1" stop-color="white" stop-opacity="0"/>
</linearGradient>
<linearGradient id="paint36_linear_1123_161" x1="28.5" y1="178.276" x2="206.031" y2="2.83199" gradientUnits="userSpaceOnUse">
<stop stop-color="white" stop-opacity="0.35"/>
<stop offset="1" stop-color="white" stop-opacity="0"/>
</linearGradient>
<linearGradient id="paint37_linear_1123_161" x1="28.5" y1="178.276" x2="206.031" y2="2.83199" gradientUnits="userSpaceOnUse">
<stop stop-color="white" stop-opacity="0.35"/>
<stop offset="1" stop-color="white" stop-opacity="0"/>
</linearGradient>
<linearGradient id="paint38_linear_1123_161" x1="28.5" y1="178.276" x2="206.031" y2="2.83199" gradientUnits="userSpaceOnUse">
<stop stop-color="white" stop-opacity="0.35"/>
<stop offset="1" stop-color="white" stop-opacity="0"/>
</linearGradient>
<linearGradient id="paint39_linear_1123_161" x1="28.5" y1="178.276" x2="206.031" y2="2.83199" gradientUnits="userSpaceOnUse">
<stop stop-color="white" stop-opacity="0.35"/>
<stop offset="1" stop-color="white" stop-opacity="0"/>
</linearGradient>
<linearGradient id="paint40_linear_1123_161" x1="28.5" y1="178.276" x2="206.031" y2="2.83199" gradientUnits="userSpaceOnUse">
<stop stop-color="white" stop-opacity="0.35"/>
<stop offset="1" stop-color="white" stop-opacity="0"/>
</linearGradient>
<linearGradient id="paint41_linear_1123_161" x1="28.5" y1="178.276" x2="206.031" y2="2.83199" gradientUnits="userSpaceOnUse">
<stop stop-color="white" stop-opacity="0.35"/>
<stop offset="1" stop-color="white" stop-opacity="0"/>
</linearGradient>
<linearGradient id="paint42_linear_1123_161" x1="28.5" y1="178.276" x2="206.031" y2="2.83199" gradientUnits="userSpaceOnUse">
<stop stop-color="white" stop-opacity="0.35"/>
<stop offset="1" stop-color="white" stop-opacity="0"/>
</linearGradient>
<linearGradient id="paint43_linear_1123_161" x1="28.5" y1="178.276" x2="206.031" y2="2.83199" gradientUnits="userSpaceOnUse">
<stop stop-color="white" stop-opacity="0.35"/>
<stop offset="1" stop-color="white" stop-opacity="0"/>
</linearGradient>
<linearGradient id="paint44_linear_1123_161" x1="28.5" y1="178.276" x2="206.031" y2="2.83199" gradientUnits="userSpaceOnUse">
<stop stop-color="white" stop-opacity="0.35"/>
<stop offset="1" stop-color="white" stop-opacity="0"/>
</linearGradient>
<linearGradient id="paint45_linear_1123_161" x1="28.5" y1="178.276" x2="206.031" y2="2.83199" gradientUnits="userSpaceOnUse">
<stop stop-color="white" stop-opacity="0.35"/>
<stop offset="1" stop-color="white" stop-opacity="0"/>
</linearGradient>
<linearGradient id="paint46_linear_1123_161" x1="28.5" y1="178.276" x2="206.031" y2="2.83199" gradientUnits="userSpaceOnUse">
<stop stop-color="white" stop-opacity="0.35"/>
<stop offset="1" stop-color="white" stop-opacity="0"/>
</linearGradient>
<linearGradient id="paint47_linear_1123_161" x1="28.5" y1="178.276" x2="206.031" y2="2.83199" gradientUnits="userSpaceOnUse">
<stop stop-color="white" stop-opacity="0.35"/>
<stop offset="1" stop-color="white" stop-opacity="0"/>
</linearGradient>
<linearGradient id="paint48_linear_1123_161" x1="28.5" y1="178.276" x2="206.031" y2="2.83199" gradientUnits="userSpaceOnUse">
<stop stop-color="white" stop-opacity="0.35"/>
<stop offset="1" stop-color="white" stop-opacity="0"/>
</linearGradient>
<linearGradient id="paint49_linear_1123_161" x1="28.5" y1="178.276" x2="206.031" y2="2.83199" gradientUnits="userSpaceOnUse">
<stop stop-color="white" stop-opacity="0.35"/>
<stop offset="1" stop-color="white" stop-opacity="0"/>
</linearGradient>
<linearGradient id="paint50_linear_1123_161" x1="28.5" y1="178.276" x2="206.031" y2="2.83199" gradientUnits="userSpaceOnUse">
<stop stop-color="white" stop-opacity="0.35"/>
<stop offset="1" stop-color="white" stop-opacity="0"/>
</linearGradient>
<linearGradient id="paint51_linear_1123_161" x1="28.5" y1="178.276" x2="206.031" y2="2.83199" gradientUnits="userSpaceOnUse">
<stop stop-color="white" stop-opacity="0.35"/>
<stop offset="1" stop-color="white" stop-opacity="0"/>
</linearGradient>
<linearGradient id="paint52_linear_1123_161" x1="28.5" y1="178.276" x2="206.031" y2="2.83199" gradientUnits="userSpaceOnUse">
<stop stop-color="white" stop-opacity="0.35"/>
<stop offset="1" stop-color="white" stop-opacity="0"/>
</linearGradient>
<linearGradient id="paint53_linear_1123_161" x1="28.5" y1="178.276" x2="206.031" y2="2.83199" gradientUnits="userSpaceOnUse">
<stop stop-color="white" stop-opacity="0.35"/>
<stop offset="1" stop-color="white" stop-opacity="0"/>
</linearGradient>
<linearGradient id="paint54_linear_1123_161" x1="28.5" y1="178.276" x2="206.031" y2="2.83199" gradientUnits="userSpaceOnUse">
<stop stop-color="white" stop-opacity="0.35"/>
<stop offset="1" stop-color="white" stop-opacity="0"/>
</linearGradient>
<linearGradient id="paint55_linear_1123_161" x1="28.5" y1="178.276" x2="206.031" y2="2.83199" gradientUnits="userSpaceOnUse">
<stop stop-color="white" stop-opacity="0.35"/>
<stop offset="1" stop-color="white" stop-opacity="0"/>
</linearGradient>
<linearGradient id="paint56_linear_1123_161" x1="28.5" y1="178.276" x2="206.031" y2="2.83199" gradientUnits="userSpaceOnUse">
<stop stop-color="white" stop-opacity="0.35"/>
<stop offset="1" stop-color="white" stop-opacity="0"/>
</linearGradient>
<linearGradient id="paint57_linear_1123_161" x1="28.5" y1="178.276" x2="206.031" y2="2.83199" gradientUnits="userSpaceOnUse">
<stop stop-color="white" stop-opacity="0.35"/>
<stop offset="1" stop-color="white" stop-opacity="0"/>
</linearGradient>
<linearGradient id="paint58_linear_1123_161" x1="28.5" y1="178.276" x2="206.031" y2="2.83199" gradientUnits="userSpaceOnUse">
<stop stop-color="white" stop-opacity="0.35"/>
<stop offset="1" stop-color="white" stop-opacity="0"/>
</linearGradient>
<linearGradient id="paint59_linear_1123_161" x1="28.5" y1="178.276" x2="206.031" y2="2.83199" gradientUnits="userSpaceOnUse">
<stop stop-color="white" stop-opacity="0.35"/>
<stop offset="1" stop-color="white" stop-opacity="0"/>
</linearGradient>
<linearGradient id="paint60_linear_1123_161" x1="28.5" y1="178.276" x2="206.031" y2="2.83199" gradientUnits="userSpaceOnUse">
<stop stop-color="white" stop-opacity="0.35"/>
<stop offset="1" stop-color="white" stop-opacity="0"/>
</linearGradient>
<linearGradient id="paint61_linear_1123_161" x1="28.5" y1="178.276" x2="206.031" y2="2.83199" gradientUnits="userSpaceOnUse">
<stop stop-color="white" stop-opacity="0.35"/>
<stop offset="1" stop-color="white" stop-opacity="0"/>
</linearGradient>
<linearGradient id="paint62_linear_1123_161" x1="28.5" y1="178.276" x2="206.031" y2="2.83199" gradientUnits="userSpaceOnUse">
<stop stop-color="white" stop-opacity="0.35"/>
<stop offset="1" stop-color="white" stop-opacity="0"/>
</linearGradient>
<linearGradient id="paint63_linear_1123_161" x1="28.5" y1="178.276" x2="206.031" y2="2.83199" gradientUnits="userSpaceOnUse">
<stop stop-color="white" stop-opacity="0.35"/>
<stop offset="1" stop-color="white" stop-opacity="0"/>
</linearGradient>
<linearGradient id="paint64_linear_1123_161" x1="28.5" y1="178.276" x2="206.031" y2="2.83199" gradientUnits="userSpaceOnUse">
<stop stop-color="white" stop-opacity="0.35"/>
<stop offset="1" stop-color="white" stop-opacity="0"/>
</linearGradient>
<linearGradient id="paint65_linear_1123_161" x1="28.5" y1="178.276" x2="206.031" y2="2.83199" gradientUnits="userSpaceOnUse">
<stop stop-color="white" stop-opacity="0.35"/>
<stop offset="1" stop-color="white" stop-opacity="0"/>
</linearGradient>
<linearGradient id="paint66_linear_1123_161" x1="28.5" y1="178.276" x2="206.031" y2="2.83199" gradientUnits="userSpaceOnUse">
<stop stop-color="white" stop-opacity="0.35"/>
<stop offset="1" stop-color="white" stop-opacity="0"/>
</linearGradient>
<linearGradient id="paint67_linear_1123_161" x1="28.5" y1="178.276" x2="206.031" y2="2.83199" gradientUnits="userSpaceOnUse">
<stop stop-color="white" stop-opacity="0.35"/>
<stop offset="1" stop-color="white" stop-opacity="0"/>
</linearGradient>
<linearGradient id="paint68_linear_1123_161" x1="28.5" y1="178.276" x2="206.031" y2="2.83199" gradientUnits="userSpaceOnUse">
<stop stop-color="white" stop-opacity="0.35"/>
<stop offset="1" stop-color="white" stop-opacity="0"/>
</linearGradient>
<linearGradient id="paint69_linear_1123_161" x1="28.5" y1="178.276" x2="206.031" y2="2.83199" gradientUnits="userSpaceOnUse">
<stop stop-color="white" stop-opacity="0.35"/>
<stop offset="1" stop-color="white" stop-opacity="0"/>
</linearGradient>
<linearGradient id="paint70_linear_1123_161" x1="28.5" y1="178.276" x2="206.031" y2="2.83199" gradientUnits="userSpaceOnUse">
<stop stop-color="white" stop-opacity="0.35"/>
<stop offset="1" stop-color="white" stop-opacity="0"/>
</linearGradient>
<linearGradient id="paint71_linear_1123_161" x1="28.5" y1="178.276" x2="206.031" y2="2.83199" gradientUnits="userSpaceOnUse">
<stop stop-color="white" stop-opacity="0.35"/>
<stop offset="1" stop-color="white" stop-opacity="0"/>
</linearGradient>
<linearGradient id="paint72_linear_1123_161" x1="28.5" y1="178.276" x2="206.031" y2="2.83199" gradientUnits="userSpaceOnUse">
<stop stop-color="white" stop-opacity="0.35"/>
<stop offset="1" stop-color="white" stop-opacity="0"/>
</linearGradient>
<linearGradient id="paint73_linear_1123_161" x1="28.5" y1="178.276" x2="206.031" y2="2.83199" gradientUnits="userSpaceOnUse">
<stop stop-color="white" stop-opacity="0.35"/>
<stop offset="1" stop-color="white" stop-opacity="0"/>
</linearGradient>
<linearGradient id="paint74_linear_1123_161" x1="28.5" y1="178.276" x2="206.031" y2="2.83199" gradientUnits="userSpaceOnUse">
<stop stop-color="white" stop-opacity="0.35"/>
<stop offset="1" stop-color="white" stop-opacity="0"/>
</linearGradient>
<linearGradient id="paint75_linear_1123_161" x1="28.5" y1="178.276" x2="206.031" y2="2.83199" gradientUnits="userSpaceOnUse">
<stop stop-color="white" stop-opacity="0.35"/>
<stop offset="1" stop-color="white" stop-opacity="0"/>
</linearGradient>
<linearGradient id="paint76_linear_1123_161" x1="28.5" y1="178.276" x2="206.031" y2="2.83199" gradientUnits="userSpaceOnUse">
<stop stop-color="white" stop-opacity="0.35"/>
<stop offset="1" stop-color="white" stop-opacity="0"/>
</linearGradient>
<linearGradient id="paint77_linear_1123_161" x1="28.5" y1="178.276" x2="206.031" y2="2.83199" gradientUnits="userSpaceOnUse">
<stop stop-color="white" stop-opacity="0.35"/>
<stop offset="1" stop-color="white" stop-opacity="0"/>
</linearGradient>
<linearGradient id="paint78_linear_1123_161" x1="28.5" y1="178.276" x2="206.031" y2="2.83199" gradientUnits="userSpaceOnUse">
<stop stop-color="white" stop-opacity="0.35"/>
<stop offset="1" stop-color="white" stop-opacity="0"/>
</linearGradient>
<linearGradient id="paint79_linear_1123_161" x1="28.5" y1="178.276" x2="206.031" y2="2.83199" gradientUnits="userSpaceOnUse">
<stop stop-color="white" stop-opacity="0.35"/>
<stop offset="1" stop-color="white" stop-opacity="0"/>
</linearGradient>
<linearGradient id="paint80_linear_1123_161" x1="28.5" y1="178.276" x2="206.031" y2="2.83199" gradientUnits="userSpaceOnUse">
<stop stop-color="white" stop-opacity="0.35"/>
<stop offset="1" stop-color="white" stop-opacity="0"/>
</linearGradient>
<linearGradient id="paint81_linear_1123_161" x1="28.5" y1="178.276" x2="206.031" y2="2.83199" gradientUnits="userSpaceOnUse">
<stop stop-color="white" stop-opacity="0.35"/>
<stop offset="1" stop-color="white" stop-opacity="0"/>
</linearGradient>
<linearGradient id="paint82_linear_1123_161" x1="28.5" y1="178.276" x2="206.031" y2="2.83199" gradientUnits="userSpaceOnUse">
<stop stop-color="white" stop-opacity="0.35"/>
<stop offset="1" stop-color="white" stop-opacity="0"/>
</linearGradient>
<linearGradient id="paint83_linear_1123_161" x1="28.5" y1="178.276" x2="206.031" y2="2.83199" gradientUnits="userSpaceOnUse">
<stop stop-color="white" stop-opacity="0.35"/>
<stop offset="1" stop-color="white" stop-opacity="0"/>
</linearGradient>
<linearGradient id="paint84_linear_1123_161" x1="28.5" y1="178.276" x2="206.031" y2="2.83199" gradientUnits="userSpaceOnUse">
<stop stop-color="white" stop-opacity="0.35"/>
<stop offset="1" stop-color="white" stop-opacity="0"/>
</linearGradient>
<linearGradient id="paint85_linear_1123_161" x1="28.5" y1="178.276" x2="206.031" y2="2.83199" gradientUnits="userSpaceOnUse">
<stop stop-color="white" stop-opacity="0.35"/>
<stop offset="1" stop-color="white" stop-opacity="0"/>
</linearGradient>
<linearGradient id="paint86_linear_1123_161" x1="28.5" y1="178.276" x2="206.031" y2="2.83199" gradientUnits="userSpaceOnUse">
<stop stop-color="white" stop-opacity="0.35"/>
<stop offset="1" stop-color="white" stop-opacity="0"/>
</linearGradient>
<linearGradient id="paint87_linear_1123_161" x1="28.5" y1="178.276" x2="206.031" y2="2.83199" gradientUnits="userSpaceOnUse">
<stop stop-color="white" stop-opacity="0.35"/>
<stop offset="1" stop-color="white" stop-opacity="0"/>
</linearGradient>
<linearGradient id="paint88_linear_1123_161" x1="28.5" y1="178.276" x2="206.031" y2="2.83199" gradientUnits="userSpaceOnUse">
<stop stop-color="white" stop-opacity="0.35"/>
<stop offset="1" stop-color="white" stop-opacity="0"/>
</linearGradient>
<linearGradient id="paint89_linear_1123_161" x1="28.5" y1="178.276" x2="206.031" y2="2.83199" gradientUnits="userSpaceOnUse">
<stop stop-color="white" stop-opacity="0.35"/>
<stop offset="1" stop-color="white" stop-opacity="0"/>
</linearGradient>
<linearGradient id="paint90_linear_1123_161" x1="28.5" y1="178.276" x2="206.031" y2="2.83199" gradientUnits="userSpaceOnUse">
<stop stop-color="white" stop-opacity="0.35"/>
<stop offset="1" stop-color="white" stop-opacity="0"/>
</linearGradient>
<linearGradient id="paint91_linear_1123_161" x1="28.5" y1="178.276" x2="206.031" y2="2.83199" gradientUnits="userSpaceOnUse">
<stop stop-color="white" stop-opacity="0.35"/>
<stop offset="1" stop-color="white" stop-opacity="0"/>
</linearGradient>
<linearGradient id="paint92_linear_1123_161" x1="28.5" y1="178.276" x2="206.031" y2="2.83199" gradientUnits="userSpaceOnUse">
<stop stop-color="white" stop-opacity="0.35"/>
<stop offset="1" stop-color="white" stop-opacity="0"/>
</linearGradient>
<linearGradient id="paint93_linear_1123_161" x1="28.5" y1="178.276" x2="206.031" y2="2.83199" gradientUnits="userSpaceOnUse">
<stop stop-color="white" stop-opacity="0.35"/>
<stop offset="1" stop-color="white" stop-opacity="0"/>
</linearGradient>
<linearGradient id="paint94_linear_1123_161" x1="28.5" y1="178.276" x2="206.031" y2="2.83199" gradientUnits="userSpaceOnUse">
<stop stop-color="white" stop-opacity="0.35"/>
<stop offset="1" stop-color="white" stop-opacity="0"/>
</linearGradient>
<linearGradient id="paint95_linear_1123_161" x1="28.5" y1="178.276" x2="206.031" y2="2.83199" gradientUnits="userSpaceOnUse">
<stop stop-color="white" stop-opacity="0.35"/>
<stop offset="1" stop-color="white" stop-opacity="0"/>
</linearGradient>
<linearGradient id="paint96_linear_1123_161" x1="28.5" y1="178.276" x2="206.031" y2="2.83199" gradientUnits="userSpaceOnUse">
<stop stop-color="white" stop-opacity="0.35"/>
<stop offset="1" stop-color="white" stop-opacity="0"/>
</linearGradient>
<linearGradient id="paint97_linear_1123_161" x1="28.5" y1="178.276" x2="206.031" y2="2.83199" gradientUnits="userSpaceOnUse">
<stop stop-color="white" stop-opacity="0.35"/>
<stop offset="1" stop-color="white" stop-opacity="0"/>
</linearGradient>
<linearGradient id="paint98_linear_1123_161" x1="28.5" y1="178.276" x2="206.031" y2="2.83199" gradientUnits="userSpaceOnUse">
<stop stop-color="white" stop-opacity="0.35"/>
<stop offset="1" stop-color="white" stop-opacity="0"/>
</linearGradient>
<linearGradient id="paint99_linear_1123_161" x1="28.5" y1="178.276" x2="206.031" y2="2.83199" gradientUnits="userSpaceOnUse">
<stop stop-color="white" stop-opacity="0.35"/>
<stop offset="1" stop-color="white" stop-opacity="0"/>
</linearGradient>
</defs>
</svg>
