<svg width="776" height="780" viewBox="0 0 776 780" fill="none" xmlns="http://www.w3.org/2000/svg">
<path d="M631.85 580.177L619.292 580.001C528.373 578.726 472.147 480.391 517.165 401.389L523.635 390.036C565.95 315.779 512.696 223.429 427.231 222.856L397.342 222.656C335.506 222.241 292.342 161.238 312.529 102.787V102.787" stroke="url(#paint0_linear_1129_238)" stroke-width="0.653416"/>
<path d="M617.416 588.508L604.858 588.332C513.939 587.057 457.713 488.722 502.732 409.72L509.202 398.367C551.516 324.11 498.262 231.76 412.797 231.187L382.909 230.987C321.072 230.573 277.908 169.569 298.095 111.118V111.118" stroke="url(#paint1_linear_1129_238)" stroke-width="0.653416"/>
<path d="M602.979 596.858L590.421 596.682C499.502 595.406 443.276 497.072 488.294 418.07L494.764 406.716C537.079 332.46 483.824 240.109 398.36 239.537L368.471 239.336C306.634 238.922 263.471 177.918 283.658 119.468V119.468" stroke="url(#paint2_linear_1129_238)" stroke-width="0.653416"/>
<path d="M588.537 605.184L575.98 605.008C485.06 603.732 428.834 505.398 473.853 426.396L480.323 415.042C522.637 340.786 469.383 248.435 383.918 247.863L354.03 247.663C292.193 247.248 249.029 186.244 269.216 127.794V127.794" stroke="url(#paint3_linear_1129_238)" stroke-width="0.653416"/>
<path d="M574.1 613.515L561.542 613.339C470.623 612.063 414.397 513.729 459.415 434.727L465.885 423.373C508.2 349.117 454.946 256.766 369.481 256.194L339.592 255.994C277.756 255.579 234.592 194.575 254.779 136.125V136.125" stroke="url(#paint4_linear_1129_238)" stroke-width="0.653416"/>
<path d="M559.662 621.864L547.105 621.687C456.185 620.412 399.959 522.077 444.978 443.076L451.448 431.722C493.762 357.466 440.508 265.115 355.043 264.543L325.155 264.342C263.318 263.928 220.154 202.924 240.341 144.473V144.473" stroke="url(#paint5_linear_1129_238)" stroke-width="0.653416"/>
<path d="M545.221 630.191L532.663 630.015C441.744 628.739 385.518 530.405 430.537 451.403L437.006 440.049C479.321 365.793 426.067 273.442 340.602 272.87L310.714 272.669C248.877 272.255 205.713 211.251 225.9 152.801V152.801" stroke="url(#paint6_linear_1129_238)" stroke-width="0.653416"/>
<path d="M530.955 638.441L518.397 638.265C427.478 636.989 371.252 538.655 416.271 459.653L422.741 448.299C465.055 374.043 411.801 281.692 326.336 281.12L296.448 280.919C234.611 280.505 191.447 219.501 211.634 161.051V161.051" stroke="url(#paint7_linear_1129_238)" stroke-width="0.653416"/>
<path d="M516.861 646.576L504.304 646.4C413.384 645.125 357.159 546.79 402.177 467.789L408.647 456.435C450.961 382.179 397.707 289.828 312.243 289.255L282.354 289.055C220.517 288.641 177.354 227.637 197.54 169.186V169.186" stroke="url(#paint8_linear_1129_238)" stroke-width="0.653416"/>
<path d="M502.764 654.707L490.206 654.531C399.287 653.256 343.061 554.921 388.08 475.919L394.549 464.566C436.864 390.309 383.61 297.959 298.145 297.386L268.257 297.186C206.42 296.772 163.256 235.768 183.443 177.317V177.317" stroke="url(#paint9_linear_1129_238)" stroke-width="0.653416"/>
<path d="M488.666 662.838L476.108 662.662C385.189 661.387 328.963 563.052 373.982 484.05L380.452 472.697C422.766 398.44 369.512 306.09 284.047 305.517L254.159 305.317C192.322 304.903 149.158 243.899 169.345 185.448V185.448" stroke="url(#paint10_linear_1129_238)" stroke-width="0.653416"/>
<path d="M474.572 670.993L462.015 670.816C371.095 669.541 314.87 571.206 359.888 492.205L366.358 480.851C408.672 406.595 355.418 314.244 269.954 313.671L240.065 313.471C178.228 313.057 135.065 252.053 155.251 193.602V193.602" stroke="url(#paint11_linear_1129_238)" stroke-width="0.653416"/>
<path d="M460.475 679.123L447.917 678.947C356.998 677.672 300.772 579.337 345.79 500.335L352.26 488.982C394.575 414.725 341.321 322.375 255.856 321.802L225.967 321.602C164.131 321.188 120.967 260.184 141.154 201.733V201.733" stroke="url(#paint12_linear_1129_238)" stroke-width="0.653416"/>
<path d="M446.377 687.255L433.819 687.079C342.9 685.804 286.674 587.469 331.693 508.467L338.163 497.114C380.477 422.857 327.223 330.507 241.758 329.934L211.87 329.734C150.033 329.32 106.869 268.316 127.056 209.865V209.865" stroke="url(#paint13_linear_1129_238)" stroke-width="0.653416"/>
<defs>
<linearGradient id="paint0_linear_1129_238" x1="314.762" y1="104.534" x2="631.762" y2="575.034" gradientUnits="userSpaceOnUse">
<stop stop-color="white" stop-opacity="0.32"/>
<stop offset="1" stop-color="white" stop-opacity="0"/>
</linearGradient>
<linearGradient id="paint1_linear_1129_238" x1="300.329" y1="112.865" x2="617.329" y2="583.365" gradientUnits="userSpaceOnUse">
<stop stop-color="white" stop-opacity="0.32"/>
<stop offset="1" stop-color="white" stop-opacity="0"/>
</linearGradient>
<linearGradient id="paint2_linear_1129_238" x1="285.891" y1="121.215" x2="602.891" y2="591.715" gradientUnits="userSpaceOnUse">
<stop stop-color="white" stop-opacity="0.32"/>
<stop offset="1" stop-color="white" stop-opacity="0"/>
</linearGradient>
<linearGradient id="paint3_linear_1129_238" x1="271.45" y1="129.541" x2="588.45" y2="600.041" gradientUnits="userSpaceOnUse">
<stop stop-color="white" stop-opacity="0.32"/>
<stop offset="1" stop-color="white" stop-opacity="0"/>
</linearGradient>
<linearGradient id="paint4_linear_1129_238" x1="257.012" y1="137.872" x2="574.012" y2="608.372" gradientUnits="userSpaceOnUse">
<stop stop-color="white" stop-opacity="0.32"/>
<stop offset="1" stop-color="white" stop-opacity="0"/>
</linearGradient>
<linearGradient id="paint5_linear_1129_238" x1="242.575" y1="146.221" x2="559.575" y2="616.721" gradientUnits="userSpaceOnUse">
<stop stop-color="white" stop-opacity="0.32"/>
<stop offset="1" stop-color="white" stop-opacity="0"/>
</linearGradient>
<linearGradient id="paint6_linear_1129_238" x1="228.133" y1="154.548" x2="545.133" y2="625.048" gradientUnits="userSpaceOnUse">
<stop stop-color="white" stop-opacity="0.32"/>
<stop offset="1" stop-color="white" stop-opacity="0"/>
</linearGradient>
<linearGradient id="paint7_linear_1129_238" x1="213.868" y1="162.798" x2="530.868" y2="633.298" gradientUnits="userSpaceOnUse">
<stop stop-color="white" stop-opacity="0.32"/>
<stop offset="1" stop-color="white" stop-opacity="0"/>
</linearGradient>
<linearGradient id="paint8_linear_1129_238" x1="199.774" y1="170.934" x2="516.774" y2="641.434" gradientUnits="userSpaceOnUse">
<stop stop-color="white" stop-opacity="0.32"/>
<stop offset="1" stop-color="white" stop-opacity="0"/>
</linearGradient>
<linearGradient id="paint9_linear_1129_238" x1="185.676" y1="179.065" x2="502.676" y2="649.565" gradientUnits="userSpaceOnUse">
<stop stop-color="white" stop-opacity="0.32"/>
<stop offset="1" stop-color="white" stop-opacity="0"/>
</linearGradient>
<linearGradient id="paint10_linear_1129_238" x1="171.579" y1="187.196" x2="488.579" y2="657.696" gradientUnits="userSpaceOnUse">
<stop stop-color="white" stop-opacity="0.32"/>
<stop offset="1" stop-color="white" stop-opacity="0"/>
</linearGradient>
<linearGradient id="paint11_linear_1129_238" x1="157.485" y1="195.35" x2="474.485" y2="665.85" gradientUnits="userSpaceOnUse">
<stop stop-color="white" stop-opacity="0.32"/>
<stop offset="1" stop-color="white" stop-opacity="0"/>
</linearGradient>
<linearGradient id="paint12_linear_1129_238" x1="143.387" y1="203.481" x2="460.387" y2="673.981" gradientUnits="userSpaceOnUse">
<stop stop-color="white" stop-opacity="0.32"/>
<stop offset="1" stop-color="white" stop-opacity="0"/>
</linearGradient>
<linearGradient id="paint13_linear_1129_238" x1="129.29" y1="211.613" x2="446.29" y2="682.113" gradientUnits="userSpaceOnUse">
<stop stop-color="white" stop-opacity="0.32"/>
<stop offset="1" stop-color="white" stop-opacity="0"/>
</linearGradient>
</defs>
</svg>
