<svg width="779" height="777" viewBox="0 0 779 777" fill="none" xmlns="http://www.w3.org/2000/svg">
<path d="M199.356 632.366L199.533 619.808C200.808 528.889 299.142 472.663 378.144 517.682L389.498 524.151C463.754 566.466 556.105 513.212 556.677 427.747L556.878 397.859C557.292 336.022 618.296 292.858 676.747 313.045V313.045" stroke="url(#paint0_linear_1128_195)" stroke-width="0.653416"/>
<path d="M191.025 617.932L191.201 605.375C192.477 514.455 290.811 458.229 369.813 503.248L381.167 509.718C455.423 552.032 547.774 498.778 548.346 413.313L548.547 383.425C548.961 321.588 609.965 278.424 668.415 298.611V298.611" stroke="url(#paint1_linear_1128_195)" stroke-width="0.653416"/>
<path d="M182.676 603.495L182.852 590.937C184.127 500.018 282.462 443.792 361.464 488.811L372.817 495.28C447.074 537.595 539.424 484.341 539.997 398.876L540.197 368.987C540.611 307.151 601.615 263.987 660.066 284.174V284.174" stroke="url(#paint2_linear_1128_195)" stroke-width="0.653416"/>
<path d="M174.35 589.053L174.526 576.496C175.801 485.576 274.136 429.351 353.137 474.369L364.491 480.839C438.747 523.153 531.098 469.899 531.671 384.434L531.871 354.546C532.285 292.709 593.289 249.546 651.74 269.732V269.732" stroke="url(#paint3_linear_1128_195)" stroke-width="0.653416"/>
<path d="M166.018 574.616L166.195 562.058C167.47 471.139 265.805 414.913 344.806 459.932L356.16 466.401C430.416 508.716 522.767 455.462 523.34 369.997L523.54 340.109C523.954 278.272 584.958 235.108 643.409 255.295V255.295" stroke="url(#paint4_linear_1128_195)" stroke-width="0.653416"/>
<path d="M157.67 560.178L157.846 547.621C159.121 456.701 257.456 400.476 336.458 445.494L347.811 451.964C422.068 494.278 514.418 441.024 514.991 355.559L515.191 325.671C515.605 263.834 576.609 220.671 635.06 240.857V240.857" stroke="url(#paint5_linear_1128_195)" stroke-width="0.653416"/>
<path d="M149.343 545.737L149.519 533.179C150.794 442.26 249.129 386.034 328.131 431.053L339.484 437.522C413.741 479.837 506.091 426.583 506.664 341.118L506.864 311.23C507.278 249.393 568.282 206.229 626.733 226.416V226.416" stroke="url(#paint6_linear_1128_195)" stroke-width="0.653416"/>
<path d="M141.093 531.471L141.269 518.914C142.544 427.994 240.879 371.769 319.881 416.787L331.234 423.257C405.491 465.571 497.841 412.317 498.414 326.852L498.614 296.964C499.028 235.127 560.032 191.963 618.483 212.15V212.15" stroke="url(#paint7_linear_1128_195)" stroke-width="0.653416"/>
<path d="M132.957 517.377L133.133 504.82C134.408 413.901 232.743 357.675 311.745 402.693L323.098 409.163C397.355 451.477 489.705 398.223 490.278 312.759L490.478 282.87C490.893 221.033 551.897 177.87 610.347 198.057V198.057" stroke="url(#paint8_linear_1128_195)" stroke-width="0.653416"/>
<path d="M124.826 503.28L125.002 490.722C126.278 399.803 224.612 343.577 303.614 388.596L314.968 395.065C389.224 437.38 481.575 384.126 482.147 298.661L482.347 268.773C482.762 206.936 543.766 163.772 602.216 183.959V183.959" stroke="url(#paint9_linear_1128_195)" stroke-width="0.653416"/>
<path d="M116.695 489.182L116.871 476.624C118.146 385.705 216.481 329.479 295.483 374.498L306.836 380.968C381.093 423.282 473.443 370.028 474.016 284.563L474.216 254.675C474.631 192.838 535.635 149.674 594.085 169.861V169.861" stroke="url(#paint10_linear_1128_195)" stroke-width="0.653416"/>
<path d="M108.541 475.088L108.717 462.531C109.992 371.611 208.327 315.386 287.329 360.404L298.682 366.874C372.939 409.188 465.289 355.934 465.862 270.47L466.062 240.581C466.477 178.744 527.481 135.581 585.931 155.767V155.767" stroke="url(#paint11_linear_1128_195)" stroke-width="0.653416"/>
<path d="M100.41 460.991L100.586 448.433C101.862 357.514 200.196 301.288 279.198 346.307L290.552 352.776C364.808 395.091 457.159 341.837 457.731 256.372L457.931 226.484C458.346 164.647 519.35 121.483 577.8 141.67V141.67" stroke="url(#paint12_linear_1128_195)" stroke-width="0.653416"/>
<path d="M92.2782 446.893L92.4544 434.335C93.7297 343.416 192.064 287.19 271.066 332.209L282.42 338.679C356.676 380.993 449.027 327.739 449.599 242.274L449.8 212.386C450.214 150.549 511.218 107.385 569.668 127.572V127.572" stroke="url(#paint13_linear_1128_195)" stroke-width="0.653416"/>
<defs>
<linearGradient id="paint0_linear_1128_195" x1="674.999" y1="315.278" x2="204.499" y2="632.278" gradientUnits="userSpaceOnUse">
<stop stop-color="white" stop-opacity="0.54"/>
<stop offset="1" stop-color="white" stop-opacity="0"/>
</linearGradient>
<linearGradient id="paint1_linear_1128_195" x1="666.668" y1="300.845" x2="196.168" y2="617.845" gradientUnits="userSpaceOnUse">
<stop stop-color="white" stop-opacity="0.54"/>
<stop offset="1" stop-color="white" stop-opacity="0"/>
</linearGradient>
<linearGradient id="paint2_linear_1128_195" x1="658.318" y1="286.407" x2="187.818" y2="603.407" gradientUnits="userSpaceOnUse">
<stop stop-color="white" stop-opacity="0.54"/>
<stop offset="1" stop-color="white" stop-opacity="0"/>
</linearGradient>
<linearGradient id="paint3_linear_1128_195" x1="649.992" y1="271.966" x2="179.492" y2="588.966" gradientUnits="userSpaceOnUse">
<stop stop-color="white" stop-opacity="0.54"/>
<stop offset="1" stop-color="white" stop-opacity="0"/>
</linearGradient>
<linearGradient id="paint4_linear_1128_195" x1="641.661" y1="257.528" x2="171.161" y2="574.528" gradientUnits="userSpaceOnUse">
<stop stop-color="white" stop-opacity="0.54"/>
<stop offset="1" stop-color="white" stop-opacity="0"/>
</linearGradient>
<linearGradient id="paint5_linear_1128_195" x1="633.313" y1="243.091" x2="162.812" y2="560.091" gradientUnits="userSpaceOnUse">
<stop stop-color="white" stop-opacity="0.54"/>
<stop offset="1" stop-color="white" stop-opacity="0"/>
</linearGradient>
<linearGradient id="paint6_linear_1128_195" x1="624.985" y1="228.649" x2="154.485" y2="545.649" gradientUnits="userSpaceOnUse">
<stop stop-color="white" stop-opacity="0.54"/>
<stop offset="1" stop-color="white" stop-opacity="0"/>
</linearGradient>
<linearGradient id="paint7_linear_1128_195" x1="616.735" y1="214.384" x2="146.235" y2="531.384" gradientUnits="userSpaceOnUse">
<stop stop-color="white" stop-opacity="0.54"/>
<stop offset="1" stop-color="white" stop-opacity="0"/>
</linearGradient>
<linearGradient id="paint8_linear_1128_195" x1="608.6" y1="200.29" x2="138.1" y2="517.29" gradientUnits="userSpaceOnUse">
<stop stop-color="white" stop-opacity="0.54"/>
<stop offset="1" stop-color="white" stop-opacity="0"/>
</linearGradient>
<linearGradient id="paint9_linear_1128_195" x1="600.469" y1="186.192" x2="129.969" y2="503.192" gradientUnits="userSpaceOnUse">
<stop stop-color="white" stop-opacity="0.54"/>
<stop offset="1" stop-color="white" stop-opacity="0"/>
</linearGradient>
<linearGradient id="paint10_linear_1128_195" x1="592.338" y1="172.095" x2="121.838" y2="489.095" gradientUnits="userSpaceOnUse">
<stop stop-color="white" stop-opacity="0.54"/>
<stop offset="1" stop-color="white" stop-opacity="0"/>
</linearGradient>
<linearGradient id="paint11_linear_1128_195" x1="584.184" y1="158.001" x2="113.684" y2="475.001" gradientUnits="userSpaceOnUse">
<stop stop-color="white" stop-opacity="0.54"/>
<stop offset="1" stop-color="white" stop-opacity="0"/>
</linearGradient>
<linearGradient id="paint12_linear_1128_195" x1="576.053" y1="143.903" x2="105.553" y2="460.903" gradientUnits="userSpaceOnUse">
<stop stop-color="white" stop-opacity="0.54"/>
<stop offset="1" stop-color="white" stop-opacity="0"/>
</linearGradient>
<linearGradient id="paint13_linear_1128_195" x1="567.921" y1="129.806" x2="97.4209" y2="446.806" gradientUnits="userSpaceOnUse">
<stop stop-color="white" stop-opacity="0.54"/>
<stop offset="1" stop-color="white" stop-opacity="0"/>
</linearGradient>
</defs>
</svg>
